<?xml version="1.0" encoding="UTF-8"?><svg xmlns="http://www.w3.org/2000/svg" viewBox="-400.000 -428.000 5200.000 578.000" width="5200" height="578"><rect x="-400.000" y="-428.000" width="5200.000" height="578.000" fill="white" stroke="none"/><g fill="#e74c3c" fill-opacity="0.450" stroke="#e74c3c" stroke-width="0.500"><rect x="-160.000" y="-110.000" width="160.000" height="220.000" /><rect x="4400.000" y="-110.000" width="160.000" height="220.000" /><rect x="-360.000" y="-110.000" width="200.000" height="20.000" /><rect x="4560.000" y="-110.000" width="200.000" height="20.000" /><rect x="-360.000" y="90.000" width="200.000" height="20.000" /><rect x="4560.000" y="90.000" width="200.000" height="20.000" /><rect x="0.000" y="-110.000" width="4400.000" height="20.000" /><rect x="0.000" y="90.000" width="4400.000" height="20.000" /></g><g fill="#27ae60" fill-opacity="0.450" stroke="#27ae60" stroke-width="0.500"><rect x="200.000" y="-140.000" width="4000.000" height="80.000" /></g><g fill="#f39c12" fill-opacity="0.450" stroke="#f39c12" stroke-width="0.500"><rect x="160.000" y="-340.000" width="80.000" height="80.000" /><rect x="180.000" y="-260.000" width="40.000" height="200.000" /><rect x="4160.000" y="-340.000" width="80.000" height="80.000" /><rect x="4180.000" y="-260.000" width="40.000" height="200.000" /></g><g fill="black" stroke="none"><circle cx="200.000" cy="-300.000" r="1.000" /><circle cx="4200.000" cy="-300.000" r="1.000" /><circle cx="-360.000" cy="-100.000" r="1.000" /><circle cx="-360.000" cy="100.000" r="1.000" /><circle cx="4760.000" cy="-100.000" r="1.000" /><circle cx="4760.000" cy="100.000" r="1.000" /><circle cx="0.000" cy="-100.000" r="1.000" /><circle cx="4400.000" cy="-100.000" r="1.000" /><circle cx="0.000" cy="100.000" r="1.000" /><circle cx="4400.000" cy="100.000" r="1.000" /></g><rect x="-396.000" y="-424.000" width="130.000" height="44.000" fill="white" stroke="#333" stroke-width="0.5"/><rect x="-392.000" y="-420.000" width="14.000" height="10.000" fill="#e74c3c" stroke="#e74c3c" stroke-width="0.5"/><text x="-374.000" y="-412.000" font-size="9" font-family="sans-serif" fill="#222">WG (1/0)</text><rect x="-392.000" y="-408.000" width="14.000" height="10.000" fill="#27ae60" stroke="#27ae60" stroke-width="0.5"/><text x="-374.000" y="-400.000" font-size="9" font-family="sans-serif" fill="#222">HEATER (47/0)</text><rect x="-392.000" y="-396.000" width="14.000" height="10.000" fill="#f39c12" stroke="#f39c12" stroke-width="0.5"/><text x="-374.000" y="-388.000" font-size="9" font-family="sans-serif" fill="#222">M1 (41/0)</text></svg>