<svg xmlns="http://www.w3.org/2000/svg" width="920" height="480" viewBox="0 0 920 480" font-family="-apple-system, system-ui, sans-serif" font-size="13">
<rect width="100%" height="100%" fill="white"/>
<text text-anchor="middle" x="460" y="20" font-size="15" font-weight="600">|T_through(λ_target)|² over Adam steps</text>
<rect x="80" y="30" width="810" height="390" fill="#fafafa" stroke="#888" stroke-width="0.5"/>
<line x1="80.00" y1="30" x2="80.00" y2="420" stroke="#e0e0e0" stroke-width="0.5"/>
<text x="80.00" y="436" text-anchor="middle" fill="#444">0</text>
<line x1="181.25" y1="30" x2="181.25" y2="420" stroke="#e0e0e0" stroke-width="0.5"/>
<text x="181.25" y="436" text-anchor="middle" fill="#444">500</text>
<line x1="282.50" y1="30" x2="282.50" y2="420" stroke="#e0e0e0" stroke-width="0.5"/>
<text x="282.50" y="436" text-anchor="middle" fill="#444">1000</text>
<line x1="383.75" y1="30" x2="383.75" y2="420" stroke="#e0e0e0" stroke-width="0.5"/>
<text x="383.75" y="436" text-anchor="middle" fill="#444">1500</text>
<line x1="485.00" y1="30" x2="485.00" y2="420" stroke="#e0e0e0" stroke-width="0.5"/>
<text x="485.00" y="436" text-anchor="middle" fill="#444">2000</text>
<line x1="586.25" y1="30" x2="586.25" y2="420" stroke="#e0e0e0" stroke-width="0.5"/>
<text x="586.25" y="436" text-anchor="middle" fill="#444">2500</text>
<line x1="687.50" y1="30" x2="687.50" y2="420" stroke="#e0e0e0" stroke-width="0.5"/>
<text x="687.50" y="436" text-anchor="middle" fill="#444">3000</text>
<line x1="788.75" y1="30" x2="788.75" y2="420" stroke="#e0e0e0" stroke-width="0.5"/>
<text x="788.75" y="436" text-anchor="middle" fill="#444">3500</text>
<line x1="890.00" y1="30" x2="890.00" y2="420" stroke="#e0e0e0" stroke-width="0.5"/>
<text x="890.00" y="436" text-anchor="middle" fill="#444">4000</text>
<text x="485" y="460" text-anchor="middle" fill="#222">step</text>
<text x="20" y="225" text-anchor="middle" fill="#222" transform="rotate(-90 20 225)">loss</text>
<path d="M" fill="none" stroke="#1f77b4" stroke-width="2"/>
</svg>
