<svg xmlns="http://www.w3.org/2000/svg" width="920" height="480" viewBox="0 0 920 480" font-family="-apple-system, system-ui, sans-serif" font-size="13">
<rect width="100%" height="100%" fill="white"/>
<text text-anchor="middle" x="460" y="20" font-size="15" font-weight="600">|T_through(λ)|² — before vs after Adam</text>
<rect x="80" y="30" width="810" height="390" fill="#fafafa" stroke="#888" stroke-width="0.5"/>
<line x1="80.00" y1="30" x2="80.00" y2="420" stroke="#e0e0e0" stroke-width="0.5"/>
<text x="80.00" y="436" text-anchor="middle" fill="#444">1500</text>
<line x1="161.00" y1="30" x2="161.00" y2="420" stroke="#e0e0e0" stroke-width="0.5"/>
<text x="161.00" y="436" text-anchor="middle" fill="#444">1510</text>
<line x1="242.00" y1="30" x2="242.00" y2="420" stroke="#e0e0e0" stroke-width="0.5"/>
<text x="242.00" y="436" text-anchor="middle" fill="#444">1520</text>
<line x1="323.00" y1="30" x2="323.00" y2="420" stroke="#e0e0e0" stroke-width="0.5"/>
<text x="323.00" y="436" text-anchor="middle" fill="#444">1530</text>
<line x1="404.00" y1="30" x2="404.00" y2="420" stroke="#e0e0e0" stroke-width="0.5"/>
<text x="404.00" y="436" text-anchor="middle" fill="#444">1540</text>
<line x1="485.00" y1="30" x2="485.00" y2="420" stroke="#e0e0e0" stroke-width="0.5"/>
<text x="485.00" y="436" text-anchor="middle" fill="#444">1550</text>
<line x1="566.00" y1="30" x2="566.00" y2="420" stroke="#e0e0e0" stroke-width="0.5"/>
<text x="566.00" y="436" text-anchor="middle" fill="#444">1560</text>
<line x1="647.00" y1="30" x2="647.00" y2="420" stroke="#e0e0e0" stroke-width="0.5"/>
<text x="647.00" y="436" text-anchor="middle" fill="#444">1570</text>
<line x1="728.00" y1="30" x2="728.00" y2="420" stroke="#e0e0e0" stroke-width="0.5"/>
<text x="728.00" y="436" text-anchor="middle" fill="#444">1580</text>
<line x1="809.00" y1="30" x2="809.00" y2="420" stroke="#e0e0e0" stroke-width="0.5"/>
<text x="809.00" y="436" text-anchor="middle" fill="#444">1590</text>
<line x1="890.00" y1="30" x2="890.00" y2="420" stroke="#e0e0e0" stroke-width="0.5"/>
<text x="890.00" y="436" text-anchor="middle" fill="#444">1600</text>
<line x1="80" y1="402.27" x2="890" y2="402.27" stroke="#e0e0e0" stroke-width="0.5"/>
<text x="74" y="402.27" text-anchor="end" alignment-baseline="middle" fill="#444">0</text>
<line x1="80" y1="331.36" x2="890" y2="331.36" stroke="#e0e0e0" stroke-width="0.5"/>
<text x="74" y="331.36" text-anchor="end" alignment-baseline="middle" fill="#444">0.200</text>
<line x1="80" y1="260.45" x2="890" y2="260.45" stroke="#e0e0e0" stroke-width="0.5"/>
<text x="74" y="260.45" text-anchor="end" alignment-baseline="middle" fill="#444">0.400</text>
<line x1="80" y1="189.54" x2="890" y2="189.54" stroke="#e0e0e0" stroke-width="0.5"/>
<text x="74" y="189.54" text-anchor="end" alignment-baseline="middle" fill="#444">0.600</text>
<line x1="80" y1="118.64" x2="890" y2="118.64" stroke="#e0e0e0" stroke-width="0.5"/>
<text x="74" y="118.64" text-anchor="end" alignment-baseline="middle" fill="#444">0.800</text>
<line x1="80" y1="47.73" x2="890" y2="47.73" stroke="#e0e0e0" stroke-width="0.5"/>
<text x="74" y="47.73" text-anchor="end" alignment-baseline="middle" fill="#444">1.000</text>
<text x="485" y="460" text-anchor="middle" fill="#222">wavelength [nm]</text>
<text x="20" y="225" text-anchor="middle" fill="#222" transform="rotate(-90 20 225)">|T_through|²</text>
<path d="M80.00,313.65 L84.05,307.38 L88.10,300.96 L92.15,294.42 L96.20,287.79 L100.25,281.04 L104.30,274.20 L108.35,267.31 L112.40,260.33 L116.45,253.33 L120.50,246.26 L124.55,239.15 L128.60,232.06 L132.65,224.94 L136.70,217.82 L140.75,210.74 L144.80,203.67 L148.85,196.63 L152.90,189.65 L156.95,182.74 L161.00,175.90 L165.05,169.13 L169.10,162.46 L173.15,155.89 L177.20,149.44 L181.25,143.11 L185.30,136.92 L189.35,130.87 L193.40,124.97 L197.45,119.24 L201.50,113.68 L205.55,108.30 L209.60,103.09 L213.65,98.09 L217.70,93.29 L221.75,88.69 L225.80,84.32 L229.85,80.17 L233.90,76.25 L237.95,72.55 L242.00,69.10 L246.05,65.90 L250.10,62.94 L254.15,60.24 L258.20,57.80 L262.25,55.61 L266.30,53.69 L270.35,52.03 L274.40,50.64 L278.45,49.52 L282.50,48.67 L286.55,48.09 L290.60,47.78 L294.65,47.74 L298.70,47.98 L302.75,48.48 L306.80,49.25 L310.85,50.29 L314.90,51.60 L318.95,53.17 L323.00,54.99 L327.05,57.07 L331.10,59.41 L335.15,61.99 L339.20,64.82 L343.25,67.88 L347.30,71.18 L351.35,74.73 L355.40,78.48 L359.45,82.44 L363.50,86.63 L367.55,91.01 L371.60,95.60 L375.65,100.37 L379.70,105.33 L383.75,110.45 L387.80,115.75 L391.85,121.21 L395.90,126.80 L399.95,132.56 L404.00,138.44 L408.05,144.43 L412.10,150.55 L416.15,156.79 L420.20,163.10 L424.25,169.52 L428.30,175.99 L432.35,182.54 L436.40,189.15 L440.45,195.81 L444.50,202.50 L448.55,209.23 L452.60,215.96 L456.65,222.72 L460.70,229.47 L464.75,236.21 L468.80,242.92 L472.85,249.63 L476.90,256.26 L480.95,262.86 L485.00,269.41 L489.05,275.88 L493.10,282.27 L497.15,288.58 L501.20,294.79 L505.25,300.90 L509.30,306.90 L513.35,312.77 L517.40,318.54 L521.45,324.14 L525.50,329.61 L529.55,334.92 L533.60,340.07 L537.65,345.06 L541.70,349.89 L545.75,354.53 L549.80,358.98 L553.85,363.24 L557.90,367.30 L561.95,371.16 L566.00,374.81 L570.05,378.25 L574.10,381.48 L578.15,384.48 L582.20,387.26 L586.25,389.81 L590.30,392.14 L594.35,394.22 L598.40,396.07 L602.45,397.68 L606.50,399.05 L610.55,400.18 L614.60,401.07 L618.65,401.71 L622.70,402.11 L626.75,402.27 L630.80,402.18 L634.85,401.85 L638.90,401.28 L642.95,400.46 L647.00,399.41 L651.05,398.12 L655.10,396.60 L659.15,394.84 L663.20,392.84 L667.25,390.63 L671.30,388.19 L675.35,385.53 L679.40,382.66 L683.45,379.57 L687.50,376.28 L691.55,372.78 L695.60,369.10 L699.65,365.21 L703.70,361.14 L707.75,356.89 L711.80,352.48 L715.85,347.88 L719.90,343.13 L723.95,338.23 L728.00,333.17 L732.05,327.99 L736.10,322.65 L740.15,317.19 L744.20,311.63 L748.25,305.94 L752.30,300.16 L756.35,294.26 L760.40,288.29 L764.45,282.23 L768.50,276.12 L772.55,269.93 L776.60,263.68 L780.65,257.40 L784.70,251.08 L788.75,244.72 L792.80,238.35 L796.85,231.95 L800.90,225.57 L804.95,219.17 L809.00,212.78 L813.05,206.41 L817.10,200.09 L821.15,193.78 L825.20,187.54 L829.25,181.33 L833.30,175.18 L837.35,169.11 L841.40,163.11 L845.45,157.21 L849.50,151.38 L853.55,145.65 L857.60,140.03 L861.65,134.53 L865.70,129.14 L869.75,123.89 L873.80,118.74 L877.85,113.75 L881.90,108.91 L885.95,104.21 L890.00,99.67" fill="none" stroke="#d62728" stroke-width="2"/>
<path d="M80.00,93.26 L84.05,88.63 L88.10,84.21 L92.15,80.01 L96.20,76.06 L100.25,72.34 L104.30,68.86 L108.35,65.65 L112.40,62.68 L116.45,59.98 L120.50,57.53 L124.55,55.35 L128.60,53.44 L132.65,51.81 L136.70,50.44 L140.75,49.35 L144.80,48.54 L148.85,48.01 L152.90,47.75 L156.95,47.77 L161.00,48.07 L165.05,48.64 L169.10,49.49 L173.15,50.61 L177.20,52.01 L181.25,53.66 L185.30,55.59 L189.35,57.77 L193.40,60.21 L197.45,62.91 L201.50,65.85 L205.55,69.03 L209.60,72.46 L213.65,76.11 L217.70,79.99 L221.75,84.10 L225.80,88.41 L229.85,92.93 L233.90,97.64 L237.95,102.55 L242.00,107.65 L246.05,112.91 L250.10,118.34 L254.15,123.93 L258.20,129.67 L262.25,135.55 L266.30,141.57 L270.35,147.69 L274.40,153.95 L278.45,160.30 L282.50,166.75 L286.55,173.26 L290.60,179.87 L294.65,186.51 L298.70,193.24 L302.75,200.00 L306.80,206.78 L310.85,213.60 L314.90,220.42 L318.95,227.27 L323.00,234.08 L327.05,240.87 L331.10,247.65 L335.15,254.40 L339.20,261.07 L343.25,267.70 L347.30,274.27 L351.35,280.77 L355.40,287.17 L359.45,293.46 L363.50,299.68 L367.55,305.76 L371.60,311.73 L375.65,317.57 L379.70,323.27 L383.75,328.81 L387.80,334.21 L391.85,339.46 L395.90,344.51 L399.95,349.41 L404.00,354.12 L408.05,358.62 L412.10,362.95 L416.15,367.08 L420.20,370.99 L424.25,374.70 L428.30,378.18 L432.35,381.45 L436.40,384.49 L440.45,387.29 L444.50,389.87 L448.55,392.21 L452.60,394.31 L456.65,396.17 L460.70,397.79 L464.75,399.15 L468.80,400.27 L472.85,401.15 L476.90,401.77 L480.95,402.15 L485.00,402.27 L489.05,402.15 L493.10,401.78 L497.15,401.16 L501.20,400.29 L505.25,399.18 L509.30,397.83 L513.35,396.23 L517.40,394.40 L521.45,392.34 L525.50,390.04 L529.55,387.52 L533.60,384.77 L537.65,381.81 L541.70,378.62 L545.75,375.23 L549.80,371.63 L553.85,367.83 L557.90,363.85 L561.95,359.66 L566.00,355.31 L570.05,350.78 L574.10,346.06 L578.15,341.20 L582.20,336.17 L586.25,331.02 L590.30,325.68 L594.35,320.25 L598.40,314.68 L602.45,308.99 L606.50,303.19 L610.55,297.28 L614.60,291.28 L618.65,285.22 L622.70,279.05 L626.75,272.83 L630.80,266.55 L634.85,260.20 L638.90,253.82 L642.95,247.39 L647.00,240.96 L651.05,234.49 L655.10,228.04 L659.15,221.57 L663.20,215.10 L667.25,208.67 L671.30,202.25 L675.35,195.87 L679.40,189.53 L683.45,183.23 L687.50,177.00 L691.55,170.84 L695.60,164.76 L699.65,158.75 L703.70,152.83 L707.75,147.02 L711.80,141.32 L715.85,135.72 L719.90,130.23 L723.95,124.89 L728.00,119.67 L732.05,114.61 L736.10,109.68 L740.15,104.90 L744.20,100.29 L748.25,95.84 L752.30,91.56 L756.35,87.44 L760.40,83.51 L764.45,79.77 L768.50,76.22 L772.55,72.86 L776.60,69.70 L780.65,66.74 L784.70,63.99 L788.75,61.44 L792.80,59.10 L796.85,56.97 L800.90,55.07 L804.95,53.37 L809.00,51.90 L813.05,50.65 L817.10,49.62 L821.15,48.81 L825.20,48.23 L829.25,47.86 L833.30,47.73 L837.35,47.81 L841.40,48.12 L845.45,48.65 L849.50,49.41 L853.55,50.38 L857.60,51.57 L861.65,52.97 L865.70,54.59 L869.75,56.42 L873.80,58.47 L877.85,60.71 L881.90,63.16 L885.95,65.80 L890.00,68.65" fill="none" stroke="#1f77b4" stroke-width="2"/>
<rect x="710" y="30" width="170" height="44" fill="white" stroke="#bbb" stroke-width="0.5" opacity="0.92"/>
<line x1="718" y1="42" x2="738" y2="42" stroke="#d62728" stroke-width="3"/>
<text x="746" y="46" fill="#222">before (n_eff_A = 2.35)</text>
<line x1="718" y1="58" x2="738" y2="58" stroke="#1f77b4" stroke-width="3"/>
<text x="746" y="62" fill="#222">after (n_eff_A = 2.3533)</text>
</svg>
