<svg xmlns="http://www.w3.org/2000/svg" width="920" height="480" viewBox="0 0 920 480">
<rect width="100%" height="100%" fill="#ffffff"/>
<line x1="78.00" y1="418.00" x2="894.00" y2="418.00" stroke="#e5e7eb" stroke-width="1"/>
<text x="70.00" y="422.00" text-anchor="end" font-size="12" fill="#374151">-2.081e-1</text>
<line x1="78.00" y1="357.67" x2="894.00" y2="357.67" stroke="#e5e7eb" stroke-width="1"/>
<text x="70.00" y="361.67" text-anchor="end" font-size="12" fill="#374151">-1.643e-1</text>
<line x1="78.00" y1="297.33" x2="894.00" y2="297.33" stroke="#e5e7eb" stroke-width="1"/>
<text x="70.00" y="301.33" text-anchor="end" font-size="12" fill="#374151">-1.206e-1</text>
<line x1="78.00" y1="237.00" x2="894.00" y2="237.00" stroke="#e5e7eb" stroke-width="1"/>
<text x="70.00" y="241.00" text-anchor="end" font-size="12" fill="#374151">-7.678e-2</text>
<line x1="78.00" y1="176.67" x2="894.00" y2="176.67" stroke="#e5e7eb" stroke-width="1"/>
<text x="70.00" y="180.67" text-anchor="end" font-size="12" fill="#374151">-3.300e-2</text>
<line x1="78.00" y1="116.33" x2="894.00" y2="116.33" stroke="#e5e7eb" stroke-width="1"/>
<text x="70.00" y="120.33" text-anchor="end" font-size="12" fill="#374151">1.078e-2</text>
<line x1="78.00" y1="56.00" x2="894.00" y2="56.00" stroke="#e5e7eb" stroke-width="1"/>
<text x="70.00" y="60.00" text-anchor="end" font-size="12" fill="#374151">5.456e-2</text>
<line x1="78.00" y1="56.00" x2="78.00" y2="418.00" stroke="#e5e7eb" stroke-width="1"/>
<text x="78.00" y="438.00" text-anchor="middle" font-size="12" fill="#374151">0</text>
<line x1="214.00" y1="56.00" x2="214.00" y2="418.00" stroke="#e5e7eb" stroke-width="1"/>
<text x="214.00" y="438.00" text-anchor="middle" font-size="12" fill="#374151">33</text>
<line x1="350.00" y1="56.00" x2="350.00" y2="418.00" stroke="#e5e7eb" stroke-width="1"/>
<text x="350.00" y="438.00" text-anchor="middle" font-size="12" fill="#374151">67</text>
<line x1="486.00" y1="56.00" x2="486.00" y2="418.00" stroke="#e5e7eb" stroke-width="1"/>
<text x="486.00" y="438.00" text-anchor="middle" font-size="12" fill="#374151">100</text>
<line x1="622.00" y1="56.00" x2="622.00" y2="418.00" stroke="#e5e7eb" stroke-width="1"/>
<text x="622.00" y="438.00" text-anchor="middle" font-size="12" fill="#374151">133</text>
<line x1="758.00" y1="56.00" x2="758.00" y2="418.00" stroke="#e5e7eb" stroke-width="1"/>
<text x="758.00" y="438.00" text-anchor="middle" font-size="12" fill="#374151">167</text>
<line x1="894.00" y1="56.00" x2="894.00" y2="418.00" stroke="#e5e7eb" stroke-width="1"/>
<text x="894.00" y="438.00" text-anchor="middle" font-size="12" fill="#374151">200</text>
<line x1="78.00" y1="418.00" x2="894.00" y2="418.00" stroke="#111827" stroke-width="1.5"/>
<line x1="78.00" y1="56.00" x2="78.00" y2="418.00" stroke="#111827" stroke-width="1.5"/>
<text x="460.00" y="24" text-anchor="middle" font-size="18" font-weight="700" fill="#111827">Per-parameter gradients</text>
<text x="486.00" y="464.00" text-anchor="middle" font-size="13" fill="#111827">step</text>
<text x="22" y="237.00" transform="rotate(-90 22 237.00)" text-anchor="middle" font-size="13" fill="#111827">gradient</text>
<polyline points="78.00,393.03 82.08,213.88 86.16,124.63 90.24,80.97 94.32,107.60 98.40,138.64 102.48,162.37 106.56,170.19 110.64,162.55 114.72,145.26 118.80,125.29 122.88,109.30 126.96,101.89 131.04,104.23 135.12,114.39 139.20,128.60 143.28,142.27 147.36,151.20 151.44,152.99 155.52,147.83 159.60,137.98 163.68,126.89 167.76,118.17 171.84,114.39 175.92,116.34 180.00,122.89 184.08,131.56 188.16,139.33 192.24,143.68 196.32,143.41 200.40,139.00 204.48,132.30 208.56,125.81 212.64,121.79 216.72,121.48 220.80,124.69 224.88,129.96 228.96,135.22 233.04,138.50 237.12,138.74 241.20,136.09 245.28,131.80 249.36,127.66 253.44,125.28 257.52,125.45 261.60,127.90 265.68,131.45 269.76,134.58 273.84,136.02 277.92,135.33 282.00,132.96 286.08,130.05 290.16,127.90 294.24,127.37 298.32,128.55 302.40,130.78 306.48,132.99 310.56,134.19 314.64,133.93 318.72,132.44 322.80,130.52 326.88,129.09 330.96,128.77 335.04,129.61 339.12,131.13 343.20,132.53 347.28,133.16 351.36,132.77 355.44,131.65 359.52,130.40 363.60,129.66 367.68,129.76 371.76,130.56 375.84,131.61 379.92,132.35 384.00,132.42 388.08,131.85 392.16,130.99 396.24,130.32 400.32,130.17 404.40,130.58 408.48,131.27 412.56,131.86 416.64,132.03 420.72,131.72 424.80,131.15 428.88,130.66 432.96,130.50 437.04,130.75 441.12,131.21 445.20,131.62 449.28,131.75 453.36,131.54 457.44,131.15 461.52,130.82 465.60,130.74 469.68,130.92 473.76,131.25 477.84,131.51 481.92,131.55 486.00,131.38 490.08,131.10 494.16,130.91 498.24,130.90 502.32,131.07 506.40,131.30 510.48,131.43 514.56,131.41 518.64,131.25 522.72,131.07 526.80,130.98 530.88,131.03 534.96,131.18 539.04,131.32 543.12,131.36 547.20,131.29 551.28,131.16 555.36,131.06 559.44,131.06 563.52,131.14 567.60,131.25 571.68,131.31 575.76,131.28 579.84,131.20 583.92,131.12 588.00,131.09 592.08,131.13 596.16,131.21 600.24,131.26 604.32,131.26 608.40,131.21 612.48,131.15 616.56,131.12 620.64,131.14 624.72,131.20 628.80,131.24 632.88,131.24 636.96,131.21 641.04,131.16 645.12,131.14 649.20,131.16 653.28,131.19 657.36,131.22 661.44,131.23 665.52,131.20 669.60,131.17 673.68,131.16 677.76,131.17 681.84,131.19 685.92,131.21 690.00,131.21 694.08,131.20 698.16,131.18 702.24,131.17 706.32,131.18 710.40,131.19 714.48,131.21 718.56,131.21 722.64,131.19 726.72,131.18 730.80,131.17 734.88,131.18 738.96,131.20 743.04,131.20 747.12,131.20 751.20,131.19 755.28,131.18 759.36,131.18 763.44,131.19 767.52,131.20 771.60,131.20 775.68,131.19 779.76,131.19 783.84,131.18 787.92,131.18 792.00,131.19 796.08,131.20 800.16,131.20 804.24,131.19 808.32,131.18 812.40,131.18 816.48,131.19 820.56,131.19 824.64,131.19 828.72,131.19 832.80,131.19 836.88,131.19 840.96,131.19 845.04,131.19 849.12,131.19 853.20,131.19 857.28,131.19 861.36,131.19 865.44,131.19 869.52,131.19 873.60,131.19 877.68,131.19 881.76,131.19 885.84,131.19 889.92,131.19 894.00,131.19" fill="none" stroke="#7c3aed" stroke-width="2.2"/>
<polyline points="78.00,131.19 82.08,186.31 86.16,192.87 90.24,181.41 94.32,154.78 98.40,123.74 102.48,100.01 106.56,92.19 110.64,99.83 114.72,117.12 118.80,137.09 122.88,153.08 126.96,160.49 131.04,158.15 135.12,147.99 139.20,133.78 143.28,120.11 147.36,111.18 151.44,109.38 155.52,114.55 159.60,124.40 163.68,135.49 167.76,144.21 171.84,147.99 175.92,146.04 180.00,139.49 184.08,130.82 188.16,123.05 192.24,118.70 196.32,118.97 200.40,123.37 204.48,130.08 208.56,136.57 212.64,140.59 216.72,140.90 220.80,137.69 224.88,132.41 228.96,127.16 233.04,123.87 237.12,123.64 241.20,126.29 245.28,130.58 249.36,134.72 253.44,137.10 257.52,136.93 261.60,134.48 265.68,130.93 269.76,127.80 273.84,126.35 277.92,127.05 282.00,129.42 286.08,132.32 290.16,134.48 294.24,135.01 298.32,133.83 302.40,131.60 306.48,129.39 310.56,128.19 314.64,128.45 318.72,129.94 322.80,131.86 326.88,133.29 330.96,133.61 335.04,132.77 339.12,131.25 343.20,129.85 347.28,129.22 351.36,129.61 355.44,130.73 359.52,131.98 363.60,132.72 367.68,132.62 371.76,131.82 375.84,130.77 379.92,130.03 384.00,129.96 388.08,130.53 392.16,131.39 396.24,132.06 400.32,132.21 404.40,131.80 408.48,131.11 412.56,130.52 416.64,130.35 420.72,130.65 424.80,131.22 428.88,131.72 432.96,131.88 437.04,131.63 441.12,131.16 445.20,130.75 449.28,130.63 453.36,130.84 457.44,131.23 461.52,131.56 465.60,131.64 469.68,131.45 473.76,131.13 477.84,130.87 481.92,130.82 486.00,131.00 490.08,131.27 494.16,131.47 498.24,131.48 502.32,131.31 506.40,131.08 510.48,130.94 514.56,130.97 518.64,131.13 522.72,131.31 526.80,131.40 530.88,131.35 534.96,131.20 539.04,131.06 543.12,131.02 547.20,131.09 551.28,131.22 555.36,131.32 559.44,131.32 563.52,131.24 567.60,131.13 571.68,131.07 575.76,131.10 579.84,131.18 583.92,131.26 588.00,131.29 592.08,131.24 596.16,131.17 600.24,131.11 604.32,131.12 608.40,131.17 612.48,131.23 616.56,131.26 620.64,131.24 624.72,131.18 628.80,131.14 632.88,131.14 636.96,131.17 641.04,131.21 645.12,131.24 649.20,131.22 653.28,131.19 657.36,131.16 661.44,131.15 665.52,131.18 669.60,131.21 673.68,131.22 677.76,131.21 681.84,131.19 685.92,131.17 690.00,131.16 694.08,131.18 698.16,131.20 702.24,131.21 706.32,131.20 710.40,131.18 714.48,131.17 718.56,131.17 722.64,131.19 726.72,131.20 730.80,131.21 734.88,131.20 738.96,131.18 743.04,131.18 747.12,131.18 751.20,131.19 755.28,131.20 759.36,131.20 763.44,131.19 767.52,131.18 771.60,131.18 775.68,131.18 779.76,131.19 783.84,131.20 787.92,131.19 792.00,131.19 796.08,131.18 800.16,131.18 804.24,131.19 808.32,131.19 812.40,131.19 816.48,131.19 820.56,131.19 824.64,131.18 828.72,131.19 832.80,131.19 836.88,131.19 840.96,131.19 845.04,131.19 849.12,131.19 853.20,131.19 857.28,131.19 861.36,131.19 865.44,131.19 869.52,131.19 873.60,131.19 877.68,131.19 881.76,131.19 885.84,131.19 889.92,131.19 894.00,131.19" fill="none" stroke="#db2777" stroke-width="2.2"/>
<rect x="724.00" y="66.00" width="160" height="70.00" rx="8" fill="#f9fafb" stroke="#d1d5db"/>
<text x="734.00" y="82.00" font-size="12" font-weight="700" fill="#111827">Legend</text>
<line x1="734.00" y1="98.00" x2="760.00" y2="98.00" stroke="#7c3aed" stroke-width="3"/>
<text x="768.00" y="102.00" font-size="12" fill="#111827">dL/dVth_n</text>
<line x1="734.00" y1="120.00" x2="760.00" y2="120.00" stroke="#db2777" stroke-width="3"/>
<text x="768.00" y="124.00" font-size="12" fill="#111827">dL/dVth_p</text>
</svg>
