<svg xmlns="http://www.w3.org/2000/svg" width="920" height="480" viewBox="0 0 920 480">
<rect width="100%" height="100%" fill="#ffffff"/>
<line x1="78.00" y1="418.00" x2="894.00" y2="418.00" stroke="#e5e7eb" stroke-width="1"/>
<text x="70.00" y="422.00" text-anchor="end" font-size="12" fill="#374151">-7.220e-4</text>
<line x1="78.00" y1="357.67" x2="894.00" y2="357.67" stroke="#e5e7eb" stroke-width="1"/>
<text x="70.00" y="361.67" text-anchor="end" font-size="12" fill="#374151">1.023e-3</text>
<line x1="78.00" y1="297.33" x2="894.00" y2="297.33" stroke="#e5e7eb" stroke-width="1"/>
<text x="70.00" y="301.33" text-anchor="end" font-size="12" fill="#374151">2.768e-3</text>
<line x1="78.00" y1="237.00" x2="894.00" y2="237.00" stroke="#e5e7eb" stroke-width="1"/>
<text x="70.00" y="241.00" text-anchor="end" font-size="12" fill="#374151">4.513e-3</text>
<line x1="78.00" y1="176.67" x2="894.00" y2="176.67" stroke="#e5e7eb" stroke-width="1"/>
<text x="70.00" y="180.67" text-anchor="end" font-size="12" fill="#374151">6.257e-3</text>
<line x1="78.00" y1="116.33" x2="894.00" y2="116.33" stroke="#e5e7eb" stroke-width="1"/>
<text x="70.00" y="120.33" text-anchor="end" font-size="12" fill="#374151">8.002e-3</text>
<line x1="78.00" y1="56.00" x2="894.00" y2="56.00" stroke="#e5e7eb" stroke-width="1"/>
<text x="70.00" y="60.00" text-anchor="end" font-size="12" fill="#374151">9.747e-3</text>
<line x1="78.00" y1="56.00" x2="78.00" y2="418.00" stroke="#e5e7eb" stroke-width="1"/>
<text x="78.00" y="438.00" text-anchor="middle" font-size="12" fill="#374151">0</text>
<line x1="214.00" y1="56.00" x2="214.00" y2="418.00" stroke="#e5e7eb" stroke-width="1"/>
<text x="214.00" y="438.00" text-anchor="middle" font-size="12" fill="#374151">33</text>
<line x1="350.00" y1="56.00" x2="350.00" y2="418.00" stroke="#e5e7eb" stroke-width="1"/>
<text x="350.00" y="438.00" text-anchor="middle" font-size="12" fill="#374151">67</text>
<line x1="486.00" y1="56.00" x2="486.00" y2="418.00" stroke="#e5e7eb" stroke-width="1"/>
<text x="486.00" y="438.00" text-anchor="middle" font-size="12" fill="#374151">100</text>
<line x1="622.00" y1="56.00" x2="622.00" y2="418.00" stroke="#e5e7eb" stroke-width="1"/>
<text x="622.00" y="438.00" text-anchor="middle" font-size="12" fill="#374151">133</text>
<line x1="758.00" y1="56.00" x2="758.00" y2="418.00" stroke="#e5e7eb" stroke-width="1"/>
<text x="758.00" y="438.00" text-anchor="middle" font-size="12" fill="#374151">167</text>
<line x1="894.00" y1="56.00" x2="894.00" y2="418.00" stroke="#e5e7eb" stroke-width="1"/>
<text x="894.00" y="438.00" text-anchor="middle" font-size="12" fill="#374151">200</text>
<line x1="78.00" y1="418.00" x2="894.00" y2="418.00" stroke="#111827" stroke-width="1.5"/>
<line x1="78.00" y1="56.00" x2="78.00" y2="418.00" stroke="#111827" stroke-width="1.5"/>
<text x="460.00" y="24" text-anchor="middle" font-size="18" font-weight="700" fill="#111827">Loss decomposition (Adam)</text>
<text x="486.00" y="464.00" text-anchor="middle" font-size="13" fill="#111827">step</text>
<text x="22" y="237.00" transform="rotate(-90 22 237.00)" text-anchor="middle" font-size="13" fill="#111827">loss</text>
<polyline points="78.00,80.97 82.08,278.93 86.16,344.57 90.24,356.24 94.32,374.14 98.40,378.70 102.48,370.35 106.56,365.36 110.64,370.25 114.72,377.40 118.80,378.89 122.88,374.84 126.96,371.39 131.04,372.59 135.12,376.64 139.20,379.14 143.28,378.09 147.36,375.56 151.44,374.88 155.52,376.68 159.60,378.78 163.68,379.04 167.76,377.66 171.84,376.63 175.92,377.20 180.00,378.58 184.08,379.20 188.16,378.60 192.24,377.78 196.32,377.84 200.40,378.65 204.48,379.19 208.56,378.94 212.64,378.40 216.72,378.35 220.80,378.82 224.88,379.19 228.96,379.06 233.04,378.72 237.12,378.68 241.20,378.98 245.28,379.20 249.36,379.09 253.44,378.88 257.52,378.90 261.60,379.10 265.68,379.20 269.76,379.10 273.84,378.99 277.92,379.05 282.00,379.17 286.08,379.19 290.16,379.10 294.24,379.07 298.32,379.14 302.40,379.20 306.48,379.17 310.56,379.12 314.64,379.14 318.72,379.19 322.80,379.20 326.88,379.16 330.96,379.15 335.04,379.18 339.12,379.20 343.20,379.19 347.28,379.17 351.36,379.18 355.44,379.20 359.52,379.20 363.60,379.18 367.68,379.18 371.76,379.20 375.84,379.20 379.92,379.19 384.00,379.19 388.08,379.20 392.16,379.20 396.24,379.20 400.32,379.19 404.40,379.20 408.48,379.20 412.56,379.20 416.64,379.20 420.72,379.20 424.80,379.20 428.88,379.20 432.96,379.20 437.04,379.20 441.12,379.20 445.20,379.20 449.28,379.20 453.36,379.20 457.44,379.20 461.52,379.20 465.60,379.20 469.68,379.20 473.76,379.20 477.84,379.20 481.92,379.20 486.00,379.20 490.08,379.20 494.16,379.20 498.24,379.20 502.32,379.20 506.40,379.20 510.48,379.20 514.56,379.20 518.64,379.20 522.72,379.20 526.80,379.20 530.88,379.20 534.96,379.20 539.04,379.20 543.12,379.20 547.20,379.20 551.28,379.20 555.36,379.20 559.44,379.20 563.52,379.20 567.60,379.20 571.68,379.20 575.76,379.20 579.84,379.20 583.92,379.20 588.00,379.20 592.08,379.20 596.16,379.20 600.24,379.20 604.32,379.20 608.40,379.20 612.48,379.20 616.56,379.20 620.64,379.20 624.72,379.20 628.80,379.20 632.88,379.20 636.96,379.20 641.04,379.20 645.12,379.20 649.20,379.20 653.28,379.20 657.36,379.20 661.44,379.20 665.52,379.20 669.60,379.20 673.68,379.20 677.76,379.20 681.84,379.20 685.92,379.20 690.00,379.20 694.08,379.20 698.16,379.20 702.24,379.20 706.32,379.20 710.40,379.20 714.48,379.20 718.56,379.20 722.64,379.20 726.72,379.20 730.80,379.20 734.88,379.20 738.96,379.20 743.04,379.20 747.12,379.20 751.20,379.20 755.28,379.20 759.36,379.20 763.44,379.20 767.52,379.20 771.60,379.20 775.68,379.20 779.76,379.20 783.84,379.20 787.92,379.20 792.00,379.20 796.08,379.20 800.16,379.20 804.24,379.20 808.32,379.20 812.40,379.20 816.48,379.20 820.56,379.20 824.64,379.20 828.72,379.20 832.80,379.20 836.88,379.20 840.96,379.20 845.04,379.20 849.12,379.20 853.20,379.20 857.28,379.20 861.36,379.20 865.44,379.20 869.52,379.20 873.60,379.20 877.68,379.20 881.76,379.20 885.84,379.20 889.92,379.20 894.00,379.20" fill="none" stroke="#2563eb" stroke-width="2.2"/>
<polyline points="78.00,80.97 82.08,306.59 86.16,379.20 90.24,379.20 94.32,379.20 98.40,379.20 102.48,379.20 106.56,379.20 110.64,379.20 114.72,379.20 118.80,379.20 122.88,379.20 126.96,379.20 131.04,379.20 135.12,379.20 139.20,379.20 143.28,379.20 147.36,379.20 151.44,379.20 155.52,379.20 159.60,379.20 163.68,379.20 167.76,379.20 171.84,379.20 175.92,379.20 180.00,379.20 184.08,379.20 188.16,379.20 192.24,379.20 196.32,379.20 200.40,379.20 204.48,379.20 208.56,379.20 212.64,379.20 216.72,379.20 220.80,379.20 224.88,379.20 228.96,379.20 233.04,379.20 237.12,379.20 241.20,379.20 245.28,379.20 249.36,379.20 253.44,379.20 257.52,379.20 261.60,379.20 265.68,379.20 269.76,379.20 273.84,379.20 277.92,379.20 282.00,379.20 286.08,379.20 290.16,379.20 294.24,379.20 298.32,379.20 302.40,379.20 306.48,379.20 310.56,379.20 314.64,379.20 318.72,379.20 322.80,379.20 326.88,379.20 330.96,379.20 335.04,379.20 339.12,379.20 343.20,379.20 347.28,379.20 351.36,379.20 355.44,379.20 359.52,379.20 363.60,379.20 367.68,379.20 371.76,379.20 375.84,379.20 379.92,379.20 384.00,379.20 388.08,379.20 392.16,379.20 396.24,379.20 400.32,379.20 404.40,379.20 408.48,379.20 412.56,379.20 416.64,379.20 420.72,379.20 424.80,379.20 428.88,379.20 432.96,379.20 437.04,379.20 441.12,379.20 445.20,379.20 449.28,379.20 453.36,379.20 457.44,379.20 461.52,379.20 465.60,379.20 469.68,379.20 473.76,379.20 477.84,379.20 481.92,379.20 486.00,379.20 490.08,379.20 494.16,379.20 498.24,379.20 502.32,379.20 506.40,379.20 510.48,379.20 514.56,379.20 518.64,379.20 522.72,379.20 526.80,379.20 530.88,379.20 534.96,379.20 539.04,379.20 543.12,379.20 547.20,379.20 551.28,379.20 555.36,379.20 559.44,379.20 563.52,379.20 567.60,379.20 571.68,379.20 575.76,379.20 579.84,379.20 583.92,379.20 588.00,379.20 592.08,379.20 596.16,379.20 600.24,379.20 604.32,379.20 608.40,379.20 612.48,379.20 616.56,379.20 620.64,379.20 624.72,379.20 628.80,379.20 632.88,379.20 636.96,379.20 641.04,379.20 645.12,379.20 649.20,379.20 653.28,379.20 657.36,379.20 661.44,379.20 665.52,379.20 669.60,379.20 673.68,379.20 677.76,379.20 681.84,379.20 685.92,379.20 690.00,379.20 694.08,379.20 698.16,379.20 702.24,379.20 706.32,379.20 710.40,379.20 714.48,379.20 718.56,379.20 722.64,379.20 726.72,379.20 730.80,379.20 734.88,379.20 738.96,379.20 743.04,379.20 747.12,379.20 751.20,379.20 755.28,379.20 759.36,379.20 763.44,379.20 767.52,379.20 771.60,379.20 775.68,379.20 779.76,379.20 783.84,379.20 787.92,379.20 792.00,379.20 796.08,379.20 800.16,379.20 804.24,379.20 808.32,379.20 812.40,379.20 816.48,379.20 820.56,379.20 824.64,379.20 828.72,379.20 832.80,379.20 836.88,379.20 840.96,379.20 845.04,379.20 849.12,379.20 853.20,379.20 857.28,379.20 861.36,379.20 865.44,379.20 869.52,379.20 873.60,379.20 877.68,379.20 881.76,379.20 885.84,379.20 889.92,379.20 894.00,379.20" fill="none" stroke="#0891b2" stroke-width="2.2"/>
<polyline points="78.00,393.03 82.08,365.37 86.16,358.40 90.24,370.07 94.32,387.97 98.40,392.53 102.48,384.19 106.56,379.19 110.64,384.08 114.72,391.23 118.80,392.72 122.88,388.67 126.96,385.22 131.04,386.42 135.12,390.47 139.20,392.97 143.28,391.92 147.36,389.39 151.44,388.71 155.52,390.51 159.60,392.62 163.68,392.87 167.76,391.49 171.84,390.47 175.92,391.03 180.00,392.41 184.08,393.03 188.16,392.43 192.24,391.61 196.32,391.67 200.40,392.48 204.48,393.02 208.56,392.77 212.64,392.23 216.72,392.18 220.80,392.65 224.88,393.02 228.96,392.89 233.04,392.55 237.12,392.52 241.20,392.82 245.28,393.03 249.36,392.92 253.44,392.72 257.52,392.73 261.60,392.94 265.68,393.03 269.76,392.93 273.84,392.82 277.92,392.88 282.00,393.01 286.08,393.02 290.16,392.94 294.24,392.90 298.32,392.97 302.40,393.03 306.48,393.01 310.56,392.95 314.64,392.97 318.72,393.02 322.80,393.03 326.88,392.99 330.96,392.98 335.04,393.01 339.12,393.03 343.20,393.02 347.28,393.00 351.36,393.01 355.44,393.03 359.52,393.03 363.60,393.01 367.68,393.02 371.76,393.03 375.84,393.03 379.92,393.02 384.00,393.02 388.08,393.03 392.16,393.03 396.24,393.03 400.32,393.02 404.40,393.03 408.48,393.03 412.56,393.03 416.64,393.03 420.72,393.03 424.80,393.03 428.88,393.03 432.96,393.03 437.04,393.03 441.12,393.03 445.20,393.03 449.28,393.03 453.36,393.03 457.44,393.03 461.52,393.03 465.60,393.03 469.68,393.03 473.76,393.03 477.84,393.03 481.92,393.03 486.00,393.03 490.08,393.03 494.16,393.03 498.24,393.03 502.32,393.03 506.40,393.03 510.48,393.03 514.56,393.03 518.64,393.03 522.72,393.03 526.80,393.03 530.88,393.03 534.96,393.03 539.04,393.03 543.12,393.03 547.20,393.03 551.28,393.03 555.36,393.03 559.44,393.03 563.52,393.03 567.60,393.03 571.68,393.03 575.76,393.03 579.84,393.03 583.92,393.03 588.00,393.03 592.08,393.03 596.16,393.03 600.24,393.03 604.32,393.03 608.40,393.03 612.48,393.03 616.56,393.03 620.64,393.03 624.72,393.03 628.80,393.03 632.88,393.03 636.96,393.03 641.04,393.03 645.12,393.03 649.20,393.03 653.28,393.03 657.36,393.03 661.44,393.03 665.52,393.03 669.60,393.03 673.68,393.03 677.76,393.03 681.84,393.03 685.92,393.03 690.00,393.03 694.08,393.03 698.16,393.03 702.24,393.03 706.32,393.03 710.40,393.03 714.48,393.03 718.56,393.03 722.64,393.03 726.72,393.03 730.80,393.03 734.88,393.03 738.96,393.03 743.04,393.03 747.12,393.03 751.20,393.03 755.28,393.03 759.36,393.03 763.44,393.03 767.52,393.03 771.60,393.03 775.68,393.03 779.76,393.03 783.84,393.03 787.92,393.03 792.00,393.03 796.08,393.03 800.16,393.03 804.24,393.03 808.32,393.03 812.40,393.03 816.48,393.03 820.56,393.03 824.64,393.03 828.72,393.03 832.80,393.03 836.88,393.03 840.96,393.03 845.04,393.03 849.12,393.03 853.20,393.03 857.28,393.03 861.36,393.03 865.44,393.03 869.52,393.03 873.60,393.03 877.68,393.03 881.76,393.03 885.84,393.03 889.92,393.03 894.00,393.03" fill="none" stroke="#a16207" stroke-width="2.2"/>
<rect x="724.00" y="66.00" width="160" height="92.00" rx="8" fill="#f9fafb" stroke="#d1d5db"/>
<text x="734.00" y="82.00" font-size="12" font-weight="700" fill="#111827">Legend</text>
<line x1="734.00" y1="98.00" x2="760.00" y2="98.00" stroke="#2563eb" stroke-width="3"/>
<text x="768.00" y="102.00" font-size="12" fill="#111827">total</text>
<line x1="734.00" y1="120.00" x2="760.00" y2="120.00" stroke="#0891b2" stroke-width="3"/>
<text x="768.00" y="124.00" font-size="12" fill="#111827">data</text>
<line x1="734.00" y1="142.00" x2="760.00" y2="142.00" stroke="#a16207" stroke-width="3"/>
<text x="768.00" y="146.00" font-size="12" fill="#111827">reg</text>
</svg>
