<svg xmlns="http://www.w3.org/2000/svg" width="920" height="480" viewBox="0 0 920 480">
<rect width="100%" height="100%" fill="#ffffff"/>
<line x1="78.00" y1="418.00" x2="894.00" y2="418.00" stroke="#e5e7eb" stroke-width="1"/>
<text x="70.00" y="422.00" text-anchor="end" font-size="12" fill="#374151">4.779e-1</text>
<line x1="78.00" y1="357.67" x2="894.00" y2="357.67" stroke="#e5e7eb" stroke-width="1"/>
<text x="70.00" y="361.67" text-anchor="end" font-size="12" fill="#374151">5.312e-1</text>
<line x1="78.00" y1="297.33" x2="894.00" y2="297.33" stroke="#e5e7eb" stroke-width="1"/>
<text x="70.00" y="301.33" text-anchor="end" font-size="12" fill="#374151">5.845e-1</text>
<line x1="78.00" y1="237.00" x2="894.00" y2="237.00" stroke="#e5e7eb" stroke-width="1"/>
<text x="70.00" y="241.00" text-anchor="end" font-size="12" fill="#374151">6.378e-1</text>
<line x1="78.00" y1="176.67" x2="894.00" y2="176.67" stroke="#e5e7eb" stroke-width="1"/>
<text x="70.00" y="180.67" text-anchor="end" font-size="12" fill="#374151">6.911e-1</text>
<line x1="78.00" y1="116.33" x2="894.00" y2="116.33" stroke="#e5e7eb" stroke-width="1"/>
<text x="70.00" y="120.33" text-anchor="end" font-size="12" fill="#374151">7.444e-1</text>
<line x1="78.00" y1="56.00" x2="894.00" y2="56.00" stroke="#e5e7eb" stroke-width="1"/>
<text x="70.00" y="60.00" text-anchor="end" font-size="12" fill="#374151">7.977e-1</text>
<line x1="78.00" y1="56.00" x2="78.00" y2="418.00" stroke="#e5e7eb" stroke-width="1"/>
<text x="78.00" y="438.00" text-anchor="middle" font-size="12" fill="#374151">0</text>
<line x1="214.00" y1="56.00" x2="214.00" y2="418.00" stroke="#e5e7eb" stroke-width="1"/>
<text x="214.00" y="438.00" text-anchor="middle" font-size="12" fill="#374151">33</text>
<line x1="350.00" y1="56.00" x2="350.00" y2="418.00" stroke="#e5e7eb" stroke-width="1"/>
<text x="350.00" y="438.00" text-anchor="middle" font-size="12" fill="#374151">67</text>
<line x1="486.00" y1="56.00" x2="486.00" y2="418.00" stroke="#e5e7eb" stroke-width="1"/>
<text x="486.00" y="438.00" text-anchor="middle" font-size="12" fill="#374151">100</text>
<line x1="622.00" y1="56.00" x2="622.00" y2="418.00" stroke="#e5e7eb" stroke-width="1"/>
<text x="622.00" y="438.00" text-anchor="middle" font-size="12" fill="#374151">133</text>
<line x1="758.00" y1="56.00" x2="758.00" y2="418.00" stroke="#e5e7eb" stroke-width="1"/>
<text x="758.00" y="438.00" text-anchor="middle" font-size="12" fill="#374151">167</text>
<line x1="894.00" y1="56.00" x2="894.00" y2="418.00" stroke="#e5e7eb" stroke-width="1"/>
<text x="894.00" y="438.00" text-anchor="middle" font-size="12" fill="#374151">200</text>
<line x1="78.00" y1="418.00" x2="894.00" y2="418.00" stroke="#111827" stroke-width="1.5"/>
<line x1="78.00" y1="56.00" x2="78.00" y2="418.00" stroke="#111827" stroke-width="1.5"/>
<text x="460.00" y="24" text-anchor="middle" font-size="18" font-weight="700" fill="#111827">Vth_n and |Vth_p| trajectories</text>
<text x="486.00" y="464.00" text-anchor="middle" font-size="13" fill="#111827">step</text>
<text x="22" y="237.00" transform="rotate(-90 22 237.00)" text-anchor="middle" font-size="13" fill="#111827">Vth (V)</text>
<polyline points="78.00,393.03 82.08,347.75 86.16,308.67 90.24,279.16 94.32,260.12 98.40,246.17 102.48,233.52 106.56,220.00 110.64,205.11 114.72,189.54 118.80,174.58 122.88,161.63 126.96,151.68 131.04,144.99 135.12,141.01 139.20,138.70 143.28,136.80 147.36,134.22 151.44,130.33 155.52,125.10 159.60,119.03 163.68,112.97 167.76,107.80 171.84,104.16 175.92,102.24 180.00,101.73 184.08,101.96 188.16,102.14 192.24,101.60 196.32,100.02 200.40,97.50 204.48,94.51 208.56,91.68 212.64,89.60 216.72,88.58 220.80,88.55 224.88,89.15 228.96,89.81 233.04,90.01 237.12,89.49 241.20,88.26 245.28,86.65 249.36,85.12 253.44,84.10 257.52,83.77 261.60,84.08 265.68,84.71 269.76,85.25 273.84,85.38 277.92,84.97 282.00,84.14 286.08,83.19 290.16,82.46 294.24,82.16 298.32,82.33 302.40,82.78 306.48,83.25 310.56,83.46 314.64,83.29 318.72,82.82 322.80,82.23 326.88,81.79 330.96,81.64 335.04,81.80 339.12,82.14 343.20,82.46 347.28,82.58 351.36,82.44 355.44,82.11 359.52,81.75 363.60,81.53 367.68,81.53 371.76,81.71 375.84,81.96 379.92,82.14 384.00,82.14 388.08,81.97 392.16,81.73 396.24,81.54 400.32,81.49 404.40,81.59 408.48,81.76 412.56,81.90 416.64,81.94 420.72,81.85 424.80,81.70 428.88,81.56 432.96,81.51 437.04,81.57 441.12,81.69 445.20,81.80 449.28,81.82 453.36,81.77 457.44,81.66 461.52,81.57 465.60,81.55 469.68,81.59 473.76,81.68 477.84,81.74 481.92,81.75 486.00,81.71 490.08,81.63 494.16,81.58 498.24,81.58 502.32,81.62 506.40,81.68 510.48,81.71 514.56,81.71 518.64,81.66 522.72,81.62 526.80,81.59 530.88,81.61 534.96,81.64 539.04,81.68 543.12,81.69 547.20,81.67 551.28,81.64 555.36,81.61 559.44,81.61 563.52,81.63 567.60,81.66 571.68,81.67 575.76,81.67 579.84,81.65 583.92,81.62 588.00,81.62 592.08,81.63 596.16,81.65 600.24,81.66 604.32,81.66 608.40,81.65 612.48,81.63 616.56,81.62 620.64,81.63 624.72,81.64 628.80,81.66 632.88,81.66 636.96,81.65 641.04,81.64 645.12,81.63 649.20,81.63 653.28,81.64 657.36,81.65 661.44,81.65 665.52,81.65 669.60,81.64 673.68,81.63 677.76,81.64 681.84,81.64 685.92,81.65 690.00,81.65 694.08,81.64 698.16,81.64 702.24,81.64 706.32,81.64 710.40,81.64 714.48,81.65 718.56,81.65 722.64,81.64 726.72,81.64 730.80,81.64 734.88,81.64 738.96,81.64 743.04,81.65 747.12,81.64 751.20,81.64 755.28,81.64 759.36,81.64 763.44,81.64 767.52,81.64 771.60,81.64 775.68,81.64 779.76,81.64 783.84,81.64 787.92,81.64 792.00,81.64 796.08,81.64 800.16,81.64 804.24,81.64 808.32,81.64 812.40,81.64 816.48,81.64 820.56,81.64 824.64,81.64 828.72,81.64 832.80,81.64 836.88,81.64 840.96,81.64 845.04,81.64 849.12,81.64 853.20,81.64 857.28,81.64 861.36,81.64 865.44,81.64 869.52,81.64 873.60,81.64 877.68,81.64 881.76,81.64 885.84,81.64 889.92,81.64 894.00,81.64" fill="none" stroke="#0f766e" stroke-width="2.2"/>
<polyline points="78.00,393.03 82.08,393.03 86.16,359.34 90.24,320.42 94.32,279.50 98.40,240.05 102.48,207.91 106.56,187.97 110.64,179.35 114.72,177.99 118.80,179.43 122.88,179.61 126.96,175.75 131.04,167.13 135.12,154.81 139.20,140.82 143.28,127.69 147.36,117.79 151.44,112.42 155.52,111.43 159.60,113.45 163.68,116.50 167.76,118.50 171.84,117.96 175.92,114.44 180.00,108.55 184.08,101.66 188.16,95.46 192.24,91.34 196.32,89.98 200.40,91.08 204.48,93.60 208.56,96.10 212.64,97.32 216.72,96.55 220.80,93.89 224.88,90.15 228.96,86.50 233.04,84.01 237.12,83.28 241.20,84.23 245.28,86.15 249.36,88.02 253.44,88.95 257.52,88.49 261.60,86.78 265.68,84.49 269.76,82.47 273.84,81.41 277.92,81.57 282.00,82.69 286.08,84.12 290.16,85.16 294.24,85.30 298.32,84.50 302.40,83.12 306.48,81.77 310.56,80.99 314.64,81.04 318.72,81.79 322.80,82.78 326.88,83.51 330.96,83.63 335.04,83.09 339.12,82.19 343.20,81.36 347.28,80.97 351.36,81.14 355.44,81.73 359.52,82.40 363.60,82.78 367.68,82.70 371.76,82.23 375.84,81.62 379.92,81.19 384.00,81.13 388.08,81.43 392.16,81.90 396.24,82.26 400.32,82.33 404.40,82.09 408.48,81.69 412.56,81.35 416.64,81.25 420.72,81.41 424.80,81.73 428.88,82.00 432.96,82.08 437.04,81.94 441.12,81.67 445.20,81.44 449.28,81.36 453.36,81.48 457.44,81.69 461.52,81.87 465.60,81.92 469.68,81.81 473.76,81.63 477.84,81.48 481.92,81.45 486.00,81.55 490.08,81.70 494.16,81.81 498.24,81.81 502.32,81.72 506.40,81.59 510.48,81.51 514.56,81.53 518.64,81.62 522.72,81.72 526.80,81.76 530.88,81.73 534.96,81.65 539.04,81.57 543.12,81.55 547.20,81.59 551.28,81.66 555.36,81.72 559.44,81.72 563.52,81.67 567.60,81.61 571.68,81.58 575.76,81.59 579.84,81.64 583.92,81.68 588.00,81.70 592.08,81.67 596.16,81.63 600.24,81.60 604.32,81.60 608.40,81.63 612.48,81.67 616.56,81.68 620.64,81.67 624.72,81.64 628.80,81.61 632.88,81.61 636.96,81.63 641.04,81.66 645.12,81.67 649.20,81.66 653.28,81.64 657.36,81.62 661.44,81.62 665.52,81.63 669.60,81.65 673.68,81.66 677.76,81.65 681.84,81.64 685.92,81.63 690.00,81.63 694.08,81.64 698.16,81.65 702.24,81.65 706.32,81.65 710.40,81.64 714.48,81.63 718.56,81.63 722.64,81.64 726.72,81.65 730.80,81.65 734.88,81.65 738.96,81.64 743.04,81.63 747.12,81.64 751.20,81.64 755.28,81.65 759.36,81.65 763.44,81.64 767.52,81.64 771.60,81.64 775.68,81.64 779.76,81.64 783.84,81.65 787.92,81.65 792.00,81.64 796.08,81.64 800.16,81.64 804.24,81.64 808.32,81.64 812.40,81.65 816.48,81.64 820.56,81.64 824.64,81.64 828.72,81.64 832.80,81.64 836.88,81.64 840.96,81.64 845.04,81.64 849.12,81.64 853.20,81.64 857.28,81.64 861.36,81.64 865.44,81.64 869.52,81.64 873.60,81.64 877.68,81.64 881.76,81.64 885.84,81.64 889.92,81.64 894.00,81.64" fill="none" stroke="#b45309" stroke-width="2.2"/>
<rect x="724.00" y="66.00" width="160" height="70.00" rx="8" fill="#f9fafb" stroke="#d1d5db"/>
<text x="734.00" y="82.00" font-size="12" font-weight="700" fill="#111827">Legend</text>
<line x1="734.00" y1="98.00" x2="760.00" y2="98.00" stroke="#0f766e" stroke-width="3"/>
<text x="768.00" y="102.00" font-size="12" fill="#111827">Vth_n</text>
<line x1="734.00" y1="120.00" x2="760.00" y2="120.00" stroke="#b45309" stroke-width="3"/>
<text x="768.00" y="124.00" font-size="12" fill="#111827">|Vth_p|</text>
</svg>
