<?xml version="1.0" encoding="UTF-8"?><svg xmlns="http://www.w3.org/2000/svg" viewBox="-60.000 -1206.000 3575.000 1256.000" width="3575" height="1256"><rect x="-60.000" y="-1206.000" width="3575.000" height="1256.000" fill="white" stroke="none"/><g fill="#e74c3c" fill-opacity="0.450" stroke="#e74c3c" stroke-width="0.500"><rect x="15.000" y="-1055.000" width="5.000" height="50.000" /><rect x="220.000" y="-1075.000" width="5.000" height="70.000" /><rect x="0.000" y="-410.000" width="2000.000" height="10.000" /><rect x="2040.000" y="-485.000" width="1000.000" height="10.000" /><rect x="2040.000" y="-560.000" width="1000.000" height="10.000" /><rect x="2040.000" y="-635.000" width="1000.000" height="10.000" /><rect x="2040.000" y="-710.000" width="1000.000" height="10.000" /><rect x="0.000" y="-485.000" width="2000.000" height="10.000" /><rect x="0.000" y="-560.000" width="2000.000" height="10.000" /><rect x="0.000" y="-635.000" width="2000.000" height="10.000" /><rect x="0.000" y="-710.000" width="2000.000" height="10.000" /><rect x="3430.000" y="-727.500" width="5.000" height="110.000" /><rect x="3395.000" y="-777.500" width="5.000" height="70.000" /><rect x="3465.000" y="-777.500" width="5.000" height="70.000" /><rect x="3395.000" y="-867.500" width="5.000" height="70.000" /><rect x="3465.000" y="-867.500" width="5.000" height="70.000" /><rect x="3395.000" y="-977.500" width="5.000" height="90.000" /><rect x="3465.000" y="-977.500" width="5.000" height="90.000" /></g><g fill="#27ae60" fill-opacity="0.450" stroke="#27ae60" stroke-width="0.500"><rect x="205.000" y="-1047.500" width="3200.000" height="15.000" /><rect x="3390.000" y="-1047.500" width="15.000" height="285.000" /><rect x="3040.000" y="-715.000" width="437.500" height="20.000" /><rect x="3457.500" y="-780.000" width="20.000" height="85.000" /><rect x="99.500" y="-750.000" width="3385.500" height="15.000" /><rect x="99.500" y="-750.000" width="15.000" height="743.900" /><rect x="13.000" y="-23.600" width="2007.000" height="20.000" /><rect x="2000.000" y="-490.000" width="20.000" height="486.400" /><rect x="36.000" y="-23.600" width="1984.000" height="20.000" /><rect x="2000.000" y="-565.000" width="20.000" height="561.400" /><rect x="59.000" y="-23.600" width="1961.000" height="20.000" /><rect x="2000.000" y="-640.000" width="20.000" height="636.400" /><rect x="82.000" y="-23.600" width="1938.000" height="20.000" /><rect x="2000.000" y="-715.000" width="20.000" height="711.400" /><rect x="4.000" y="-1047.500" width="236.000" height="15.000" /><rect x="4.000" y="-1047.500" width="15.000" height="1027.800" /><rect x="-28.500" y="-1100.000" width="233.500" height="80.000" /><rect x="-28.500" y="-1100.000" width="80.000" height="1140.000" /><rect x="-50.000" y="-1100.000" width="255.000" height="80.000" /><rect x="-50.000" y="-1100.000" width="80.000" height="735.000" /><rect x="-32.500" y="-1070.000" width="157.500" height="80.000" /><rect x="45.000" y="-1100.000" width="80.000" height="110.000" /><rect x="0.000" y="-1037.500" width="230.000" height="15.000" /><rect x="215.000" y="-1075.000" width="15.000" height="52.500" /><rect x="-22.500" y="-1100.000" width="227.500" height="80.000" /><rect x="-22.500" y="-1100.000" width="80.000" height="145.000" /><rect x="125.000" y="-1100.000" width="137.500" height="80.000" /><rect x="182.500" y="-1100.000" width="80.000" height="145.000" /><rect x="0.000" y="-1037.500" width="15.000" height="15.000" /><rect x="20.000" y="-1037.500" width="15.000" height="15.000" /><rect x="10.000" y="-1055.000" width="15.000" height="15.000" /><rect x="10.000" y="-1002.500" width="15.000" height="15.000" /><rect x="85.000" y="-1100.000" width="80.000" height="80.000" /><rect x="205.000" y="-1047.500" width="15.000" height="15.000" /><rect x="225.000" y="-1047.500" width="15.000" height="15.000" /><rect x="215.000" y="-1075.000" width="15.000" height="15.000" /><rect x="215.000" y="-1002.500" width="15.000" height="15.000" /><rect x="-4.000" y="-12.160" width="31.000" height="8.000" /><rect x="-4.000" y="-12.160" width="54.000" height="8.000" /><rect x="-4.000" y="-12.160" width="77.000" height="8.000" /><rect x="-4.000" y="-12.160" width="133.400" height="8.000" /><rect x="121.400" y="-17.600" width="8.000" height="13.440" /><rect x="7.500" y="-73.400" width="8.000" height="50.200" /><rect x="5.200" y="-73.400" width="10.300" height="8.000" /><rect x="7.500" y="-31.200" width="31.000" height="8.000" /><rect x="7.500" y="-73.400" width="8.000" height="50.200" /><rect x="7.500" y="-73.400" width="24.100" height="8.000" /><rect x="7.500" y="-31.200" width="54.000" height="8.000" /><rect x="7.500" y="-73.400" width="8.000" height="50.200" /><rect x="7.500" y="-73.400" width="42.500" height="8.000" /><rect x="7.500" y="-31.200" width="77.000" height="8.000" /><rect x="7.500" y="-73.400" width="8.000" height="50.200" /><rect x="7.500" y="-73.400" width="60.900" height="8.000" /><rect x="7.500" y="-31.200" width="112.700" height="8.000" /><rect x="7.500" y="-31.200" width="146.100" height="8.000" /><rect x="7.500" y="-46.200" width="8.000" height="50.200" /><rect x="5.200" y="-46.200" width="10.300" height="8.000" /><rect x="7.500" y="-4.000" width="31.000" height="8.000" /><rect x="7.500" y="-46.200" width="8.000" height="50.200" /><rect x="7.500" y="-46.200" width="24.100" height="8.000" /><rect x="7.500" y="-4.000" width="54.000" height="8.000" /><rect x="7.500" y="-46.200" width="8.000" height="50.200" /><rect x="7.500" y="-46.200" width="42.500" height="8.000" /><rect x="7.500" y="-4.000" width="77.000" height="8.000" /><rect x="7.500" y="-46.200" width="8.000" height="50.200" /><rect x="7.500" y="-46.200" width="60.900" height="8.000" /><rect x="7.500" y="-4.000" width="112.700" height="8.000" /><rect x="7.500" y="-4.000" width="146.100" height="8.000" /><rect x="0.000" y="-0.010" width="23.000" height="0.010" /><rect x="0.000" y="-27.200" width="23.000" height="0.010" /><rect x="0.000" y="-27.200" width="0.010" height="27.200" /><rect x="22.990" y="-27.200" width="0.010" height="27.200" /><rect x="0.000" y="-27.200" width="23.000" height="27.200" /><rect x="0.060" y="-0.010" width="0.010" height="0.010" /><rect x="23.000" y="-0.010" width="23.000" height="0.010" /><rect x="23.000" y="-27.200" width="23.000" height="0.010" /><rect x="23.000" y="-27.200" width="0.010" height="27.200" /><rect x="45.990" y="-27.200" width="0.010" height="27.200" /><rect x="23.000" y="-27.200" width="23.000" height="27.200" /><rect x="23.060" y="-0.010" width="0.010" height="0.010" /><rect x="46.000" y="-0.010" width="23.000" height="0.010" /><rect x="46.000" y="-27.200" width="23.000" height="0.010" /><rect x="46.000" y="-27.200" width="0.010" height="27.200" /><rect x="68.990" y="-27.200" width="0.010" height="27.200" /><rect x="46.000" y="-27.200" width="23.000" height="27.200" /><rect x="46.060" y="-0.010" width="0.010" height="0.010" /><rect x="69.000" y="-0.010" width="23.000" height="0.010" /><rect x="69.000" y="-27.200" width="23.000" height="0.010" /><rect x="69.000" y="-27.200" width="0.010" height="27.200" /><rect x="91.990" y="-27.200" width="0.010" height="27.200" /><rect x="69.000" y="-27.200" width="23.000" height="27.200" /><rect x="69.060" y="-0.010" width="0.010" height="0.010" /><rect x="0.000" y="-42.210" width="18.400" height="0.010" /><rect x="0.000" y="-69.400" width="18.400" height="0.010" /><rect x="0.000" y="-69.400" width="0.010" height="27.200" /><rect x="18.390" y="-69.400" width="0.010" height="27.200" /><rect x="0.000" y="-69.400" width="18.400" height="27.200" /><rect x="0.000" y="-42.210" width="0.010" height="0.010" /><rect x="18.400" y="-42.210" width="18.400" height="0.010" /><rect x="18.400" y="-69.400" width="18.400" height="0.010" /><rect x="18.400" y="-69.400" width="0.010" height="27.200" /><rect x="36.790" y="-69.400" width="0.010" height="27.200" /><rect x="18.400" y="-69.400" width="18.400" height="27.200" /><rect x="18.400" y="-42.210" width="0.010" height="0.010" /><rect x="36.800" y="-42.210" width="18.400" height="0.010" /><rect x="36.800" y="-69.400" width="18.400" height="0.010" /><rect x="36.800" y="-69.400" width="0.010" height="27.200" /><rect x="55.190" y="-69.400" width="0.010" height="27.200" /><rect x="36.800" y="-69.400" width="18.400" height="27.200" /><rect x="36.800" y="-42.210" width="0.010" height="0.010" /><rect x="55.200" y="-42.210" width="18.400" height="0.010" /><rect x="55.200" y="-69.400" width="18.400" height="0.010" /><rect x="55.200" y="-69.400" width="0.010" height="27.200" /><rect x="73.590" y="-69.400" width="0.010" height="27.200" /><rect x="55.200" y="-69.400" width="18.400" height="27.200" /><rect x="55.200" y="-42.210" width="0.010" height="0.010" /><rect x="107.000" y="-0.010" width="18.400" height="0.010" /><rect x="107.000" y="-27.200" width="18.400" height="0.010" /><rect x="107.000" y="-27.200" width="0.010" height="27.200" /><rect x="125.390" y="-27.200" width="0.010" height="27.200" /><rect x="107.000" y="-27.200" width="18.400" height="27.200" /><rect x="107.000" y="-0.010" width="0.010" height="0.010" /><rect x="140.400" y="-0.010" width="18.400" height="0.010" /><rect x="140.400" y="-27.200" width="18.400" height="0.010" /><rect x="140.400" y="-27.200" width="0.010" height="27.200" /><rect x="158.790" y="-27.200" width="0.010" height="27.200" /><rect x="140.400" y="-27.200" width="18.400" height="27.200" /><rect x="140.400" y="-0.010" width="0.010" height="0.010" /><rect x="-20.000" y="-415.000" width="2040.000" height="20.000" /><rect x="-20.000" y="-490.000" width="20.000" height="95.000" /><rect x="2000.000" y="-415.000" width="40.000" height="20.000" /><rect x="2020.000" y="-490.000" width="20.000" height="95.000" /><rect x="-20.000" y="-490.000" width="3080.000" height="20.000" /><rect x="-20.000" y="-565.000" width="20.000" height="95.000" /><rect x="2020.000" y="-490.000" width="1040.000" height="20.000" /><rect x="2020.000" y="-565.000" width="20.000" height="95.000" /><rect x="-20.000" y="-565.000" width="3080.000" height="20.000" /><rect x="-20.000" y="-640.000" width="20.000" height="95.000" /><rect x="2020.000" y="-565.000" width="1040.000" height="20.000" /><rect x="2020.000" y="-640.000" width="20.000" height="95.000" /><rect x="-20.000" y="-640.000" width="3080.000" height="20.000" /><rect x="-20.000" y="-715.000" width="20.000" height="95.000" /><rect x="2020.000" y="-640.000" width="1040.000" height="20.000" /><rect x="2020.000" y="-715.000" width="20.000" height="95.000" /><rect x="-10.000" y="-415.000" width="20.000" height="20.000" /><rect x="1990.000" y="-415.000" width="20.000" height="20.000" /><rect x="2030.000" y="-490.000" width="20.000" height="20.000" /><rect x="3030.000" y="-490.000" width="20.000" height="20.000" /><rect x="2030.000" y="-565.000" width="20.000" height="20.000" /><rect x="3030.000" y="-565.000" width="20.000" height="20.000" /><rect x="2030.000" y="-640.000" width="20.000" height="20.000" /><rect x="3030.000" y="-640.000" width="20.000" height="20.000" /><rect x="2030.000" y="-715.000" width="20.000" height="20.000" /><rect x="3030.000" y="-715.000" width="20.000" height="20.000" /><rect x="-10.000" y="-490.000" width="20.000" height="20.000" /><rect x="1990.000" y="-490.000" width="20.000" height="20.000" /><rect x="-10.000" y="-565.000" width="20.000" height="20.000" /><rect x="1990.000" y="-565.000" width="20.000" height="20.000" /><rect x="-10.000" y="-640.000" width="20.000" height="20.000" /><rect x="1990.000" y="-640.000" width="20.000" height="20.000" /><rect x="-10.000" y="-715.000" width="20.000" height="20.000" /><rect x="1990.000" y="-715.000" width="20.000" height="20.000" /><rect x="3425.000" y="-940.000" width="15.000" height="227.500" /><rect x="3380.000" y="-940.000" width="60.000" height="15.000" /><rect x="3425.000" y="-940.000" width="15.000" height="227.500" /><rect x="3425.000" y="-940.000" width="40.000" height="15.000" /><rect x="3425.000" y="-885.000" width="15.000" height="172.500" /><rect x="3390.000" y="-885.000" width="50.000" height="15.000" /><rect x="3425.000" y="-885.000" width="15.000" height="172.500" /><rect x="3425.000" y="-885.000" width="50.000" height="15.000" /><rect x="3415.000" y="-680.000" width="25.000" height="15.000" /><rect x="3425.000" y="-680.000" width="15.000" height="80.000" /><rect x="3390.000" y="-680.000" width="40.000" height="15.000" /><rect x="3390.000" y="-705.000" width="15.000" height="40.000" /><rect x="3415.000" y="-680.000" width="60.000" height="15.000" /><rect x="3460.000" y="-705.000" width="15.000" height="40.000" /><rect x="3390.000" y="-680.000" width="40.000" height="15.000" /><rect x="3390.000" y="-795.000" width="15.000" height="130.000" /><rect x="3415.000" y="-680.000" width="60.000" height="15.000" /><rect x="3460.000" y="-795.000" width="15.000" height="130.000" /><rect x="3380.000" y="-680.000" width="70.000" height="15.000" /><rect x="3380.000" y="-750.000" width="15.000" height="85.000" /><rect x="3435.000" y="-680.000" width="30.000" height="15.000" /><rect x="3450.000" y="-750.000" width="15.000" height="85.000" /><rect x="3380.000" y="-680.000" width="70.000" height="15.000" /><rect x="3380.000" y="-840.000" width="15.000" height="175.000" /><rect x="3435.000" y="-680.000" width="30.000" height="15.000" /><rect x="3450.000" y="-840.000" width="15.000" height="175.000" /><rect x="3400.000" y="-840.000" width="15.000" height="105.000" /><rect x="3400.000" y="-750.000" width="75.000" height="15.000" /><rect x="3460.000" y="-867.500" width="15.000" height="132.500" /><rect x="3400.000" y="-940.000" width="15.000" height="205.000" /><rect x="3400.000" y="-750.000" width="75.000" height="15.000" /><rect x="3460.000" y="-977.500" width="15.000" height="242.500" /><rect x="3470.000" y="-840.000" width="15.000" height="105.000" /><rect x="3390.000" y="-750.000" width="95.000" height="15.000" /><rect x="3390.000" y="-867.500" width="15.000" height="132.500" /><rect x="3470.000" y="-940.000" width="15.000" height="205.000" /><rect x="3390.000" y="-750.000" width="95.000" height="15.000" /><rect x="3390.000" y="-977.500" width="15.000" height="242.500" /><rect x="3415.000" y="-680.000" width="15.000" height="15.000" /><rect x="3435.000" y="-680.000" width="15.000" height="15.000" /><rect x="3425.000" y="-727.500" width="15.000" height="15.000" /><rect x="3425.000" y="-615.000" width="15.000" height="15.000" /><rect x="3380.000" y="-750.000" width="15.000" height="15.000" /><rect x="3400.000" y="-750.000" width="15.000" height="15.000" /><rect x="3390.000" y="-777.500" width="15.000" height="15.000" /><rect x="3390.000" y="-705.000" width="15.000" height="15.000" /><rect x="3450.000" y="-750.000" width="15.000" height="15.000" /><rect x="3470.000" y="-750.000" width="15.000" height="15.000" /><rect x="3460.000" y="-777.500" width="15.000" height="15.000" /><rect x="3460.000" y="-705.000" width="15.000" height="15.000" /><rect x="3380.000" y="-840.000" width="15.000" height="15.000" /><rect x="3400.000" y="-840.000" width="15.000" height="15.000" /><rect x="3390.000" y="-867.500" width="15.000" height="15.000" /><rect x="3390.000" y="-795.000" width="15.000" height="15.000" /><rect x="3450.000" y="-840.000" width="15.000" height="15.000" /><rect x="3470.000" y="-840.000" width="15.000" height="15.000" /><rect x="3460.000" y="-867.500" width="15.000" height="15.000" /><rect x="3460.000" y="-795.000" width="15.000" height="15.000" /><rect x="3380.000" y="-940.000" width="15.000" height="15.000" /><rect x="3400.000" y="-940.000" width="15.000" height="15.000" /><rect x="3390.000" y="-977.500" width="15.000" height="15.000" /><rect x="3390.000" y="-885.000" width="15.000" height="15.000" /><rect x="3450.000" y="-940.000" width="15.000" height="15.000" /><rect x="3470.000" y="-940.000" width="15.000" height="15.000" /><rect x="3460.000" y="-977.500" width="15.000" height="15.000" /><rect x="3460.000" y="-885.000" width="15.000" height="15.000" /></g><g fill="#f39c12" fill-opacity="0.450" stroke="#f39c12" stroke-width="0.500"><rect x="5.000" y="-1032.500" width="5.000" height="5.000" /><rect x="25.000" y="-1032.500" width="5.000" height="5.000" /><rect x="15.000" y="-1050.000" width="5.000" height="5.000" /><rect x="15.000" y="-997.500" width="5.000" height="5.000" /><rect x="210.000" y="-1042.500" width="5.000" height="5.000" /><rect x="230.000" y="-1042.500" width="5.000" height="5.000" /><rect x="220.000" y="-1070.000" width="5.000" height="5.000" /><rect x="220.000" y="-997.500" width="5.000" height="5.000" /><rect x="-2.500" y="-407.500" width="5.000" height="5.000" /><rect x="1997.500" y="-407.500" width="5.000" height="5.000" /><rect x="2037.500" y="-482.500" width="5.000" height="5.000" /><rect x="3037.500" y="-482.500" width="5.000" height="5.000" /><rect x="2037.500" y="-557.500" width="5.000" height="5.000" /><rect x="3037.500" y="-557.500" width="5.000" height="5.000" /><rect x="2037.500" y="-632.500" width="5.000" height="5.000" /><rect x="3037.500" y="-632.500" width="5.000" height="5.000" /><rect x="2037.500" y="-707.500" width="5.000" height="5.000" /><rect x="3037.500" y="-707.500" width="5.000" height="5.000" /><rect x="-2.500" y="-482.500" width="5.000" height="5.000" /><rect x="1997.500" y="-482.500" width="5.000" height="5.000" /><rect x="-2.500" y="-557.500" width="5.000" height="5.000" /><rect x="1997.500" y="-557.500" width="5.000" height="5.000" /><rect x="-2.500" y="-632.500" width="5.000" height="5.000" /><rect x="1997.500" y="-632.500" width="5.000" height="5.000" /><rect x="-2.500" y="-707.500" width="5.000" height="5.000" /><rect x="1997.500" y="-707.500" width="5.000" height="5.000" /><rect x="3420.000" y="-675.000" width="5.000" height="5.000" /><rect x="3440.000" y="-675.000" width="5.000" height="5.000" /><rect x="3430.000" y="-722.500" width="5.000" height="5.000" /><rect x="3430.000" y="-610.000" width="5.000" height="5.000" /><rect x="3385.000" y="-745.000" width="5.000" height="5.000" /><rect x="3405.000" y="-745.000" width="5.000" height="5.000" /><rect x="3395.000" y="-772.500" width="5.000" height="5.000" /><rect x="3395.000" y="-700.000" width="5.000" height="5.000" /><rect x="3455.000" y="-745.000" width="5.000" height="5.000" /><rect x="3475.000" y="-745.000" width="5.000" height="5.000" /><rect x="3465.000" y="-772.500" width="5.000" height="5.000" /><rect x="3465.000" y="-700.000" width="5.000" height="5.000" /><rect x="3385.000" y="-835.000" width="5.000" height="5.000" /><rect x="3405.000" y="-835.000" width="5.000" height="5.000" /><rect x="3395.000" y="-862.500" width="5.000" height="5.000" /><rect x="3395.000" y="-790.000" width="5.000" height="5.000" /><rect x="3455.000" y="-835.000" width="5.000" height="5.000" /><rect x="3475.000" y="-835.000" width="5.000" height="5.000" /><rect x="3465.000" y="-862.500" width="5.000" height="5.000" /><rect x="3465.000" y="-790.000" width="5.000" height="5.000" /><rect x="3385.000" y="-935.000" width="5.000" height="5.000" /><rect x="3405.000" y="-935.000" width="5.000" height="5.000" /><rect x="3395.000" y="-972.500" width="5.000" height="5.000" /><rect x="3395.000" y="-880.000" width="5.000" height="5.000" /><rect x="3455.000" y="-935.000" width="5.000" height="5.000" /><rect x="3475.000" y="-935.000" width="5.000" height="5.000" /><rect x="3465.000" y="-972.500" width="5.000" height="5.000" /><rect x="3465.000" y="-880.000" width="5.000" height="5.000" /></g><g fill="#c0392b" fill-opacity="0.450" stroke="#c0392b" stroke-width="0.500"><rect x="0.000" y="-1040.000" width="35.000" height="20.000" /><rect x="205.000" y="-1060.000" width="35.000" height="40.000" /><rect x="3415.000" y="-712.500" width="35.000" height="80.000" /><rect x="3380.000" y="-762.500" width="35.000" height="40.000" /><rect x="3450.000" y="-762.500" width="35.000" height="40.000" /><rect x="3380.000" y="-852.500" width="35.000" height="40.000" /><rect x="3450.000" y="-852.500" width="35.000" height="40.000" /><rect x="3380.000" y="-962.500" width="35.000" height="60.000" /><rect x="3450.000" y="-962.500" width="35.000" height="60.000" /></g><g fill="#9b59b6" fill-opacity="0.450" stroke="#9b59b6" stroke-width="0.500"><rect x="3360.000" y="-982.500" width="75.000" height="100.000" /><rect x="3430.000" y="-982.500" width="75.000" height="100.000" /></g><g fill="#27ae60" fill-opacity="0.450" stroke="#27ae60" stroke-width="0.500"><rect x="-5.000" y="-1045.000" width="45.000" height="30.000" /><rect x="200.000" y="-1065.000" width="45.000" height="50.000" /><rect x="3410.000" y="-717.500" width="45.000" height="90.000" /><rect x="3375.000" y="-767.500" width="45.000" height="50.000" /><rect x="3445.000" y="-767.500" width="45.000" height="50.000" /><rect x="3375.000" y="-857.500" width="45.000" height="50.000" /><rect x="3445.000" y="-857.500" width="45.000" height="50.000" /></g><g fill="#e67e22" fill-opacity="0.450" stroke="#e67e22" stroke-width="0.500"><rect x="3375.000" y="-967.500" width="45.000" height="70.000" /><rect x="3445.000" y="-967.500" width="45.000" height="70.000" /></g><text x="115.000" y="-1103.000" font-family="sans-serif" font-size="7" text-anchor="middle" dominant-baseline="alphabetic" fill="#222" stroke="white" stroke-width="2.5" paint-order="stroke" stroke-linejoin="round">SH</text><text x="17.500" y="-1058.000" font-family="sans-serif" font-size="7" text-anchor="middle" dominant-baseline="alphabetic" fill="#222" stroke="white" stroke-width="2.5" paint-order="stroke" stroke-linejoin="round">NMOS</text><text x="125.000" y="-1103.000" font-family="sans-serif" font-size="7" text-anchor="middle" dominant-baseline="alphabetic" fill="#222" stroke="white" stroke-width="2.5" paint-order="stroke" stroke-linejoin="round">C</text><text x="222.500" y="-1078.000" font-family="sans-serif" font-size="7" text-anchor="middle" dominant-baseline="alphabetic" fill="#222" stroke="white" stroke-width="2.5" paint-order="stroke" stroke-linejoin="round">NMOS</text><text x="74.800" y="-76.400" font-family="sans-serif" font-size="7" text-anchor="middle" dominant-baseline="alphabetic" fill="#222" stroke="white" stroke-width="2.5" paint-order="stroke" stroke-linejoin="round">SAR</text><text x="11.500" y="-30.200" font-family="sans-serif" font-size="7" text-anchor="middle" dominant-baseline="alphabetic" fill="#222" stroke="white" stroke-width="2.5" paint-order="stroke" stroke-linejoin="round">wrap</text><text x="11.500" y="-30.200" font-family="sans-serif" font-size="7" text-anchor="middle" dominant-baseline="alphabetic" fill="#222" stroke="white" stroke-width="2.5" paint-order="stroke" stroke-linejoin="round">fd</text><text x="34.500" y="-30.200" font-family="sans-serif" font-size="7" text-anchor="middle" dominant-baseline="alphabetic" fill="#222" stroke="white" stroke-width="2.5" paint-order="stroke" stroke-linejoin="round">wrap</text><text x="34.500" y="-30.200" font-family="sans-serif" font-size="7" text-anchor="middle" dominant-baseline="alphabetic" fill="#222" stroke="white" stroke-width="2.5" paint-order="stroke" stroke-linejoin="round">fd</text><text x="57.500" y="-30.200" font-family="sans-serif" font-size="7" text-anchor="middle" dominant-baseline="alphabetic" fill="#222" stroke="white" stroke-width="2.5" paint-order="stroke" stroke-linejoin="round">wrap</text><text x="57.500" y="-30.200" font-family="sans-serif" font-size="7" text-anchor="middle" dominant-baseline="alphabetic" fill="#222" stroke="white" stroke-width="2.5" paint-order="stroke" stroke-linejoin="round">fd</text><text x="80.500" y="-30.200" font-family="sans-serif" font-size="7" text-anchor="middle" dominant-baseline="alphabetic" fill="#222" stroke="white" stroke-width="2.5" paint-order="stroke" stroke-linejoin="round">wrap</text><text x="80.500" y="-30.200" font-family="sans-serif" font-size="7" text-anchor="middle" dominant-baseline="alphabetic" fill="#222" stroke="white" stroke-width="2.5" paint-order="stroke" stroke-linejoin="round">fd</text><text x="9.200" y="-72.400" font-family="sans-serif" font-size="7" text-anchor="middle" dominant-baseline="alphabetic" fill="#222" stroke="white" stroke-width="2.5" paint-order="stroke" stroke-linejoin="round">wrap</text><text x="9.200" y="-72.400" font-family="sans-serif" font-size="7" text-anchor="middle" dominant-baseline="alphabetic" fill="#222" stroke="white" stroke-width="2.5" paint-order="stroke" stroke-linejoin="round">fd</text><text x="27.600" y="-72.400" font-family="sans-serif" font-size="7" text-anchor="middle" dominant-baseline="alphabetic" fill="#222" stroke="white" stroke-width="2.5" paint-order="stroke" stroke-linejoin="round">wrap</text><text x="27.600" y="-72.400" font-family="sans-serif" font-size="7" text-anchor="middle" dominant-baseline="alphabetic" fill="#222" stroke="white" stroke-width="2.5" paint-order="stroke" stroke-linejoin="round">fd</text><text x="46.000" y="-72.400" font-family="sans-serif" font-size="7" text-anchor="middle" dominant-baseline="alphabetic" fill="#222" stroke="white" stroke-width="2.5" paint-order="stroke" stroke-linejoin="round">wrap</text><text x="46.000" y="-72.400" font-family="sans-serif" font-size="7" text-anchor="middle" dominant-baseline="alphabetic" fill="#222" stroke="white" stroke-width="2.5" paint-order="stroke" stroke-linejoin="round">fd</text><text x="64.400" y="-72.400" font-family="sans-serif" font-size="7" text-anchor="middle" dominant-baseline="alphabetic" fill="#222" stroke="white" stroke-width="2.5" paint-order="stroke" stroke-linejoin="round">wrap</text><text x="64.400" y="-72.400" font-family="sans-serif" font-size="7" text-anchor="middle" dominant-baseline="alphabetic" fill="#222" stroke="white" stroke-width="2.5" paint-order="stroke" stroke-linejoin="round">fd</text><text x="116.200" y="-30.200" font-family="sans-serif" font-size="7" text-anchor="middle" dominant-baseline="alphabetic" fill="#222" stroke="white" stroke-width="2.5" paint-order="stroke" stroke-linejoin="round">wrap</text><text x="116.200" y="-30.200" font-family="sans-serif" font-size="7" text-anchor="middle" dominant-baseline="alphabetic" fill="#222" stroke="white" stroke-width="2.5" paint-order="stroke" stroke-linejoin="round">fd</text><text x="149.600" y="-30.200" font-family="sans-serif" font-size="7" text-anchor="middle" dominant-baseline="alphabetic" fill="#222" stroke="white" stroke-width="2.5" paint-order="stroke" stroke-linejoin="round">wrap</text><text x="149.600" y="-30.200" font-family="sans-serif" font-size="7" text-anchor="middle" dominant-baseline="alphabetic" fill="#222" stroke="white" stroke-width="2.5" paint-order="stroke" stroke-linejoin="round">fd</text><text x="1520.000" y="-718.000" font-family="sans-serif" font-size="7" text-anchor="middle" dominant-baseline="alphabetic" fill="#222" stroke="white" stroke-width="2.5" paint-order="stroke" stroke-linejoin="round">DAC</text><text x="1000.000" y="-418.000" font-family="sans-serif" font-size="7" text-anchor="middle" dominant-baseline="alphabetic" fill="#222" stroke="white" stroke-width="2.5" paint-order="stroke" stroke-linejoin="round">Rterm</text><text x="2540.000" y="-493.000" font-family="sans-serif" font-size="7" text-anchor="middle" dominant-baseline="alphabetic" fill="#222" stroke="white" stroke-width="2.5" paint-order="stroke" stroke-linejoin="round">Rs0</text><text x="2540.000" y="-568.000" font-family="sans-serif" font-size="7" text-anchor="middle" dominant-baseline="alphabetic" fill="#222" stroke="white" stroke-width="2.5" paint-order="stroke" stroke-linejoin="round">Rs0</text><text x="2540.000" y="-643.000" font-family="sans-serif" font-size="7" text-anchor="middle" dominant-baseline="alphabetic" fill="#222" stroke="white" stroke-width="2.5" paint-order="stroke" stroke-linejoin="round">Rs0</text><text x="2540.000" y="-718.000" font-family="sans-serif" font-size="7" text-anchor="middle" dominant-baseline="alphabetic" fill="#222" stroke="white" stroke-width="2.5" paint-order="stroke" stroke-linejoin="round">Rs0</text><text x="1000.000" y="-493.000" font-family="sans-serif" font-size="7" text-anchor="middle" dominant-baseline="alphabetic" fill="#222" stroke="white" stroke-width="2.5" paint-order="stroke" stroke-linejoin="round">Rterm</text><text x="1000.000" y="-568.000" font-family="sans-serif" font-size="7" text-anchor="middle" dominant-baseline="alphabetic" fill="#222" stroke="white" stroke-width="2.5" paint-order="stroke" stroke-linejoin="round">Rterm</text><text x="1000.000" y="-643.000" font-family="sans-serif" font-size="7" text-anchor="middle" dominant-baseline="alphabetic" fill="#222" stroke="white" stroke-width="2.5" paint-order="stroke" stroke-linejoin="round">Rterm</text><text x="1000.000" y="-718.000" font-family="sans-serif" font-size="7" text-anchor="middle" dominant-baseline="alphabetic" fill="#222" stroke="white" stroke-width="2.5" paint-order="stroke" stroke-linejoin="round">Rterm</text><text x="3432.500" y="-980.500" font-family="sans-serif" font-size="7" text-anchor="middle" dominant-baseline="alphabetic" fill="#222" stroke="white" stroke-width="2.5" paint-order="stroke" stroke-linejoin="round">CMP</text><text x="3432.500" y="-730.500" font-family="sans-serif" font-size="7" text-anchor="middle" dominant-baseline="alphabetic" fill="#222" stroke="white" stroke-width="2.5" paint-order="stroke" stroke-linejoin="round">NMOS</text><text x="3397.500" y="-780.500" font-family="sans-serif" font-size="7" text-anchor="middle" dominant-baseline="alphabetic" fill="#222" stroke="white" stroke-width="2.5" paint-order="stroke" stroke-linejoin="round">NMOS</text><text x="3467.500" y="-780.500" font-family="sans-serif" font-size="7" text-anchor="middle" dominant-baseline="alphabetic" fill="#222" stroke="white" stroke-width="2.5" paint-order="stroke" stroke-linejoin="round">NMOS</text><text x="3397.500" y="-870.500" font-family="sans-serif" font-size="7" text-anchor="middle" dominant-baseline="alphabetic" fill="#222" stroke="white" stroke-width="2.5" paint-order="stroke" stroke-linejoin="round">NMOS</text><text x="3467.500" y="-870.500" font-family="sans-serif" font-size="7" text-anchor="middle" dominant-baseline="alphabetic" fill="#222" stroke="white" stroke-width="2.5" paint-order="stroke" stroke-linejoin="round">NMOS</text><text x="3397.500" y="-985.500" font-family="sans-serif" font-size="7" text-anchor="middle" dominant-baseline="alphabetic" fill="#222" stroke="white" stroke-width="2.5" paint-order="stroke" stroke-linejoin="round">PMOS</text><text x="3467.500" y="-985.500" font-family="sans-serif" font-size="7" text-anchor="middle" dominant-baseline="alphabetic" fill="#222" stroke="white" stroke-width="2.5" paint-order="stroke" stroke-linejoin="round">PMOS</text><g fill="black" stroke="none"><circle cx="27.500" cy="-1030.000" r="1.000" /><circle cx="17.500" cy="-1047.500" r="1.000" /><circle cx="140.400" cy="-13.600" r="1.000" /><circle cx="232.500" cy="-1040.000" r="1.000" /><circle cx="165.000" cy="-1060.000" r="1.000" /><circle cx="0.000" cy="-55.800" r="1.000" /><circle cx="0.000" cy="-19.040" r="1.000" /><circle cx="23.000" cy="-13.600" r="1.000" /><circle cx="18.400" cy="-55.800" r="1.000" /><circle cx="23.000" cy="-19.040" r="1.000" /><circle cx="46.000" cy="-13.600" r="1.000" /><circle cx="36.800" cy="-55.800" r="1.000" /><circle cx="46.000" cy="-19.040" r="1.000" /><circle cx="69.000" cy="-13.600" r="1.000" /><circle cx="55.200" cy="-55.800" r="1.000" /><circle cx="69.000" cy="-19.040" r="1.000" /><circle cx="92.000" cy="-13.600" r="1.000" /><circle cx="27.500" cy="-1030.000" r="1.000" /><circle cx="17.500" cy="-1047.500" r="1.000" /><circle cx="212.500" cy="-1040.000" r="1.000" /><circle cx="232.500" cy="-1040.000" r="1.000" /><circle cx="165.000" cy="-1060.000" r="1.000" /><circle cx="27.500" cy="-1030.000" r="1.000" /><circle cx="17.500" cy="-1047.500" r="1.000" /><circle cx="7.500" cy="-1030.000" r="1.000" /><circle cx="17.500" cy="-995.000" r="1.000" /><circle cx="85.000" cy="-1060.000" r="1.000" /><circle cx="165.000" cy="-1060.000" r="1.000" /><circle cx="232.500" cy="-1040.000" r="1.000" /><circle cx="222.500" cy="-1067.500" r="1.000" /><circle cx="212.500" cy="-1040.000" r="1.000" /><circle cx="222.500" cy="-995.000" r="1.000" /><circle cx="107.000" cy="-13.600" r="1.000" /><circle cx="140.400" cy="-13.600" r="1.000" /><circle cx="11.500" cy="-27.200" r="1.000" /><circle cx="11.500" cy="-0.000" r="1.000" /><circle cx="0.000" cy="-55.800" r="1.000" /><circle cx="0.000" cy="-19.040" r="1.000" /><circle cx="23.000" cy="-13.600" r="1.000" /><circle cx="18.400" cy="-55.800" r="1.000" /><circle cx="23.000" cy="-19.040" r="1.000" /><circle cx="46.000" cy="-13.600" r="1.000" /><circle cx="36.800" cy="-55.800" r="1.000" /><circle cx="46.000" cy="-19.040" r="1.000" /><circle cx="69.000" cy="-13.600" r="1.000" /><circle cx="55.200" cy="-55.800" r="1.000" /><circle cx="69.000" cy="-19.040" r="1.000" /><circle cx="92.000" cy="-13.600" r="1.000" /><circle cx="0.000" cy="-8.160" r="1.000" /><circle cx="0.000" cy="-19.040" r="1.000" /><circle cx="23.000" cy="-13.600" r="1.000" /><circle cx="11.500" cy="-27.200" r="1.000" /><circle cx="11.500" cy="-0.000" r="1.000" /><circle cx="23.000" cy="-8.160" r="1.000" /><circle cx="23.000" cy="-19.040" r="1.000" /><circle cx="46.000" cy="-13.600" r="1.000" /><circle cx="34.500" cy="-27.200" r="1.000" /><circle cx="34.500" cy="-0.000" r="1.000" /><circle cx="46.000" cy="-8.160" r="1.000" /><circle cx="46.000" cy="-19.040" r="1.000" /><circle cx="69.000" cy="-13.600" r="1.000" /><circle cx="57.500" cy="-27.200" r="1.000" /><circle cx="57.500" cy="-0.000" r="1.000" /><circle cx="69.000" cy="-8.160" r="1.000" /><circle cx="69.000" cy="-19.040" r="1.000" /><circle cx="92.000" cy="-13.600" r="1.000" /><circle cx="80.500" cy="-27.200" r="1.000" /><circle cx="80.500" cy="-0.000" r="1.000" /><circle cx="0.000" cy="-55.800" r="1.000" /><circle cx="18.400" cy="-55.800" r="1.000" /><circle cx="9.200" cy="-69.400" r="1.000" /><circle cx="9.200" cy="-42.200" r="1.000" /><circle cx="18.400" cy="-55.800" r="1.000" /><circle cx="36.800" cy="-55.800" r="1.000" /><circle cx="27.600" cy="-69.400" r="1.000" /><circle cx="27.600" cy="-42.200" r="1.000" /><circle cx="36.800" cy="-55.800" r="1.000" /><circle cx="55.200" cy="-55.800" r="1.000" /><circle cx="46.000" cy="-69.400" r="1.000" /><circle cx="46.000" cy="-42.200" r="1.000" /><circle cx="55.200" cy="-55.800" r="1.000" /><circle cx="73.600" cy="-55.800" r="1.000" /><circle cx="64.400" cy="-69.400" r="1.000" /><circle cx="64.400" cy="-42.200" r="1.000" /><circle cx="107.000" cy="-13.600" r="1.000" /><circle cx="125.400" cy="-13.600" r="1.000" /><circle cx="116.200" cy="-27.200" r="1.000" /><circle cx="116.200" cy="-0.000" r="1.000" /><circle cx="140.400" cy="-13.600" r="1.000" /><circle cx="158.800" cy="-13.600" r="1.000" /><circle cx="149.600" cy="-27.200" r="1.000" /><circle cx="149.600" cy="-0.000" r="1.000" /><circle cx="-10.000" cy="-405.000" r="1.000" /><circle cx="3050.000" cy="-705.000" r="1.000" /><circle cx="2010.000" cy="-480.000" r="1.000" /><circle cx="2010.000" cy="-555.000" r="1.000" /><circle cx="2010.000" cy="-630.000" r="1.000" /><circle cx="2010.000" cy="-705.000" r="1.000" /><circle cx="-10.000" cy="-405.000" r="1.000" /><circle cx="2010.000" cy="-405.000" r="1.000" /><circle cx="2030.000" cy="-480.000" r="1.000" /><circle cx="3050.000" cy="-480.000" r="1.000" /><circle cx="2030.000" cy="-555.000" r="1.000" /><circle cx="3050.000" cy="-555.000" r="1.000" /><circle cx="2030.000" cy="-630.000" r="1.000" /><circle cx="3050.000" cy="-630.000" r="1.000" /><circle cx="2030.000" cy="-705.000" r="1.000" /><circle cx="3050.000" cy="-705.000" r="1.000" /><circle cx="-10.000" cy="-480.000" r="1.000" /><circle cx="2010.000" cy="-480.000" r="1.000" /><circle cx="-10.000" cy="-555.000" r="1.000" /><circle cx="2010.000" cy="-555.000" r="1.000" /><circle cx="-10.000" cy="-630.000" r="1.000" /><circle cx="2010.000" cy="-630.000" r="1.000" /><circle cx="-10.000" cy="-705.000" r="1.000" /><circle cx="2010.000" cy="-705.000" r="1.000" /><circle cx="3397.500" cy="-770.000" r="1.000" /><circle cx="3467.500" cy="-770.000" r="1.000" /><circle cx="3477.500" cy="-742.500" r="1.000" /><circle cx="3432.500" cy="-720.000" r="1.000" /><circle cx="3422.500" cy="-672.500" r="1.000" /><circle cx="3442.500" cy="-672.500" r="1.000" /><circle cx="3432.500" cy="-720.000" r="1.000" /><circle cx="3422.500" cy="-672.500" r="1.000" /><circle cx="3432.500" cy="-607.500" r="1.000" /><circle cx="3407.500" cy="-742.500" r="1.000" /><circle cx="3397.500" cy="-770.000" r="1.000" /><circle cx="3387.500" cy="-742.500" r="1.000" /><circle cx="3397.500" cy="-697.500" r="1.000" /><circle cx="3477.500" cy="-742.500" r="1.000" /><circle cx="3467.500" cy="-770.000" r="1.000" /><circle cx="3457.500" cy="-742.500" r="1.000" /><circle cx="3467.500" cy="-697.500" r="1.000" /><circle cx="3407.500" cy="-832.500" r="1.000" /><circle cx="3397.500" cy="-860.000" r="1.000" /><circle cx="3387.500" cy="-832.500" r="1.000" /><circle cx="3397.500" cy="-787.500" r="1.000" /><circle cx="3477.500" cy="-832.500" r="1.000" /><circle cx="3467.500" cy="-860.000" r="1.000" /><circle cx="3457.500" cy="-832.500" r="1.000" /><circle cx="3467.500" cy="-787.500" r="1.000" /><circle cx="3407.500" cy="-932.500" r="1.000" /><circle cx="3397.500" cy="-970.000" r="1.000" /><circle cx="3387.500" cy="-932.500" r="1.000" /><circle cx="3397.500" cy="-877.500" r="1.000" /><circle cx="3477.500" cy="-932.500" r="1.000" /><circle cx="3467.500" cy="-970.000" r="1.000" /><circle cx="3457.500" cy="-932.500" r="1.000" /><circle cx="3467.500" cy="-877.500" r="1.000" /></g><rect x="-56.000" y="-1202.000" width="130.000" height="92.000" fill="white" stroke="#333" stroke-width="0.5"/><rect x="-52.000" y="-1198.000" width="14.000" height="10.000" fill="#e74c3c" stroke="#e74c3c" stroke-width="0.5"/><text x="-34.000" y="-1190.000" font-size="9" font-family="sans-serif" fill="#222">POLY (66/20)</text><rect x="-52.000" y="-1186.000" width="14.000" height="10.000" fill="#27ae60" stroke="#27ae60" stroke-width="0.5"/><text x="-34.000" y="-1178.000" font-size="9" font-family="sans-serif" fill="#222">MET1 (68/20)</text><rect x="-52.000" y="-1174.000" width="14.000" height="10.000" fill="#f39c12" stroke="#f39c12" stroke-width="0.5"/><text x="-34.000" y="-1166.000" font-size="9" font-family="sans-serif" fill="#222">LICON1 (66/44)</text><rect x="-52.000" y="-1162.000" width="14.000" height="10.000" fill="#c0392b" stroke="#c0392b" stroke-width="0.5"/><text x="-34.000" y="-1154.000" font-size="9" font-family="sans-serif" fill="#222">DIFF (65/20)</text><rect x="-52.000" y="-1150.000" width="14.000" height="10.000" fill="#9b59b6" stroke="#9b59b6" stroke-width="0.5"/><text x="-34.000" y="-1142.000" font-size="9" font-family="sans-serif" fill="#222">NWELL (64/20)</text><rect x="-52.000" y="-1138.000" width="14.000" height="10.000" fill="#27ae60" stroke="#27ae60" stroke-width="0.5"/><text x="-34.000" y="-1130.000" font-size="9" font-family="sans-serif" fill="#222">NSDM (93/44)</text><rect x="-52.000" y="-1126.000" width="14.000" height="10.000" fill="#e67e22" stroke="#e67e22" stroke-width="0.5"/><text x="-34.000" y="-1118.000" font-size="9" font-family="sans-serif" fill="#222">PSDM (94/20)</text></svg>