<?xml version="1.0" encoding="UTF-8"?><svg xmlns="http://www.w3.org/2000/svg" viewBox="-286.360 -6108.970 4317.010 6338.040" width="4317" height="6338"><rect x="-286.360" y="-6108.970" width="4317.010" height="6338.040" fill="white" stroke="none"/><g fill="#e74c3c" fill-opacity="0.450" stroke="#e74c3c" stroke-width="0.500"><rect x="2711.150" y="-3377.920" width="522.740" height="816.830" /><rect x="1525.790" y="-1433.880" width="650.070" height="572.910" /><rect x="1075.060" y="-5408.600" width="613.530" height="748.740" /><rect x="685.610" y="-1000.340" width="836.050" height="513.590" /><rect x="1324.850" y="-1971.750" width="690.130" height="522.560" /><rect x="1891.410" y="-2326.760" width="694.830" height="721.520" /><rect x="1663.820" y="-5386.310" width="687.940" height="631.220" /><rect x="327.390" y="-3099.030" width="514.280" height="610.220" /><rect x="3122.950" y="-3108.500" width="525.350" height="539.520" /><rect x="2376.250" y="-3283.480" width="359.350" height="790.490" /><rect x="1085.000" y="-1454.460" width="446.160" height="451.180" /><rect x="1497.410" y="-3293.490" width="494.700" height="459.820" /><rect x="1196.510" y="-3286.290" width="256.940" height="367.690" /><rect x="684.450" y="-5408.360" width="340.410" height="265.730" /><rect x="729.410" y="-479.790" width="537.780" height="129.000" /><rect x="1682.010" y="-3297.460" width="433.010" height="84.530" /><rect x="2828.850" y="-2250.900" width="437.710" height="132.000" /><rect x="338.570" y="-3180.080" width="446.150" height="164.310" /><rect x="2555.060" y="-3721.630" width="172.260" height="201.140" /><rect x="1180.460" y="-3139.790" width="128.670" height="304.850" /><rect x="1884.980" y="-3168.460" width="101.000" height="356.250" /><rect x="1678.190" y="-3105.740" width="118.630" height="263.580" /><rect x="1514.560" y="-3122.070" width="84.080" height="304.910" /><rect x="1516.400" y="-3294.460" width="90.600" height="455.440" /><rect x="1368.390" y="-3232.500" width="87.250" height="312.770" /><rect x="3346.330" y="-2871.410" width="161.990" height="461.440" /><rect x="2880.910" y="-863.830" width="87.170" height="233.440" /><rect x="1183.230" y="-3294.010" width="113.610" height="454.360" /><rect x="3501.580" y="-3162.090" width="105.870" height="554.850" /><rect x="1860.170" y="-3309.750" width="238.220" height="100.530" /><rect x="2427.590" y="-3454.040" width="209.470" height="64.800" /><rect x="1671.170" y="-3246.670" width="134.650" height="56.660" /><rect x="1363.770" y="-3287.200" width="88.460" height="365.670" /></g><g fill="#27ae60" fill-opacity="0.450" stroke="#27ae60" stroke-width="0.500"><rect x="2497.230" y="-2551.080" width="665.170" height="525.090" /><rect x="2481.990" y="-979.210" width="404.950" height="539.980" /><rect x="1263.670" y="-4638.510" width="440.150" height="244.540" /><rect x="1767.550" y="-4779.300" width="539.270" height="250.480" /><rect x="3155.360" y="-2592.130" width="280.900" height="342.410" /><rect x="1666.650" y="-4109.790" width="208.440" height="190.920" /><rect x="516.470" y="-883.490" width="181.960" height="389.450" /><rect x="2475.180" y="-2026.500" width="419.230" height="210.660" /><rect x="1369.700" y="-3587.770" width="363.910" height="107.700" /><rect x="1210.480" y="-4127.810" width="148.480" height="215.350" /><rect x="2253.330" y="-461.410" width="401.830" height="93.760" /><rect x="2855.650" y="-767.960" width="142.200" height="230.680" /><rect x="622.750" y="-5292.010" width="72.520" height="324.550" /><rect x="1362.930" y="-3886.770" width="281.280" height="90.830" /><rect x="2338.870" y="-3406.580" width="115.980" height="193.210" /><rect x="1695.620" y="-1826.690" width="88.760" height="491.280" /><rect x="2686.930" y="-2949.270" width="240.290" height="413.110" /><rect x="1426.910" y="-2208.780" width="598.050" height="57.960" /><rect x="1090.660" y="-4811.350" width="261.880" height="136.420" /><rect x="537.410" y="-4447.800" width="51.450" height="369.010" /><rect x="1636.660" y="-4010.810" width="136.230" height="172.120" /><rect x="2062.100" y="-3889.110" width="257.430" height="86.220" /><rect x="818.550" y="-3832.130" width="226.430" height="107.440" /><rect x="1355.260" y="-3411.530" width="376.110" height="47.640" /><rect x="1703.490" y="-1027.340" width="109.190" height="263.130" /><rect x="2307.020" y="-5289.550" width="65.870" height="280.900" /><rect x="1687.880" y="-5424.640" width="530.440" height="59.490" /><rect x="927.180" y="-4125.400" width="382.780" height="52.160" /><rect x="764.180" y="-2336.200" width="274.610" height="125.320" /><rect x="1694.060" y="-4112.790" width="419.340" height="51.770" /><rect x="2258.720" y="-4786.110" width="74.850" height="293.610" /><rect x="1465.430" y="-4596.040" width="311.710" height="147.190" /><rect x="2483.540" y="-4448.750" width="49.520" height="346.230" /><rect x="1804.020" y="-4830.420" width="230.510" height="132.550" /><rect x="631.380" y="-4592.860" width="642.370" height="61.730" /><rect x="1451.630" y="-4427.540" width="77.350" height="189.510" /><rect x="1176.210" y="-3639.010" width="192.050" height="78.400" /><rect x="1721.640" y="-3641.770" width="188.030" height="75.640" /><rect x="1115.410" y="-2718.890" width="83.480" height="150.830" /><rect x="2463.460" y="-1878.410" width="247.110" height="100.030" /><rect x="1289.720" y="-4001.700" width="116.740" height="140.870" /><rect x="2335.780" y="-2356.300" width="304.090" height="74.060" /><rect x="318.860" y="-3017.700" width="45.130" height="315.200" /><rect x="396.430" y="-3287.320" width="160.220" height="113.490" /><rect x="2514.950" y="-438.330" width="274.980" height="56.490" /><rect x="2335.960" y="-2919.140" width="59.640" height="246.660" /><rect x="957.900" y="-2930.960" width="129.990" height="96.320" /><rect x="747.470" y="-5397.480" width="451.380" height="51.090" /><rect x="1067.310" y="-2217.390" width="350.780" height="53.730" /><rect x="1183.050" y="-4567.460" width="354.490" height="129.600" /><rect x="2498.750" y="-2264.690" width="111.740" height="326.730" /><rect x="2555.240" y="-2626.180" width="120.960" height="264.570" /><rect x="3285.570" y="-3081.660" width="74.520" height="386.600" /><rect x="728.610" y="-4951.180" width="57.700" height="397.650" /><rect x="1061.060" y="-1162.180" width="283.450" height="63.040" /><rect x="2887.520" y="-2608.790" width="493.990" height="57.660" /><rect x="3039.670" y="-3288.000" width="371.890" height="37.870" /><rect x="2142.250" y="-1161.760" width="323.630" height="46.500" /><rect x="796.880" y="-2370.980" width="43.800" height="318.860" /><rect x="3612.270" y="-3045.170" width="51.160" height="266.350" /><rect x="1077.580" y="-4746.180" width="105.080" height="188.250" /><rect x="2878.900" y="-2020.400" width="111.030" height="71.930" /><rect x="2350.830" y="-1613.890" width="62.860" height="166.740" /><rect x="1608.830" y="-4845.080" width="70.630" height="233.510" /><rect x="1769.550" y="-4760.920" width="97.790" height="213.380" /><rect x="722.070" y="-3156.560" width="56.370" height="320.630" /><rect x="1386.740" y="-3869.300" width="299.100" height="62.200" /><rect x="637.280" y="-510.640" width="80.360" height="92.310" /><rect x="2472.960" y="-3526.200" width="71.220" height="286.520" /><rect x="893.520" y="-692.000" width="61.960" height="337.310" /><rect x="2007.140" y="-3830.990" width="86.580" height="77.280" /><rect x="2028.530" y="-2269.280" width="234.410" height="59.650" /><rect x="2418.970" y="-3156.270" width="99.000" height="94.750" /><rect x="2393.050" y="-4063.260" width="68.520" height="76.190" /><rect x="1288.460" y="-5462.750" width="414.210" height="40.000" /><rect x="2436.160" y="-1802.240" width="97.770" height="99.690" /><rect x="2270.460" y="-3964.110" width="100.210" height="62.670" /><rect x="1690.510" y="-1352.080" width="108.280" height="158.320" /><rect x="1506.960" y="-1843.410" width="353.860" height="52.240" /><rect x="508.430" y="-766.460" width="44.240" height="182.410" /><rect x="2896.980" y="-3097.580" width="373.100" height="48.660" /><rect x="936.160" y="-4870.100" width="48.790" height="326.450" /><rect x="2426.430" y="-2622.850" width="453.050" height="46.250" /><rect x="2784.130" y="-2461.960" width="518.800" height="57.230" /><rect x="2305.780" y="-3822.120" width="170.830" height="42.200" /><rect x="2397.470" y="-4575.040" width="71.790" height="90.770" /><rect x="578.620" y="-4100.190" width="53.940" height="100.070" /><rect x="1880.580" y="-3707.600" width="82.670" height="60.430" /><rect x="899.790" y="-2463.370" width="252.810" height="62.350" /><rect x="1673.990" y="-5172.820" width="259.360" height="60.920" /><rect x="1497.340" y="-4179.960" width="24.000" height="219.410" /><rect x="2466.370" y="-3774.020" width="146.830" height="33.160" /><rect x="1026.740" y="-5173.320" width="271.680" height="57.530" /><rect x="643.070" y="-3984.520" width="65.210" height="67.350" /><rect x="564.500" y="-2507.930" width="84.170" height="74.000" /><rect x="1200.570" y="-3653.790" width="61.010" height="158.110" /><rect x="2664.790" y="-3673.430" width="132.670" height="72.570" /><rect x="3070.270" y="-3107.820" width="67.360" height="448.810" /><rect x="1348.330" y="-4251.740" width="335.940" height="31.520" /><rect x="2265.300" y="-4656.790" width="135.290" height="77.130" /><rect x="1717.630" y="-3466.570" width="93.090" height="57.370" /><rect x="2187.530" y="-3909.820" width="115.380" height="77.760" /><rect x="2098.700" y="-504.250" width="105.650" height="64.230" /><rect x="2841.940" y="-571.180" width="88.800" height="89.920" /><rect x="2295.410" y="-3435.050" width="58.030" height="98.830" /><rect x="754.410" y="-3722.140" width="83.450" height="45.910" /><rect x="1782.900" y="-1155.650" width="131.710" height="91.450" /><rect x="2256.630" y="-5011.350" width="45.160" height="354.340" /><rect x="814.970" y="-3333.830" width="35.710" height="107.830" /><rect x="3479.450" y="-2950.910" width="52.820" height="266.820" /><rect x="645.580" y="-962.260" width="74.670" height="66.680" /><rect x="2069.210" y="-4138.340" width="132.140" height="37.090" /><rect x="588.150" y="-4533.600" width="51.580" height="90.120" /><rect x="2975.770" y="-2383.910" width="40.880" height="393.720" /><rect x="449.550" y="-3385.350" width="52.320" height="158.770" /><rect x="966.780" y="-1681.830" width="47.760" height="125.560" /><rect x="1660.280" y="-1213.350" width="42.760" height="179.780" /><rect x="989.620" y="-3766.490" width="107.260" height="52.130" /><rect x="3309.910" y="-3167.260" width="52.480" height="282.520" /><rect x="1261.870" y="-3493.760" width="68.680" height="71.670" /><rect x="2323.400" y="-1519.340" width="52.490" height="149.010" /><rect x="2200.130" y="-5395.550" width="43.240" height="312.660" /><rect x="729.910" y="-3900.910" width="71.540" height="56.230" /><rect x="2210.870" y="-1284.570" width="48.670" height="152.780" /><rect x="1254.750" y="-4203.460" width="61.990" height="208.280" /><rect x="1796.380" y="-796.610" width="65.040" height="95.890" /><rect x="1811.650" y="-3560.950" width="51.940" height="102.770" /><rect x="2016.760" y="-4577.260" width="293.050" height="47.470" /><rect x="523.160" y="-3489.960" width="54.260" height="71.710" /><rect x="1698.400" y="-4219.390" width="46.500" height="250.320" /><rect x="1987.690" y="-4782.740" width="68.680" height="245.260" /><rect x="2690.690" y="-1048.130" width="84.530" height="71.750" /><rect x="604.600" y="-3589.680" width="63.350" height="58.990" /><rect x="2872.490" y="-2933.000" width="616.950" height="40.050" /><rect x="1029.750" y="-2911.620" width="44.190" height="217.340" /><rect x="2968.080" y="-2769.040" width="555.250" height="43.240" /><rect x="2694.920" y="-2126.650" width="470.070" height="45.230" /><rect x="1458.460" y="-3573.170" width="186.360" height="104.270" /><rect x="610.640" y="-5216.080" width="57.350" height="169.660" /><rect x="1372.770" y="-4447.850" width="204.410" height="68.750" /><rect x="1138.000" y="-1354.340" width="75.060" height="90.320" /><rect x="1704.690" y="-4971.390" width="240.720" height="44.430" /><rect x="2494.950" y="-2288.520" width="548.970" height="43.330" /><rect x="526.610" y="-3223.370" width="105.570" height="65.550" /><rect x="2595.010" y="-675.160" width="55.630" height="213.330" /><rect x="3046.710" y="-2684.030" width="48.740" height="264.710" /><rect x="1117.000" y="-3701.910" width="82.440" height="65.330" /><rect x="2517.510" y="-3268.780" width="102.340" height="81.720" /><rect x="750.940" y="-397.530" width="547.400" height="31.040" /><rect x="1948.520" y="-3753.120" width="64.000" height="60.260" /><rect x="2404.450" y="-1710.910" width="44.860" height="150.360" /><rect x="747.030" y="-5253.540" width="47.740" height="206.350" /><rect x="751.520" y="-2808.150" width="198.670" height="60.090" /><rect x="2977.950" y="-2317.260" width="369.020" height="70.760" /><rect x="788.060" y="-3249.860" width="28.530" height="133.740" /><rect x="2681.300" y="-1906.000" width="99.200" height="69.340" /><rect x="2868.670" y="-3070.720" width="57.200" height="200.150" /><rect x="2013.580" y="-5309.040" width="310.710" height="35.410" /><rect x="1920.700" y="-645.460" width="71.820" height="63.730" /><rect x="2231.640" y="-2308.260" width="124.470" height="49.520" /><rect x="605.550" y="-671.920" width="64.200" height="204.790" /><rect x="2269.220" y="-1392.970" width="55.480" height="115.370" /><rect x="2336.080" y="-4005.450" width="76.170" height="63.720" /><rect x="872.090" y="-1938.020" width="45.120" height="165.080" /><rect x="668.340" y="-5001.070" width="64.840" height="83.690" /><rect x="1623.380" y="-3942.170" width="163.690" height="74.680" /><rect x="676.230" y="-3657.300" width="62.360" height="55.350" /><rect x="2623.960" y="-2763.940" width="296.730" height="62.440" /><rect x="675.310" y="-2397.280" width="97.870" height="51.840" /><rect x="1073.610" y="-2599.300" width="60.730" height="191.580" /><rect x="3492.090" y="-2601.950" width="57.010" height="96.380" /><rect x="858.920" y="-3812.030" width="160.350" height="64.560" /><rect x="1289.490" y="-2195.130" width="596.920" height="37.790" /><rect x="1023.050" y="-4967.240" width="223.090" height="45.220" /><rect x="2268.850" y="-3466.150" width="42.820" height="64.470" /><rect x="936.740" y="-1117.990" width="142.180" height="42.790" /><rect x="1331.020" y="-3937.240" width="100.860" height="95.950" /><rect x="2445.990" y="-4128.380" width="48.010" height="82.000" /><rect x="2429.930" y="-2375.170" width="122.330" height="47.880" /><rect x="2571.480" y="-3748.810" width="49.400" height="143.950" /><rect x="1841.630" y="-3663.800" width="47.910" height="141.830" /><rect x="1340.380" y="-3578.720" width="417.110" height="34.660" /><rect x="3412.500" y="-3242.810" width="96.380" height="49.140" /><rect x="1623.190" y="-4584.620" width="472.110" height="34.670" /><rect x="361.490" y="-3149.680" width="164.600" height="59.970" /><rect x="1125.300" y="-4833.960" width="72.140" height="282.870" /><rect x="3366.560" y="-2407.730" width="62.800" height="75.320" /><rect x="1318.330" y="-4720.130" width="52.920" height="245.600" /><rect x="1402.700" y="-535.510" width="87.300" height="53.110" /><rect x="2606.850" y="-3540.970" width="51.260" height="106.580" /><rect x="559.240" y="-3068.440" width="163.450" height="46.620" /><rect x="1669.690" y="-806.010" width="43.440" height="91.610" /><rect x="2813.350" y="-1973.610" width="100.650" height="55.470" /><rect x="1443.330" y="-3393.480" width="243.520" height="31.820" /><rect x="799.170" y="-5288.130" width="168.920" height="39.600" /><rect x="1218.980" y="-1234.340" width="69.280" height="109.160" /><rect x="1319.800" y="-3436.290" width="74.130" height="43.650" /><rect x="1250.760" y="-436.920" width="89.490" height="43.260" /><rect x="2468.510" y="-4487.280" width="33.910" height="116.180" /><rect x="2762.840" y="-2295.120" width="57.340" height="213.520" /><rect x="488.770" y="-3431.430" width="40.080" height="62.650" /><rect x="3044.010" y="-3415.470" width="51.870" height="210.220" /><rect x="831.750" y="-2093.320" width="31.130" height="170.380" /><rect x="1553.330" y="-663.890" width="63.940" height="70.930" /><rect x="859.870" y="-4143.270" width="117.990" height="24.000" /><rect x="1783.310" y="-5402.330" width="434.090" height="25.000" /><rect x="2356.750" y="-3319.730" width="159.850" height="67.920" /><rect x="983.200" y="-5120.570" width="66.210" height="81.460" /><rect x="739.320" y="-4922.340" width="35.880" height="403.370" /><rect x="2505.840" y="-3571.700" width="56.960" height="92.630" /><rect x="1052.710" y="-1507.440" width="50.960" height="102.080" /><rect x="2832.260" y="-3585.880" width="91.380" height="43.810" /><rect x="855.360" y="-1082.120" width="98.130" height="45.710" /><rect x="3206.400" y="-2524.080" width="59.320" height="352.360" /><rect x="2178.680" y="-463.500" width="84.510" height="54.140" /><rect x="917.610" y="-1768.260" width="46.250" height="100.160" /><rect x="2443.020" y="-3097.240" width="39.190" height="126.660" /><rect x="1871.200" y="-698.100" width="51.090" height="64.520" /><rect x="2472.060" y="-1829.910" width="159.560" height="73.000" /><rect x="941.650" y="-750.420" width="75.500" height="77.390" /><rect x="577.280" y="-3544.370" width="24.000" height="74.750" /><rect x="1677.690" y="-3428.560" width="72.570" height="40.370" /><rect x="673.190" y="-802.700" width="73.370" height="94.350" /><rect x="1779.760" y="-2219.890" width="301.360" height="29.900" /><rect x="1581.980" y="-4244.470" width="99.790" height="28.570" /><rect x="2839.220" y="-930.470" width="62.500" height="87.550" /><rect x="2019.810" y="-568.470" width="64.160" height="59.920" /></g><g fill="#f39c12" fill-opacity="0.450" stroke="#f39c12" stroke-width="0.500"><rect x="1848.810" y="-960.280" width="641.140" height="474.800" /><rect x="811.330" y="-2211.720" width="771.890" height="596.680" /><rect x="706.170" y="-2869.960" width="436.340" height="689.280" /><rect x="695.830" y="-5138.470" width="521.920" height="622.620" /><rect x="2475.800" y="-3637.940" width="516.170" height="500.000" /><rect x="1991.950" y="-1630.730" width="384.460" height="685.730" /><rect x="1001.710" y="-1687.910" width="466.360" height="258.030" /><rect x="1528.940" y="-2173.890" width="699.450" height="306.250" /><rect x="2338.000" y="-1123.940" width="422.390" height="369.270" /><rect x="1101.720" y="-1055.930" width="603.000" height="460.720" /><rect x="3154.210" y="-3284.880" width="411.400" height="335.410" /><rect x="1224.450" y="-5470.830" width="572.770" height="324.940" /><rect x="813.560" y="-1125.430" width="300.490" height="350.350" /><rect x="1313.830" y="-5404.820" width="321.780" height="621.320" /><rect x="992.960" y="-592.720" width="478.800" height="181.820" /><rect x="1794.700" y="-1820.920" width="345.020" height="396.280" /><rect x="600.970" y="-2684.570" width="287.510" height="308.170" /><rect x="826.610" y="-5361.990" width="462.720" height="511.850" /><rect x="2066.250" y="-5038.490" width="175.370" height="450.090" /><rect x="2631.170" y="-3450.160" width="276.870" height="412.000" /><rect x="2207.420" y="-682.380" width="344.470" height="256.760" /><rect x="1081.950" y="-2127.210" width="503.890" height="666.710" /><rect x="1826.490" y="-1420.900" width="320.070" height="629.640" /><rect x="2891.760" y="-3472.430" width="204.520" height="181.600" /><rect x="2062.770" y="-2143.360" width="353.750" height="499.820" /><rect x="1418.260" y="-1602.890" width="264.880" height="421.400" /><rect x="394.840" y="-3010.740" width="303.820" height="407.270" /><rect x="1450.280" y="-5395.120" width="390.170" height="203.340" /><rect x="2659.320" y="-740.860" width="160.650" height="281.090" /><rect x="635.370" y="-2716.800" width="332.510" height="240.580" /><rect x="1497.430" y="-2135.410" width="644.250" height="263.190" /><rect x="707.640" y="-728.200" width="170.920" height="310.080" /><rect x="2080.660" y="-1014.010" width="620.910" height="236.140" /><rect x="2810.830" y="-3475.450" width="203.670" height="287.940" /><rect x="1375.770" y="-4827.940" width="223.250" height="203.290" /><rect x="795.870" y="-4877.720" width="112.970" height="305.210" /><rect x="927.060" y="-2159.040" width="371.050" height="386.210" /><rect x="2654.310" y="-2370.230" width="134.760" height="67.830" /><rect x="3123.250" y="-3240.340" width="188.390" height="117.180" /><rect x="1927.380" y="-1482.110" width="207.330" height="805.310" /><rect x="1037.320" y="-895.820" width="344.290" height="418.890" /><rect x="1968.840" y="-5247.010" width="126.680" height="368.680" /><rect x="1351.490" y="-1488.370" width="220.100" height="688.970" /><rect x="3026.470" y="-2240.270" width="123.210" height="141.900" /><rect x="2863.680" y="-2388.040" width="486.640" height="55.190" /><rect x="570.620" y="-830.530" width="63.430" height="189.090" /><rect x="751.510" y="-979.920" width="431.650" height="141.540" /><rect x="691.960" y="-2686.250" width="457.230" height="69.250" /><rect x="1203.650" y="-1697.900" width="420.440" height="428.010" /><rect x="2534.870" y="-3134.790" width="260.560" height="157.560" /><rect x="2553.010" y="-1944.290" width="124.700" height="90.600" /><rect x="2418.570" y="-2919.590" width="185.610" height="282.820" /><rect x="972.480" y="-5298.550" width="390.480" height="108.110" /><rect x="3123.510" y="-2721.780" width="120.950" height="95.370" /><rect x="804.620" y="-5169.750" width="188.400" height="244.010" /><rect x="2198.350" y="-4820.540" width="51.980" height="291.000" /><rect x="1303.110" y="-5410.520" width="345.570" height="303.720" /><rect x="1073.150" y="-5107.680" width="203.440" height="122.010" /><rect x="3015.710" y="-2254.300" width="108.790" height="167.960" /><rect x="390.260" y="-3081.360" width="126.610" height="79.380" /><rect x="2569.310" y="-2680.290" width="203.510" height="39.050" /><rect x="2375.080" y="-2297.530" width="100.380" height="414.950" /><rect x="1822.460" y="-5320.890" width="174.690" height="135.680" /><rect x="2130.590" y="-648.150" width="458.740" height="158.550" /><rect x="1824.930" y="-2171.500" width="413.740" height="69.080" /><rect x="3351.720" y="-3212.080" width="116.310" height="108.360" /><rect x="1789.320" y="-968.820" width="283.400" height="188.750" /><rect x="1226.790" y="-5028.580" width="494.600" height="89.510" /><rect x="773.190" y="-2729.920" width="121.440" height="356.640" /><rect x="1536.250" y="-1780.970" width="151.910" height="180.120" /><rect x="2142.430" y="-1783.910" width="220.790" height="313.640" /><rect x="3250.920" y="-2374.150" width="59.860" height="106.000" /><rect x="2692.340" y="-3562.080" width="193.550" height="131.560" /><rect x="2874.370" y="-2387.310" width="111.960" height="69.510" /></g><g fill="#c0392b" fill-opacity="0.450" stroke="#c0392b" stroke-width="0.500"><rect x="2485.290" y="-3058.090" width="200.680" height="294.560" /><rect x="2930.900" y="-2867.250" width="351.540" height="77.150" /><rect x="2910.920" y="-2701.200" width="341.050" height="81.360" /><rect x="2952.470" y="-3035.070" width="520.260" height="68.560" /><rect x="3556.520" y="-3073.090" width="37.950" height="337.440" /><rect x="3323.400" y="-2705.270" width="111.170" height="303.030" /><rect x="2628.700" y="-2219.970" width="315.260" height="76.590" /><rect x="2896.320" y="-2539.820" width="122.060" height="74.000" /><rect x="3341.300" y="-2869.570" width="137.260" height="89.560" /><rect x="2668.250" y="-2528.460" width="145.860" height="77.750" /><rect x="1699.630" y="-5122.420" width="205.210" height="139.150" /><rect x="2788.610" y="-2066.720" width="99.830" height="104.150" /><rect x="966.110" y="-2493.180" width="138.600" height="40.810" /><rect x="3090.250" y="-2550.210" width="128.970" height="69.610" /><rect x="674.940" y="-5243.170" width="58.860" height="214.440" /><rect x="757.920" y="-441.480" width="513.030" height="24.000" /><rect x="1957.090" y="-5368.280" width="245.440" height="45.580" /><rect x="2198.980" y="-5317.440" width="55.000" height="48.050" /><rect x="2260.390" y="-5267.890" width="36.520" height="240.720" /></g><g fill="#9b59b6" fill-opacity="0.450" stroke="#9b59b6" stroke-width="0.500"><rect x="1241.650" y="-3446.320" width="1200.000" height="1200.000" /><rect x="675.660" y="-4509.530" width="440.030" height="353.850" /><rect x="1288.850" y="-3789.480" width="504.090" height="172.700" /><rect x="1865.970" y="-4054.380" width="351.580" height="180.160" /><rect x="1095.700" y="-4420.010" width="182.700" height="274.870" /><rect x="1078.970" y="-3960.040" width="177.090" height="234.050" /><rect x="604.570" y="-4389.400" width="223.900" height="330.020" /><rect x="2200.040" y="-4123.440" width="138.460" height="147.850" /><rect x="851.800" y="-4524.350" width="328.100" height="153.000" /><rect x="1162.710" y="-4376.790" width="277.640" height="120.130" /><rect x="664.110" y="-4100.150" width="311.890" height="115.770" /><rect x="1759.650" y="-4254.320" width="346.500" height="124.750" /><rect x="1191.940" y="-3815.280" width="219.560" height="152.550" /><rect x="1538.730" y="-4390.190" width="264.110" height="122.430" /><rect x="1713.630" y="-3843.670" width="179.320" height="180.650" /><rect x="1781.580" y="-4538.740" width="307.410" height="347.140" /><rect x="2256.380" y="-4447.790" width="210.050" height="316.900" /><rect x="2053.420" y="-4088.530" width="310.630" height="118.440" /><rect x="1005.940" y="-3895.590" width="131.180" height="110.710" /><rect x="627.110" y="-4468.440" width="476.120" height="272.810" /><rect x="1837.000" y="-3966.530" width="189.840" height="176.470" /><rect x="2945.140" y="-3042.740" width="123.440" height="265.290" /><rect x="1408.290" y="-3741.170" width="347.930" height="140.910" /><rect x="699.710" y="-4045.710" width="445.160" height="117.620" /><rect x="1144.140" y="-4396.130" width="210.240" height="170.300" /><rect x="2331.310" y="-4533.890" width="90.930" height="490.910" /></g><g fill="#27ae60" fill-opacity="0.450" stroke="#27ae60" stroke-width="0.500"><rect x="3131.460" y="-2210.750" width="759.460" height="850.210" /><rect x="2931.690" y="-5575.950" width="993.650" height="646.170" /><rect x="3314.990" y="-1362.350" width="434.590" height="905.370" /><rect x="-60.190" y="-4399.280" width="586.550" height="639.430" /><rect x="3025.600" y="-3956.340" width="764.200" height="617.340" /><rect x="2851.990" y="-4803.150" width="666.790" height="717.580" /><rect x="132.970" y="-1806.900" width="625.460" height="747.370" /><rect x="-108.360" y="-2453.140" width="808.180" height="691.860" /><rect x="-20.620" y="-5198.040" width="611.430" height="851.310" /><rect x="2527.350" y="-1695.130" width="568.670" height="552.390" /><rect x="3002.720" y="-464.060" width="687.230" height="457.530" /><rect x="1373.830" y="-522.910" width="627.830" height="564.910" /><rect x="2349.200" y="-5489.060" width="610.470" height="680.650" /><rect x="-16.280" y="-978.610" width="542.850" height="765.700" /><rect x="6.170" y="-3761.960" width="367.450" height="725.410" /><rect x="70.130" y="-5946.490" width="523.800" height="711.580" /><rect x="2888.530" y="-4981.150" width="976.050" height="527.260" /><rect x="1559.790" y="-2830.850" width="555.310" height="581.000" /><rect x="555.960" y="-347.950" width="782.040" height="383.330" /><rect x="1965.960" y="-365.960" width="645.670" height="390.260" /><rect x="2689.250" y="-4247.590" width="627.720" height="613.290" /><rect x="1757.120" y="-5799.030" width="639.320" height="368.890" /><rect x="2561.570" y="-6002.970" width="716.210" height="811.970" /><rect x="2981.420" y="-1306.710" width="407.800" height="650.910" /><rect x="666.820" y="-5787.450" width="548.710" height="380.110" /><rect x="636.600" y="-3570.630" width="571.690" height="283.150" /><rect x="2530.080" y="-4682.350" width="347.500" height="664.540" /><rect x="3353.520" y="-4669.750" width="571.220" height="800.250" /><rect x="3567.890" y="-2687.410" width="401.560" height="489.700" /><rect x="1231.120" y="-5764.940" width="532.550" height="290.660" /><rect x="16.680" y="-3048.970" width="263.750" height="607.610" /><rect x="1190.860" y="-2829.340" width="365.300" height="600.270" /><rect x="2486.400" y="-364.090" width="521.230" height="458.000" /><rect x="3658.200" y="-3380.450" width="202.870" height="745.520" /><rect x="653.600" y="-1584.560" width="365.720" height="456.430" /><rect x="823.810" y="-3294.440" width="339.670" height="356.550" /><rect x="3242.910" y="-5833.870" width="477.180" height="716.440" /><rect x="391.830" y="-3975.740" width="259.070" height="427.710" /><rect x="-45.390" y="-369.880" width="611.280" height="463.250" /><rect x="-23.590" y="-1299.750" width="709.940" height="362.420" /><rect x="2081.830" y="-2627.400" width="388.940" height="282.020" /><rect x="3376.010" y="-631.720" width="503.230" height="737.270" /><rect x="2446.520" y="-4925.290" width="429.550" height="411.440" /><rect x="2012.480" y="-3209.750" width="309.200" height="639.070" /><rect x="2674.840" y="-1844.780" width="517.280" height="308.000" /><rect x="-204.560" y="-1879.680" width="811.780" height="638.200" /><rect x="2431.180" y="-4037.300" width="297.160" height="244.140" /><rect x="2995.040" y="-693.130" width="364.470" height="376.930" /><rect x="2120.750" y="-3763.980" width="384.290" height="274.200" /><rect x="2689.480" y="-1543.590" width="578.900" height="511.530" /><rect x="614.030" y="-2243.830" width="184.710" height="581.370" /><rect x="2258.250" y="-5787.360" width="403.260" height="421.460" /><rect x="2349.040" y="-1460.560" width="351.270" height="291.990" /><rect x="-67.330" y="-5677.680" width="461.070" height="505.410" /><rect x="1918.170" y="-3664.440" width="283.100" height="335.800" /><rect x="3275.140" y="-1473.350" width="639.910" height="588.280" /><rect x="1587.530" y="-629.430" width="364.250" height="262.770" /><rect x="650.350" y="-1823.060" width="247.590" height="351.120" /><rect x="1053.420" y="-2388.030" width="337.090" height="136.160" /><rect x="3461.430" y="-3719.710" width="474.400" height="504.050" /><rect x="3385.850" y="-2375.290" width="261.510" height="359.110" /><rect x="472.620" y="-5980.830" width="282.180" height="626.430" /><rect x="819.300" y="-3708.020" width="273.860" height="170.110" /><rect x="1334.930" y="-4182.580" width="349.240" height="150.990" /><rect x="558.700" y="-4958.080" width="141.520" height="351.620" /><rect x="109.950" y="-2603.350" width="320.300" height="206.670" /><rect x="1813.010" y="-3390.500" width="58.360" height="656.720" /><rect x="2310.930" y="-2562.960" width="231.230" height="157.420" /><rect x="571.600" y="-3457.030" width="202.830" height="251.260" /><rect x="830.500" y="-1342.430" width="326.780" height="186.560" /><rect x="2325.360" y="-4921.820" width="173.740" height="246.670" /><rect x="3281.460" y="-5824.210" width="674.670" height="652.220" /><rect x="355.510" y="-3849.270" width="427.080" height="150.360" /><rect x="2935.380" y="-1975.310" width="226.740" height="196.070" /><rect x="1002.050" y="-4872.810" width="67.130" height="277.000" /><rect x="299.140" y="-3697.900" width="195.250" height="347.450" /><rect x="3579.750" y="-1000.360" width="405.290" height="752.210" /><rect x="790.330" y="-3049.700" width="132.010" height="235.930" /><rect x="1740.510" y="-4917.310" width="181.050" height="80.980" /><rect x="1619.120" y="-3345.050" width="42.570" height="508.170" /><rect x="1048.330" y="-4905.880" width="181.740" height="72.150" /><rect x="2701.610" y="-4481.610" width="717.480" height="585.240" /><rect x="1278.340" y="-386.780" width="186.310" height="400.240" /><rect x="2848.050" y="-468.560" width="528.440" height="675.040" /><rect x="-113.030" y="-3144.490" width="413.790" height="692.280" /><rect x="2881.420" y="-3749.860" width="251.600" height="181.610" /><rect x="2440.640" y="-1621.650" width="381.080" height="175.730" /><rect x="1308.900" y="-3385.690" width="37.160" height="477.420" /><rect x="1537.160" y="-4208.320" width="95.440" height="320.260" /><rect x="1693.550" y="-4852.550" width="63.500" height="255.610" /><rect x="2862.390" y="-1071.700" width="171.240" height="159.210" /><rect x="1861.410" y="-428.170" width="349.950" height="573.970" /><rect x="2160.440" y="-3141.180" width="257.230" height="181.250" /><rect x="3112.780" y="-3364.520" width="359.520" height="64.890" /><rect x="156.630" y="-5382.030" width="448.850" height="586.420" /><rect x="1098.430" y="-3149.260" width="66.790" height="407.160" /><rect x="1876.440" y="-4693.270" width="105.120" height="100.980" /><rect x="1617.670" y="-4426.790" width="154.440" height="186.340" /><rect x="1417.540" y="-2584.080" width="331.670" height="367.740" /><rect x="2076.980" y="-5253.860" width="102.540" height="107.610" /><rect x="782.500" y="-5765.050" width="472.070" height="296.210" /><rect x="3484.880" y="-2474.800" width="361.500" height="639.630" /><rect x="476.240" y="-473.330" width="165.500" height="277.760" /><rect x="555.600" y="-1181.190" width="353.870" height="109.070" /><rect x="2285.360" y="-1288.150" width="93.170" height="114.940" /><rect x="754.410" y="-3652.040" width="401.740" height="177.300" /><rect x="1682.500" y="-718.630" width="140.280" height="295.790" /><rect x="1323.310" y="-2909.610" width="178.430" height="223.470" /><rect x="-276.360" y="-5987.230" width="581.880" height="844.420" /><rect x="53.130" y="-2387.310" width="607.830" height="454.310" /><rect x="911.960" y="-3402.710" width="411.870" height="95.610" /><rect x="2043.620" y="-2490.950" width="204.630" height="195.250" /><rect x="1699.780" y="-3392.620" width="232.830" height="79.270" /><rect x="2485.520" y="-1724.010" width="315.910" height="160.450" /><rect x="948.790" y="-1270.410" width="231.200" height="104.500" /><rect x="1637.970" y="-3164.760" width="214.940" height="46.600" /><rect x="393.210" y="-1053.640" width="178.870" height="220.530" /><rect x="3298.140" y="-3955.780" width="722.510" height="477.970" /><rect x="669.670" y="-4876.790" width="53.410" height="170.250" /><rect x="2828.340" y="-1898.320" width="159.820" height="112.050" /><rect x="1717.650" y="-1169.250" width="54.520" height="115.290" /><rect x="1213.070" y="-4680.050" width="87.010" height="96.530" /><rect x="2533.710" y="-4119.240" width="225.800" height="348.830" /><rect x="-37.830" y="-3820.780" width="434.660" height="520.140" /><rect x="1155.880" y="-5967.000" width="865.250" height="485.910" /><rect x="2282.960" y="-3733.770" width="238.180" height="200.880" /><rect x="2139.310" y="-3389.260" width="155.950" height="218.070" /><rect x="1414.040" y="-4215.410" width="71.990" height="300.720" /><rect x="2366.290" y="-3955.190" width="265.750" height="123.940" /><rect x="2159.800" y="-3798.620" width="201.150" height="57.370" /><rect x="2327.250" y="-4973.440" width="70.760" height="274.420" /><rect x="3575.930" y="-3596.370" width="335.120" height="449.330" /><rect x="767.780" y="-1959.450" width="73.900" height="199.130" /><rect x="1821.730" y="-3213.990" width="41.800" height="406.130" /><rect x="3678.580" y="-3218.830" width="304.030" height="580.820" /><rect x="1841.520" y="-3493.320" width="135.760" height="162.760" /><rect x="3195.310" y="-1977.580" width="564.270" height="621.330" /><rect x="2316.480" y="-3639.950" width="117.150" height="213.470" /><rect x="997.830" y="-4821.450" width="53.760" height="225.350" /><rect x="446.540" y="-1686.880" width="490.470" height="455.500" /><rect x="1812.130" y="-517.960" width="253.490" height="124.200" /><rect x="2976.570" y="-592.770" width="341.680" height="273.870" /><rect x="459.630" y="-4094.450" width="108.340" height="228.080" /><rect x="143.530" y="-2514.890" width="349.890" height="257.470" /><rect x="524.600" y="-3389.330" width="103.690" height="132.370" /><rect x="3055.920" y="-2039.150" width="172.240" height="220.100" /><rect x="1383.250" y="-3457.510" width="334.650" height="32.930" /><rect x="2601.230" y="-1173.590" width="136.790" height="77.150" /><rect x="939.500" y="-3587.220" width="239.610" height="395.760" /><rect x="1378.340" y="-4190.190" width="104.000" height="216.590" /><rect x="385.010" y="-3594.900" width="158.090" height="129.930" /><rect x="1205.960" y="-3346.440" width="630.130" height="39.870" /><rect x="1845.160" y="-5611.680" width="121.580" height="198.580" /><rect x="591.350" y="-3810.720" width="250.110" height="66.800" /><rect x="941.630" y="-1466.720" width="110.830" height="144.990" /><rect x="3342.590" y="-2279.320" width="169.990" height="314.220" /><rect x="2040.290" y="-3752.490" width="469.860" height="180.770" /><rect x="2168.400" y="-3273.000" width="185.880" height="365.810" /><rect x="804.330" y="-3089.540" width="121.560" height="232.720" /><rect x="1956.060" y="-2729.340" width="389.350" height="396.340" /><rect x="1448.850" y="-3939.680" width="135.340" height="60.740" /><rect x="644.480" y="-3535.070" width="142.640" height="341.480" /><rect x="1166.140" y="-2565.440" width="246.910" height="260.620" /><rect x="725.450" y="-332.070" width="504.270" height="384.610" /><rect x="2406.010" y="-1499.970" width="144.110" height="338.670" /><rect x="2435.810" y="-3236.850" width="70.440" height="59.720" /><rect x="1535.740" y="-4194.940" width="127.330" height="202.650" /><rect x="898.870" y="-3729.410" width="107.370" height="93.450" /><rect x="1303.270" y="-2430.490" width="303.990" height="205.060" /><rect x="549.950" y="-3887.970" width="164.570" height="227.700" /><rect x="1403.490" y="-458.040" width="151.740" height="165.860" /><rect x="2933.970" y="-1314.110" width="187.330" height="475.440" /><rect x="1384.520" y="-2807.330" width="458.380" height="275.650" /><rect x="1472.190" y="-3319.850" width="24.000" height="442.860" /><rect x="404.920" y="-390.040" width="324.060" height="609.110" /><rect x="3114.760" y="-3490.860" width="466.740" height="181.250" /><rect x="1825.950" y="-3192.500" width="245.460" height="24.000" /><rect x="2388.550" y="-4730.120" width="189.450" height="114.680" /><rect x="2964.790" y="-4010.960" width="377.240" height="481.180" /><rect x="1287.760" y="-3547.970" width="76.910" height="68.190" /><rect x="1095.500" y="-2816.090" width="266.550" height="64.060" /><rect x="526.690" y="-3153.380" width="100.210" height="40.280" /><rect x="2643.740" y="-1787.200" width="635.470" height="351.910" /><rect x="-6.810" y="-2663.950" width="362.080" height="190.450" /><rect x="1765.820" y="-4919.790" width="107.840" height="61.690" /><rect x="333.700" y="-538.190" width="223.620" height="220.780" /><rect x="1699.410" y="-4816.450" width="47.800" height="217.190" /><rect x="-130.780" y="-3320.500" width="487.240" height="202.940" /><rect x="1264.060" y="-369.320" width="593.110" height="410.670" /><rect x="1565.380" y="-2422.220" width="457.160" height="173.890" /><rect x="1883.020" y="-4681.890" width="82.100" height="81.070" /><rect x="2000.110" y="-456.710" width="134.530" height="137.710" /><rect x="1692.340" y="-3505.840" width="80.140" height="47.380" /><rect x="631.800" y="-1133.120" width="151.480" height="113.120" /><rect x="800.860" y="-1339.210" width="321.950" height="177.540" /><rect x="1002.680" y="-3648.800" width="160.210" height="581.230" /><rect x="2176.890" y="-2559.100" width="354.050" height="142.700" /><rect x="2663.980" y="-5417.430" width="650.080" height="811.500" /><rect x="1133.020" y="-3437.050" width="158.910" height="118.140" /><rect x="2571.870" y="-3928.240" width="324.430" height="169.970" /><rect x="2734.470" y="-386.700" width="244.470" height="117.770" /><rect x="1644.360" y="-654.500" width="230.640" height="213.970" /><rect x="-46.840" y="-4913.050" width="637.490" height="394.640" /><rect x="1726.910" y="-5499.660" width="167.760" height="53.090" /><rect x="1631.090" y="-3237.760" width="24.000" height="429.400" /><rect x="1030.750" y="-4869.560" width="60.700" height="88.950" /><rect x="2338.200" y="-1374.080" width="96.780" height="186.500" /><rect x="1902.390" y="-3598.100" width="238.310" height="264.630" /><rect x="503.940" y="-5379.370" width="142.570" height="106.130" /><rect x="2325.960" y="-3908.230" width="203.680" height="55.260" /><rect x="2005.750" y="-3177.340" width="119.800" height="361.670" /><rect x="855.270" y="-3303.550" width="299.510" height="348.690" /><rect x="701.050" y="-3604.900" width="69.890" height="429.270" /><rect x="2518.200" y="-4700.070" width="168.730" height="287.890" /><rect x="1435.280" y="-4229.860" width="138.130" height="48.940" /></g><g fill="#e67e22" fill-opacity="0.450" stroke="#e67e22" stroke-width="0.500"><rect x="2023.200" y="-3776.440" width="341.080" height="732.620" /><rect x="1764.800" y="-4502.020" width="526.190" height="339.850" /><rect x="778.650" y="-4058.890" width="413.200" height="189.310" /><rect x="2290.060" y="-4464.270" width="153.090" height="375.370" /><rect x="1762.090" y="-3886.110" width="214.510" height="151.890" /><rect x="805.020" y="-5227.010" width="73.530" height="94.520" /></g><rect x="-282.360" y="-6104.970" width="130.000" height="92.000" fill="white" stroke="#333" stroke-width="0.5"/><rect x="-278.360" y="-6100.970" width="14.000" height="10.000" fill="#e74c3c" stroke="#e74c3c" stroke-width="0.5"/><text x="-260.360" y="-6092.970" font-size="9" font-family="sans-serif" fill="#222">POLY (66/20)</text><rect x="-278.360" y="-6088.970" width="14.000" height="10.000" fill="#27ae60" stroke="#27ae60" stroke-width="0.5"/><text x="-260.360" y="-6080.970" font-size="9" font-family="sans-serif" fill="#222">MET1 (68/20)</text><rect x="-278.360" y="-6076.970" width="14.000" height="10.000" fill="#f39c12" stroke="#f39c12" stroke-width="0.5"/><text x="-260.360" y="-6068.970" font-size="9" font-family="sans-serif" fill="#222">LICON1 (66/44)</text><rect x="-278.360" y="-6064.970" width="14.000" height="10.000" fill="#c0392b" stroke="#c0392b" stroke-width="0.5"/><text x="-260.360" y="-6056.970" font-size="9" font-family="sans-serif" fill="#222">DIFF (65/20)</text><rect x="-278.360" y="-6052.970" width="14.000" height="10.000" fill="#9b59b6" stroke="#9b59b6" stroke-width="0.5"/><text x="-260.360" y="-6044.970" font-size="9" font-family="sans-serif" fill="#222">NWELL (64/20)</text><rect x="-278.360" y="-6040.970" width="14.000" height="10.000" fill="#27ae60" stroke="#27ae60" stroke-width="0.5"/><text x="-260.360" y="-6032.970" font-size="9" font-family="sans-serif" fill="#222">NSDM (93/44)</text><rect x="-278.360" y="-6028.970" width="14.000" height="10.000" fill="#e67e22" stroke="#e67e22" stroke-width="0.5"/><text x="-260.360" y="-6020.970" font-size="9" font-family="sans-serif" fill="#222">PSDM (94/20)</text></svg>