<?xml version="1.0" encoding="UTF-8"?><svg xmlns="http://www.w3.org/2000/svg" viewBox="-1730.000 -5794.000 5560.000 8724.000" width="5560" height="8724"><rect x="-1730.000" y="-5794.000" width="5560.000" height="8724.000" fill="white" stroke="none"/><g fill="#e74c3c" fill-opacity="0.450" stroke="#e74c3c" stroke-width="0.500"><rect x="-25.900" y="-1000.000" width="51.800" height="2000.000" /><rect x="-25.900" y="-2000.000" width="51.800" height="2000.000" /></g><g fill="#27ae60" fill-opacity="0.450" stroke="#27ae60" stroke-width="0.500"><rect x="-0.900" y="-1010.000" width="1.800" height="2020.000" /><rect x="-0.900" y="-2010.000" width="1.800" height="2020.000" /></g><g fill="#f39c12" fill-opacity="0.450" stroke="#f39c12" stroke-width="0.500"><rect x="-1720.000" y="-4220.000" width="360.000" height="40.000" /><rect x="-1400.000" y="-5600.000" width="40.000" height="1420.000" /><rect x="-1500.000" y="-5700.000" width="40.000" height="4690.000" /><rect x="-1500.000" y="-1050.000" width="1520.000" height="40.000" /><rect x="-25.900" y="-10.000" width="51.800" height="20.000" /><rect x="-25.900" y="-1010.000" width="20.000" height="1020.000" /><rect x="-4.100" y="-1020.000" width="1344.100" height="40.000" /><rect x="1300.000" y="-2100.000" width="40.000" height="1120.000" /><rect x="-4.100" y="-1020.000" width="3824.100" height="40.000" /><rect x="1200.000" y="-2420.000" width="40.000" height="260.000" /><rect x="1200.000" y="-2420.000" width="1220.000" height="40.000" /><rect x="-400.000" y="-20.000" width="404.100" height="40.000" /><rect x="-400.000" y="-20.000" width="40.000" height="1860.000" /><rect x="-500.000" y="1700.000" width="40.000" height="1220.000" /><rect x="-500.000" y="2880.000" width="520.000" height="40.000" /><rect x="-20.000" y="-2050.000" width="40.000" height="1070.000" /><rect x="-1320.000" y="-1020.000" width="1340.000" height="40.000" /><rect x="5.900" y="-10.000" width="20.000" height="20.000" /><rect x="-25.900" y="-10.000" width="20.000" height="20.000" /><rect x="-10.000" y="-1040.000" width="20.000" height="20.000" /><rect x="5.900" y="-1010.000" width="20.000" height="20.000" /><rect x="-25.900" y="-1010.000" width="20.000" height="20.000" /><rect x="-10.000" y="-2040.000" width="20.000" height="20.000" /><polyline points="-1080.000,-5280.000 -1480.000,-5280.000 -1480.000,-5680.000" fill="none" stroke-width="40.000" stroke-linecap="butt" stroke-linejoin="miter"/><polyline points="-320.000,1880.000 -480.000,1880.000 -480.000,1720.000" fill="none" stroke-width="40.000" stroke-linecap="butt" stroke-linejoin="miter"/><polyline points="1560.000,-1840.000 1220.000,-1840.000 1220.000,-2180.000" fill="none" stroke-width="40.000" stroke-linecap="butt" stroke-linejoin="miter"/><rect x="-1720.000" y="-4220.000" width="40.000" height="40.000" /><rect x="3780.000" y="-1020.000" width="40.000" height="40.000" /><rect x="2380.000" y="-2420.000" width="40.000" height="40.000" /><rect x="-20.000" y="2880.000" width="40.000" height="40.000" /><rect x="-1320.000" y="-1020.000" width="40.000" height="40.000" /></g><g fill="#c0392b" fill-opacity="0.450" stroke="#c0392b" stroke-width="0.500"><polyline points="-1380.000,-5580.000 1380.000,-5580.000 1380.000,-2820.000 -1380.000,-2820.000 -1380.000,-5520.000 -1320.000,-5520.000 1320.000,-5520.000 1320.000,-2880.000 -1320.000,-2880.000 -1320.000,-5460.000 -1260.000,-5460.000 1260.000,-5460.000 1260.000,-2940.000 -1260.000,-2940.000 -1260.000,-5400.000 -1200.000,-5400.000 1200.000,-5400.000 1200.000,-3000.000 -1200.000,-3000.000 -1200.000,-5340.000 -1140.000,-5340.000 1140.000,-5340.000 1140.000,-3060.000 -1140.000,-3060.000 -1140.000,-5280.000 -1080.000,-5280.000 1080.000,-5280.000 1080.000,-3120.000 -1080.000,-3120.000 -1080.000,-5280.000" fill="none" stroke-width="40.000" stroke-linecap="butt" stroke-linejoin="miter"/><polyline points="-380.000,1820.000 380.000,1820.000 380.000,2580.000 -380.000,2580.000 -380.000,1880.000 -320.000,1880.000 320.000,1880.000 320.000,2520.000 -320.000,2520.000 -320.000,1880.000" fill="none" stroke-width="40.000" stroke-linecap="butt" stroke-linejoin="miter"/><polyline points="1320.000,-2080.000 3480.000,-2080.000 3480.000,80.000 1320.000,80.000 1320.000,-2020.000 1380.000,-2020.000 3420.000,-2020.000 3420.000,20.000 1380.000,20.000 1380.000,-1960.000 1440.000,-1960.000 3360.000,-1960.000 3360.000,-40.000 1440.000,-40.000 1440.000,-1900.000 1500.000,-1900.000 3300.000,-1900.000 3300.000,-100.000 1500.000,-100.000 1500.000,-1840.000 1560.000,-1840.000 3240.000,-1840.000 3240.000,-160.000 1560.000,-160.000 1560.000,-1840.000" fill="none" stroke-width="40.000" stroke-linecap="butt" stroke-linejoin="miter"/></g><g fill="#9b59b6" fill-opacity="0.450" stroke="#9b59b6" stroke-width="0.500"><rect x="10.900" y="-5.000" width="10.000" height="10.000" /><rect x="-20.900" y="-5.000" width="10.000" height="10.000" /><rect x="10.900" y="-1005.000" width="10.000" height="10.000" /><rect x="-20.900" y="-1005.000" width="10.000" height="10.000" /><rect x="-1100.000" y="-5300.000" width="40.000" height="40.000" /><rect x="-340.000" y="1860.000" width="40.000" height="40.000" /><rect x="1540.000" y="-1860.000" width="40.000" height="40.000" /></g><g fill="#27ae60" fill-opacity="0.450" stroke="#27ae60" stroke-width="0.500"><rect x="-25.900" y="-1000.000" width="51.800" height="2000.000" /><rect x="-25.900" y="-2000.000" width="51.800" height="2000.000" /></g><text x="0.000" y="-1043.000" font-family="sans-serif" font-size="7" text-anchor="middle" dominant-baseline="alphabetic" fill="#222" stroke="white" stroke-width="2.5" paint-order="stroke" stroke-linejoin="round">u</text><text x="0.000" y="-2043.000" font-family="sans-serif" font-size="7" text-anchor="middle" dominant-baseline="alphabetic" fill="#222" stroke="white" stroke-width="2.5" paint-order="stroke" stroke-linejoin="round">u</text><text x="-50.000" y="-5703.000" font-family="sans-serif" font-size="7" text-anchor="middle" dominant-baseline="alphabetic" fill="#222" stroke="white" stroke-width="2.5" paint-order="stroke" stroke-linejoin="round">u</text><text x="-50.000" y="1697.000" font-family="sans-serif" font-size="7" text-anchor="middle" dominant-baseline="alphabetic" fill="#222" stroke="white" stroke-width="2.5" paint-order="stroke" stroke-linejoin="round">u</text><text x="2350.000" y="-2203.000" font-family="sans-serif" font-size="7" text-anchor="middle" dominant-baseline="alphabetic" fill="#222" stroke="white" stroke-width="2.5" paint-order="stroke" stroke-linejoin="round">u</text><text x="-1700.000" y="-4223.000" font-family="sans-serif" font-size="7" text-anchor="middle" dominant-baseline="alphabetic" fill="#222" stroke="white" stroke-width="2.5" paint-order="stroke" stroke-linejoin="round">u</text><text x="3800.000" y="-1023.000" font-family="sans-serif" font-size="7" text-anchor="middle" dominant-baseline="alphabetic" fill="#222" stroke="white" stroke-width="2.5" paint-order="stroke" stroke-linejoin="round">u</text><text x="2400.000" y="-2423.000" font-family="sans-serif" font-size="7" text-anchor="middle" dominant-baseline="alphabetic" fill="#222" stroke="white" stroke-width="2.5" paint-order="stroke" stroke-linejoin="round">u</text><text x="0.000" y="2877.000" font-family="sans-serif" font-size="7" text-anchor="middle" dominant-baseline="alphabetic" fill="#222" stroke="white" stroke-width="2.5" paint-order="stroke" stroke-linejoin="round">u</text><text x="-1300.000" y="-1023.000" font-family="sans-serif" font-size="7" text-anchor="middle" dominant-baseline="alphabetic" fill="#222" stroke="white" stroke-width="2.5" paint-order="stroke" stroke-linejoin="round">u</text><g fill="black" stroke="none"><circle cx="-1700.000" cy="-4200.000" r="1.000" /><circle cx="15.900" cy="-1000.000" r="1.000" /><circle cx="1220.000" cy="-2180.000" r="1.000" /><circle cx="-480.000" cy="1720.000" r="1.000" /><circle cx="0.000" cy="-2030.000" r="1.000" /><circle cx="15.900" cy="-0.000" r="1.000" /><circle cx="-15.900" cy="-0.000" r="1.000" /><circle cx="0.000" cy="-1030.000" r="1.000" /><circle cx="15.900" cy="-1000.000" r="1.000" /><circle cx="-15.900" cy="-1000.000" r="1.000" /><circle cx="0.000" cy="-2030.000" r="1.000" /><circle cx="-1380.000" cy="-5580.000" r="1.000" /><circle cx="-1480.000" cy="-5680.000" r="1.000" /><circle cx="-380.000" cy="1820.000" r="1.000" /><circle cx="-480.000" cy="1720.000" r="1.000" /><circle cx="1320.000" cy="-2080.000" r="1.000" /><circle cx="1220.000" cy="-2180.000" r="1.000" /><circle cx="-1700.000" cy="-4200.000" r="1.000" /><circle cx="3800.000" cy="-1000.000" r="1.000" /><circle cx="2400.000" cy="-2400.000" r="1.000" /><circle cx="0.000" cy="2900.000" r="1.000" /><circle cx="-1300.000" cy="-1000.000" r="1.000" /></g><rect x="-1726.000" y="-5790.000" width="130.000" height="80.000" fill="white" stroke="#333" stroke-width="0.5"/><rect x="-1722.000" y="-5786.000" width="14.000" height="10.000" fill="#e74c3c" stroke="#e74c3c" stroke-width="0.5"/><text x="-1704.000" y="-5778.000" font-size="9" font-family="sans-serif" fill="#222">DIFF (65/20)</text><rect x="-1722.000" y="-5774.000" width="14.000" height="10.000" fill="#27ae60" stroke="#27ae60" stroke-width="0.5"/><text x="-1704.000" y="-5766.000" font-size="9" font-family="sans-serif" fill="#222">POLY (66/20)</text><rect x="-1722.000" y="-5762.000" width="14.000" height="10.000" fill="#f39c12" stroke="#f39c12" stroke-width="0.5"/><text x="-1704.000" y="-5754.000" font-size="9" font-family="sans-serif" fill="#222">METAL1 (68/20)</text><rect x="-1722.000" y="-5750.000" width="14.000" height="10.000" fill="#c0392b" stroke="#c0392b" stroke-width="0.5"/><text x="-1704.000" y="-5742.000" font-size="9" font-family="sans-serif" fill="#222">METAL_TOP (72/20)</text><rect x="-1722.000" y="-5738.000" width="14.000" height="10.000" fill="#9b59b6" stroke="#9b59b6" stroke-width="0.5"/><text x="-1704.000" y="-5730.000" font-size="9" font-family="sans-serif" fill="#222">VIA1 (66/44)</text><rect x="-1722.000" y="-5726.000" width="14.000" height="10.000" fill="#27ae60" stroke="#27ae60" stroke-width="0.5"/><text x="-1704.000" y="-5718.000" font-size="9" font-family="sans-serif" fill="#222">NPLUS (93/44)</text></svg>