<?xml version="1.0" encoding="UTF-8"?><svg xmlns="http://www.w3.org/2000/svg" viewBox="-30.000 -154.000 95.000 196.500" width="95" height="196"><rect x="-30.000" y="-154.000" width="95.000" height="196.500" fill="white" stroke="none"/><g fill="#e74c3c" fill-opacity="0.450" stroke="#e74c3c" stroke-width="0.500"><rect x="15.000" y="-55.000" width="5.000" height="70.000" /></g><g fill="#27ae60" fill-opacity="0.450" stroke="#27ae60" stroke-width="0.500"><rect x="0.000" y="-27.500" width="15.000" height="15.000" /><rect x="20.000" y="-27.500" width="15.000" height="15.000" /><rect x="10.000" y="-55.000" width="15.000" height="15.000" /><rect x="10.000" y="17.500" width="15.000" height="15.000" /></g><g fill="#f39c12" fill-opacity="0.450" stroke="#f39c12" stroke-width="0.500"><rect x="5.000" y="-22.500" width="5.000" height="5.000" /><rect x="25.000" y="-22.500" width="5.000" height="5.000" /><rect x="15.000" y="-50.000" width="5.000" height="5.000" /><rect x="15.000" y="22.500" width="5.000" height="5.000" /></g><g fill="#c0392b" fill-opacity="0.450" stroke="#c0392b" stroke-width="0.500"><rect x="0.000" y="-40.000" width="35.000" height="40.000" /></g><g fill="#9b59b6" fill-opacity="0.450" stroke="#9b59b6" stroke-width="0.500"><rect x="-20.000" y="-60.000" width="75.000" height="80.000" /></g><g fill="#27ae60" fill-opacity="0.450" stroke="#27ae60" stroke-width="0.500"><rect x="-5.000" y="-45.000" width="45.000" height="50.000" /></g><g fill="black" stroke="none"><circle cx="27.500" cy="-20.000" r="1.000" /><circle cx="17.500" cy="-47.500" r="1.000" /><circle cx="7.500" cy="-20.000" r="1.000" /><circle cx="17.500" cy="25.000" r="1.000" /></g><rect x="-26.000" y="-150.000" width="130.000" height="80.000" fill="white" stroke="#333" stroke-width="0.5"/><rect x="-22.000" y="-146.000" width="14.000" height="10.000" fill="#e74c3c" stroke="#e74c3c" stroke-width="0.5"/><text x="-4.000" y="-138.000" font-size="9" font-family="sans-serif" fill="#222">POLY (66/20)</text><rect x="-22.000" y="-134.000" width="14.000" height="10.000" fill="#27ae60" stroke="#27ae60" stroke-width="0.5"/><text x="-4.000" y="-126.000" font-size="9" font-family="sans-serif" fill="#222">MET1 (68/20)</text><rect x="-22.000" y="-122.000" width="14.000" height="10.000" fill="#f39c12" stroke="#f39c12" stroke-width="0.5"/><text x="-4.000" y="-114.000" font-size="9" font-family="sans-serif" fill="#222">LICON1 (66/44)</text><rect x="-22.000" y="-110.000" width="14.000" height="10.000" fill="#c0392b" stroke="#c0392b" stroke-width="0.5"/><text x="-4.000" y="-102.000" font-size="9" font-family="sans-serif" fill="#222">DIFF (65/20)</text><rect x="-22.000" y="-98.000" width="14.000" height="10.000" fill="#9b59b6" stroke="#9b59b6" stroke-width="0.5"/><text x="-4.000" y="-90.000" font-size="9" font-family="sans-serif" fill="#222">NWELL (64/20)</text><rect x="-22.000" y="-86.000" width="14.000" height="10.000" fill="#27ae60" stroke="#27ae60" stroke-width="0.5"/><text x="-4.000" y="-78.000" font-size="9" font-family="sans-serif" fill="#222">PSDM (94/20)</text></svg>