<?xml version="1.0" encoding="UTF-8"?><svg xmlns="http://www.w3.org/2000/svg" viewBox="-100.000 -143.000 1300.000 180.500" width="1300" height="180"><rect x="-100.000" y="-143.000" width="1300.000" height="180.500" fill="white" stroke="none"/><g fill="#e74c3c" fill-opacity="0.450" stroke="#e74c3c" stroke-width="0.500"><rect x="-40.000" y="-27.500" width="40.000" height="55.000" /><rect x="1100.000" y="-27.500" width="40.000" height="55.000" /><rect x="-90.000" y="-27.500" width="50.000" height="5.000" /><rect x="1140.000" y="-27.500" width="50.000" height="5.000" /><rect x="-90.000" y="22.500" width="50.000" height="5.000" /><rect x="1140.000" y="22.500" width="50.000" height="5.000" /><rect x="0.000" y="-27.500" width="1100.000" height="5.000" /><rect x="0.000" y="22.500" width="1100.000" height="5.000" /></g><g fill="#27ae60" fill-opacity="0.450" stroke="#27ae60" stroke-width="0.500"><rect x="50.000" y="-35.000" width="1000.000" height="20.000" /></g><g fill="#f39c12" fill-opacity="0.450" stroke="#f39c12" stroke-width="0.500"><rect x="40.000" y="-85.000" width="20.000" height="20.000" /><rect x="45.000" y="-65.000" width="10.000" height="50.000" /><rect x="1040.000" y="-85.000" width="20.000" height="20.000" /><rect x="1045.000" y="-65.000" width="10.000" height="50.000" /></g><text x="550.000" y="-30.500" font-family="sans-serif" font-size="7" text-anchor="middle" dominant-baseline="alphabetic" fill="#222" stroke="white" stroke-width="2.5" paint-order="stroke" stroke-linejoin="round">u</text><text x="550.000" y="19.500" font-family="sans-serif" font-size="7" text-anchor="middle" dominant-baseline="alphabetic" fill="#222" stroke="white" stroke-width="2.5" paint-order="stroke" stroke-linejoin="round">u</text><g fill="black" stroke="none"><circle cx="50.000" cy="-75.000" r="1.000" /><circle cx="1050.000" cy="-75.000" r="1.000" /><circle cx="-90.000" cy="-25.000" r="1.000" /><circle cx="-90.000" cy="25.000" r="1.000" /><circle cx="1190.000" cy="-25.000" r="1.000" /><circle cx="1190.000" cy="25.000" r="1.000" /><circle cx="0.000" cy="-25.000" r="1.000" /><circle cx="1100.000" cy="-25.000" r="1.000" /><circle cx="0.000" cy="25.000" r="1.000" /><circle cx="1100.000" cy="25.000" r="1.000" /></g><rect x="-96.000" y="-139.000" width="130.000" height="44.000" fill="white" stroke="#333" stroke-width="0.5"/><rect x="-92.000" y="-135.000" width="14.000" height="10.000" fill="#e74c3c" stroke="#e74c3c" stroke-width="0.5"/><text x="-74.000" y="-127.000" font-size="9" font-family="sans-serif" fill="#222">WG (1/0)</text><rect x="-92.000" y="-123.000" width="14.000" height="10.000" fill="#27ae60" stroke="#27ae60" stroke-width="0.5"/><text x="-74.000" y="-115.000" font-size="9" font-family="sans-serif" fill="#222">HEATER (47/0)</text><rect x="-92.000" y="-111.000" width="14.000" height="10.000" fill="#f39c12" stroke="#f39c12" stroke-width="0.5"/><text x="-74.000" y="-103.000" font-size="9" font-family="sans-serif" fill="#222">M1 (41/0)</text></svg>