<?xml version="1.0" encoding="UTF-8"?><svg xmlns="http://www.w3.org/2000/svg" viewBox="-20.000 -73.000 490.000 118.000" width="490" height="118"><rect x="-20.000" y="-73.000" width="490.000" height="118.000" fill="white" stroke="none"/><g fill="#e74c3c" fill-opacity="0.450" stroke="#e74c3c" stroke-width="0.500"><rect x="0.000" y="-10.000" width="100.000" height="10.000" /><rect x="150.000" y="20.000" width="300.000" height="10.000" /></g><g fill="#27ae60" fill-opacity="0.450" stroke="#27ae60" stroke-width="0.500"><rect x="100.000" y="-15.000" width="50.000" height="20.000" /><rect x="130.000" y="-15.000" width="20.000" height="50.000" /><rect x="-10.000" y="-15.000" width="20.000" height="20.000" /><rect x="90.000" y="-15.000" width="20.000" height="20.000" /><rect x="140.000" y="15.000" width="20.000" height="20.000" /><rect x="440.000" y="15.000" width="20.000" height="20.000" /></g><g fill="#f39c12" fill-opacity="0.450" stroke="#f39c12" stroke-width="0.500"><rect x="-2.500" y="-7.500" width="5.000" height="5.000" /><rect x="97.500" y="-7.500" width="5.000" height="5.000" /><rect x="147.500" y="22.500" width="5.000" height="5.000" /><rect x="447.500" y="22.500" width="5.000" height="5.000" /></g><text x="50.000" y="-18.000" font-family="sans-serif" font-size="7" text-anchor="middle" dominant-baseline="alphabetic" fill="#222" stroke="white" stroke-width="2.5" paint-order="stroke" stroke-linejoin="round">R1</text><text x="300.000" y="12.000" font-family="sans-serif" font-size="7" text-anchor="middle" dominant-baseline="alphabetic" fill="#222" stroke="white" stroke-width="2.5" paint-order="stroke" stroke-linejoin="round">R2</text><g fill="black" stroke="none"><circle cx="-10.000" cy="-5.000" r="1.000" /><circle cx="110.000" cy="-5.000" r="1.000" /><circle cx="460.000" cy="25.000" r="1.000" /><circle cx="-10.000" cy="-5.000" r="1.000" /><circle cx="110.000" cy="-5.000" r="1.000" /><circle cx="140.000" cy="25.000" r="1.000" /><circle cx="460.000" cy="25.000" r="1.000" /></g><rect x="-16.000" y="-69.000" width="130.000" height="44.000" fill="white" stroke="#333" stroke-width="0.5"/><rect x="-12.000" y="-65.000" width="14.000" height="10.000" fill="#e74c3c" stroke="#e74c3c" stroke-width="0.5"/><text x="6.000" y="-57.000" font-size="9" font-family="sans-serif" fill="#222">POLY (66/20)</text><rect x="-12.000" y="-53.000" width="14.000" height="10.000" fill="#27ae60" stroke="#27ae60" stroke-width="0.5"/><text x="6.000" y="-45.000" font-size="9" font-family="sans-serif" fill="#222">MET1 (68/20)</text><rect x="-12.000" y="-41.000" width="14.000" height="10.000" fill="#f39c12" stroke="#f39c12" stroke-width="0.5"/><text x="6.000" y="-33.000" font-size="9" font-family="sans-serif" fill="#222">LICON1 (66/44)</text></svg>