<?xml version="1.0" encoding="UTF-8"?><svg xmlns="http://www.w3.org/2000/svg" viewBox="-393.400 -183.400 786.800 394.800" width="787" height="395"><rect x="-393.400" y="-183.400" width="786.800" height="394.800" fill="white" stroke="none"/><g fill="none" stroke="#222" stroke-width="1.680" stroke-linecap="round" stroke-linejoin="round"><polyline points="-285.600,-112.000 -98.000,-112.000 -98.000,-8.400 -22.400,-8.400" /><polyline points="-22.400,148.400 -126.000,148.400 -126.000,70.000 168.000,70.000 168.000,-0.000 22.400,-0.000" /><polyline points="-22.400,8.400 -70.000,8.400 -70.000,-70.000 252.000,-70.000 252.000,-16.800 285.600,-16.800" /><polyline points="285.600,16.800 252.000,16.800 252.000,98.000 -22.400,98.000 -22.400,131.600" /><line x1="-330.400" y1="-120.400" x2="-326.352" y2="-118.882" /><line x1="-285.600" y1="-112.000" x2="-288.400" y2="-112.000" /><line x1="-330.400" y1="-103.600" x2="-326.352" y2="-105.118" /><polygon points="-327.600,-86.800 -288.400,-86.800 -288.400,-137.200 -327.600,-137.200" fill="none"/><line x1="-22.400" y1="-8.400" x2="-18.352" y2="-6.882" /><line x1="22.400" y1="-0.000" x2="19.600" y2="-0.000" /><line x1="-22.400" y1="8.400" x2="-18.352" y2="6.882" /><polygon points="-19.600,25.200 19.600,25.200 19.600,-25.200 -19.600,-25.200" fill="none"/><line x1="285.600" y1="-16.800" x2="292.320" y2="-11.760" /><line x1="330.400" y1="-8.400" x2="326.352" y2="-6.882" /><line x1="285.600" y1="-0.000" x2="288.400" y2="-0.000" /><line x1="330.400" y1="8.400" x2="326.352" y2="6.882" /><line x1="285.600" y1="16.800" x2="292.320" y2="11.760" /><polygon points="288.400,42.000 327.600,42.000 327.600,-42.000 288.400,-42.000" fill="none"/><line x1="-22.400" y1="131.600" x2="-18.352" y2="133.118" /><line x1="22.400" y1="140.000" x2="19.600" y2="140.000" /><line x1="-22.400" y1="148.400" x2="-18.352" y2="146.882" /><polygon points="-19.600,165.200 19.600,165.200 19.600,114.800 -19.600,114.800" fill="none"/></g><g font-family="sans-serif" font-size="11.90" fill="#000"><text x="-308.000" y="-145.600" font-family="sans-serif" font-size="11.90" fill="#000" text-anchor="middle">S/H</text><text x="0.000" y="-33.600" font-family="sans-serif" font-size="11.90" fill="#000" text-anchor="middle">Cmp</text><text x="308.000" y="-50.400" font-family="sans-serif" font-size="11.90" fill="#000" text-anchor="middle">SAR&lt;4&gt;</text><text x="0.000" y="106.400" font-family="sans-serif" font-size="11.90" fill="#000" text-anchor="middle">R2R_DAC&lt;4&gt;</text><text x="-334.600" y="-124.600" text-anchor="end">vin</text><text x="-334.600" y="-107.800" text-anchor="end">clk_sh</text><text x="22.400" y="135.800" text-anchor="middle">vlow / gnd</text><text x="334.600" y="4.200" text-anchor="start">reset_b</text><text x="334.600" y="-12.600" text-anchor="start">phase[3:0]</text><text x="281.400" y="-4.200" text-anchor="end">capture[3:0]</text></g><text x="0.000" y="-158.200" font-family="sans-serif" font-size="17.85" font-weight="bold" fill="#000" text-anchor="middle">SarAdc&lt;4&gt; — block-level schematic</text></svg>