<?xml version="1.0" encoding="UTF-8"?><svg xmlns="http://www.w3.org/2000/svg" viewBox="-410.000 -458.000 720.000 768.000" width="720" height="768"><rect x="-410.000" y="-458.000" width="720.000" height="768.000" fill="white" stroke="none"/><g fill="#e74c3c" fill-opacity="0.450" stroke="#e74c3c" stroke-width="0.500"><polyline points="-40.000,-40.000 -380.000,-40.000 -380.000,-380.000" fill="none" stroke-width="40.000" stroke-linecap="butt" stroke-linejoin="miter"/></g><g fill="#27ae60" fill-opacity="0.450" stroke="#27ae60" stroke-width="0.500"><polyline points="-280.000,-280.000 280.000,-280.000 280.000,280.000 -280.000,280.000 -280.000,-220.000 -220.000,-220.000 220.000,-220.000 220.000,220.000 -220.000,220.000 -220.000,-160.000 -160.000,-160.000 160.000,-160.000 160.000,160.000 -160.000,160.000 -160.000,-100.000 -100.000,-100.000 100.000,-100.000 100.000,100.000 -100.000,100.000 -100.000,-40.000 -40.000,-40.000 40.000,-40.000 40.000,40.000 -40.000,40.000 -40.000,-40.000" fill="none" stroke-width="40.000" stroke-linecap="butt" stroke-linejoin="miter"/></g><g fill="#f39c12" fill-opacity="0.450" stroke="#f39c12" stroke-width="0.500"><rect x="-60.000" y="-60.000" width="40.000" height="40.000" /></g><g fill="black" stroke="none"><circle cx="-280.000" cy="-280.000" r="1.000" /><circle cx="-380.000" cy="-380.000" r="1.000" /></g><rect x="-406.000" y="-454.000" width="130.000" height="44.000" fill="white" stroke="#333" stroke-width="0.5"/><rect x="-402.000" y="-450.000" width="14.000" height="10.000" fill="#e74c3c" stroke="#e74c3c" stroke-width="0.5"/><text x="-384.000" y="-442.000" font-size="9" font-family="sans-serif" fill="#222">METAL1 (68/20)</text><rect x="-402.000" y="-438.000" width="14.000" height="10.000" fill="#27ae60" stroke="#27ae60" stroke-width="0.5"/><text x="-384.000" y="-430.000" font-size="9" font-family="sans-serif" fill="#222">METAL_TOP (72/20)</text><rect x="-402.000" y="-426.000" width="14.000" height="10.000" fill="#f39c12" stroke="#f39c12" stroke-width="0.5"/><text x="-384.000" y="-418.000" font-size="9" font-family="sans-serif" fill="#222">VIA1 (66/44)</text></svg>