<?xml version="1.0" encoding="UTF-8"?><svg xmlns="http://www.w3.org/2000/svg" viewBox="0.000 -24.000 1503.150 844.000" width="1503" height="844"><rect x="0.000" y="-24.000" width="1503.150" height="844.000" fill="white" stroke="none"/><g fill="#e74c3c" fill-opacity="0.450" stroke="#e74c3c" stroke-width="0.500"><polygon points="692.820,806.630 692.820,465.200 351.400,465.200 351.400,123.800 10.000,123.800 10.000,10.000 465.210,10.000 465.210,351.400 806.630,351.400 806.630,806.620 692.820,806.620" /><polygon points="10.040,351.400 10.040,806.620 465.200,806.620 465.200,692.810 123.800,692.810 123.800,351.400 10.040,351.400" /><polygon points="920.500,458.880 954.680,458.880 954.680,398.680 954.690,397.480 954.750,396.320 954.840,395.190 954.960,394.080 955.120,393.000 955.310,391.950 955.540,390.920 955.810,389.920 956.110,388.960 956.450,388.010 956.820,387.100 957.220,386.210 957.660,385.350 958.140,384.520 958.650,383.720 959.190,382.940 959.770,382.210 960.370,381.520 961.010,380.880 961.660,380.280 962.350,379.740 963.060,379.240 963.800,378.780 964.570,378.380 965.360,378.020 966.190,377.710 967.040,377.440 967.910,377.230 968.810,377.060 969.740,376.940 970.700,376.870 971.680,376.850 972.640,376.860 973.560,376.920 974.450,377.010 975.300,377.140 976.130,377.310 976.920,377.510 977.680,377.750 978.410,378.030 979.110,378.350 979.780,378.700 980.410,379.090 981.020,379.510 981.590,379.970 982.130,380.470 982.630,381.000 983.100,381.580 983.550,382.180 983.960,382.820 984.350,383.490 984.710,384.190 985.040,384.920 985.340,385.690 985.610,386.490 985.850,387.320 986.060,388.180 986.250,389.070 986.410,390.000 986.540,390.960 986.640,391.950 986.710,392.970 986.750,394.020 986.770,395.110 986.770,458.880 1020.970,458.880 1020.970,398.680 1020.980,397.480 1021.030,396.320 1021.120,395.190 1021.240,394.080 1021.400,393.000 1021.590,391.950 1021.810,390.920 1022.070,389.920 1022.360,388.960 1022.690,388.010 1023.050,387.100 1023.450,386.210 1023.880,385.350 1024.340,384.520 1024.840,383.720 1025.380,382.940 1025.940,382.210 1026.540,381.520 1027.160,380.880 1027.820,380.280 1028.500,379.740 1029.210,379.240 1029.960,378.780 1030.730,378.380 1031.530,378.020 1032.360,377.710 1033.220,377.440 1034.110,377.230 1035.030,377.060 1035.980,376.940 1036.960,376.870 1037.960,376.850 1038.920,376.860 1039.850,376.920 1040.740,377.010 1041.590,377.140 1042.420,377.310 1043.210,377.510 1043.970,377.750 1044.700,378.030 1045.400,378.350 1046.060,378.700 1046.700,379.090 1047.300,379.510 1047.870,379.970 1048.400,380.470 1048.910,381.000 1049.390,381.580 1049.830,382.180 1050.250,382.820 1050.640,383.490 1051.000,384.190 1051.330,384.920 1051.630,385.690 1051.910,386.490 1052.150,387.320 1052.370,388.180 1052.550,389.070 1052.710,390.000 1052.840,390.960 1052.940,391.950 1053.010,392.970 1053.050,394.020 1053.060,395.110 1053.060,458.880 1087.270,458.880 1087.270,389.030 1087.270,387.910 1087.240,386.790 1087.190,385.690 1087.130,384.600 1087.050,383.530 1086.950,382.460 1086.830,381.410 1086.690,380.370 1086.540,379.340 1086.370,378.320 1086.180,377.310 1085.970,376.320 1085.750,375.340 1085.500,374.360 1085.240,373.400 1084.970,372.450 1084.660,371.520 1084.350,370.600 1084.010,369.700 1083.660,368.810 1083.300,367.950 1082.910,367.100 1082.510,366.270 1082.100,365.450 1081.660,364.650 1081.210,363.870 1080.740,363.110 1080.260,362.360 1079.750,361.630 1079.230,360.920 1078.690,360.220 1078.140,359.550 1077.560,358.890 1076.970,358.250 1076.360,357.630 1075.730,357.030 1075.080,356.450 1074.420,355.880 1073.730,355.340 1073.020,354.810 1072.300,354.300 1071.560,353.810 1070.800,353.340 1070.020,352.890 1069.220,352.460 1068.400,352.040 1067.570,351.640 1066.710,351.260 1065.840,350.910 1064.950,350.580 1064.040,350.270 1063.120,349.980 1062.180,349.720 1061.230,349.480 1060.250,349.260 1059.270,349.060 1058.260,348.890 1057.240,348.750 1056.200,348.620 1055.150,348.520 1054.080,348.440 1053.000,348.380 1051.890,348.350 1050.780,348.330 1049.470,348.350 1048.180,348.410 1046.910,348.490 1045.650,348.620 1044.410,348.780 1043.190,348.970 1041.980,349.200 1040.780,349.470 1039.600,349.770 1038.440,350.100 1037.300,350.470 1036.160,350.880 1035.050,351.320 1033.950,351.800 1032.860,352.310 1031.800,352.850 1030.740,353.440 1029.700,354.070 1028.680,354.730 1027.680,355.440 1026.690,356.190 1025.720,356.990 1024.770,357.820 1023.840,358.700 1022.920,359.610 1022.030,360.570 1021.150,361.580 1020.280,362.620 1019.440,363.700 1018.610,364.830 1017.810,366.000 1017.020,367.220 1016.570,367.220 1016.040,366.130 1015.470,365.080 1014.880,364.050 1014.270,363.050 1013.620,362.090 1012.950,361.150 1012.250,360.240 1011.520,359.360 1010.770,358.510 1009.990,357.690 1009.180,356.890 1008.350,356.130 1007.490,355.400 1006.600,354.690 1005.690,354.020 1004.740,353.380 1003.770,352.760 1002.780,352.190 1001.760,351.660 1000.720,351.170 999.650,350.720 998.560,350.300 997.450,349.930 996.310,349.590 995.160,349.300 993.970,349.040 992.770,348.830 991.540,348.650 990.280,348.510 989.010,348.410 987.710,348.350 986.380,348.330 984.930,348.350 983.510,348.410 982.110,348.510 980.750,348.650 979.410,348.830 978.110,349.040 976.840,349.300 975.600,349.590 974.380,349.930 973.200,350.300 972.050,350.720 970.930,351.170 969.850,351.660 968.790,352.190 967.760,352.760 966.770,353.380 965.790,354.020 964.840,354.690 963.920,355.380 963.010,356.100 962.130,356.850 961.270,357.620 960.430,358.420 959.610,359.250 958.810,360.100 958.040,360.980 957.290,361.890 956.560,362.820 955.850,363.770 955.160,364.760 954.500,365.770 953.860,366.800 953.230,366.800 953.230,351.480 920.500,351.480 920.500,458.880" /><polygon points="1102.360,336.590 1136.540,336.590 1136.540,308.890 1102.360,308.890 1102.360,336.590" /><polygon points="1102.360,458.880 1136.540,458.880 1136.540,351.460 1102.360,351.460 1102.360,458.880" /><polygon points="1207.540,459.620 1208.120,459.550 1208.680,459.480 1209.220,459.420 1209.750,459.350 1210.250,459.280 1210.740,459.210 1211.200,459.140 1211.650,459.060 1212.080,458.990 1212.490,458.910 1212.880,458.840 1213.260,458.760 1213.610,458.680 1213.950,458.600 1214.270,458.530 1214.570,458.450 1214.570,433.490 1214.430,433.500 1214.290,433.500 1214.140,433.500 1213.980,433.500 1213.820,433.510 1213.640,433.510 1213.460,433.520 1213.270,433.530 1213.060,433.540 1212.850,433.540 1212.640,433.550 1212.410,433.560 1212.180,433.570 1211.930,433.580 1211.680,433.590 1211.420,433.610 1211.170,433.620 1210.910,433.630 1210.640,433.640 1210.380,433.650 1210.110,433.660 1209.840,433.670 1209.570,433.680 1209.290,433.690 1209.020,433.690 1208.740,433.700 1208.460,433.700 1208.170,433.710 1207.890,433.710 1207.600,433.710 1207.310,433.710 1207.030,433.720 1206.350,433.710 1205.690,433.680 1205.050,433.640 1204.430,433.580 1203.820,433.510 1203.230,433.410 1202.660,433.310 1202.110,433.180 1201.570,433.040 1201.050,432.880 1200.550,432.710 1200.070,432.520 1199.600,432.320 1199.160,432.090 1198.730,431.860 1198.320,431.600 1197.920,431.330 1197.550,431.010 1197.210,430.670 1196.890,430.290 1196.600,429.880 1196.330,429.430 1196.090,428.960 1195.870,428.450 1195.680,427.910 1195.520,427.330 1195.380,426.730 1195.270,426.090 1195.180,425.420 1195.120,424.720 1195.080,423.980 1195.070,423.210 1195.070,372.870 1214.570,372.870 1214.570,351.470 1195.070,351.470 1195.070,317.500 1161.710,317.500 1161.710,351.470 1147.470,351.470 1147.470,372.870 1161.710,372.870 1161.710,430.560 1161.720,431.630 1161.750,432.670 1161.800,433.690 1161.870,434.680 1161.960,435.660 1162.070,436.610 1162.200,437.540 1162.350,438.450 1162.510,439.340 1162.700,440.200 1162.910,441.040 1163.140,441.870 1163.380,442.660 1163.650,443.440 1163.940,444.190 1164.250,444.930 1164.570,445.640 1164.900,446.330 1165.260,447.000 1165.630,447.660 1166.010,448.300 1166.420,448.910 1166.840,449.510 1167.270,450.090 1167.730,450.650 1168.200,451.190 1168.680,451.710 1169.190,452.220 1169.710,452.700 1170.250,453.170 1170.800,453.620 1171.380,454.040 1171.960,454.460 1172.550,454.850 1173.160,455.230 1173.780,455.600 1174.410,455.950 1175.050,456.280 1175.710,456.600 1176.380,456.900 1177.060,457.190 1177.750,457.460 1178.460,457.720 1179.180,457.960 1179.910,458.190 1180.650,458.400 1181.410,458.590 1182.180,458.760 1182.950,458.930 1183.740,459.090 1184.550,459.230 1185.360,459.360 1186.180,459.490 1187.010,459.600 1187.850,459.700 1188.710,459.790 1189.570,459.860 1190.450,459.930 1191.330,459.990 1192.230,460.030 1193.130,460.070 1194.050,460.090 1194.980,460.110 1195.920,460.120 1196.770,460.110 1197.610,460.110 1198.430,460.100 1199.230,460.090 1200.020,460.070 1200.790,460.050 1201.540,460.020 1202.280,460.000 1203.000,459.960 1203.700,459.930 1204.390,459.890 1205.050,459.840 1205.700,459.790 1206.340,459.740 1206.950,459.680 1207.540,459.620" /><polygon points="920.500,621.690 954.680,621.690 954.680,561.500 954.690,560.300 954.750,559.140 954.840,558.000 954.960,556.890 955.120,555.810 955.310,554.760 955.540,553.730 955.810,552.730 956.110,551.760 956.450,550.820 956.820,549.910 957.220,549.020 957.660,548.160 958.140,547.330 958.650,546.530 959.190,545.760 959.770,545.020 960.370,544.320 961.010,543.680 961.660,543.080 962.350,542.540 963.060,542.040 963.800,541.580 964.570,541.180 965.360,540.820 966.190,540.510 967.040,540.250 967.910,540.040 968.810,539.870 969.740,539.750 970.700,539.680 971.680,539.650 972.640,539.670 973.560,539.730 974.450,539.820 975.300,539.950 976.130,540.120 976.920,540.320 977.680,540.560 978.410,540.840 979.110,541.160 979.780,541.510 980.410,541.900 981.020,542.320 981.590,542.780 982.130,543.280 982.630,543.810 983.100,544.380 983.550,544.990 983.960,545.630 984.350,546.300 984.710,547.000 985.040,547.730 985.340,548.500 985.610,549.300 985.850,550.130 986.060,550.990 986.250,551.880 986.410,552.810 986.540,553.760 986.640,554.750 986.710,555.770 986.750,556.820 986.770,557.910 986.770,621.690 1020.970,621.690 1020.970,561.500 1020.980,560.300 1021.030,559.140 1021.120,558.000 1021.240,556.890 1021.400,555.810 1021.590,554.760 1021.810,553.730 1022.070,552.730 1022.360,551.760 1022.690,550.820 1023.050,549.910 1023.450,549.020 1023.880,548.160 1024.340,547.330 1024.840,546.530 1025.380,545.760 1025.940,545.020 1026.540,544.320 1027.160,543.680 1027.820,543.080 1028.500,542.540 1029.210,542.040 1029.960,541.580 1030.730,541.180 1031.530,540.820 1032.360,540.510 1033.220,540.250 1034.110,540.040 1035.030,539.870 1035.980,539.750 1036.960,539.680 1037.960,539.650 1038.920,539.670 1039.850,539.730 1040.740,539.820 1041.590,539.950 1042.420,540.120 1043.210,540.320 1043.970,540.560 1044.700,540.840 1045.400,541.160 1046.060,541.510 1046.700,541.900 1047.300,542.320 1047.870,542.780 1048.400,543.280 1048.910,543.810 1049.390,544.380 1049.830,544.990 1050.250,545.630 1050.640,546.300 1051.000,547.000 1051.330,547.730 1051.630,548.500 1051.910,549.300 1052.150,550.130 1052.370,550.990 1052.550,551.880 1052.710,552.810 1052.840,553.760 1052.940,554.750 1053.010,555.770 1053.050,556.820 1053.060,557.910 1053.060,621.690 1087.270,621.690 1087.270,551.820 1087.270,550.700 1087.240,549.590 1087.190,548.500 1087.130,547.410 1087.050,546.330 1086.950,545.270 1086.830,544.210 1086.690,543.170 1086.540,542.140 1086.370,541.120 1086.180,540.120 1085.970,539.120 1085.750,538.140 1085.500,537.160 1085.240,536.200 1084.970,535.260 1084.660,534.320 1084.350,533.400 1084.010,532.500 1083.660,531.620 1083.300,530.760 1082.910,529.910 1082.510,529.080 1082.100,528.270 1081.660,527.470 1081.210,526.690 1080.740,525.930 1080.260,525.180 1079.750,524.450 1079.230,523.740 1078.690,523.040 1078.140,522.360 1077.560,521.710 1076.970,521.070 1076.360,520.450 1075.730,519.850 1075.080,519.260 1074.420,518.700 1073.730,518.150 1073.020,517.620 1072.300,517.110 1071.560,516.620 1070.800,516.150 1070.020,515.700 1069.220,515.270 1068.400,514.850 1067.570,514.460 1066.710,514.090 1065.840,513.730 1064.950,513.400 1064.040,513.090 1063.120,512.800 1062.180,512.540 1061.230,512.300 1060.250,512.080 1059.270,511.880 1058.260,511.700 1057.240,511.550 1056.200,511.420 1055.150,511.310 1054.080,511.230 1053.000,511.170 1051.890,511.140 1050.780,511.120 1049.470,511.140 1048.180,511.200 1046.910,511.290 1045.650,511.410 1044.410,511.570 1043.190,511.770 1041.980,512.000 1040.780,512.270 1039.600,512.570 1038.440,512.910 1037.300,513.280 1036.160,513.690 1035.050,514.130 1033.950,514.610 1032.860,515.120 1031.800,515.670 1030.740,516.250 1029.700,516.870 1028.680,517.540 1027.680,518.250 1026.690,519.000 1025.720,519.790 1024.770,520.630 1023.840,521.510 1022.920,522.430 1022.030,523.390 1021.150,524.390 1020.280,525.440 1019.440,526.530 1018.610,527.650 1017.810,528.820 1017.020,530.040 1016.570,530.040 1016.040,528.950 1015.470,527.890 1014.880,526.860 1014.270,525.860 1013.620,524.900 1012.950,523.960 1012.250,523.050 1011.520,522.170 1010.770,521.320 1009.990,520.500 1009.180,519.700 1008.350,518.940 1007.490,518.210 1006.600,517.500 1005.690,516.820 1004.740,516.180 1003.770,515.570 1002.780,515.000 1001.760,514.470 1000.720,513.980 999.650,513.520 998.560,513.110 997.450,512.730 996.310,512.400 995.160,512.100 993.970,511.840 992.770,511.620 991.540,511.440 990.280,511.300 989.010,511.200 987.710,511.150 986.380,511.120 984.930,511.150 983.510,511.200 982.110,511.300 980.750,511.440 979.410,511.620 978.110,511.840 976.840,512.100 975.600,512.400 974.380,512.730 973.200,513.110 972.050,513.520 970.930,513.980 969.850,514.470 968.790,515.000 967.760,515.570 966.770,516.180 965.790,516.820 964.840,517.490 963.920,518.190 963.010,518.910 962.130,519.660 961.270,520.440 960.430,521.240 959.610,522.060 958.810,522.920 958.040,523.800 957.290,524.700 956.560,525.630 955.850,526.590 955.160,527.580 954.500,528.590 953.860,529.630 953.230,529.630 953.230,514.300 920.500,514.300 920.500,621.690" /><polygon points="1172.640,622.300 1173.670,621.980 1174.690,621.640 1175.690,621.290 1176.680,620.910 1177.660,620.520 1178.630,620.110 1179.590,619.680 1180.530,619.230 1181.460,618.760 1182.380,618.280 1183.290,617.770 1184.190,617.250 1185.070,616.710 1185.940,616.150 1186.800,615.570 1187.640,614.980 1188.530,614.370 1189.390,613.740 1190.230,613.110 1191.050,612.460 1191.850,611.790 1192.640,611.110 1193.400,610.420 1194.140,609.710 1194.870,608.990 1195.570,608.250 1196.260,607.500 1196.920,606.740 1197.560,605.960 1198.190,605.170 1198.790,604.360 1199.380,603.540 1199.940,602.720 1200.480,601.880 1201.010,601.040 1201.500,600.190 1201.980,599.340 1202.430,598.490 1202.860,597.620 1203.270,596.760 1203.650,595.880 1204.010,595.010 1204.350,594.120 1204.660,593.230 1204.950,592.340 1205.210,591.440 1205.460,590.540 1205.680,589.630 1172.320,589.630 1172.020,590.240 1171.710,590.840 1171.380,591.430 1171.030,592.000 1170.670,592.550 1170.290,593.080 1169.900,593.600 1169.490,594.100 1169.060,594.580 1168.620,595.050 1168.160,595.500 1167.680,595.930 1167.180,596.340 1166.670,596.740 1166.150,597.120 1165.600,597.490 1165.040,597.820 1164.460,598.140 1163.870,598.430 1163.250,598.700 1162.620,598.960 1161.970,599.190 1161.310,599.400 1160.620,599.580 1159.920,599.750 1159.200,599.890 1158.460,600.020 1157.710,600.120 1156.930,600.190 1156.140,600.250 1155.330,600.280 1154.490,600.290 1153.170,600.270 1151.890,600.200 1150.650,600.080 1149.440,599.900 1148.270,599.690 1147.140,599.420 1146.050,599.100 1145.000,598.730 1143.980,598.320 1143.000,597.850 1142.060,597.340 1141.150,596.780 1140.290,596.160 1139.460,595.500 1138.660,594.790 1137.910,594.030 1137.190,593.230 1136.500,592.390 1135.850,591.510 1135.230,590.590 1134.650,589.640 1134.090,588.660 1133.570,587.630 1133.090,586.580 1132.630,585.480 1132.210,584.350 1131.820,583.180 1131.460,581.980 1131.140,580.740 1130.850,579.460 1130.590,578.150 1130.370,576.800 1207.550,576.800 1207.560,574.770 1207.530,572.770 1207.470,570.780 1207.360,568.810 1207.210,566.870 1207.030,564.950 1206.800,563.050 1206.540,561.170 1206.240,559.320 1205.900,557.480 1205.520,555.670 1205.100,553.880 1204.650,552.110 1204.150,550.360 1203.620,548.630 1203.050,546.930 1202.440,545.250 1201.790,543.620 1201.100,542.020 1200.380,540.460 1199.610,538.930 1198.810,537.440 1197.970,535.990 1197.090,534.580 1196.170,533.200 1195.220,531.860 1194.220,530.560 1193.190,529.290 1192.120,528.060 1191.010,526.870 1189.860,525.710 1188.670,524.590 1187.800,523.820 1186.910,523.060 1186.000,522.320 1185.070,521.610 1184.130,520.920 1183.170,520.250 1182.190,519.600 1181.200,518.970 1180.190,518.370 1179.160,517.790 1178.110,517.220 1177.050,516.680 1175.970,516.160 1174.880,515.670 1173.760,515.190 1172.630,514.730 1171.480,514.300 1170.310,513.890 1169.130,513.520 1167.920,513.160 1166.690,512.840 1165.450,512.550 1164.190,512.280 1162.900,512.040 1161.600,511.830 1160.280,511.640 1158.940,511.490 1157.590,511.360 1156.210,511.260 1154.810,511.190 1153.400,511.150 1151.960,511.130 1150.430,511.150 1148.910,511.200 1147.410,511.290 1145.930,511.410 1144.460,511.560 1143.020,511.750 1141.590,511.970 1140.180,512.220 1138.790,512.510 1137.410,512.840 1136.060,513.190 1134.720,513.580 1133.390,514.010 1132.090,514.460 1130.800,514.950 1129.540,515.480 1128.290,516.020 1127.060,516.600 1125.850,517.200 1124.660,517.830 1123.500,518.480 1122.360,519.160 1121.240,519.870 1120.130,520.610 1119.060,521.370 1118.000,522.150 1116.960,522.970 1115.950,523.810 1114.960,524.670 1113.990,525.560 1113.040,526.480 1112.110,527.430 1111.210,528.390 1110.340,529.380 1109.490,530.390 1108.660,531.420 1107.860,532.480 1107.090,533.550 1106.340,534.650 1105.620,535.760 1104.930,536.900 1104.260,538.060 1103.610,539.240 1103.000,540.440 1102.400,541.670 1101.840,542.910 1101.300,544.170 1100.790,545.460 1100.300,546.760 1099.850,548.080 1099.430,549.410 1099.040,550.750 1098.680,552.110 1098.360,553.470 1098.060,554.850 1097.800,556.240 1097.560,557.640 1097.360,559.060 1097.190,560.480 1097.050,561.920 1096.940,563.370 1096.870,564.830 1096.820,566.310 1096.800,567.790 1096.820,569.310 1096.870,570.810 1096.940,572.300 1097.050,573.780 1097.190,575.240 1097.360,576.690 1097.560,578.120 1097.800,579.550 1098.060,580.960 1098.360,582.350 1098.680,583.740 1099.040,585.110 1099.430,586.460 1099.850,587.800 1100.300,589.130 1100.790,590.440 1101.300,591.750 1101.840,593.030 1102.400,594.290 1103.000,595.530 1103.610,596.740 1104.260,597.930 1104.930,599.100 1105.620,600.240 1106.340,601.370 1107.090,602.470 1107.860,603.550 1108.660,604.600 1109.490,605.640 1110.340,606.660 1111.210,607.650 1112.110,608.620 1113.040,609.560 1114.000,610.480 1114.980,611.360 1115.990,612.230 1117.030,613.060 1118.090,613.870 1119.180,614.660 1120.290,615.420 1121.430,616.150 1122.600,616.860 1123.790,617.540 1125.010,618.190 1126.260,618.820 1127.530,619.420 1128.820,620.000 1130.140,620.550 1131.490,621.070 1132.860,621.550 1134.250,622.010 1135.650,622.430 1137.080,622.810 1138.520,623.170 1139.990,623.490 1141.470,623.770 1142.980,624.020 1144.500,624.240 1146.050,624.430 1147.610,624.580 1149.200,624.690 1150.800,624.780 1152.420,624.830 1154.060,624.850 1155.340,624.830 1156.600,624.800 1157.850,624.750 1159.080,624.670 1160.300,624.590 1161.500,624.480 1162.680,624.350 1163.850,624.200 1165.000,624.030 1166.140,623.850 1167.260,623.640 1168.370,623.410 1169.460,623.170 1170.540,622.900 1171.600,622.610 1172.640,622.300" /><polygon points="1130.570,556.450 1130.800,555.250 1131.050,554.090 1131.330,552.960 1131.640,551.870 1131.970,550.800 1132.330,549.760 1132.730,548.760 1133.140,547.790 1133.590,546.850 1134.070,545.940 1134.570,545.060 1135.100,544.210 1135.660,543.390 1136.250,542.600 1136.860,541.850 1137.500,541.120 1138.180,540.440 1138.890,539.800 1139.640,539.200 1140.420,538.650 1141.240,538.140 1142.090,537.680 1142.980,537.260 1143.910,536.880 1144.870,536.550 1145.870,536.260 1146.900,536.020 1147.970,535.820 1149.070,535.660 1150.210,535.550 1151.390,535.490 1152.610,535.470 1153.640,535.490 1154.660,535.550 1155.650,535.660 1156.610,535.820 1157.560,536.020 1158.480,536.260 1159.380,536.550 1160.260,536.880 1161.110,537.260 1161.940,537.680 1162.750,538.140 1163.530,538.650 1164.300,539.200 1165.030,539.800 1165.750,540.440 1166.440,541.120 1167.110,541.850 1167.740,542.600 1168.340,543.390 1168.900,544.200 1169.430,545.050 1169.920,545.930 1170.380,546.840 1170.800,547.780 1171.190,548.760 1171.540,549.760 1171.860,550.800 1172.140,551.860 1172.390,552.960 1172.610,554.090 1172.790,555.250 1172.930,556.450 1130.570,556.450" fill="white" fill-opacity="1" stroke="none"/><polygon points="1281.900,620.330 1282.890,619.720 1283.860,619.090 1284.810,618.430 1285.730,617.740 1286.620,617.020 1287.490,616.280 1288.330,615.500 1289.150,614.690 1289.940,613.860 1290.710,613.000 1291.450,612.100 1292.170,611.180 1292.860,610.230 1293.530,609.250 1294.170,608.240 1294.790,607.200 1295.220,607.200 1295.220,621.690 1327.940,621.690 1327.940,471.690 1293.760,471.690 1293.760,526.440 1293.130,526.440 1292.510,525.610 1291.880,524.800 1291.230,524.010 1290.570,523.230 1289.890,522.480 1289.200,521.740 1288.490,521.030 1287.760,520.330 1287.020,519.650 1286.260,519.000 1285.480,518.360 1284.690,517.740 1283.880,517.130 1283.060,516.550 1282.220,515.990 1281.360,515.440 1280.480,514.920 1279.560,514.430 1278.610,513.980 1277.620,513.560 1276.600,513.170 1275.540,512.810 1274.450,512.490 1273.330,512.200 1272.170,511.940 1270.980,511.720 1269.750,511.530 1268.490,511.380 1267.200,511.260 1265.880,511.170 1264.520,511.120 1263.130,511.110 1261.820,511.120 1260.520,511.170 1259.250,511.250 1257.980,511.370 1256.740,511.520 1255.500,511.700 1254.290,511.920 1253.090,512.160 1251.900,512.450 1250.730,512.760 1249.570,513.110 1248.430,513.480 1247.300,513.900 1246.190,514.340 1245.100,514.820 1244.020,515.330 1242.950,515.860 1241.900,516.430 1240.870,517.010 1239.860,517.630 1238.870,518.270 1237.900,518.930 1236.950,519.630 1236.020,520.340 1235.110,521.080 1234.210,521.850 1233.340,522.640 1232.480,523.460 1231.650,524.300 1230.830,525.170 1230.030,526.070 1229.250,526.990 1228.480,527.930 1227.730,528.890 1227.010,529.880 1226.310,530.900 1225.630,531.930 1224.970,532.990 1224.330,534.080 1223.720,535.190 1223.130,536.320 1222.560,537.480 1222.010,538.650 1221.480,539.860 1220.970,541.080 1220.480,542.330 1220.020,543.610 1219.580,544.910 1219.160,546.230 1218.770,547.570 1218.410,548.920 1218.070,550.290 1217.760,551.680 1217.470,553.080 1217.220,554.500 1216.990,555.930 1216.780,557.380 1216.610,558.840 1216.460,560.320 1216.330,561.820 1216.240,563.330 1216.170,564.860 1216.130,566.410 1216.110,567.970 1216.130,569.640 1216.170,571.280 1216.240,572.910 1216.330,574.510 1216.460,576.090 1216.610,577.650 1216.780,579.190 1216.990,580.700 1217.220,582.190 1217.470,583.660 1217.760,585.110 1218.070,586.540 1218.410,587.940 1218.770,589.320 1219.160,590.680 1219.580,592.010 1220.020,593.320 1220.490,594.610 1220.980,595.870 1221.490,597.100 1222.020,598.310 1222.580,599.490 1223.160,600.650 1223.760,601.780 1224.380,602.890 1225.020,603.970 1225.690,605.030 1226.380,606.060 1227.090,607.070 1227.820,608.050 1228.580,609.000 1229.350,609.930 1230.150,610.840 1230.960,611.720 1231.790,612.570 1232.630,613.400 1233.500,614.190 1234.380,614.960 1235.290,615.710 1236.210,616.420 1237.140,617.110 1238.100,617.770 1239.080,618.400 1240.070,619.010 1241.080,619.590 1242.120,620.140 1243.170,620.670 1244.240,621.170 1245.320,621.630 1246.410,622.070 1247.520,622.480 1248.640,622.860 1249.770,623.210 1250.920,623.530 1252.080,623.810 1253.250,624.070 1254.430,624.300 1255.630,624.500 1256.850,624.660 1258.070,624.800 1259.320,624.910 1260.570,624.980 1261.840,625.030 1263.130,625.050 1264.450,625.020 1265.760,624.970 1267.040,624.870 1268.310,624.740 1269.550,624.580 1270.780,624.370 1271.980,624.130 1273.170,623.850 1274.330,623.540 1275.470,623.190 1276.600,622.800 1277.700,622.380 1278.780,621.920 1279.840,621.430 1280.880,620.890 1281.900,620.330" /><polygon points="1256.290,589.810 1255.630,588.770 1255.000,587.680 1254.420,586.540 1253.880,585.350 1253.380,584.120 1252.930,582.850 1252.520,581.520 1252.150,580.160 1251.830,578.740 1251.540,577.280 1251.310,575.770 1251.110,574.220 1250.960,572.620 1250.850,570.980 1250.790,569.290 1250.770,567.560 1250.790,565.880 1250.850,564.240 1250.960,562.630 1251.120,561.070 1251.310,559.550 1251.560,558.070 1251.840,556.620 1252.170,555.220 1252.550,553.860 1252.970,552.530 1253.430,551.250 1253.940,550.000 1254.500,548.800 1255.090,547.640 1255.740,546.520 1256.420,545.430 1257.150,544.410 1257.910,543.440 1258.710,542.550 1259.540,541.720 1260.410,540.950 1261.320,540.260 1262.260,539.630 1263.240,539.060 1264.250,538.570 1265.300,538.140 1266.380,537.770 1267.510,537.470 1268.660,537.240 1269.860,537.080 1271.090,536.980 1272.360,536.940 1273.060,536.950 1273.750,536.980 1274.430,537.030 1275.090,537.090 1275.740,537.170 1276.380,537.270 1277.010,537.390 1277.630,537.520 1278.230,537.670 1278.830,537.840 1279.410,538.030 1279.970,538.240 1280.530,538.460 1281.070,538.710 1281.610,538.970 1282.120,539.240 1282.630,539.540 1283.130,539.850 1283.620,540.180 1284.090,540.520 1284.560,540.870 1285.020,541.240 1285.460,541.620 1285.900,542.010 1286.330,542.420 1286.740,542.840 1287.150,543.280 1287.550,543.720 1287.940,544.180 1288.320,544.660 1288.690,545.150 1289.040,545.640 1289.390,546.160 1289.730,546.690 1290.050,547.240 1290.360,547.790 1290.660,548.360 1290.950,548.950 1291.230,549.540 1291.500,550.150 1291.760,550.780 1292.000,551.410 1292.240,552.060 1292.460,552.720 1292.670,553.400 1292.870,554.080 1293.070,554.780 1293.240,555.490 1293.410,556.220 1293.560,556.960 1293.700,557.700 1293.830,558.440 1293.950,559.200 1294.060,559.960 1294.160,560.730 1294.250,561.510 1294.330,562.290 1294.400,563.080 1294.460,563.870 1294.510,564.680 1294.550,565.490 1294.570,566.310 1294.590,567.130 1294.600,567.970 1294.570,569.600 1294.500,571.200 1294.380,572.760 1294.220,574.280 1294.010,575.760 1293.750,577.210 1293.440,578.620 1293.090,579.990 1292.690,581.330 1292.250,582.630 1291.760,583.880 1291.220,585.110 1290.640,586.290 1290.020,587.440 1289.340,588.540 1288.630,589.620 1287.860,590.630 1287.050,591.570 1286.210,592.460 1285.340,593.270 1284.420,594.030 1283.470,594.710 1282.490,595.340 1281.460,595.890 1280.400,596.390 1279.310,596.810 1278.170,597.170 1277.000,597.470 1275.790,597.700 1274.550,597.860 1273.260,597.960 1271.940,597.990 1270.700,597.960 1269.500,597.860 1268.320,597.700 1267.190,597.480 1266.090,597.190 1265.020,596.840 1263.990,596.420 1263.000,595.940 1262.030,595.400 1261.110,594.790 1260.220,594.120 1259.360,593.390 1258.540,592.590 1257.760,591.730 1257.010,590.800 1256.290,589.810" fill="white" fill-opacity="1" stroke="none"/><polygon points="1341.710,499.380 1375.890,499.380 1375.890,471.710 1341.710,471.710 1341.710,499.380" /><polygon points="1341.710,621.690 1375.890,621.690 1375.890,514.300 1341.710,514.300 1341.710,621.690" /><polygon points="1443.750,620.440 1444.670,619.930 1445.570,619.400 1446.450,618.840 1447.310,618.270 1448.150,617.670 1448.970,617.060 1449.760,616.420 1450.540,615.760 1451.300,615.080 1452.030,614.380 1452.750,613.650 1453.440,612.910 1454.120,612.140 1454.770,611.360 1455.400,610.550 1456.020,609.720 1456.450,609.720 1456.530,610.240 1456.620,610.750 1456.700,611.260 1456.780,611.750 1456.870,612.240 1456.950,612.720 1457.040,613.180 1457.130,613.640 1457.220,614.090 1457.320,614.530 1457.410,614.960 1457.510,615.380 1457.610,615.790 1457.710,616.200 1457.810,616.590 1457.920,616.980 1458.020,617.350 1458.130,617.710 1458.240,618.060 1458.360,618.400 1458.480,618.730 1458.600,619.050 1458.730,619.360 1458.860,619.660 1458.990,619.960 1459.130,620.230 1459.270,620.500 1459.410,620.760 1459.550,621.010 1459.700,621.250 1459.850,621.480 1460.000,621.690 1493.150,621.690 1493.150,620.220 1492.860,620.030 1492.590,619.820 1492.330,619.590 1492.090,619.350 1491.860,619.090 1491.640,618.810 1491.430,618.510 1491.230,618.200 1491.050,617.860 1490.880,617.520 1490.720,617.150 1490.570,616.770 1490.440,616.370 1490.320,615.950 1490.210,615.520 1490.110,615.060 1490.020,614.600 1489.940,614.110 1489.860,613.590 1489.790,613.060 1489.720,612.500 1489.660,611.920 1489.610,611.320 1489.560,610.690 1489.510,610.050 1489.480,609.380 1489.450,608.690 1489.420,607.970 1489.400,607.240 1489.390,606.480 1489.380,605.700 1489.380,604.900 1489.380,550.800 1489.360,549.550 1489.320,548.310 1489.260,547.100 1489.160,545.910 1489.050,544.730 1488.900,543.570 1488.730,542.430 1488.530,541.310 1488.310,540.200 1488.060,539.110 1487.780,538.040 1487.480,536.990 1487.150,535.950 1486.800,534.940 1486.410,533.940 1486.000,532.960 1485.570,532.000 1485.110,531.060 1484.620,530.150 1484.110,529.250 1483.560,528.380 1482.990,527.520 1482.400,526.690 1481.770,525.880 1481.120,525.090 1480.430,524.320 1479.720,523.580 1478.980,522.850 1478.210,522.150 1477.420,521.460 1476.590,520.800 1475.740,520.160 1474.990,519.620 1474.230,519.090 1473.450,518.590 1472.650,518.100 1471.820,517.620 1470.980,517.170 1470.110,516.730 1469.230,516.310 1468.330,515.900 1467.400,515.520 1466.460,515.150 1465.500,514.790 1464.520,514.460 1463.520,514.140 1462.500,513.830 1461.470,513.540 1460.400,513.280 1459.300,513.030 1458.180,512.800 1457.030,512.590 1455.840,512.390 1454.630,512.210 1453.390,512.040 1452.120,511.900 1450.830,511.770 1449.500,511.660 1448.140,511.560 1446.760,511.480 1445.340,511.420 1443.900,511.380 1442.430,511.350 1440.930,511.340 1439.420,511.360 1437.930,511.390 1436.470,511.450 1435.040,511.530 1433.630,511.630 1432.240,511.760 1430.880,511.910 1429.540,512.080 1428.230,512.280 1426.940,512.500 1425.680,512.740 1424.450,513.000 1423.230,513.290 1422.050,513.600 1420.880,513.940 1419.750,514.300 1418.620,514.670 1417.530,515.060 1416.460,515.460 1415.410,515.880 1414.390,516.320 1413.390,516.780 1412.420,517.250 1411.470,517.740 1410.540,518.240 1409.640,518.770 1408.760,519.310 1407.910,519.860 1407.080,520.440 1406.270,521.030 1405.490,521.630 1404.730,522.260 1404.000,522.890 1403.290,523.540 1402.600,524.200 1401.930,524.870 1401.280,525.560 1400.660,526.270 1400.050,526.980 1399.470,527.720 1398.920,528.460 1398.380,529.210 1397.860,529.980 1397.370,530.770 1396.900,531.560 1396.450,532.370 1396.020,533.180 1395.610,534.020 1395.230,534.860 1394.870,535.700 1394.540,536.560 1394.230,537.420 1393.940,538.290 1393.670,539.160 1393.420,540.040 1393.200,540.930 1393.010,541.830 1392.830,542.730 1392.680,543.630 1392.550,544.550 1392.440,545.470 1392.360,546.400 1392.290,547.330 1392.250,548.270 1423.710,548.270 1423.830,547.440 1423.980,546.640 1424.150,545.860 1424.340,545.100 1424.570,544.380 1424.820,543.670 1425.090,542.990 1425.390,542.340 1425.720,541.710 1426.080,541.100 1426.460,540.520 1426.860,539.970 1427.300,539.440 1427.760,538.930 1428.240,538.440 1428.760,537.980 1429.290,537.550 1429.860,537.150 1430.470,536.780 1431.100,536.430 1431.760,536.110 1432.460,535.810 1433.180,535.550 1433.940,535.310 1434.730,535.100 1435.550,534.920 1436.400,534.770 1437.290,534.640 1438.200,534.540 1439.140,534.470 1440.120,534.430 1441.130,534.420 1442.080,534.430 1443.000,534.460 1443.890,534.530 1444.740,534.610 1445.560,534.720 1446.340,534.860 1447.090,535.020 1447.810,535.200 1448.500,535.410 1449.150,535.650 1449.770,535.910 1450.350,536.190 1450.900,536.500 1451.420,536.830 1451.900,537.190 1452.350,537.570 1452.770,537.970 1453.160,538.390 1453.520,538.820 1453.860,539.270 1454.170,539.740 1454.450,540.220 1454.710,540.720 1454.940,541.240 1455.140,541.780 1455.320,542.330 1455.470,542.890 1455.590,543.480 1455.680,544.080 1455.750,544.690 1455.790,545.330 1455.800,545.970 1455.780,546.640 1455.710,547.280 1455.590,547.900 1455.430,548.500 1455.210,549.070 1454.950,549.610 1454.650,550.140 1454.290,550.630 1453.890,551.100 1453.440,551.550 1452.940,551.980 1452.390,552.370 1451.800,552.750 1451.150,553.090 1450.460,553.420 1449.730,553.720 1448.930,554.000 1448.060,554.290 1447.130,554.570 1446.120,554.850 1445.040,555.120 1443.890,555.390 1442.670,555.660 1441.380,555.930 1440.020,556.190 1438.590,556.440 1437.090,556.700 1435.520,556.950 1433.880,557.190 1432.170,557.430 1430.390,557.670 1428.540,557.910 1427.500,558.040 1426.460,558.190 1425.430,558.340 1424.400,558.510 1423.390,558.680 1422.380,558.850 1421.370,559.040 1420.380,559.230 1419.390,559.430 1418.410,559.640 1417.440,559.860 1416.470,560.090 1415.510,560.320 1414.560,560.560 1413.620,560.810 1412.680,561.080 1411.760,561.340 1410.850,561.620 1409.950,561.920 1409.070,562.230 1408.200,562.550 1407.350,562.890 1406.510,563.240 1405.680,563.610 1404.870,563.990 1404.070,564.390 1403.290,564.800 1402.510,565.220 1401.760,565.660 1401.020,566.110 1400.290,566.570 1399.570,567.060 1398.880,567.550 1398.200,568.060 1397.540,568.580 1396.890,569.120 1396.270,569.680 1395.670,570.260 1395.080,570.850 1394.520,571.450 1393.970,572.080 1393.440,572.720 1392.930,573.370 1392.440,574.050 1391.970,574.730 1391.510,575.440 1391.070,576.160 1390.650,576.890 1390.260,577.660 1389.900,578.440 1389.550,579.240 1389.240,580.070 1388.950,580.920 1388.680,581.790 1388.440,582.680 1388.230,583.590 1388.040,584.530 1387.880,585.480 1387.740,586.460 1387.630,587.460 1387.540,588.490 1387.480,589.530 1387.440,590.600 1387.420,591.680 1387.440,592.680 1387.470,593.650 1387.520,594.610 1387.590,595.560 1387.690,596.490 1387.810,597.410 1387.940,598.310 1388.100,599.190 1388.280,600.070 1388.480,600.920 1388.700,601.760 1388.950,602.590 1389.210,603.400 1389.500,604.200 1389.810,604.980 1390.140,605.750 1390.490,606.500 1390.850,607.240 1391.240,607.960 1391.640,608.670 1392.050,609.360 1392.480,610.040 1392.930,610.710 1393.390,611.360 1393.880,611.990 1394.370,612.610 1394.890,613.220 1395.420,613.810 1395.960,614.380 1396.530,614.940 1397.110,615.480 1397.700,616.010 1398.310,616.520 1398.940,617.020 1399.580,617.510 1400.240,617.980 1400.910,618.430 1401.600,618.860 1402.300,619.280 1403.020,619.680 1403.750,620.070 1404.500,620.440 1405.270,620.790 1406.050,621.120 1406.850,621.440 1407.670,621.740 1408.500,622.030 1409.340,622.290 1410.200,622.550 1411.060,622.790 1411.930,623.020 1412.810,623.230 1413.700,623.420 1414.600,623.590 1415.510,623.750 1416.430,623.890 1417.360,624.010 1418.300,624.120 1419.250,624.210 1420.210,624.280 1421.170,624.340 1422.150,624.380 1423.140,624.410 1424.140,624.420 1425.630,624.400 1427.100,624.350 1428.520,624.270 1429.910,624.170 1431.270,624.030 1432.590,623.850 1433.870,623.650 1435.110,623.420 1436.320,623.160 1437.490,622.860 1438.630,622.540 1439.730,622.180 1440.790,621.790 1441.810,621.370 1442.800,620.920 1443.750,620.440" /><polygon points="1424.570,599.860 1424.050,599.500 1423.570,599.120 1423.130,598.700 1422.720,598.260 1422.340,597.780 1422.000,597.280 1421.690,596.750 1421.410,596.180 1421.170,595.590 1420.950,594.970 1420.780,594.320 1420.630,593.640 1420.520,592.920 1420.440,592.180 1420.390,591.410 1420.370,590.620 1420.390,589.870 1420.440,589.150 1420.530,588.450 1420.650,587.780 1420.800,587.130 1420.990,586.500 1421.210,585.890 1421.470,585.310 1421.760,584.760 1422.090,584.220 1422.450,583.710 1422.850,583.220 1423.280,582.760 1423.750,582.320 1424.260,581.900 1424.790,581.510 1425.360,581.130 1425.980,580.760 1426.630,580.390 1427.330,580.040 1428.060,579.680 1428.850,579.330 1429.670,578.990 1430.540,578.650 1431.450,578.320 1432.400,578.000 1433.400,577.670 1434.440,577.360 1435.520,577.040 1436.650,576.740 1437.820,576.430 1439.040,576.130 1439.690,575.980 1440.330,575.830 1440.970,575.670 1441.610,575.520 1442.240,575.360 1442.860,575.200 1443.480,575.040 1444.090,574.870 1444.700,574.710 1445.300,574.550 1445.890,574.380 1446.480,574.220 1447.070,574.050 1447.640,573.880 1448.210,573.710 1448.780,573.540 1449.330,573.370 1449.880,573.200 1450.430,573.020 1450.960,572.840 1451.480,572.660 1451.990,572.470 1452.500,572.280 1452.990,572.090 1453.480,571.900 1453.960,571.710 1454.430,571.510 1454.890,571.310 1455.340,571.110 1455.790,570.910 1456.230,570.700 1456.660,570.490 1456.660,583.280 1456.630,584.370 1456.560,585.430 1456.440,586.470 1456.280,587.470 1456.070,588.450 1455.810,589.400 1455.500,590.320 1455.150,591.210 1454.750,592.080 1454.310,592.910 1453.810,593.720 1453.280,594.500 1452.690,595.260 1452.060,595.980 1451.380,596.680 1450.650,597.350 1449.900,597.980 1449.110,598.570 1448.290,599.120 1447.450,599.630 1446.570,600.100 1445.670,600.540 1444.730,600.930 1443.770,601.270 1442.780,601.580 1441.760,601.850 1440.710,602.080 1439.640,602.260 1438.530,602.410 1437.400,602.510 1436.240,602.570 1435.050,602.590 1434.270,602.590 1433.510,602.560 1432.760,602.500 1432.030,602.430 1431.310,602.330 1430.620,602.220 1429.940,602.080 1429.270,601.920 1428.630,601.740 1428.000,601.530 1427.380,601.310 1426.790,601.060 1426.210,600.790 1425.640,600.500 1425.100,600.190 1424.570,599.860" fill="white" fill-opacity="1" stroke="none"/><polygon points="920.500,806.640 955.100,806.640 955.100,656.650 920.500,656.650 920.500,806.640" /><polygon points="1023.180,805.370 1024.100,804.860 1025.000,804.330 1025.880,803.780 1026.730,803.210 1027.570,802.620 1028.390,802.010 1029.190,801.370 1029.960,800.710 1030.720,800.030 1031.450,799.330 1032.170,798.610 1032.860,797.870 1033.530,797.100 1034.190,796.320 1034.820,795.510 1035.430,794.680 1035.860,794.680 1035.940,795.200 1036.020,795.710 1036.100,796.210 1036.190,796.700 1036.270,797.180 1036.360,797.660 1036.450,798.120 1036.540,798.580 1036.640,799.030 1036.730,799.470 1036.830,799.900 1036.920,800.320 1037.020,800.730 1037.120,801.140 1037.220,801.540 1037.330,801.930 1037.430,802.300 1037.540,802.660 1037.660,803.010 1037.770,803.360 1037.890,803.690 1038.020,804.010 1038.140,804.320 1038.280,804.620 1038.410,804.910 1038.550,805.190 1038.690,805.460 1038.830,805.710 1038.980,805.960 1039.130,806.200 1039.280,806.420 1039.440,806.640 1072.580,806.640 1072.580,805.170 1072.290,804.980 1072.020,804.770 1071.760,804.540 1071.520,804.300 1071.280,804.040 1071.060,803.760 1070.850,803.460 1070.650,803.150 1070.470,802.820 1070.300,802.480 1070.140,802.110 1069.990,801.730 1069.860,801.330 1069.740,800.920 1069.630,800.490 1069.540,800.030 1069.450,799.560 1069.360,799.070 1069.280,798.560 1069.210,798.020 1069.150,797.460 1069.090,796.880 1069.030,796.280 1068.980,795.660 1068.940,795.010 1068.900,794.340 1068.870,793.650 1068.840,792.940 1068.820,792.200 1068.810,791.440 1068.800,790.660 1068.790,789.860 1068.790,735.750 1068.780,734.510 1068.740,733.270 1068.680,732.060 1068.580,730.870 1068.470,729.690 1068.320,728.530 1068.150,727.390 1067.950,726.260 1067.730,725.160 1067.480,724.070 1067.200,723.000 1066.900,721.940 1066.570,720.910 1066.220,719.890 1065.830,718.900 1065.420,717.910 1064.990,716.950 1064.540,716.020 1064.050,715.100 1063.530,714.200 1062.990,713.330 1062.420,712.470 1061.810,711.640 1061.190,710.830 1060.530,710.040 1059.850,709.270 1059.130,708.520 1058.390,707.790 1057.620,707.090 1056.830,706.400 1056.010,705.740 1055.150,705.100 1054.410,704.560 1053.650,704.030 1052.870,703.530 1052.060,703.040 1051.240,702.570 1050.400,702.120 1049.540,701.680 1048.660,701.260 1047.760,700.860 1046.830,700.470 1045.900,700.100 1044.940,699.750 1043.960,699.410 1042.960,699.090 1041.940,698.790 1040.910,698.500 1039.840,698.240 1038.750,697.990 1037.620,697.760 1036.470,697.550 1035.290,697.350 1034.080,697.170 1032.840,697.000 1031.570,696.860 1030.270,696.730 1028.940,696.610 1027.580,696.520 1026.200,696.440 1024.780,696.370 1023.330,696.330 1021.850,696.300 1020.350,696.290 1018.840,696.310 1017.350,696.340 1015.890,696.400 1014.460,696.480 1013.050,696.580 1011.660,696.710 1010.300,696.860 1008.960,697.030 1007.650,697.220 1006.360,697.440 1005.100,697.680 1003.860,697.950 1002.650,698.240 1001.460,698.550 1000.290,698.890 999.160,699.250 998.040,699.620 996.950,700.000 995.880,700.410 994.840,700.830 993.810,701.270 992.820,701.720 991.840,702.200 990.890,702.680 989.970,703.190 989.070,703.710 988.190,704.250 987.330,704.810 986.500,705.380 985.700,705.970 984.910,706.580 984.160,707.210 983.420,707.840 982.710,708.480 982.020,709.140 981.350,709.820 980.700,710.510 980.070,711.210 979.470,711.920 978.890,712.650 978.330,713.390 977.790,714.140 977.270,714.910 976.780,715.690 976.300,716.480 975.850,717.290 975.420,718.110 975.010,718.940 974.630,719.790 974.280,720.640 973.940,721.500 973.630,722.370 973.340,723.240 973.080,724.110 972.830,724.990 972.620,725.880 972.420,726.780 972.240,727.680 972.090,728.580 971.970,729.500 971.860,730.420 971.780,731.340 971.720,732.280 971.680,733.210 1003.160,733.210 1003.270,732.390 1003.420,731.580 1003.590,730.800 1003.780,730.050 1004.000,729.320 1004.250,728.610 1004.530,727.930 1004.830,727.280 1005.150,726.650 1005.500,726.040 1005.880,725.460 1006.290,724.910 1006.720,724.380 1007.180,723.870 1007.660,723.390 1008.180,722.930 1008.720,722.500 1009.290,722.100 1009.890,721.720 1010.520,721.370 1011.190,721.050 1011.880,720.760 1012.610,720.490 1013.370,720.260 1014.160,720.050 1014.980,719.870 1015.830,719.710 1016.710,719.590 1017.630,719.490 1018.570,719.420 1019.550,719.380 1020.550,719.360 1021.510,719.380 1022.420,719.410 1023.310,719.480 1024.160,719.560 1024.980,719.670 1025.760,719.810 1026.510,719.970 1027.230,720.150 1027.920,720.360 1028.570,720.590 1029.190,720.850 1029.770,721.130 1030.320,721.440 1030.830,721.770 1031.320,722.130 1031.770,722.500 1032.180,722.910 1032.580,723.320 1032.940,723.760 1033.280,724.210 1033.600,724.670 1033.880,725.160 1034.140,725.660 1034.380,726.170 1034.580,726.700 1034.760,727.250 1034.910,727.820 1035.030,728.400 1035.130,729.000 1035.200,729.610 1035.240,730.250 1035.260,730.890 1035.230,731.570 1035.160,732.210 1035.040,732.830 1034.870,733.430 1034.660,734.000 1034.390,734.550 1034.080,735.070 1033.720,735.570 1033.320,736.040 1032.860,736.490 1032.360,736.910 1031.820,737.310 1031.220,737.680 1030.580,738.030 1029.890,738.360 1029.160,738.650 1028.360,738.940 1027.490,739.230 1026.560,739.510 1025.550,739.780 1024.470,740.060 1023.330,740.330 1022.110,740.590 1020.820,740.860 1019.460,741.120 1018.030,741.370 1016.530,741.630 1014.950,741.880 1013.310,742.130 1011.600,742.370 1009.820,742.620 1007.960,742.860 1006.920,742.990 1005.880,743.130 1004.850,743.280 1003.830,743.440 1002.820,743.600 1001.810,743.780 1000.810,743.960 999.820,744.160 998.830,744.360 997.850,744.570 996.880,744.780 995.920,745.010 994.960,745.240 994.010,745.490 993.070,745.740 992.130,745.990 991.210,746.260 990.300,746.550 989.410,746.840 988.530,747.160 987.660,747.480 986.810,747.820 985.970,748.170 985.140,748.540 984.330,748.920 983.530,749.310 982.750,749.720 981.970,750.140 981.220,750.580 980.470,751.030 979.740,751.490 979.020,751.960 978.330,752.460 977.650,752.970 976.990,753.490 976.340,754.030 975.720,754.590 975.120,755.170 974.530,755.760 973.960,756.370 973.410,756.990 972.880,757.630 972.370,758.290 971.880,758.970 971.410,759.660 970.950,760.370 970.520,761.090 970.110,761.830 969.710,762.590 969.340,763.370 969.000,764.170 968.680,765.000 968.390,765.850 968.120,766.720 967.880,767.610 967.660,768.520 967.470,769.460 967.310,770.410 967.170,771.390 967.050,772.390 966.960,773.420 966.900,774.460 966.860,775.530 966.840,776.620 966.860,777.600 966.890,778.580 966.940,779.540 967.020,780.480 967.110,781.410 967.230,782.330 967.370,783.230 967.530,784.120 967.710,784.990 967.910,785.840 968.140,786.690 968.380,787.510 968.650,788.320 968.940,789.120 969.250,789.900 969.580,790.670 969.940,791.420 970.300,792.160 970.680,792.880 971.080,793.590 971.500,794.280 971.930,794.960 972.370,795.630 972.830,796.280 973.310,796.920 973.810,797.540 974.320,798.140 974.850,798.740 975.400,799.310 975.960,799.870 976.540,800.420 977.130,800.950 977.750,801.460 978.370,801.960 979.020,802.450 979.670,802.910 980.340,803.370 981.030,803.800 981.740,804.220 982.450,804.620 983.190,805.010 983.940,805.380 984.700,805.730 985.490,806.070 986.280,806.390 987.090,806.690 987.920,806.980 988.760,807.250 989.620,807.510 990.490,807.740 991.370,807.960 992.250,808.160 993.150,808.350 994.050,808.520 994.960,808.680 995.880,808.820 996.810,808.940 997.750,809.050 998.690,809.140 999.650,809.210 1000.610,809.270 1001.580,809.310 1002.570,809.340 1003.560,809.340 1005.060,809.330 1006.530,809.290 1007.960,809.210 1009.350,809.110 1010.710,808.970 1012.030,808.800 1013.310,808.600 1014.550,808.360 1015.760,808.100 1016.930,807.800 1018.060,807.480 1019.160,807.120 1020.220,806.730 1021.240,806.300 1022.220,805.850 1023.180,805.370" /><polygon points="1004.000,784.830 1003.480,784.470 1003.010,784.080 1002.560,783.670 1002.150,783.230 1001.770,782.750 1001.430,782.250 1001.120,781.720 1000.840,781.150 1000.590,780.560 1000.380,779.940 1000.200,779.290 1000.050,778.610 999.930,777.900 999.850,777.160 999.800,776.390 999.780,775.580 999.800,774.840 999.850,774.110 999.940,773.410 1000.060,772.730 1000.220,772.080 1000.410,771.450 1000.630,770.850 1000.890,770.270 1001.180,769.710 1001.510,769.180 1001.870,768.670 1002.270,768.180 1002.700,767.720 1003.160,767.280 1003.660,766.860 1004.190,766.470 1004.770,766.090 1005.380,765.720 1006.040,765.360 1006.740,765.000 1007.480,764.640 1008.260,764.300 1009.090,763.950 1009.960,763.620 1010.870,763.280 1011.830,762.960 1012.830,762.640 1013.870,762.330 1014.950,762.020 1016.080,761.720 1017.240,761.420 1018.460,761.130 1019.100,760.980 1019.750,760.820 1020.390,760.660 1021.020,760.500 1021.650,760.340 1022.280,760.180 1022.900,760.010 1023.510,759.850 1024.120,759.690 1024.720,759.520 1025.320,759.350 1025.910,759.190 1026.490,759.020 1027.070,758.850 1027.650,758.680 1028.210,758.500 1028.770,758.330 1029.330,758.160 1029.870,757.980 1030.400,757.800 1030.920,757.620 1031.440,757.440 1031.940,757.250 1032.440,757.060 1032.930,756.870 1033.400,756.680 1033.870,756.490 1034.330,756.290 1034.780,756.090 1035.230,755.890 1035.660,755.680 1036.090,755.470 1036.090,768.250 1036.060,769.340 1035.990,770.400 1035.870,771.440 1035.710,772.440 1035.500,773.420 1035.240,774.360 1034.940,775.290 1034.580,776.180 1034.190,777.040 1033.740,777.880 1033.250,778.690 1032.710,779.470 1032.130,780.220 1031.500,780.950 1030.830,781.640 1030.110,782.320 1029.340,782.950 1028.550,783.550 1027.730,784.100 1026.880,784.610 1026.000,785.080 1025.090,785.510 1024.160,785.900 1023.200,786.250 1022.210,786.560 1021.190,786.830 1020.140,787.050 1019.060,787.240 1017.960,787.380 1016.830,787.480 1015.660,787.540 1014.470,787.570 1013.700,787.550 1012.930,787.520 1012.190,787.460 1011.460,787.390 1010.740,787.290 1010.050,787.170 1009.370,787.030 1008.700,786.870 1008.060,786.690 1007.430,786.490 1006.810,786.260 1006.210,786.020 1005.630,785.750 1005.070,785.460 1004.520,785.160 1004.000,784.830" fill="white" fill-opacity="1" stroke="none"/><polygon points="1168.650,806.110 1169.710,805.620 1170.740,805.090 1171.750,804.540 1172.750,803.960 1173.720,803.350 1174.680,802.720 1175.610,802.060 1176.520,801.370 1177.420,800.650 1178.290,799.910 1179.150,799.140 1179.980,798.340 1180.800,797.520 1181.590,796.670 1182.370,795.790 1183.130,794.880 1183.860,793.960 1184.580,793.000 1185.270,792.020 1185.940,791.020 1186.590,789.990 1187.220,788.930 1187.830,787.840 1188.420,786.730 1188.990,785.600 1189.530,784.440 1190.060,783.250 1190.560,782.040 1191.040,780.800 1191.510,779.540 1191.950,778.250 1192.360,776.940 1192.760,775.600 1193.130,774.250 1193.470,772.870 1193.790,771.470 1194.080,770.050 1194.340,768.600 1194.580,767.130 1194.800,765.650 1194.990,764.130 1195.150,762.600 1195.290,761.040 1195.400,759.460 1195.490,757.860 1195.550,756.230 1195.590,754.590 1195.600,752.910 1195.590,751.400 1195.550,749.910 1195.490,748.430 1195.400,746.960 1195.290,745.500 1195.150,744.060 1194.990,742.630 1194.800,741.210 1194.580,739.810 1194.340,738.420 1194.080,737.050 1193.790,735.680 1193.470,734.330 1193.130,733.000 1192.760,731.670 1192.360,730.370 1191.950,729.080 1191.510,727.820 1191.040,726.580 1190.560,725.360 1190.060,724.160 1189.540,722.980 1188.990,721.820 1188.420,720.680 1187.840,719.570 1187.230,718.470 1186.600,717.400 1185.950,716.350 1185.270,715.320 1184.580,714.310 1183.860,713.320 1183.130,712.360 1182.370,711.410 1181.590,710.500 1180.800,709.610 1179.980,708.740 1179.150,707.900 1178.290,707.090 1177.420,706.300 1176.520,705.540 1175.610,704.810 1174.680,704.100 1173.720,703.420 1172.750,702.760 1171.750,702.130 1170.740,701.520 1169.710,700.950 1168.650,700.400 1167.580,699.870 1166.500,699.390 1165.400,698.930 1164.280,698.510 1163.150,698.120 1162.000,697.770 1160.840,697.450 1159.660,697.160 1158.460,696.910 1157.250,696.690 1156.030,696.500 1154.790,696.350 1153.530,696.230 1152.260,696.140 1150.970,696.090 1149.670,696.080 1148.290,696.090 1146.950,696.140 1145.640,696.220 1144.360,696.340 1143.110,696.490 1141.880,696.670 1140.690,696.880 1139.530,697.130 1138.400,697.400 1137.300,697.720 1136.230,698.060 1135.190,698.440 1134.180,698.850 1133.200,699.290 1132.250,699.770 1131.340,700.270 1130.430,700.810 1129.550,701.370 1128.690,701.950 1127.840,702.550 1127.010,703.170 1126.200,703.810 1125.410,704.470 1124.630,705.150 1123.870,705.860 1123.130,706.590 1122.400,707.330 1121.700,708.100 1121.010,708.900 1120.330,709.710 1119.680,710.550 1119.030,711.400 1118.410,711.400 1118.410,656.650 1084.210,656.650 1084.210,806.630 1116.940,806.630 1116.940,793.000 1117.360,793.000 1118.000,794.030 1118.670,795.020 1119.360,795.990 1120.080,796.930 1120.830,797.830 1121.600,798.710 1122.400,799.550 1123.230,800.360 1124.080,801.140 1124.960,801.880 1125.860,802.600 1126.790,803.280 1127.750,803.930 1128.740,804.550 1129.750,805.140 1130.790,805.690 1131.840,806.220 1132.920,806.700 1134.010,807.160 1135.120,807.580 1136.250,807.960 1137.400,808.320 1138.570,808.640 1139.750,808.920 1140.950,809.170 1142.180,809.390 1143.410,809.580 1144.670,809.730 1145.940,809.840 1147.240,809.930 1148.550,809.980 1149.870,810.000 1151.150,809.980 1152.420,809.930 1153.670,809.860 1154.900,809.750 1156.130,809.610 1157.330,809.440 1158.530,809.250 1159.710,809.020 1160.870,808.760 1162.030,808.470 1163.160,808.150 1164.290,807.810 1165.400,807.430 1166.500,807.020 1167.580,806.580 1168.650,806.110" /><polygon points="1123.450,774.630 1122.710,773.580 1122.020,772.480 1121.380,771.350 1120.780,770.170 1120.240,768.950 1119.740,767.700 1119.290,766.400 1118.880,765.070 1118.530,763.690 1118.220,762.270 1117.960,760.810 1117.740,759.320 1117.580,757.780 1117.460,756.200 1117.390,754.580 1117.360,752.910 1117.390,751.280 1117.450,749.690 1117.560,748.120 1117.710,746.590 1117.910,745.100 1118.150,743.640 1118.430,742.210 1118.750,740.820 1119.120,739.460 1119.540,738.130 1119.990,736.840 1120.490,735.580 1121.030,734.360 1121.620,733.180 1122.250,732.020 1122.920,730.910 1123.640,729.840 1124.400,728.840 1125.210,727.910 1126.060,727.050 1126.950,726.250 1127.900,725.530 1128.890,724.880 1129.920,724.290 1131.000,723.770 1132.120,723.330 1133.290,722.950 1134.510,722.640 1135.770,722.400 1137.070,722.220 1138.420,722.120 1139.820,722.080 1141.110,722.120 1142.360,722.220 1143.570,722.380 1144.740,722.610 1145.870,722.910 1146.960,723.270 1148.010,723.700 1149.020,724.190 1149.980,724.750 1150.910,725.380 1151.800,726.070 1152.650,726.820 1153.460,727.640 1154.230,728.530 1154.960,729.480 1155.650,730.500 1156.290,731.560 1156.900,732.680 1157.470,733.830 1157.990,735.030 1158.470,736.270 1158.910,737.550 1159.310,738.870 1159.660,740.240 1159.980,741.650 1160.250,743.100 1160.480,744.600 1160.670,746.140 1160.820,747.720 1160.920,749.350 1160.980,751.010 1161.000,752.730 1160.980,754.460 1160.920,756.140 1160.820,757.780 1160.670,759.380 1160.480,760.920 1160.250,762.420 1159.980,763.880 1159.660,765.280 1159.310,766.640 1158.910,767.960 1158.470,769.230 1157.990,770.450 1157.470,771.620 1156.900,772.750 1156.290,773.830 1155.650,774.860 1154.960,775.840 1154.230,776.760 1153.470,777.610 1152.670,778.400 1151.840,779.120 1150.960,779.780 1150.060,780.380 1149.110,780.920 1148.130,781.390 1147.110,781.800 1146.060,782.150 1144.970,782.430 1143.840,782.650 1142.670,782.810 1141.470,782.900 1140.230,782.930 1138.910,782.900 1137.620,782.810 1136.380,782.640 1135.160,782.420 1133.990,782.130 1132.850,781.770 1131.750,781.350 1130.680,780.870 1129.650,780.320 1128.650,779.700 1127.700,779.020 1126.770,778.270 1125.890,777.460 1125.040,776.590 1124.220,775.640 1123.450,774.630" fill="white" fill-opacity="1" stroke="none"/></g><g fill="black" stroke="none"><circle cx="10.000" cy="410.000" r="1.000" /><circle cx="1493.150" cy="410.000" r="1.000" /></g><rect x="4.000" y="-20.000" width="130.000" height="20.000" fill="white" stroke="#333" stroke-width="0.5"/><rect x="8.000" y="-16.000" width="14.000" height="10.000" fill="#e74c3c" stroke="#e74c3c" stroke-width="0.5"/><text x="26.000" y="-8.000" font-size="9" font-family="sans-serif" fill="#222">MET1 (68/20)</text></svg>