<svg xmlns="http://www.w3.org/2000/svg" width="920" height="480" viewBox="0 0 920 480">
<rect width="100%" height="100%" fill="#ffffff"/>
<line x1="78.00" y1="418.00" x2="894.00" y2="418.00" stroke="#e5e7eb" stroke-width="1"/>
<text x="70.00" y="422.00" text-anchor="end" font-size="12" fill="#374151">0.405</text>
<line x1="78.00" y1="357.67" x2="894.00" y2="357.67" stroke="#e5e7eb" stroke-width="1"/>
<text x="70.00" y="361.67" text-anchor="end" font-size="12" fill="#374151">0.474</text>
<line x1="78.00" y1="297.33" x2="894.00" y2="297.33" stroke="#e5e7eb" stroke-width="1"/>
<text x="70.00" y="301.33" text-anchor="end" font-size="12" fill="#374151">0.543</text>
<line x1="78.00" y1="237.00" x2="894.00" y2="237.00" stroke="#e5e7eb" stroke-width="1"/>
<text x="70.00" y="241.00" text-anchor="end" font-size="12" fill="#374151">0.611</text>
<line x1="78.00" y1="176.67" x2="894.00" y2="176.67" stroke="#e5e7eb" stroke-width="1"/>
<text x="70.00" y="180.67" text-anchor="end" font-size="12" fill="#374151">0.680</text>
<line x1="78.00" y1="116.33" x2="894.00" y2="116.33" stroke="#e5e7eb" stroke-width="1"/>
<text x="70.00" y="120.33" text-anchor="end" font-size="12" fill="#374151">0.749</text>
<line x1="78.00" y1="56.00" x2="894.00" y2="56.00" stroke="#e5e7eb" stroke-width="1"/>
<text x="70.00" y="60.00" text-anchor="end" font-size="12" fill="#374151">0.818</text>
<line x1="78.00" y1="56.00" x2="78.00" y2="418.00" stroke="#e5e7eb" stroke-width="1"/>
<text x="78.00" y="438.00" text-anchor="middle" font-size="12" fill="#374151">1</text>
<line x1="214.00" y1="56.00" x2="214.00" y2="418.00" stroke="#e5e7eb" stroke-width="1"/>
<text x="214.00" y="438.00" text-anchor="middle" font-size="12" fill="#374151">2</text>
<line x1="350.00" y1="56.00" x2="350.00" y2="418.00" stroke="#e5e7eb" stroke-width="1"/>
<text x="350.00" y="438.00" text-anchor="middle" font-size="12" fill="#374151">2</text>
<line x1="486.00" y1="56.00" x2="486.00" y2="418.00" stroke="#e5e7eb" stroke-width="1"/>
<text x="486.00" y="438.00" text-anchor="middle" font-size="12" fill="#374151">2</text>
<line x1="622.00" y1="56.00" x2="622.00" y2="418.00" stroke="#e5e7eb" stroke-width="1"/>
<text x="622.00" y="438.00" text-anchor="middle" font-size="12" fill="#374151">3</text>
<line x1="758.00" y1="56.00" x2="758.00" y2="418.00" stroke="#e5e7eb" stroke-width="1"/>
<text x="758.00" y="438.00" text-anchor="middle" font-size="12" fill="#374151">4</text>
<line x1="894.00" y1="56.00" x2="894.00" y2="418.00" stroke="#e5e7eb" stroke-width="1"/>
<text x="894.00" y="438.00" text-anchor="middle" font-size="12" fill="#374151">4</text>
<line x1="78.00" y1="418.00" x2="894.00" y2="418.00" stroke="#111827" stroke-width="1.5"/>
<line x1="78.00" y1="56.00" x2="78.00" y2="418.00" stroke="#111827" stroke-width="1.5"/>
<text x="460.00" y="24" text-anchor="middle" font-size="18" font-weight="700" fill="#111827">DAC trial voltage vs V_hold</text>
<text x="486.00" y="464.00" text-anchor="middle" font-size="13" fill="#111827">cycle</text>
<text x="22" y="237.00" transform="rotate(-90 22 237.00)" text-anchor="middle" font-size="13" fill="#111827">voltage (V)</text>
<polyline points="78.00,80.97 350.00,393.03 622.00,174.46 894.00,275.48" fill="none" stroke="#1d4ed8" stroke-width="2.2"/>
<circle cx="78.00" cy="80.97" r="3.5" fill="#1d4ed8" stroke="#ffffff" stroke-width="1.5"/>
<circle cx="350.00" cy="393.03" r="3.5" fill="#1d4ed8" stroke="#ffffff" stroke-width="1.5"/>
<circle cx="622.00" cy="174.46" r="3.5" fill="#1d4ed8" stroke="#ffffff" stroke-width="1.5"/>
<circle cx="894.00" cy="275.48" r="3.5" fill="#1d4ed8" stroke="#ffffff" stroke-width="1.5"/>
<polyline points="78.00,334.59 350.00,334.58 622.00,334.57 894.00,334.57" fill="none" stroke="#dc2626" stroke-width="2.2"/>
<circle cx="78.00" cy="334.59" r="3.5" fill="#dc2626" stroke="#ffffff" stroke-width="1.5"/>
<circle cx="350.00" cy="334.58" r="3.5" fill="#dc2626" stroke="#ffffff" stroke-width="1.5"/>
<circle cx="622.00" cy="334.57" r="3.5" fill="#dc2626" stroke="#ffffff" stroke-width="1.5"/>
<circle cx="894.00" cy="334.57" r="3.5" fill="#dc2626" stroke="#ffffff" stroke-width="1.5"/>
<rect x="694.00" y="66.00" width="190" height="70.00" rx="8" fill="#f9fafb" stroke="#d1d5db"/>
<text x="704.00" y="82.00" font-size="12" font-weight="700" fill="#111827">Legend</text>
<line x1="704.00" y1="98.00" x2="730.00" y2="98.00" stroke="#1d4ed8" stroke-width="3"/>
<text x="738.00" y="102.00" font-size="12" fill="#111827">V_dac (trial)</text>
<line x1="704.00" y1="120.00" x2="730.00" y2="120.00" stroke="#dc2626" stroke-width="3"/>
<text x="738.00" y="124.00" font-size="12" fill="#111827">V_hold</text>
</svg>
