<?xml version="1.0" encoding="UTF-8"?><svg xmlns="http://www.w3.org/2000/svg" viewBox="-15.000 -190.190 70.000 232.690" width="70" height="233"><rect x="-15.000" y="-190.190" width="70.000" height="232.690" fill="white" stroke="none"/><g fill="#e74c3c" fill-opacity="0.450" stroke="#e74c3c" stroke-width="0.500"><rect x="15.000" y="-108.190" width="10.000" height="123.190" /></g><g fill="#27ae60" fill-opacity="0.450" stroke="#27ae60" stroke-width="0.500"><rect x="0.000" y="-54.090" width="15.000" height="15.000" /><rect x="25.000" y="-54.090" width="15.000" height="15.000" /><rect x="12.500" y="-108.190" width="15.000" height="15.000" /><rect x="12.500" y="17.500" width="15.000" height="15.000" /></g><g fill="#f39c12" fill-opacity="0.450" stroke="#f39c12" stroke-width="0.500"><rect x="5.000" y="-49.090" width="5.000" height="5.000" /><rect x="30.000" y="-49.090" width="5.000" height="5.000" /><rect x="17.500" y="-103.190" width="5.000" height="5.000" /><rect x="17.500" y="22.500" width="5.000" height="5.000" /></g><g fill="#c0392b" fill-opacity="0.450" stroke="#c0392b" stroke-width="0.500"><rect x="0.000" y="-93.190" width="40.000" height="93.190" /></g><g fill="#9b59b6" fill-opacity="0.450" stroke="#9b59b6" stroke-width="0.500"><rect x="-5.000" y="-98.190" width="50.000" height="103.190" /></g><rect x="-11.000" y="-186.190" width="130.000" height="68.000" fill="white" stroke="#333" stroke-width="0.5"/><rect x="-7.000" y="-182.190" width="14.000" height="10.000" fill="#e74c3c" stroke="#e74c3c" stroke-width="0.5"/><text x="11.000" y="-174.190" font-size="9" font-family="sans-serif" fill="#222">POLY (66/20)</text><rect x="-7.000" y="-170.190" width="14.000" height="10.000" fill="#27ae60" stroke="#27ae60" stroke-width="0.5"/><text x="11.000" y="-162.190" font-size="9" font-family="sans-serif" fill="#222">MET1 (68/20)</text><rect x="-7.000" y="-158.190" width="14.000" height="10.000" fill="#f39c12" stroke="#f39c12" stroke-width="0.5"/><text x="11.000" y="-150.190" font-size="9" font-family="sans-serif" fill="#222">LICON1 (66/44)</text><rect x="-7.000" y="-146.190" width="14.000" height="10.000" fill="#c0392b" stroke="#c0392b" stroke-width="0.5"/><text x="11.000" y="-138.190" font-size="9" font-family="sans-serif" fill="#222">DIFF (65/20)</text><rect x="-7.000" y="-134.190" width="14.000" height="10.000" fill="#9b59b6" stroke="#9b59b6" stroke-width="0.5"/><text x="11.000" y="-126.190" font-size="9" font-family="sans-serif" fill="#222">NSDM (93/44)</text></svg>