<?xml version="1.0" encoding="UTF-8"?><svg xmlns="http://www.w3.org/2000/svg" viewBox="-15.000 -347.000 70.000 389.500" width="70" height="390"><rect x="-15.000" y="-347.000" width="70.000" height="389.500" fill="white" stroke="none"/><g fill="#e74c3c" fill-opacity="0.450" stroke="#e74c3c" stroke-width="0.500"><rect x="15.000" y="-265.000" width="10.000" height="280.000" /></g><g fill="#27ae60" fill-opacity="0.450" stroke="#27ae60" stroke-width="0.500"><rect x="0.000" y="-132.500" width="15.000" height="15.000" /><rect x="25.000" y="-132.500" width="15.000" height="15.000" /><rect x="12.500" y="-265.000" width="15.000" height="15.000" /><rect x="12.500" y="17.500" width="15.000" height="15.000" /></g><g fill="#f39c12" fill-opacity="0.450" stroke="#f39c12" stroke-width="0.500"><rect x="5.000" y="-127.500" width="5.000" height="5.000" /><rect x="30.000" y="-127.500" width="5.000" height="5.000" /><rect x="17.500" y="-260.000" width="5.000" height="5.000" /><rect x="17.500" y="22.500" width="5.000" height="5.000" /></g><g fill="#c0392b" fill-opacity="0.450" stroke="#c0392b" stroke-width="0.500"><rect x="0.000" y="-250.000" width="40.000" height="250.000" /></g><g fill="#9b59b6" fill-opacity="0.450" stroke="#9b59b6" stroke-width="0.500"><rect x="-5.000" y="-255.000" width="50.000" height="260.000" /></g><rect x="-11.000" y="-343.000" width="130.000" height="68.000" fill="white" stroke="#333" stroke-width="0.5"/><rect x="-7.000" y="-339.000" width="14.000" height="10.000" fill="#e74c3c" stroke="#e74c3c" stroke-width="0.5"/><text x="11.000" y="-331.000" font-size="9" font-family="sans-serif" fill="#222">POLY (66/20)</text><rect x="-7.000" y="-327.000" width="14.000" height="10.000" fill="#27ae60" stroke="#27ae60" stroke-width="0.5"/><text x="11.000" y="-319.000" font-size="9" font-family="sans-serif" fill="#222">MET1 (68/20)</text><rect x="-7.000" y="-315.000" width="14.000" height="10.000" fill="#f39c12" stroke="#f39c12" stroke-width="0.5"/><text x="11.000" y="-307.000" font-size="9" font-family="sans-serif" fill="#222">LICON1 (66/44)</text><rect x="-7.000" y="-303.000" width="14.000" height="10.000" fill="#c0392b" stroke="#c0392b" stroke-width="0.5"/><text x="11.000" y="-295.000" font-size="9" font-family="sans-serif" fill="#222">DIFF (65/20)</text><rect x="-7.000" y="-291.000" width="14.000" height="10.000" fill="#9b59b6" stroke="#9b59b6" stroke-width="0.5"/><text x="11.000" y="-283.000" font-size="9" font-family="sans-serif" fill="#222">NSDM (93/44)</text></svg>