<svg xmlns="http://www.w3.org/2000/svg" width="920" height="480" viewBox="0 0 920 480">
<rect width="100%" height="100%" fill="#ffffff"/>
<line x1="78.00" y1="418.00" x2="894.00" y2="418.00" stroke="#e5e7eb" stroke-width="1"/>
<text x="70.00" y="422.00" text-anchor="end" font-size="12" fill="#374151">-0.696</text>
<line x1="78.00" y1="357.67" x2="894.00" y2="357.67" stroke="#e5e7eb" stroke-width="1"/>
<text x="70.00" y="361.67" text-anchor="end" font-size="12" fill="#374151">-0.297</text>
<line x1="78.00" y1="297.33" x2="894.00" y2="297.33" stroke="#e5e7eb" stroke-width="1"/>
<text x="70.00" y="301.33" text-anchor="end" font-size="12" fill="#374151">0.101</text>
<line x1="78.00" y1="237.00" x2="894.00" y2="237.00" stroke="#e5e7eb" stroke-width="1"/>
<text x="70.00" y="241.00" text-anchor="end" font-size="12" fill="#374151">0.500</text>
<line x1="78.00" y1="176.67" x2="894.00" y2="176.67" stroke="#e5e7eb" stroke-width="1"/>
<text x="70.00" y="180.67" text-anchor="end" font-size="12" fill="#374151">0.899</text>
<line x1="78.00" y1="116.33" x2="894.00" y2="116.33" stroke="#e5e7eb" stroke-width="1"/>
<text x="70.00" y="120.33" text-anchor="end" font-size="12" fill="#374151">1.297</text>
<line x1="78.00" y1="56.00" x2="894.00" y2="56.00" stroke="#e5e7eb" stroke-width="1"/>
<text x="70.00" y="60.00" text-anchor="end" font-size="12" fill="#374151">1.696</text>
<line x1="78.00" y1="56.00" x2="78.00" y2="418.00" stroke="#e5e7eb" stroke-width="1"/>
<text x="78.00" y="438.00" text-anchor="middle" font-size="12" fill="#374151">0.000</text>
<line x1="214.00" y1="56.00" x2="214.00" y2="418.00" stroke="#e5e7eb" stroke-width="1"/>
<text x="214.00" y="438.00" text-anchor="middle" font-size="12" fill="#374151">42.500</text>
<line x1="350.00" y1="56.00" x2="350.00" y2="418.00" stroke="#e5e7eb" stroke-width="1"/>
<text x="350.00" y="438.00" text-anchor="middle" font-size="12" fill="#374151">85.000</text>
<line x1="486.00" y1="56.00" x2="486.00" y2="418.00" stroke="#e5e7eb" stroke-width="1"/>
<text x="486.00" y="438.00" text-anchor="middle" font-size="12" fill="#374151">127.500</text>
<line x1="622.00" y1="56.00" x2="622.00" y2="418.00" stroke="#e5e7eb" stroke-width="1"/>
<text x="622.00" y="438.00" text-anchor="middle" font-size="12" fill="#374151">170.000</text>
<line x1="758.00" y1="56.00" x2="758.00" y2="418.00" stroke="#e5e7eb" stroke-width="1"/>
<text x="758.00" y="438.00" text-anchor="middle" font-size="12" fill="#374151">212.500</text>
<line x1="894.00" y1="56.00" x2="894.00" y2="418.00" stroke="#e5e7eb" stroke-width="1"/>
<text x="894.00" y="438.00" text-anchor="middle" font-size="12" fill="#374151">255.000</text>
<line x1="78.00" y1="418.00" x2="894.00" y2="418.00" stroke="#111827" stroke-width="1.5"/>
<line x1="78.00" y1="56.00" x2="78.00" y2="418.00" stroke="#111827" stroke-width="1.5"/>
<text x="460.00" y="24" text-anchor="middle" font-size="18" font-weight="700" fill="#111827">INL (LSB) per code</text>
<text x="486.00" y="464.00" text-anchor="middle" font-size="13" fill="#111827">code</text>
<text x="22" y="237.00" transform="rotate(-90 22 237.00)" text-anchor="middle" font-size="13" fill="#111827">INL [LSB]</text>
<polyline points="78.00,296.10 81.20,305.56 84.40,303.20 87.60,293.74 90.80,291.38 94.00,270.10 97.20,298.47 100.40,300.83 103.60,279.55 106.80,293.74 110.00,286.65 113.20,305.56 116.40,300.83 119.60,291.38 122.80,286.65 126.00,300.83 129.20,293.74 132.40,274.83 135.60,289.01 138.80,286.65 142.00,284.28 145.20,279.55 148.40,286.65 151.60,272.46 154.80,291.38 158.00,284.28 161.20,298.47 164.40,279.55 167.60,286.65 170.80,293.74 174.00,279.55 177.20,329.20 180.40,324.47 183.60,322.11 186.80,324.47 190.00,324.47 193.20,329.20 196.40,324.47 199.60,329.20 202.80,341.02 206.00,338.66 209.20,324.47 212.40,329.20 215.60,345.75 218.80,343.39 222.00,331.57 225.20,336.29 228.40,338.66 231.60,341.02 234.80,317.38 238.00,324.47 241.20,307.92 244.40,341.02 247.60,324.47 250.80,317.38 254.00,333.93 257.20,329.20 260.40,324.47 263.60,336.29 266.80,322.11 270.00,333.93 273.20,331.57 276.40,329.20 279.60,315.02 282.80,329.20 286.00,336.29 289.20,326.84 292.40,331.57 295.60,326.84 298.80,326.84 302.00,333.93 305.20,329.20 308.40,348.12 311.60,324.47 314.80,329.20 318.00,329.20 321.20,331.57 324.40,336.29 327.60,322.11 330.80,333.93 334.00,329.20 337.20,317.38 340.40,331.57 343.60,315.02 346.80,324.47 350.00,324.47 353.20,324.47 356.40,338.66 359.60,315.02 362.80,329.20 366.00,333.93 369.20,329.20 372.40,326.84 375.60,331.57 378.80,329.20 382.00,369.39 385.20,367.03 388.40,355.21 391.60,374.12 394.80,383.58 398.00,364.66 401.20,374.12 404.40,376.49 407.60,378.85 410.80,378.85 414.00,378.85 417.20,374.12 420.40,376.49 423.60,393.03 426.80,355.21 430.00,362.30 433.20,367.03 436.40,364.66 439.60,374.12 442.80,362.30 446.00,364.66 449.20,371.76 452.40,357.57 455.60,357.57 458.80,359.94 462.00,374.12 465.20,359.94 468.40,350.48 471.60,369.39 474.80,369.39 478.00,367.03 481.20,364.66 484.40,92.79 487.60,109.34 490.80,90.42 494.00,90.42 497.20,102.24 500.40,88.06 503.60,99.88 506.80,99.88 510.00,111.70 513.20,95.15 516.40,106.97 519.60,88.06 522.80,111.70 526.00,95.15 529.20,92.79 532.40,102.24 535.60,97.51 538.80,83.33 542.00,90.42 545.20,90.42 548.40,104.61 551.60,88.06 554.80,90.42 558.00,90.42 561.20,90.42 564.40,104.61 567.60,90.42 570.80,99.88 574.00,95.15 577.20,95.15 580.40,95.15 583.60,80.97 586.80,140.07 590.00,140.07 593.20,149.53 596.40,140.07 599.60,140.07 602.80,123.52 606.00,128.25 609.20,149.53 612.40,137.71 615.60,147.16 618.80,132.98 622.00,140.07 625.20,142.43 628.40,130.61 631.60,121.16 634.80,144.80 638.00,118.79 641.20,137.71 644.40,123.52 647.60,130.61 650.80,123.52 654.00,125.88 657.20,125.88 660.40,135.34 663.60,132.98 666.80,140.07 670.00,130.61 673.20,125.88 676.40,128.25 679.60,118.79 682.80,121.16 686.00,135.34 689.20,140.07 692.40,140.07 695.60,125.88 698.80,140.07 702.00,128.25 705.20,140.07 708.40,130.61 711.60,135.34 714.80,132.98 718.00,132.98 721.20,137.71 724.40,135.34 727.60,121.16 730.80,151.89 734.00,135.34 737.20,140.07 740.40,149.53 743.60,128.25 746.80,125.88 750.00,130.61 753.20,144.80 756.40,135.34 759.60,125.88 762.80,137.71 766.00,132.98 769.20,135.34 772.40,135.34 775.60,130.61 778.80,130.61 782.00,130.61 785.20,140.07 788.40,130.61 791.60,170.80 794.80,177.90 798.00,177.90 801.20,170.80 804.40,194.45 807.60,168.44 810.80,161.35 814.00,166.08 817.20,175.53 820.40,168.44 823.60,175.53 826.80,187.35 830.00,177.90 833.20,175.53 836.40,180.26 839.60,180.26 842.80,177.90 846.00,166.08 849.20,180.26 852.40,163.71 855.60,182.62 858.80,175.53 862.00,163.71 865.20,161.35 868.40,187.35 871.60,184.99 874.80,173.17 878.00,166.08 881.20,177.90 884.40,168.44 887.60,168.44 890.80,194.45 894.00,312.65" fill="none" stroke="#1d4ed8" stroke-width="2.2"/>
<rect x="724.00" y="66.00" width="160" height="48.00" rx="8" fill="#f9fafb" stroke="#d1d5db"/>
<text x="734.00" y="82.00" font-size="12" font-weight="700" fill="#111827">Legend</text>
<line x1="734.00" y1="98.00" x2="760.00" y2="98.00" stroke="#1d4ed8" stroke-width="3"/>
<text x="768.00" y="102.00" font-size="12" fill="#111827">INL</text>
</svg>
