<svg xmlns="http://www.w3.org/2000/svg" width="920" height="480" viewBox="0 0 920 480">
<rect width="100%" height="100%" fill="#ffffff"/>
<line x1="78.00" y1="418.00" x2="894.00" y2="418.00" stroke="#e5e7eb" stroke-width="1"/>
<text x="70.00" y="422.00" text-anchor="end" font-size="12" fill="#374151">-1.920</text>
<line x1="78.00" y1="357.67" x2="894.00" y2="357.67" stroke="#e5e7eb" stroke-width="1"/>
<text x="70.00" y="361.67" text-anchor="end" font-size="12" fill="#374151">2.720</text>
<line x1="78.00" y1="297.33" x2="894.00" y2="297.33" stroke="#e5e7eb" stroke-width="1"/>
<text x="70.00" y="301.33" text-anchor="end" font-size="12" fill="#374151">7.360</text>
<line x1="78.00" y1="237.00" x2="894.00" y2="237.00" stroke="#e5e7eb" stroke-width="1"/>
<text x="70.00" y="241.00" text-anchor="end" font-size="12" fill="#374151">12.000</text>
<line x1="78.00" y1="176.67" x2="894.00" y2="176.67" stroke="#e5e7eb" stroke-width="1"/>
<text x="70.00" y="180.67" text-anchor="end" font-size="12" fill="#374151">16.640</text>
<line x1="78.00" y1="116.33" x2="894.00" y2="116.33" stroke="#e5e7eb" stroke-width="1"/>
<text x="70.00" y="120.33" text-anchor="end" font-size="12" fill="#374151">21.280</text>
<line x1="78.00" y1="56.00" x2="894.00" y2="56.00" stroke="#e5e7eb" stroke-width="1"/>
<text x="70.00" y="60.00" text-anchor="end" font-size="12" fill="#374151">25.920</text>
<line x1="78.00" y1="56.00" x2="78.00" y2="418.00" stroke="#e5e7eb" stroke-width="1"/>
<text x="78.00" y="438.00" text-anchor="middle" font-size="12" fill="#374151">0.358</text>
<line x1="214.00" y1="56.00" x2="214.00" y2="418.00" stroke="#e5e7eb" stroke-width="1"/>
<text x="214.00" y="438.00" text-anchor="middle" font-size="12" fill="#374151">0.874</text>
<line x1="350.00" y1="56.00" x2="350.00" y2="418.00" stroke="#e5e7eb" stroke-width="1"/>
<text x="350.00" y="438.00" text-anchor="middle" font-size="12" fill="#374151">1.390</text>
<line x1="486.00" y1="56.00" x2="486.00" y2="418.00" stroke="#e5e7eb" stroke-width="1"/>
<text x="486.00" y="438.00" text-anchor="middle" font-size="12" fill="#374151">1.906</text>
<line x1="622.00" y1="56.00" x2="622.00" y2="418.00" stroke="#e5e7eb" stroke-width="1"/>
<text x="622.00" y="438.00" text-anchor="middle" font-size="12" fill="#374151">2.422</text>
<line x1="758.00" y1="56.00" x2="758.00" y2="418.00" stroke="#e5e7eb" stroke-width="1"/>
<text x="758.00" y="438.00" text-anchor="middle" font-size="12" fill="#374151">2.938</text>
<line x1="894.00" y1="56.00" x2="894.00" y2="418.00" stroke="#e5e7eb" stroke-width="1"/>
<text x="894.00" y="438.00" text-anchor="middle" font-size="12" fill="#374151">3.455</text>
<line x1="78.00" y1="418.00" x2="894.00" y2="418.00" stroke="#111827" stroke-width="1.5"/>
<line x1="78.00" y1="56.00" x2="78.00" y2="418.00" stroke="#111827" stroke-width="1.5"/>
<text x="460.00" y="24" text-anchor="middle" font-size="18" font-weight="700" fill="#111827">Monte Carlo: INL_max distribution</text>
<text x="486.00" y="464.00" text-anchor="middle" font-size="13" fill="#111827">INL_max (LSB)</text>
<text x="22" y="237.00" transform="rotate(-90 22 237.00)" text-anchor="middle" font-size="13" fill="#111827">count</text>
<polyline points="78.00,393.03 113.48,341.02 148.96,106.97 184.43,93.97 219.91,132.98 255.39,171.99 290.87,210.99 326.35,184.99 361.83,80.97 397.30,210.99 432.78,289.01 468.26,302.01 503.74,276.01 539.22,354.03 574.70,302.01 610.17,341.02 645.65,393.03 681.13,380.03 716.61,341.02 752.09,367.03 787.57,393.03 823.04,393.03 858.52,380.03 894.00,393.03" fill="none" stroke="#7c3aed" stroke-width="2.2"/>
<rect x="724.00" y="66.00" width="160" height="48.00" rx="8" fill="#f9fafb" stroke="#d1d5db"/>
<text x="734.00" y="82.00" font-size="12" font-weight="700" fill="#111827">Legend</text>
<line x1="734.00" y1="98.00" x2="760.00" y2="98.00" stroke="#7c3aed" stroke-width="3"/>
<text x="768.00" y="102.00" font-size="12" fill="#111827">samples</text>
</svg>
