<svg xmlns="http://www.w3.org/2000/svg" width="920" height="480" viewBox="0 0 920 480" font-family="-apple-system, system-ui, sans-serif" font-size="13">
<rect width="100%" height="100%" fill="white"/>
<text text-anchor="middle" x="460" y="20" font-size="15" font-weight="600">MLX speedup over CPU vs batch size</text>
<rect x="80" y="30" width="810" height="390" fill="#fafafa" stroke="#888" stroke-width="0.5"/>
<line x1="235.65" y1="30" x2="235.65" y2="420" stroke="#e0e0e0" stroke-width="0.5"/>
<text x="235.65" y="436" text-anchor="middle" fill="#444">50.000</text>
<line x1="394.47" y1="30" x2="394.47" y2="420" stroke="#e0e0e0" stroke-width="0.5"/>
<text x="394.47" y="436" text-anchor="middle" fill="#444">100</text>
<line x1="553.29" y1="30" x2="553.29" y2="420" stroke="#e0e0e0" stroke-width="0.5"/>
<text x="553.29" y="436" text-anchor="middle" fill="#444">150</text>
<line x1="712.12" y1="30" x2="712.12" y2="420" stroke="#e0e0e0" stroke-width="0.5"/>
<text x="712.12" y="436" text-anchor="middle" fill="#444">200</text>
<line x1="870.94" y1="30" x2="870.94" y2="420" stroke="#e0e0e0" stroke-width="0.5"/>
<text x="870.94" y="436" text-anchor="middle" fill="#444">250</text>
<line x1="80" y1="405.53" x2="890" y2="405.53" stroke="#e0e0e0" stroke-width="0.5"/>
<text x="74" y="405.53" text-anchor="end" alignment-baseline="middle" fill="#444">0</text>
<line x1="80" y1="339.49" x2="890" y2="339.49" stroke="#e0e0e0" stroke-width="0.5"/>
<text x="74" y="339.49" text-anchor="end" alignment-baseline="middle" fill="#444">0.500</text>
<line x1="80" y1="273.45" x2="890" y2="273.45" stroke="#e0e0e0" stroke-width="0.5"/>
<text x="74" y="273.45" text-anchor="end" alignment-baseline="middle" fill="#444">1.000</text>
<line x1="80" y1="207.41" x2="890" y2="207.41" stroke="#e0e0e0" stroke-width="0.5"/>
<text x="74" y="207.41" text-anchor="end" alignment-baseline="middle" fill="#444">1.500</text>
<line x1="80" y1="141.37" x2="890" y2="141.37" stroke="#e0e0e0" stroke-width="0.5"/>
<text x="74" y="141.37" text-anchor="end" alignment-baseline="middle" fill="#444">2.000</text>
<line x1="80" y1="75.32" x2="890" y2="75.32" stroke="#e0e0e0" stroke-width="0.5"/>
<text x="74" y="75.32" text-anchor="end" alignment-baseline="middle" fill="#444">2.500</text>
<text x="485" y="460" text-anchor="middle" fill="#222">B (parallel placements)</text>
<text x="20" y="225" text-anchor="middle" fill="#222" transform="rotate(-90 20 225)">speedup (CPU wall ÷ MLX wall)</text>
<path d="M80.00,402.27 L127.65,345.66 L280.12,212.49 L483.41,121.55 L890.00,47.73" fill="none" stroke="#2ca02c" stroke-width="2"/>
</svg>
