<?xml version="1.0" encoding="UTF-8"?><svg xmlns="http://www.w3.org/2000/svg" viewBox="-301.721 -290.930 583.332 586.334" width="583" height="586"><rect x="-301.721" y="-290.930" width="583.332" height="586.334" fill="white" stroke="none"/><g fill="#e74c3c" fill-opacity="0.450" stroke="#e74c3c" stroke-width="0.500"><rect x="-7.371" y="-39.456" width="65.305" height="3.200" /><rect x="-63.580" y="-95.450" width="59.409" height="3.200" /><rect x="-7.371" y="-95.450" width="3.200" height="59.194" /><rect x="-7.371" y="-39.456" width="3.200" height="170.274" /><rect x="-7.371" y="1.895" width="3.200" height="128.923" /><rect x="-7.371" y="1.895" width="59.034" height="3.200" /><rect x="-63.580" y="-95.450" width="59.409" height="3.200" /><rect x="-7.371" y="-95.450" width="3.200" height="100.545" /><rect x="48.462" y="-39.456" width="9.471" height="3.200" /><rect x="48.462" y="-39.456" width="3.200" height="44.551" /><rect x="52.809" y="-44.242" width="95.611" height="3.200" /><rect x="52.809" y="-44.242" width="3.200" height="7.999" /><rect x="50.529" y="-39.443" width="5.480" height="3.200" /><rect x="52.809" y="-39.443" width="3.200" height="40.354" /><rect x="52.809" y="-2.637" width="3.200" height="3.547" /><rect x="50.529" y="-39.443" width="5.480" height="3.200" /><rect x="52.809" y="-39.443" width="3.200" height="40.006" /><rect x="52.809" y="-2.637" width="58.153" height="3.200" /><rect x="107.762" y="-44.242" width="40.658" height="3.200" /><rect x="107.762" y="-44.242" width="3.200" height="44.806" /><rect x="58.745" y="-39.451" width="20.789" height="3.200" /><rect x="76.334" y="-114.482" width="3.200" height="78.231" /><rect x="-9.493" y="-39.451" width="71.438" height="3.200" /><rect x="-9.493" y="-39.451" width="3.200" height="65.776" /><rect x="-9.493" y="23.125" width="76.246" height="3.200" /><rect x="63.553" y="23.125" width="3.200" height="46.274" /><rect x="63.553" y="-114.482" width="15.981" height="3.200" /><rect x="63.553" y="-114.482" width="3.200" height="140.807" /><rect x="58.745" y="-39.451" width="8.008" height="3.200" /><rect x="63.553" y="-39.451" width="3.200" height="108.850" /><rect x="58.470" y="-10.790" width="47.883" height="3.200" /><rect x="58.470" y="-159.266" width="3.200" height="151.677" /><rect x="-117.295" y="-6.258" width="178.966" height="3.200" /><rect x="58.470" y="-10.790" width="3.200" height="7.731" /><rect x="-117.295" y="-6.258" width="178.966" height="3.200" /><rect x="58.470" y="-0.015" width="23.385" height="3.200" /><rect x="58.470" y="-6.258" width="3.200" height="9.443" /><rect x="58.470" y="-159.266" width="3.200" height="156.208" /><rect x="78.655" y="-10.790" width="27.698" height="3.200" /><rect x="78.655" y="-10.790" width="3.200" height="13.974" /><rect x="95.206" y="57.413" width="26.742" height="3.200" /><rect x="95.206" y="23.158" width="3.200" height="37.454" /><rect x="95.206" y="-15.896" width="3.200" height="42.254" /><rect x="-20.189" y="23.158" width="118.594" height="3.200" /><rect x="-20.189" y="23.158" width="118.594" height="3.200" /><rect x="95.206" y="-15.896" width="3.200" height="42.254" /><rect x="95.206" y="77.811" width="9.294" height="3.200" /><rect x="95.206" y="23.158" width="3.200" height="57.853" /><rect x="101.299" y="57.413" width="20.648" height="3.200" /><rect x="101.299" y="57.413" width="3.200" height="23.598" /><rect x="32.028" y="25.559" width="3.200" height="16.308" /><rect x="32.028" y="-6.558" width="74.360" height="3.200" /><rect x="32.028" y="-6.558" width="3.200" height="35.317" /><rect x="-95.262" y="25.559" width="130.490" height="3.200" /><rect x="-95.262" y="25.559" width="117.455" height="3.200" /><rect x="18.993" y="25.559" width="3.200" height="112.987" /><rect x="18.993" y="-6.558" width="87.395" height="3.200" /><rect x="18.993" y="-6.558" width="3.200" height="35.317" /><rect x="18.993" y="38.667" width="16.235" height="3.200" /><rect x="18.993" y="38.667" width="3.200" height="99.879" /><rect x="17.100" y="-2.288" width="3.200" height="120.895" /><rect x="17.100" y="-2.288" width="34.548" height="3.200" /><rect x="-112.502" y="-31.174" width="132.802" height="3.200" /><rect x="17.100" y="-31.174" width="3.200" height="32.086" /><rect x="-112.502" y="-31.174" width="101.101" height="3.200" /><rect x="-14.601" y="-31.174" width="3.200" height="32.086" /><rect x="-14.601" y="-2.288" width="66.249" height="3.200" /><rect x="-14.601" y="-2.288" width="3.200" height="79.717" /><rect x="-14.601" y="115.407" width="34.901" height="3.200" /><rect x="-14.601" y="74.229" width="3.200" height="44.378" /><rect x="-64.170" y="15.336" width="49.093" height="3.200" /><rect x="-18.278" y="-6.454" width="3.200" height="24.990" /><rect x="-18.278" y="24.838" width="83.590" height="3.200" /><rect x="-18.278" y="15.336" width="3.200" height="12.702" /><rect x="-18.278" y="-6.454" width="3.200" height="26.078" /><rect x="-73.959" y="16.424" width="58.882" height="3.200" /><rect x="-18.278" y="24.838" width="83.590" height="3.200" /><rect x="-18.278" y="16.424" width="3.200" height="11.614" /><rect x="-73.959" y="15.336" width="12.989" height="3.200" /><rect x="-73.959" y="15.336" width="3.200" height="4.288" /><rect x="50.529" y="-39.456" width="7.405" height="3.200" /><rect x="50.529" y="-39.456" width="3.200" height="3.213" /><rect x="76.334" y="-44.242" width="72.086" height="3.200" /><rect x="76.334" y="-114.482" width="3.200" height="73.440" /><rect x="58.470" y="-39.451" width="3.474" height="3.200" /><rect x="58.470" y="-159.266" width="3.200" height="123.015" /><rect x="95.206" y="-10.790" width="11.148" height="3.200" /><rect x="95.206" y="-15.896" width="3.200" height="8.306" /><rect x="103.188" y="57.413" width="18.759" height="3.200" /><rect x="103.188" y="-6.558" width="3.200" height="67.170" /><rect x="32.028" y="38.667" width="19.620" height="3.200" /><rect x="48.448" y="-2.288" width="3.200" height="44.155" /><rect x="17.100" y="115.407" width="48.213" height="3.200" /><rect x="62.113" y="24.838" width="3.200" height="93.769" /><rect x="-64.170" y="15.336" width="3.790" height="3.200" /><rect x="-63.580" y="-95.450" width="3.200" height="113.986" /><rect x="54.734" y="-39.456" width="3.200" height="3.200" /><rect x="-7.371" y="127.618" width="3.200" height="3.200" /><rect x="-63.580" y="-95.450" width="3.200" height="3.200" /><rect x="48.462" y="1.895" width="3.200" height="3.200" /><rect x="-135.387" y="90.676" width="3.200" height="3.200" /><rect x="80.591" y="-114.469" width="3.200" height="3.200" /><rect x="110.335" y="196.848" width="3.200" height="3.200" /><rect x="-249.214" y="-82.453" width="3.200" height="3.200" /><rect x="145.220" y="-44.242" width="3.200" height="3.200" /><rect x="52.809" y="-2.290" width="3.200" height="3.200" /><rect x="50.529" y="-39.443" width="3.200" height="3.200" /><rect x="107.762" y="-2.637" width="3.200" height="3.200" /><rect x="-226.024" y="55.929" width="3.200" height="3.200" /><rect x="142.865" y="-222.948" width="3.200" height="3.200" /><rect x="46.710" y="291.404" width="3.200" height="3.200" /><rect x="-109.814" y="-86.591" width="3.200" height="3.200" /><rect x="58.745" y="-39.451" width="3.200" height="3.200" /><rect x="-9.493" y="23.125" width="3.200" height="3.200" /><rect x="76.334" y="-114.482" width="3.200" height="3.200" /><rect x="63.553" y="66.198" width="3.200" height="3.200" /><rect x="-300.921" y="-31.398" width="3.200" height="3.200" /><rect x="113.707" y="-82.404" width="3.200" height="3.200" /><rect x="-40.805" y="163.375" width="3.200" height="3.200" /><rect x="-108.963" y="-178.616" width="3.200" height="3.200" /><rect x="103.154" y="-10.790" width="3.200" height="3.200" /><rect x="-117.295" y="-6.258" width="3.200" height="3.200" /><rect x="58.470" y="-159.266" width="3.200" height="3.200" /><rect x="78.655" y="-0.015" width="3.200" height="3.200" /><rect x="-101.638" y="-17.165" width="3.200" height="3.200" /><rect x="145.216" y="-40.048" width="3.200" height="3.200" /><rect x="-125.994" y="207.379" width="3.200" height="3.200" /><rect x="-57.679" y="-271.679" width="3.200" height="3.200" /><rect x="118.747" y="57.413" width="3.200" height="3.200" /><rect x="-20.189" y="23.158" width="3.200" height="3.200" /><rect x="95.206" y="-15.896" width="3.200" height="3.200" /><rect x="101.299" y="77.811" width="3.200" height="3.200" /><rect x="-173.809" y="-178.724" width="3.200" height="3.200" /><rect x="277.611" y="14.584" width="3.200" height="3.200" /><rect x="-243.714" y="195.694" width="3.200" height="3.200" /><rect x="20.562" y="-152.946" width="3.200" height="3.200" /><rect x="32.028" y="38.667" width="3.200" height="3.200" /><rect x="-95.262" y="25.559" width="3.200" height="3.200" /><rect x="103.188" y="-6.558" width="3.200" height="3.200" /><rect x="18.993" y="135.346" width="3.200" height="3.200" /><rect x="-130.858" y="-290.130" width="3.200" height="3.200" /><rect x="103.430" y="1.558" width="3.200" height="3.200" /><rect x="-99.558" y="25.558" width="3.200" height="3.200" /><rect x="103.998" y="-196.967" width="3.200" height="3.200" /><rect x="17.100" y="115.407" width="3.200" height="3.200" /><rect x="-112.502" y="-31.174" width="3.200" height="3.200" /><rect x="48.448" y="-2.288" width="3.200" height="3.200" /><rect x="-14.601" y="74.229" width="3.200" height="3.200" /><rect x="-15.310" y="-194.394" width="3.200" height="3.200" /><rect x="162.998" y="153.168" width="3.200" height="3.200" /><rect x="-260.125" y="-5.885" width="3.200" height="3.200" /><rect x="216.349" y="-194.721" width="3.200" height="3.200" /><rect x="-64.170" y="15.336" width="3.200" height="3.200" /><rect x="-18.278" y="-6.454" width="3.200" height="3.200" /><rect x="62.113" y="24.838" width="3.200" height="3.200" /><rect x="-73.959" y="16.424" width="3.200" height="3.200" /><rect x="48.850" y="-230.818" width="3.200" height="3.200" /><rect x="130.045" y="262.442" width="3.200" height="3.200" /><rect x="-85.032" y="-8.121" width="3.200" height="3.200" /><rect x="103.414" y="-2.626" width="3.200" height="3.200" /></g></svg>