<?xml version="1.0" encoding="UTF-8"?><svg xmlns="http://www.w3.org/2000/svg" viewBox="-306.780 -303.358 591.732 592.770" width="592" height="593"><rect x="-306.780" y="-303.358" width="591.732" height="592.770" fill="white" stroke="none"/><g fill="#e74c3c" fill-opacity="0.450" stroke="#e74c3c" stroke-width="0.500"><rect x="15.801" y="-1.600" width="119.559" height="3.200" /><rect x="15.801" y="-199.878" width="3.200" height="201.478" /><rect x="-124.298" y="110.802" width="143.299" height="3.200" /><rect x="15.801" y="-1.600" width="3.200" height="115.602" /><rect x="-124.298" y="110.802" width="143.299" height="3.200" /><rect x="15.801" y="182.262" width="126.762" height="3.200" /><rect x="15.801" y="110.802" width="3.200" height="74.660" /><rect x="15.801" y="-199.878" width="3.200" height="313.879" /><rect x="132.160" y="-1.600" width="10.403" height="3.200" /><rect x="139.363" y="-1.600" width="3.200" height="187.062" /><rect x="112.058" y="67.995" width="80.111" height="3.200" /><rect x="112.058" y="-244.482" width="3.200" height="315.677" /><rect x="-219.302" y="88.265" width="334.560" height="3.200" /><rect x="112.058" y="67.995" width="3.200" height="23.470" /><rect x="-219.302" y="88.265" width="310.927" height="3.200" /><rect x="88.426" y="88.265" width="3.200" height="200.347" /><rect x="88.426" y="-244.482" width="26.833" height="3.200" /><rect x="88.426" y="-244.482" width="3.200" height="335.946" /><rect x="88.426" y="67.995" width="103.744" height="3.200" /><rect x="88.426" y="67.995" width="3.200" height="220.617" /><rect x="101.378" y="173.689" width="108.207" height="3.200" /><rect x="101.378" y="10.988" width="3.200" height="165.901" /><rect x="101.378" y="-104.078" width="3.200" height="118.266" /><rect x="-305.980" y="10.988" width="410.558" height="3.200" /><rect x="-305.980" y="10.988" width="299.363" height="3.200" /><rect x="-9.817" y="10.988" width="3.200" height="168.342" /><rect x="-9.817" y="-104.078" width="114.395" height="3.200" /><rect x="-9.817" y="-104.078" width="3.200" height="118.266" /><rect x="-9.817" y="173.689" width="219.402" height="3.200" /><rect x="-9.817" y="173.689" width="3.200" height="5.642" /><rect x="72.540" y="-56.842" width="3.200" height="187.826" /><rect x="72.540" y="-91.525" width="123.690" height="3.200" /><rect x="72.540" y="-91.525" width="3.200" height="37.882" /><rect x="-174.762" y="-56.842" width="250.502" height="3.200" /><rect x="-174.762" y="-56.842" width="80.990" height="3.200" /><rect x="-96.972" y="-56.842" width="3.200" height="286.330" /><rect x="-96.972" y="-91.525" width="293.202" height="3.200" /><rect x="-96.972" y="-91.525" width="3.200" height="37.882" /><rect x="-96.972" y="127.783" width="172.712" height="3.200" /><rect x="-96.972" y="127.783" width="3.200" height="101.705" /><rect x="35.366" y="-25.010" width="3.200" height="241.697" /><rect x="35.366" y="-25.010" width="248.786" height="3.200" /><rect x="-199.952" y="-155.214" width="238.518" height="3.200" /><rect x="35.366" y="-155.214" width="3.200" height="133.403" /><rect x="-199.952" y="-155.214" width="3.200" height="133.403" /><rect x="-216.296" y="230.484" width="19.544" height="3.200" /><rect x="-199.952" y="-25.010" width="3.200" height="258.694" /><rect x="-199.952" y="-25.010" width="484.104" height="3.200" /><rect x="-216.296" y="213.486" width="254.862" height="3.200" /><rect x="-216.296" y="213.486" width="3.200" height="20.198" /><rect x="-53.031" y="40.858" width="3.200" height="243.462" /><rect x="-69.774" y="-109.934" width="19.943" height="3.200" /><rect x="-53.031" y="-109.934" width="3.200" height="153.992" /><rect x="-53.031" y="40.858" width="209.559" height="3.200" /><rect x="-69.774" y="-109.934" width="3.200" height="153.992" /><rect x="-173.558" y="86.648" width="106.983" height="3.200" /><rect x="-69.774" y="40.858" width="3.200" height="48.990" /><rect x="-69.774" y="40.858" width="226.302" height="3.200" /><rect x="-173.558" y="281.120" width="123.726" height="3.200" /><rect x="-173.558" y="86.648" width="3.200" height="197.672" /><rect x="-84.763" y="140.306" width="44.975" height="3.200" /><rect x="-42.988" y="131.454" width="3.200" height="12.052" /><rect x="-42.988" y="131.454" width="231.901" height="3.200" /><rect x="-42.988" y="-194.326" width="3.200" height="328.981" /><rect x="-42.988" y="-194.326" width="3.200" height="228.378" /><rect x="-261.986" y="30.851" width="222.198" height="3.200" /><rect x="-42.988" y="131.454" width="231.901" height="3.200" /><rect x="-42.988" y="30.851" width="3.200" height="103.803" /><rect x="-261.986" y="140.306" width="180.422" height="3.200" /><rect x="-261.986" y="30.851" width="3.200" height="112.655" /><rect x="-181.680" y="147.195" width="220.065" height="3.200" /><rect x="35.185" y="244.565" width="135.921" height="3.200" /><rect x="35.185" y="147.195" width="3.200" height="100.570" /><rect x="35.185" y="-265.286" width="3.200" height="415.682" /><rect x="35.185" y="-265.286" width="3.200" height="235.602" /><rect x="-137.567" y="-32.885" width="175.952" height="3.200" /><rect x="35.185" y="244.565" width="135.921" height="3.200" /><rect x="35.185" y="-32.885" width="3.200" height="280.650" /><rect x="-181.680" y="147.195" width="47.313" height="3.200" /><rect x="-137.567" y="-32.885" width="3.200" height="183.280" /><rect x="112.058" y="-1.600" width="23.302" height="3.200" /><rect x="112.058" y="-244.482" width="3.200" height="246.082" /><rect x="101.378" y="67.995" width="90.791" height="3.200" /><rect x="101.378" y="-104.078" width="3.200" height="175.274" /><rect x="193.030" y="173.689" width="16.555" height="3.200" /><rect x="193.030" y="-91.525" width="3.200" height="268.414" /><rect x="72.540" y="127.783" width="211.612" height="3.200" /><rect x="280.952" y="-25.010" width="3.200" height="155.994" /><rect x="35.366" y="213.486" width="121.162" height="3.200" /><rect x="153.328" y="40.858" width="3.200" height="175.829" /><rect x="-53.031" y="281.120" width="241.944" height="3.200" /><rect x="185.713" y="131.454" width="3.200" height="152.866" /><rect x="-84.763" y="140.306" width="255.869" height="3.200" /><rect x="167.906" y="140.306" width="3.200" height="107.458" /><rect x="-181.680" y="147.195" width="200.681" height="3.200" /><rect x="15.801" y="-199.878" width="3.200" height="350.273" /><rect x="132.160" y="-1.600" width="3.200" height="3.200" /><rect x="-124.298" y="110.802" width="3.200" height="3.200" /><rect x="15.801" y="-199.878" width="3.200" height="3.200" /><rect x="139.363" y="182.262" width="3.200" height="3.200" /><rect x="-261.879" y="-47.639" width="3.200" height="3.200" /><rect x="248.962" y="-160.987" width="3.200" height="3.200" /><rect x="-37.322" y="131.282" width="3.200" height="3.200" /><rect x="-80.065" y="-152.679" width="3.200" height="3.200" /><rect x="188.970" y="67.995" width="3.200" height="3.200" /><rect x="-219.302" y="88.265" width="3.200" height="3.200" /><rect x="112.058" y="-244.482" width="3.200" height="3.200" /><rect x="88.426" y="285.412" width="3.200" height="3.200" /><rect x="-123.976" y="-72.519" width="3.200" height="3.200" /><rect x="168.420" y="-38.978" width="3.200" height="3.200" /><rect x="-120.490" y="167.510" width="3.200" height="3.200" /><rect x="-32.361" y="-238.975" width="3.200" height="3.200" /><rect x="206.386" y="173.689" width="3.200" height="3.200" /><rect x="-305.980" y="10.988" width="3.200" height="3.200" /><rect x="101.378" y="-104.078" width="3.200" height="3.200" /><rect x="-9.817" y="176.130" width="3.200" height="3.200" /><rect x="-136.508" y="-163.264" width="3.200" height="3.200" /><rect x="239.428" y="30.829" width="3.200" height="3.200" /><rect x="-228.025" y="155.942" width="3.200" height="3.200" /><rect x="66.105" y="-302.558" width="3.200" height="3.200" /><rect x="72.540" y="127.783" width="3.200" height="3.200" /><rect x="-174.762" y="-56.842" width="3.200" height="3.200" /><rect x="193.030" y="-91.525" width="3.200" height="3.200" /><rect x="-96.972" y="226.288" width="3.200" height="3.200" /><rect x="-96.260" y="-264.774" width="3.200" height="3.200" /><rect x="274.864" y="143.698" width="3.200" height="3.200" /><rect x="-149.507" y="37.389" width="3.200" height="3.200" /><rect x="98.778" y="-157.714" width="3.200" height="3.200" /><rect x="35.366" y="213.486" width="3.200" height="3.200" /><rect x="-199.952" y="-155.214" width="3.200" height="3.200" /><rect x="280.952" y="-25.010" width="3.200" height="3.200" /><rect x="-216.296" y="230.484" width="3.200" height="3.200" /><rect x="-0.837" y="-158.398" width="3.200" height="3.200" /><rect x="125.684" y="138.708" width="3.200" height="3.200" /><rect x="-222.733" y="-22.091" width="3.200" height="3.200" /><rect x="201.297" y="-155.597" width="3.200" height="3.200" /><rect x="-53.031" y="281.120" width="3.200" height="3.200" /><rect x="-69.774" y="-109.934" width="3.200" height="3.200" /><rect x="153.328" y="40.858" width="3.200" height="3.200" /><rect x="-173.558" y="86.648" width="3.200" height="3.200" /><rect x="76.930" y="-213.432" width="3.200" height="3.200" /><rect x="95.892" y="237.875" width="3.200" height="3.200" /><rect x="-264.745" y="-126.308" width="3.200" height="3.200" /><rect x="124.388" y="-40.444" width="3.200" height="3.200" /><rect x="-84.763" y="140.306" width="3.200" height="3.200" /><rect x="-42.988" y="-194.326" width="3.200" height="3.200" /><rect x="185.713" y="131.454" width="3.200" height="3.200" /><rect x="-261.986" y="30.851" width="3.200" height="3.200" /><rect x="189.635" y="-226.273" width="3.200" height="3.200" /><rect x="3.346" y="133.990" width="3.200" height="3.200" /><rect x="-119.747" y="-121.487" width="3.200" height="3.200" /><rect x="199.098" y="8.660" width="3.200" height="3.200" /><rect x="-181.680" y="147.195" width="3.200" height="3.200" /><rect x="35.185" y="-265.286" width="3.200" height="3.200" /><rect x="167.906" y="244.565" width="3.200" height="3.200" /><rect x="-137.567" y="-32.885" width="3.200" height="3.200" /><rect x="148.190" y="-86.466" width="3.200" height="3.200" /><rect x="-64.795" y="193.206" width="3.200" height="3.200" /><rect x="-100.138" y="-217.628" width="3.200" height="3.200" /><rect x="247.031" y="103.878" width="3.200" height="3.200" /></g></svg>