<svg xmlns="http://www.w3.org/2000/svg" width="920" height="480" viewBox="0 0 920 480" font-family="-apple-system, system-ui, sans-serif" font-size="13">
<rect width="100%" height="100%" fill="white"/>
<text text-anchor="middle" x="460" y="20" font-size="15" font-weight="600">Placement bbox diagonal over steps</text>
<rect x="80" y="30" width="810" height="390" fill="#fafafa" stroke="#888" stroke-width="0.5"/>
<line x1="80.00" y1="30" x2="80.00" y2="420" stroke="#e0e0e0" stroke-width="0.5"/>
<text x="80.00" y="436" text-anchor="middle" fill="#444">0</text>
<line x1="215.00" y1="30" x2="215.00" y2="420" stroke="#e0e0e0" stroke-width="0.5"/>
<text x="215.00" y="436" text-anchor="middle" fill="#444">100</text>
<line x1="350.00" y1="30" x2="350.00" y2="420" stroke="#e0e0e0" stroke-width="0.5"/>
<text x="350.00" y="436" text-anchor="middle" fill="#444">200</text>
<line x1="485.00" y1="30" x2="485.00" y2="420" stroke="#e0e0e0" stroke-width="0.5"/>
<text x="485.00" y="436" text-anchor="middle" fill="#444">300</text>
<line x1="620.00" y1="30" x2="620.00" y2="420" stroke="#e0e0e0" stroke-width="0.5"/>
<text x="620.00" y="436" text-anchor="middle" fill="#444">400</text>
<line x1="755.00" y1="30" x2="755.00" y2="420" stroke="#e0e0e0" stroke-width="0.5"/>
<text x="755.00" y="436" text-anchor="middle" fill="#444">500</text>
<line x1="890.00" y1="30" x2="890.00" y2="420" stroke="#e0e0e0" stroke-width="0.5"/>
<text x="890.00" y="436" text-anchor="middle" fill="#444">600</text>
<line x1="80" y1="413.31" x2="890" y2="413.31" stroke="#e0e0e0" stroke-width="0.5"/>
<text x="74" y="413.31" text-anchor="end" alignment-baseline="middle" fill="#444">1.50e4</text>
<line x1="80" y1="365.77" x2="890" y2="365.77" stroke="#e0e0e0" stroke-width="0.5"/>
<text x="74" y="365.77" text-anchor="end" alignment-baseline="middle" fill="#444">2.00e4</text>
<line x1="80" y1="318.23" x2="890" y2="318.23" stroke="#e0e0e0" stroke-width="0.5"/>
<text x="74" y="318.23" text-anchor="end" alignment-baseline="middle" fill="#444">2.50e4</text>
<line x1="80" y1="270.69" x2="890" y2="270.69" stroke="#e0e0e0" stroke-width="0.5"/>
<text x="74" y="270.69" text-anchor="end" alignment-baseline="middle" fill="#444">3.00e4</text>
<line x1="80" y1="223.15" x2="890" y2="223.15" stroke="#e0e0e0" stroke-width="0.5"/>
<text x="74" y="223.15" text-anchor="end" alignment-baseline="middle" fill="#444">3.50e4</text>
<line x1="80" y1="175.61" x2="890" y2="175.61" stroke="#e0e0e0" stroke-width="0.5"/>
<text x="74" y="175.61" text-anchor="end" alignment-baseline="middle" fill="#444">4.00e4</text>
<line x1="80" y1="128.07" x2="890" y2="128.07" stroke="#e0e0e0" stroke-width="0.5"/>
<text x="74" y="128.07" text-anchor="end" alignment-baseline="middle" fill="#444">4.50e4</text>
<line x1="80" y1="80.53" x2="890" y2="80.53" stroke="#e0e0e0" stroke-width="0.5"/>
<text x="74" y="80.53" text-anchor="end" alignment-baseline="middle" fill="#444">5.00e4</text>
<line x1="80" y1="32.99" x2="890" y2="32.99" stroke="#e0e0e0" stroke-width="0.5"/>
<text x="74" y="32.99" text-anchor="end" alignment-baseline="middle" fill="#444">5.50e4</text>
<text x="485" y="460" text-anchor="middle" fill="#222">step</text>
<text x="20" y="225" text-anchor="middle" fill="#222" transform="rotate(-90 20 225)">diagonal [DBU]</text>
<path d="M80.00,47.73 L81.35,74.58 L82.70,100.95 L85.40,142.97 L90.80,212.45 L101.60,271.59 L123.20,298.42 L166.40,323.51 L252.80,358.37 L425.60,397.69 L771.20,401.28 L890.00,402.27" fill="none" stroke="#1f77b4" stroke-width="2"/>
</svg>
