<?xml version="1.0" encoding="UTF-8"?><svg xmlns="http://www.w3.org/2000/svg" viewBox="-13.824 -13.948 42.546 22.566" width="43" height="23"><rect x="-13.824" y="-13.948" width="42.546" height="22.566" fill="white" stroke="none"/><g fill="#e74c3c" fill-opacity="0.450" stroke="#e74c3c" stroke-width="0.500"><rect x="-11.762" y="-1.414" width="38.430" height="8.000" /><rect x="-11.762" y="-1.414" width="8.000" height="8.032" /><rect x="8.442" y="-1.414" width="18.226" height="8.000" /><rect x="8.442" y="-11.948" width="8.000" height="18.534" /><rect x="-1.646" y="-11.948" width="18.088" height="8.000" /><rect x="-1.646" y="-11.948" width="8.000" height="8.022" /><rect x="-11.824" y="-11.926" width="18.178" height="8.000" /><rect x="-11.824" y="-11.942" width="8.000" height="8.016" /><rect x="-11.824" y="-11.942" width="38.546" height="8.000" /><rect x="18.722" y="-11.942" width="8.000" height="8.010" /><rect x="18.668" y="-1.414" width="8.000" height="8.000" /><rect x="-11.762" y="-1.382" width="8.000" height="8.000" /><rect x="8.442" y="-11.948" width="8.000" height="8.000" /><rect x="-1.646" y="-11.926" width="8.000" height="8.000" /><rect x="-11.824" y="-11.942" width="8.000" height="8.000" /><rect x="18.722" y="-11.932" width="8.000" height="8.000" /></g><g fill="black" stroke="none"><circle cx="22.668" cy="2.586" r="1.000" /><circle cx="-7.762" cy="2.618" r="1.000" /><circle cx="12.442" cy="-7.948" r="1.000" /><circle cx="2.354" cy="-7.926" r="1.000" /><circle cx="-7.824" cy="-7.942" r="1.000" /><circle cx="22.722" cy="-7.932" r="1.000" /></g></svg>