<?xml version="1.0" encoding="UTF-8"?><svg xmlns="http://www.w3.org/2000/svg" viewBox="-45.388 -45.846 91.388 83.590" width="91" height="84"><rect x="-45.388" y="-45.846" width="91.388" height="83.590" fill="white" stroke="none"/><g fill="#e74c3c" fill-opacity="0.450" stroke="#e74c3c" stroke-width="0.500"><rect x="-33.494" y="-4.000" width="77.494" height="8.000" /><rect x="-33.494" y="-4.000" width="8.000" height="35.020" /><rect x="-0.502" y="-4.000" width="44.502" height="8.000" /><rect x="-0.502" y="-43.846" width="8.000" height="47.846" /><rect x="-0.502" y="-43.846" width="28.840" height="8.000" /><rect x="20.338" y="-43.846" width="8.000" height="79.590" /><rect x="-43.388" y="27.744" width="71.726" height="8.000" /><rect x="-43.388" y="-10.968" width="8.000" height="46.712" /><rect x="-43.388" y="-10.968" width="81.138" height="8.000" /><rect x="29.750" y="-25.470" width="8.000" height="22.502" /><rect x="36.000" y="-4.000" width="8.000" height="8.000" /><rect x="-33.494" y="23.020" width="8.000" height="8.000" /><rect x="-0.502" y="-43.846" width="8.000" height="8.000" /><rect x="20.338" y="27.744" width="8.000" height="8.000" /><rect x="-43.388" y="-10.968" width="8.000" height="8.000" /><rect x="29.750" y="-25.470" width="8.000" height="8.000" /></g><g fill="black" stroke="none"><circle cx="40.000" cy="-0.000" r="1.000" /><circle cx="-29.494" cy="27.020" r="1.000" /><circle cx="3.498" cy="-39.846" r="1.000" /><circle cx="24.338" cy="31.744" r="1.000" /><circle cx="-39.388" cy="-6.968" r="1.000" /><circle cx="33.750" cy="-21.470" r="1.000" /></g></svg>