<svg xmlns="http://www.w3.org/2000/svg" width="920" height="480" viewBox="0 0 920 480" font-family="-apple-system, system-ui, sans-serif" font-size="13">
<rect width="100%" height="100%" fill="white"/>
<text text-anchor="middle" x="460" y="20" font-size="15" font-weight="600">HPWL over Adam steps</text>
<rect x="80" y="30" width="810" height="390" fill="#fafafa" stroke="#888" stroke-width="0.5"/>
<line x1="80.00" y1="30" x2="80.00" y2="420" stroke="#e0e0e0" stroke-width="0.5"/>
<text x="80.00" y="436" text-anchor="middle" fill="#444">0</text>
<line x1="215.00" y1="30" x2="215.00" y2="420" stroke="#e0e0e0" stroke-width="0.5"/>
<text x="215.00" y="436" text-anchor="middle" fill="#444">100</text>
<line x1="350.00" y1="30" x2="350.00" y2="420" stroke="#e0e0e0" stroke-width="0.5"/>
<text x="350.00" y="436" text-anchor="middle" fill="#444">200</text>
<line x1="485.00" y1="30" x2="485.00" y2="420" stroke="#e0e0e0" stroke-width="0.5"/>
<text x="485.00" y="436" text-anchor="middle" fill="#444">300</text>
<line x1="620.00" y1="30" x2="620.00" y2="420" stroke="#e0e0e0" stroke-width="0.5"/>
<text x="620.00" y="436" text-anchor="middle" fill="#444">400</text>
<line x1="755.00" y1="30" x2="755.00" y2="420" stroke="#e0e0e0" stroke-width="0.5"/>
<text x="755.00" y="436" text-anchor="middle" fill="#444">500</text>
<line x1="890.00" y1="30" x2="890.00" y2="420" stroke="#e0e0e0" stroke-width="0.5"/>
<text x="890.00" y="436" text-anchor="middle" fill="#444">600</text>
<line x1="80" y1="283.75" x2="890" y2="283.75" stroke="#e0e0e0" stroke-width="0.5"/>
<text x="74" y="283.75" text-anchor="end" alignment-baseline="middle" fill="#444">1.00e5</text>
<line x1="80" y1="58.97" x2="890" y2="58.97" stroke="#e0e0e0" stroke-width="0.5"/>
<text x="74" y="58.97" text-anchor="end" alignment-baseline="middle" fill="#444">1.00e6</text>
<text x="485" y="460" text-anchor="middle" fill="#222">step</text>
<text x="20" y="225" text-anchor="middle" fill="#222" transform="rotate(-90 20 225)">HPWL [DBU]</text>
<path d="M80.00,34.46 L81.35,34.97 L82.70,35.64 L85.40,36.14 L90.80,38.15 L101.60,43.06 L123.20,50.07 L166.40,63.07 L252.80,88.31 L425.60,141.77 L771.20,255.82 L890.00,299.85" fill="none" stroke="#1f77b4" stroke-width="2"/>
</svg>
