<?xml version="1.0" encoding="UTF-8"?><svg xmlns="http://www.w3.org/2000/svg" viewBox="-138.400 -532.800 444.800 767.200" width="445" height="767"><rect x="-138.400" y="-532.800" width="444.800" height="767.200" fill="white" stroke="none"/><g fill="#e74c3c" fill-opacity="0.450" stroke="#e74c3c" stroke-width="0.500"><rect x="-2.072" y="-80.000" width="4.144" height="160.000" /><rect x="-2.072" y="-160.000" width="4.144" height="160.000" /></g><g fill="#27ae60" fill-opacity="0.450" stroke="#27ae60" stroke-width="0.500"><rect x="-0.072" y="-80.800" width="0.144" height="161.600" /><rect x="-0.072" y="-160.800" width="0.144" height="161.600" /></g><g fill="#f39c12" fill-opacity="0.450" stroke="#f39c12" stroke-width="0.500"><rect x="-137.600" y="-337.600" width="251.200" height="3.200" /><rect x="-1.600" y="-337.600" width="3.200" height="256.800" /><rect x="-2.072" y="-0.800" width="4.144" height="1.600" /><rect x="-2.072" y="-80.800" width="1.600" height="81.600" /><rect x="-0.328" y="-81.600" width="281.928" height="3.200" /><rect x="-0.328" y="-81.600" width="305.928" height="3.200" /><rect x="190.400" y="-193.600" width="3.200" height="115.200" /><rect x="-2.872" y="-1.600" width="36.472" height="3.200" /><rect x="30.400" y="-1.600" width="3.200" height="179.200" /><rect x="-1.600" y="174.400" width="3.200" height="59.200" /><rect x="-1.600" y="-164.000" width="3.200" height="85.600" /><rect x="-105.600" y="-81.600" width="107.200" height="3.200" /><rect x="0.472" y="-0.800" width="1.600" height="1.600" /><rect x="-2.072" y="-0.800" width="1.600" height="1.600" /><rect x="-0.800" y="-83.200" width="1.600" height="1.600" /><rect x="0.472" y="-80.800" width="1.600" height="1.600" /><rect x="-2.072" y="-80.800" width="1.600" height="1.600" /><rect x="-0.800" y="-163.200" width="1.600" height="1.600" /><rect x="-137.600" y="-337.600" width="3.200" height="3.200" /><rect x="302.400" y="-81.600" width="3.200" height="3.200" /><rect x="190.400" y="-193.600" width="3.200" height="3.200" /><rect x="-1.600" y="230.400" width="3.200" height="3.200" /><rect x="-105.600" y="-81.600" width="3.200" height="3.200" /></g><g fill="#c0392b" fill-opacity="0.450" stroke="#c0392b" stroke-width="0.500"><rect x="-112.000" y="-448.000" width="224.000" height="3.200" /><rect x="-112.000" y="-227.200" width="224.000" height="3.200" /><rect x="-112.000" y="-444.800" width="3.200" height="217.600" /><rect x="108.800" y="-444.800" width="3.200" height="217.600" /><rect x="-107.200" y="-443.200" width="214.400" height="3.200" /><rect x="-107.200" y="-232.000" width="214.400" height="3.200" /><rect x="-107.200" y="-440.000" width="3.200" height="208.000" /><rect x="104.000" y="-440.000" width="3.200" height="208.000" /><rect x="-102.400" y="-438.400" width="204.800" height="3.200" /><rect x="-102.400" y="-236.800" width="204.800" height="3.200" /><rect x="-102.400" y="-435.200" width="3.200" height="198.400" /><rect x="99.200" y="-435.200" width="3.200" height="198.400" /><rect x="-97.600" y="-433.600" width="195.200" height="3.200" /><rect x="-97.600" y="-241.600" width="195.200" height="3.200" /><rect x="-97.600" y="-430.400" width="3.200" height="188.800" /><rect x="94.400" y="-430.400" width="3.200" height="188.800" /><rect x="-92.800" y="-428.800" width="185.600" height="3.200" /><rect x="-92.800" y="-246.400" width="185.600" height="3.200" /><rect x="-92.800" y="-425.600" width="3.200" height="179.200" /><rect x="89.600" y="-425.600" width="3.200" height="179.200" /><rect x="-88.000" y="-424.000" width="176.000" height="3.200" /><rect x="-88.000" y="-251.200" width="176.000" height="3.200" /><rect x="-88.000" y="-420.800" width="3.200" height="169.600" /><rect x="84.800" y="-420.800" width="3.200" height="169.600" /><rect x="-32.000" y="144.000" width="64.000" height="3.200" /><rect x="-32.000" y="204.800" width="64.000" height="3.200" /><rect x="-32.000" y="147.200" width="3.200" height="57.600" /><rect x="28.800" y="147.200" width="3.200" height="57.600" /><rect x="-27.200" y="148.800" width="54.400" height="3.200" /><rect x="-27.200" y="200.000" width="54.400" height="3.200" /><rect x="-27.200" y="152.000" width="3.200" height="48.000" /><rect x="24.000" y="152.000" width="3.200" height="48.000" /><rect x="104.000" y="-168.000" width="176.000" height="3.200" /><rect x="104.000" y="4.800" width="176.000" height="3.200" /><rect x="104.000" y="-164.800" width="3.200" height="169.600" /><rect x="276.800" y="-164.800" width="3.200" height="169.600" /><rect x="108.800" y="-163.200" width="166.400" height="3.200" /><rect x="108.800" y="-0.000" width="166.400" height="3.200" /><rect x="108.800" y="-160.000" width="3.200" height="160.000" /><rect x="272.000" y="-160.000" width="3.200" height="160.000" /><rect x="113.600" y="-158.400" width="156.800" height="3.200" /><rect x="113.600" y="-4.800" width="156.800" height="3.200" /><rect x="113.600" y="-155.200" width="3.200" height="150.400" /><rect x="267.200" y="-155.200" width="3.200" height="150.400" /><rect x="118.400" y="-153.600" width="147.200" height="3.200" /><rect x="118.400" y="-9.600" width="147.200" height="3.200" /><rect x="118.400" y="-150.400" width="3.200" height="140.800" /><rect x="262.400" y="-150.400" width="3.200" height="140.800" /><rect x="123.200" y="-148.800" width="137.600" height="3.200" /><rect x="123.200" y="-14.400" width="137.600" height="3.200" /><rect x="123.200" y="-145.600" width="3.200" height="131.200" /><rect x="257.600" y="-145.600" width="3.200" height="131.200" /></g><g fill="#9b59b6" fill-opacity="0.450" stroke="#9b59b6" stroke-width="0.500"><rect x="0.872" y="-0.400" width="0.800" height="0.800" /><rect x="-1.672" y="-0.400" width="0.800" height="0.800" /><rect x="0.872" y="-80.400" width="0.800" height="0.800" /><rect x="-1.672" y="-80.400" width="0.800" height="0.800" /></g><g fill="#27ae60" fill-opacity="0.450" stroke="#27ae60" stroke-width="0.500"><rect x="-2.072" y="-80.000" width="4.144" height="160.000" /><rect x="-2.072" y="-160.000" width="4.144" height="160.000" /></g><g fill="black" stroke="none"><circle cx="-136.000" cy="-336.000" r="1.000" /><circle cx="1.272" cy="-80.000" r="1.000" /><circle cx="192.000" cy="-80.000" r="1.000" /><circle cx="0.000" cy="176.000" r="1.000" /><circle cx="0.000" cy="-162.400" r="1.000" /><circle cx="1.272" cy="-0.000" r="1.000" /><circle cx="-1.272" cy="-0.000" r="1.000" /><circle cx="0.000" cy="-82.400" r="1.000" /><circle cx="1.272" cy="-80.000" r="1.000" /><circle cx="-1.272" cy="-80.000" r="1.000" /><circle cx="0.000" cy="-162.400" r="1.000" /><circle cx="112.000" cy="-336.000" r="1.000" /><circle cx="0.000" cy="-336.000" r="1.000" /><circle cx="32.000" cy="176.000" r="1.000" /><circle cx="0.000" cy="176.000" r="1.000" /><circle cx="280.000" cy="-80.000" r="1.000" /><circle cx="192.000" cy="-80.000" r="1.000" /><circle cx="-136.000" cy="-336.000" r="1.000" /><circle cx="304.000" cy="-80.000" r="1.000" /><circle cx="192.000" cy="-192.000" r="1.000" /><circle cx="0.000" cy="232.000" r="1.000" /><circle cx="-104.000" cy="-80.000" r="1.000" /></g><rect x="-134.400" y="-528.800" width="130.000" height="80.000" fill="white" stroke="#333" stroke-width="0.5"/><rect x="-130.400" y="-524.800" width="14.000" height="10.000" fill="#e74c3c" stroke="#e74c3c" stroke-width="0.5"/><text x="-112.400" y="-516.800" font-size="9" font-family="sans-serif" fill="#222">DIFF (65/20)</text><rect x="-130.400" y="-512.800" width="14.000" height="10.000" fill="#27ae60" stroke="#27ae60" stroke-width="0.5"/><text x="-112.400" y="-504.800" font-size="9" font-family="sans-serif" fill="#222">POLY (66/20)</text><rect x="-130.400" y="-500.800" width="14.000" height="10.000" fill="#f39c12" stroke="#f39c12" stroke-width="0.5"/><text x="-112.400" y="-492.800" font-size="9" font-family="sans-serif" fill="#222">METAL1 (68/20)</text><rect x="-130.400" y="-488.800" width="14.000" height="10.000" fill="#c0392b" stroke="#c0392b" stroke-width="0.5"/><text x="-112.400" y="-480.800" font-size="9" font-family="sans-serif" fill="#222">METAL_TOP (72/20)</text><rect x="-130.400" y="-476.800" width="14.000" height="10.000" fill="#9b59b6" stroke="#9b59b6" stroke-width="0.5"/><text x="-112.400" y="-468.800" font-size="9" font-family="sans-serif" fill="#222">VIA1 (66/44)</text><rect x="-130.400" y="-464.800" width="14.000" height="10.000" fill="#27ae60" stroke="#27ae60" stroke-width="0.5"/><text x="-112.400" y="-456.800" font-size="9" font-family="sans-serif" fill="#222">NPLUS (93/44)</text></svg>