<svg xmlns="http://www.w3.org/2000/svg" width="920" height="480" viewBox="0 0 920 480" font-family="-apple-system, system-ui, sans-serif" font-size="13">
<rect width="100%" height="100%" fill="white"/>
<text text-anchor="middle" x="460" y="20" font-size="15" font-weight="600">Gate-inductor trajectory</text>
<rect x="80" y="30" width="810" height="390" fill="#fafafa" stroke="#888" stroke-width="0.5"/>
<line x1="80.00" y1="30" x2="80.00" y2="420" stroke="#e0e0e0" stroke-width="0.5"/>
<text x="80.00" y="436" text-anchor="middle" fill="#444">0</text>
<line x1="181.25" y1="30" x2="181.25" y2="420" stroke="#e0e0e0" stroke-width="0.5"/>
<text x="181.25" y="436" text-anchor="middle" fill="#444">500</text>
<line x1="282.50" y1="30" x2="282.50" y2="420" stroke="#e0e0e0" stroke-width="0.5"/>
<text x="282.50" y="436" text-anchor="middle" fill="#444">1000</text>
<line x1="383.75" y1="30" x2="383.75" y2="420" stroke="#e0e0e0" stroke-width="0.5"/>
<text x="383.75" y="436" text-anchor="middle" fill="#444">1500</text>
<line x1="485.00" y1="30" x2="485.00" y2="420" stroke="#e0e0e0" stroke-width="0.5"/>
<text x="485.00" y="436" text-anchor="middle" fill="#444">2000</text>
<line x1="586.25" y1="30" x2="586.25" y2="420" stroke="#e0e0e0" stroke-width="0.5"/>
<text x="586.25" y="436" text-anchor="middle" fill="#444">2500</text>
<line x1="687.50" y1="30" x2="687.50" y2="420" stroke="#e0e0e0" stroke-width="0.5"/>
<text x="687.50" y="436" text-anchor="middle" fill="#444">3000</text>
<line x1="788.75" y1="30" x2="788.75" y2="420" stroke="#e0e0e0" stroke-width="0.5"/>
<text x="788.75" y="436" text-anchor="middle" fill="#444">3500</text>
<line x1="890.00" y1="30" x2="890.00" y2="420" stroke="#e0e0e0" stroke-width="0.5"/>
<text x="890.00" y="436" text-anchor="middle" fill="#444">4000</text>
<line x1="80" y1="350.93" x2="890" y2="350.93" stroke="#e0e0e0" stroke-width="0.5"/>
<text x="74" y="350.93" text-anchor="end" alignment-baseline="middle" fill="#444">1.00e-8</text>
<line x1="80" y1="273.72" x2="890" y2="273.72" stroke="#e0e0e0" stroke-width="0.5"/>
<text x="74" y="273.72" text-anchor="end" alignment-baseline="middle" fill="#444">1.20e-8</text>
<line x1="80" y1="196.50" x2="890" y2="196.50" stroke="#e0e0e0" stroke-width="0.5"/>
<text x="74" y="196.50" text-anchor="end" alignment-baseline="middle" fill="#444">1.40e-8</text>
<line x1="80" y1="119.29" x2="890" y2="119.29" stroke="#e0e0e0" stroke-width="0.5"/>
<text x="74" y="119.29" text-anchor="end" alignment-baseline="middle" fill="#444">1.60e-8</text>
<line x1="80" y1="42.07" x2="890" y2="42.07" stroke="#e0e0e0" stroke-width="0.5"/>
<text x="74" y="42.07" text-anchor="end" alignment-baseline="middle" fill="#444">1.80e-8</text>
<text x="485" y="460" text-anchor="middle" fill="#222">step</text>
<text x="20" y="225" text-anchor="middle" fill="#222" transform="rotate(-90 20 225)">Lg [H]</text>
<path d="M80.00,402.27 L80.20,395.58 L80.41,388.88 L80.81,375.45 L81.62,348.42 L83.24,293.08 L86.48,175.84 L92.96,47.73 L105.92,67.04 L131.84,67.54 L183.68,67.54 L287.36,67.54 L494.72,67.54 L890.00,67.54" fill="none" stroke="#1f77b4" stroke-width="2"/>
<path d="M80.00,67.54 L80.20,67.54 L80.41,67.54 L80.81,67.54 L81.62,67.54 L83.24,67.54 L86.48,67.54 L92.96,67.54 L105.92,67.54 L131.84,67.54 L183.68,67.54 L287.36,67.54 L494.72,67.54 L890.00,67.54" fill="none" stroke="#777777" stroke-width="2"/>
<rect x="710" y="30" width="170" height="44" fill="white" stroke="#bbb" stroke-width="0.5" opacity="0.92"/>
<line x1="718" y1="42" x2="738" y2="42" stroke="#1f77b4" stroke-width="3"/>
<text x="746" y="46" fill="#222">Lg</text>
<line x1="718" y1="58" x2="738" y2="58" stroke="#777777" stroke-width="3"/>
<text x="746" y="62" fill="#222">Lg* (Razavi optimum)</text>
</svg>
