<svg xmlns="http://www.w3.org/2000/svg" width="920" height="480" viewBox="0 0 920 480" font-family="-apple-system, system-ui, sans-serif" font-size="13">
<rect width="100%" height="100%" fill="white"/>
<text text-anchor="middle" x="460" y="20" font-size="15" font-weight="600">Return loss at f₀ (dB)</text>
<rect x="80" y="30" width="810" height="390" fill="#fafafa" stroke="#888" stroke-width="0.5"/>
<line x1="80.00" y1="30" x2="80.00" y2="420" stroke="#e0e0e0" stroke-width="0.5"/>
<text x="80.00" y="436" text-anchor="middle" fill="#444">0</text>
<line x1="181.25" y1="30" x2="181.25" y2="420" stroke="#e0e0e0" stroke-width="0.5"/>
<text x="181.25" y="436" text-anchor="middle" fill="#444">500</text>
<line x1="282.50" y1="30" x2="282.50" y2="420" stroke="#e0e0e0" stroke-width="0.5"/>
<text x="282.50" y="436" text-anchor="middle" fill="#444">1000</text>
<line x1="383.75" y1="30" x2="383.75" y2="420" stroke="#e0e0e0" stroke-width="0.5"/>
<text x="383.75" y="436" text-anchor="middle" fill="#444">1500</text>
<line x1="485.00" y1="30" x2="485.00" y2="420" stroke="#e0e0e0" stroke-width="0.5"/>
<text x="485.00" y="436" text-anchor="middle" fill="#444">2000</text>
<line x1="586.25" y1="30" x2="586.25" y2="420" stroke="#e0e0e0" stroke-width="0.5"/>
<text x="586.25" y="436" text-anchor="middle" fill="#444">2500</text>
<line x1="687.50" y1="30" x2="687.50" y2="420" stroke="#e0e0e0" stroke-width="0.5"/>
<text x="687.50" y="436" text-anchor="middle" fill="#444">3000</text>
<line x1="788.75" y1="30" x2="788.75" y2="420" stroke="#e0e0e0" stroke-width="0.5"/>
<text x="788.75" y="436" text-anchor="middle" fill="#444">3500</text>
<line x1="890.00" y1="30" x2="890.00" y2="420" stroke="#e0e0e0" stroke-width="0.5"/>
<text x="890.00" y="436" text-anchor="middle" fill="#444">4000</text>
<line x1="80" y1="408.28" x2="890" y2="408.28" stroke="#e0e0e0" stroke-width="0.5"/>
<text x="74" y="408.28" text-anchor="end" alignment-baseline="middle" fill="#444">0</text>
<line x1="80" y1="348.19" x2="890" y2="348.19" stroke="#e0e0e0" stroke-width="0.5"/>
<text x="74" y="348.19" text-anchor="end" alignment-baseline="middle" fill="#444">20.000</text>
<line x1="80" y1="288.10" x2="890" y2="288.10" stroke="#e0e0e0" stroke-width="0.5"/>
<text x="74" y="288.10" text-anchor="end" alignment-baseline="middle" fill="#444">40.000</text>
<line x1="80" y1="228.01" x2="890" y2="228.01" stroke="#e0e0e0" stroke-width="0.5"/>
<text x="74" y="228.01" text-anchor="end" alignment-baseline="middle" fill="#444">60.000</text>
<line x1="80" y1="167.91" x2="890" y2="167.91" stroke="#e0e0e0" stroke-width="0.5"/>
<text x="74" y="167.91" text-anchor="end" alignment-baseline="middle" fill="#444">80.000</text>
<line x1="80" y1="107.82" x2="890" y2="107.82" stroke="#e0e0e0" stroke-width="0.5"/>
<text x="74" y="107.82" text-anchor="end" alignment-baseline="middle" fill="#444">100</text>
<line x1="80" y1="47.73" x2="890" y2="47.73" stroke="#e0e0e0" stroke-width="0.5"/>
<text x="74" y="47.73" text-anchor="end" alignment-baseline="middle" fill="#444">120</text>
<text x="485" y="460" text-anchor="middle" fill="#222">step</text>
<text x="20" y="225" text-anchor="middle" fill="#222" transform="rotate(-90 20 225)">return loss [dB]</text>
<path d="M80.00,402.27 L80.20,402.08 L80.41,401.87 L80.81,401.43 L81.62,400.39 L83.24,397.48 L86.48,383.68 L92.96,341.42 L105.92,245.17 L131.84,81.60 L183.68,47.73 L287.36,47.73 L494.72,47.73 L890.00,47.73" fill="none" stroke="#1f77b4" stroke-width="2"/>
</svg>
