<svg xmlns="http://www.w3.org/2000/svg" width="920" height="480" viewBox="0 0 920 480">
<rect width="100%" height="100%" fill="#ffffff"/>
<line x1="86.00" y1="418.00" x2="894.00" y2="418.00" stroke="#e5e7eb" stroke-width="1"/>
<text x="78.00" y="422.00" text-anchor="end" font-size="12" fill="#374151">-0.0800</text>
<line x1="86.00" y1="357.67" x2="894.00" y2="357.67" stroke="#e5e7eb" stroke-width="1"/>
<text x="78.00" y="361.67" text-anchor="end" font-size="12" fill="#374151">0.1133</text>
<line x1="86.00" y1="297.33" x2="894.00" y2="297.33" stroke="#e5e7eb" stroke-width="1"/>
<text x="78.00" y="301.33" text-anchor="end" font-size="12" fill="#374151">0.3067</text>
<line x1="86.00" y1="237.00" x2="894.00" y2="237.00" stroke="#e5e7eb" stroke-width="1"/>
<text x="78.00" y="241.00" text-anchor="end" font-size="12" fill="#374151">0.5000</text>
<line x1="86.00" y1="176.67" x2="894.00" y2="176.67" stroke="#e5e7eb" stroke-width="1"/>
<text x="78.00" y="180.67" text-anchor="end" font-size="12" fill="#374151">0.6933</text>
<line x1="86.00" y1="116.33" x2="894.00" y2="116.33" stroke="#e5e7eb" stroke-width="1"/>
<text x="78.00" y="120.33" text-anchor="end" font-size="12" fill="#374151">0.8867</text>
<line x1="86.00" y1="56.00" x2="894.00" y2="56.00" stroke="#e5e7eb" stroke-width="1"/>
<text x="78.00" y="60.00" text-anchor="end" font-size="12" fill="#374151">1.0800</text>
<line x1="86.00" y1="56.00" x2="86.00" y2="418.00" stroke="#e5e7eb" stroke-width="1"/>
<text x="86.00" y="438.00" text-anchor="middle" font-size="12" fill="#374151">1500</text>
<line x1="220.67" y1="56.00" x2="220.67" y2="418.00" stroke="#e5e7eb" stroke-width="1"/>
<text x="220.67" y="438.00" text-anchor="middle" font-size="12" fill="#374151">1517</text>
<line x1="355.33" y1="56.00" x2="355.33" y2="418.00" stroke="#e5e7eb" stroke-width="1"/>
<text x="355.33" y="438.00" text-anchor="middle" font-size="12" fill="#374151">1533</text>
<line x1="490.00" y1="56.00" x2="490.00" y2="418.00" stroke="#e5e7eb" stroke-width="1"/>
<text x="490.00" y="438.00" text-anchor="middle" font-size="12" fill="#374151">1550</text>
<line x1="624.67" y1="56.00" x2="624.67" y2="418.00" stroke="#e5e7eb" stroke-width="1"/>
<text x="624.67" y="438.00" text-anchor="middle" font-size="12" fill="#374151">1567</text>
<line x1="759.33" y1="56.00" x2="759.33" y2="418.00" stroke="#e5e7eb" stroke-width="1"/>
<text x="759.33" y="438.00" text-anchor="middle" font-size="12" fill="#374151">1583</text>
<line x1="894.00" y1="56.00" x2="894.00" y2="418.00" stroke="#e5e7eb" stroke-width="1"/>
<text x="894.00" y="438.00" text-anchor="middle" font-size="12" fill="#374151">1600</text>
<line x1="86.00" y1="418.00" x2="894.00" y2="418.00" stroke="#111827" stroke-width="1.5"/>
<line x1="86.00" y1="56.00" x2="86.00" y2="418.00" stroke="#111827" stroke-width="1.5"/>
<text x="460.00" y="24" text-anchor="middle" font-size="18" font-weight="700" fill="#111827">MZI through-port spectrum: before vs after Adam</text>
<text x="490.00" y="464.00" text-anchor="middle" font-size="13" fill="#111827">wavelength (nm)</text>
<text x="22" y="237.00" transform="rotate(-90 22 237.00)" text-anchor="middle" font-size="13" fill="#111827">|T_through(λ)|²</text>
<polyline points="86.00,315.03 90.04,309.51 94.08,303.86 98.12,298.10 102.16,292.26 106.20,286.32 110.24,280.30 114.28,274.24 118.32,268.10 122.36,261.94 126.40,255.71 130.44,249.46 134.48,243.21 138.52,236.95 142.56,230.68 146.60,224.45 150.64,218.22 154.68,212.03 158.72,205.88 162.76,199.81 166.80,193.78 170.84,187.82 174.88,181.95 178.92,176.17 182.96,170.49 187.00,164.92 191.04,159.47 195.08,154.15 199.12,148.96 203.16,143.91 207.20,139.02 211.24,134.28 215.28,129.69 219.32,125.29 223.36,121.07 227.40,117.02 231.44,113.18 235.48,109.52 239.52,106.07 243.56,102.82 247.60,99.78 251.64,96.96 255.68,94.36 259.72,91.98 263.76,89.83 267.80,87.90 271.84,86.21 275.88,84.76 279.92,83.53 283.96,82.54 288.00,81.79 292.04,81.28 296.08,81.01 300.12,80.98 304.16,81.19 308.20,81.63 312.24,82.31 316.28,83.23 320.32,84.37 324.36,85.76 328.40,87.36 332.44,89.19 336.48,91.25 340.52,93.52 344.56,96.01 348.60,98.71 352.64,101.61 356.68,104.73 360.72,108.03 364.76,111.52 368.80,115.21 372.84,119.06 376.88,123.10 380.92,127.30 384.96,131.67 389.00,136.18 393.04,140.84 397.08,145.65 401.12,150.57 405.16,155.64 409.20,160.81 413.24,166.08 417.28,171.47 421.32,176.96 425.36,182.51 429.40,188.16 433.44,193.86 437.48,199.63 441.52,205.44 445.56,211.30 449.60,217.19 453.64,223.12 457.68,229.05 461.72,235.00 465.76,240.94 469.80,246.86 473.84,252.78 477.88,258.68 481.92,264.52 485.96,270.33 490.00,276.09 494.04,281.78 498.08,287.41 502.12,292.97 506.16,298.43 510.20,303.81 514.24,309.09 518.28,314.26 522.32,319.33 526.36,324.26 530.40,329.08 534.44,333.76 538.48,338.29 542.52,342.68 546.56,346.93 550.60,351.01 554.64,354.93 558.68,358.68 562.72,362.25 566.76,365.65 570.80,368.86 574.84,371.89 578.88,374.74 582.92,377.37 586.96,379.82 591.00,382.06 595.04,384.11 599.08,385.95 603.12,387.57 607.16,388.99 611.20,390.20 615.24,391.19 619.28,391.98 623.32,392.54 627.36,392.90 631.40,393.03 635.44,392.96 639.48,392.66 643.52,392.16 647.56,391.44 651.60,390.52 655.64,389.38 659.68,388.04 663.72,386.49 667.76,384.74 671.80,382.79 675.84,380.64 679.88,378.30 683.92,375.77 687.96,373.05 692.00,370.16 696.04,367.08 700.08,363.84 704.12,360.41 708.16,356.83 712.20,353.09 716.24,349.20 720.28,345.16 724.32,340.98 728.36,336.66 732.40,332.21 736.44,327.65 740.48,322.95 744.52,318.14 748.56,313.25 752.60,308.24 756.64,303.15 760.68,297.96 764.72,292.71 768.76,287.38 772.80,281.99 776.84,276.55 780.88,271.05 784.92,265.52 788.96,259.96 793.00,254.36 797.04,248.75 801.08,243.12 805.12,237.50 809.16,231.87 813.20,226.24 817.24,220.63 821.28,215.08 825.32,209.52 829.36,204.03 833.40,198.57 837.44,193.15 841.48,187.81 845.52,182.53 849.56,177.33 853.60,172.20 857.64,167.16 861.68,162.21 865.72,157.37 869.76,152.62 873.80,148.00 877.84,143.47 881.88,139.07 885.92,134.82 889.96,130.68 894.00,126.68" fill="none" stroke="#dc2626" stroke-width="2.2"/>
<polyline points="86.00,120.87 90.04,116.81 94.08,112.92 98.12,109.23 102.16,105.77 106.20,102.50 110.24,99.45 114.28,96.63 118.32,94.02 122.36,91.65 126.40,89.51 130.44,87.60 134.48,85.93 138.52,84.50 142.56,83.31 146.60,82.36 150.64,81.66 154.68,81.20 158.72,80.98 162.76,81.01 166.80,81.28 170.84,81.80 174.88,82.56 178.92,83.55 182.96,84.79 187.00,86.26 191.04,87.96 195.08,89.89 199.12,92.05 203.16,94.43 207.20,97.03 211.24,99.84 215.28,102.87 219.32,106.09 223.36,109.51 227.40,113.13 231.44,116.93 235.48,120.92 239.52,125.08 243.56,129.41 247.60,133.90 251.64,138.54 255.68,143.32 259.72,148.25 263.76,153.31 267.80,158.49 271.84,163.78 275.88,169.18 279.92,174.70 283.96,180.29 288.00,185.97 292.04,191.71 296.08,197.53 300.12,203.38 304.16,209.30 308.20,215.25 312.24,221.22 316.28,227.22 320.32,233.22 324.36,239.25 328.40,245.25 332.44,251.22 336.48,257.20 340.52,263.13 344.56,268.99 348.60,274.83 352.64,280.61 356.68,286.33 360.72,291.96 364.76,297.50 368.80,302.97 372.84,308.31 376.88,313.56 380.92,318.70 384.96,323.71 389.00,328.58 393.04,333.33 397.08,337.94 401.12,342.38 405.16,346.69 409.20,350.83 413.24,354.78 417.28,358.58 421.32,362.21 425.36,365.65 429.40,368.90 433.44,371.95 437.48,374.82 441.52,377.49 445.56,379.95 449.60,382.21 453.64,384.26 457.68,386.10 461.72,387.73 465.76,389.14 469.80,390.33 473.84,391.31 477.88,392.07 481.92,392.61 485.96,392.93 490.00,393.03 494.04,392.92 498.08,392.58 502.12,392.02 506.16,391.25 510.20,390.27 514.24,389.07 518.28,387.66 522.32,386.03 526.36,384.21 530.40,382.18 534.44,379.95 538.48,377.52 542.52,374.90 546.56,372.09 550.60,369.10 554.64,365.92 558.68,362.58 562.72,359.06 566.76,355.37 570.80,351.53 574.84,347.54 578.88,343.38 582.92,339.09 586.96,334.66 591.00,330.11 595.04,325.42 599.08,320.63 603.12,315.72 607.16,310.70 611.20,305.59 615.24,300.40 619.28,295.11 623.32,289.77 627.36,284.34 631.40,278.85 635.44,273.33 639.48,267.74 643.52,262.12 647.56,256.47 651.60,250.80 655.64,245.10 659.68,239.43 663.72,233.74 667.76,228.04 671.80,222.38 675.84,216.73 679.88,211.11 683.92,205.54 687.96,200.00 692.00,194.51 696.04,189.10 700.08,183.74 704.12,178.45 708.16,173.25 712.20,168.14 716.24,163.12 720.28,158.20 724.32,153.39 728.36,148.68 732.40,144.09 736.44,139.64 740.48,135.31 744.52,131.10 748.56,127.05 752.60,123.14 756.64,119.38 760.68,115.77 764.72,112.32 768.76,109.03 772.80,105.91 776.84,102.96 780.88,100.19 784.92,97.59 788.96,95.18 793.00,92.94 797.04,90.89 801.08,89.03 805.12,87.36 809.16,85.88 813.20,84.59 817.24,83.49 821.28,82.60 825.32,81.89 829.36,81.39 833.40,81.08 837.44,80.97 841.48,81.05 845.52,81.33 849.56,81.81 853.60,82.48 857.64,83.34 861.68,84.40 865.72,85.64 869.76,87.08 873.80,88.70 877.84,90.50 881.88,92.49 885.92,94.65 889.96,96.99 894.00,99.50" fill="none" stroke="#1d4ed8" stroke-width="2.2"/>
<rect x="724.00" y="66.00" width="160" height="70.00" rx="8" fill="#f9fafb" stroke="#d1d5db"/>
<text x="734.00" y="82.00" font-size="12" font-weight="700" fill="#111827">Legend</text>
<line x1="734.00" y1="98.00" x2="760.00" y2="98.00" stroke="#dc2626" stroke-width="3"/>
<text x="768.00" y="102.00" font-size="12" fill="#111827">before</text>
<line x1="734.00" y1="120.00" x2="760.00" y2="120.00" stroke="#1d4ed8" stroke-width="3"/>
<text x="768.00" y="124.00" font-size="12" fill="#111827">after</text>
</svg>
