<svg xmlns="http://www.w3.org/2000/svg" width="920" height="480" viewBox="0 0 920 480">
<rect width="100%" height="100%" fill="#ffffff"/>
<line x1="78.00" y1="418.00" x2="894.00" y2="418.00" stroke="#e5e7eb" stroke-width="1"/>
<text x="70.00" y="422.00" text-anchor="end" font-size="12" fill="#374151">-0.179</text>
<line x1="78.00" y1="357.67" x2="894.00" y2="357.67" stroke="#e5e7eb" stroke-width="1"/>
<text x="70.00" y="361.67" text-anchor="end" font-size="12" fill="#374151">0.300</text>
<line x1="78.00" y1="297.33" x2="894.00" y2="297.33" stroke="#e5e7eb" stroke-width="1"/>
<text x="70.00" y="301.33" text-anchor="end" font-size="12" fill="#374151">0.779</text>
<line x1="78.00" y1="237.00" x2="894.00" y2="237.00" stroke="#e5e7eb" stroke-width="1"/>
<text x="70.00" y="241.00" text-anchor="end" font-size="12" fill="#374151">1.257</text>
<line x1="78.00" y1="176.67" x2="894.00" y2="176.67" stroke="#e5e7eb" stroke-width="1"/>
<text x="70.00" y="180.67" text-anchor="end" font-size="12" fill="#374151">1.736</text>
<line x1="78.00" y1="116.33" x2="894.00" y2="116.33" stroke="#e5e7eb" stroke-width="1"/>
<text x="70.00" y="120.33" text-anchor="end" font-size="12" fill="#374151">2.215</text>
<line x1="78.00" y1="56.00" x2="894.00" y2="56.00" stroke="#e5e7eb" stroke-width="1"/>
<text x="70.00" y="60.00" text-anchor="end" font-size="12" fill="#374151">2.693</text>
<line x1="78.00" y1="56.00" x2="78.00" y2="418.00" stroke="#e5e7eb" stroke-width="1"/>
<text x="78.00" y="438.00" text-anchor="middle" font-size="12" fill="#374151">7.000</text>
<line x1="78.00" y1="56.00" x2="78.00" y2="418.00" stroke="#e5e7eb" stroke-width="1"/>
<text x="78.00" y="438.00" text-anchor="middle" font-size="12" fill="#374151">7.000</text>
<line x1="78.00" y1="56.00" x2="78.00" y2="418.00" stroke="#e5e7eb" stroke-width="1"/>
<text x="78.00" y="438.00" text-anchor="middle" font-size="12" fill="#374151">7.000</text>
<line x1="78.00" y1="56.00" x2="78.00" y2="418.00" stroke="#e5e7eb" stroke-width="1"/>
<text x="78.00" y="438.00" text-anchor="middle" font-size="12" fill="#374151">7.000</text>
<line x1="78.00" y1="56.00" x2="78.00" y2="418.00" stroke="#e5e7eb" stroke-width="1"/>
<text x="78.00" y="438.00" text-anchor="middle" font-size="12" fill="#374151">7.000</text>
<line x1="78.00" y1="56.00" x2="78.00" y2="418.00" stroke="#e5e7eb" stroke-width="1"/>
<text x="78.00" y="438.00" text-anchor="middle" font-size="12" fill="#374151">7.000</text>
<line x1="78.00" y1="56.00" x2="78.00" y2="418.00" stroke="#e5e7eb" stroke-width="1"/>
<text x="78.00" y="438.00" text-anchor="middle" font-size="12" fill="#374151">7.000</text>
<line x1="78.00" y1="418.00" x2="894.00" y2="418.00" stroke="#111827" stroke-width="1.5"/>
<line x1="78.00" y1="56.00" x2="78.00" y2="418.00" stroke="#111827" stroke-width="1.5"/>
<text x="460.00" y="24" text-anchor="middle" font-size="18" font-weight="700" fill="#111827">Per-bit DAC settling (to ½ LSB)</text>
<text x="486.00" y="464.00" text-anchor="middle" font-size="13" fill="#111827">bit (MSB→LSB)</text>
<text x="22" y="237.00" transform="rotate(-90 22 237.00)" text-anchor="middle" font-size="13" fill="#111827">settling [ns]</text>
<polyline points="78.00,80.97 -816000008192.00,238.23 -1632000016384.00,316.86 -2448000024576.00,356.18 -3264000032768.00,375.83 -4080000040960.00,385.66 -4896000049152.00,390.58 -5711999795200.00,393.03" fill="none" stroke="#0f766e" stroke-width="2.2"/>
<rect x="724.00" y="66.00" width="160" height="48.00" rx="8" fill="#f9fafb" stroke="#d1d5db"/>
<text x="734.00" y="82.00" font-size="12" font-weight="700" fill="#111827">Legend</text>
<line x1="734.00" y1="98.00" x2="760.00" y2="98.00" stroke="#0f766e" stroke-width="3"/>
<text x="768.00" y="102.00" font-size="12" fill="#111827">settle</text>
</svg>
