<svg xmlns="http://www.w3.org/2000/svg" width="920" height="480" viewBox="0 0 920 480">
<rect width="100%" height="100%" fill="#ffffff"/>
<line x1="78.00" y1="418.00" x2="894.00" y2="418.00" stroke="#e5e7eb" stroke-width="1"/>
<text x="70.00" y="422.00" text-anchor="end" font-size="12" fill="#374151">-0.988</text>
<line x1="78.00" y1="357.67" x2="894.00" y2="357.67" stroke="#e5e7eb" stroke-width="1"/>
<text x="70.00" y="361.67" text-anchor="end" font-size="12" fill="#374151">-0.489</text>
<line x1="78.00" y1="297.33" x2="894.00" y2="297.33" stroke="#e5e7eb" stroke-width="1"/>
<text x="70.00" y="301.33" text-anchor="end" font-size="12" fill="#374151">0.009</text>
<line x1="78.00" y1="237.00" x2="894.00" y2="237.00" stroke="#e5e7eb" stroke-width="1"/>
<text x="70.00" y="241.00" text-anchor="end" font-size="12" fill="#374151">0.508</text>
<line x1="78.00" y1="176.67" x2="894.00" y2="176.67" stroke="#e5e7eb" stroke-width="1"/>
<text x="70.00" y="180.67" text-anchor="end" font-size="12" fill="#374151">1.006</text>
<line x1="78.00" y1="116.33" x2="894.00" y2="116.33" stroke="#e5e7eb" stroke-width="1"/>
<text x="70.00" y="120.33" text-anchor="end" font-size="12" fill="#374151">1.505</text>
<line x1="78.00" y1="56.00" x2="894.00" y2="56.00" stroke="#e5e7eb" stroke-width="1"/>
<text x="70.00" y="60.00" text-anchor="end" font-size="12" fill="#374151">2.003</text>
<line x1="78.00" y1="56.00" x2="78.00" y2="418.00" stroke="#e5e7eb" stroke-width="1"/>
<text x="78.00" y="438.00" text-anchor="middle" font-size="12" fill="#374151">0.000</text>
<line x1="214.00" y1="56.00" x2="214.00" y2="418.00" stroke="#e5e7eb" stroke-width="1"/>
<text x="214.00" y="438.00" text-anchor="middle" font-size="12" fill="#374151">42.500</text>
<line x1="350.00" y1="56.00" x2="350.00" y2="418.00" stroke="#e5e7eb" stroke-width="1"/>
<text x="350.00" y="438.00" text-anchor="middle" font-size="12" fill="#374151">85.000</text>
<line x1="486.00" y1="56.00" x2="486.00" y2="418.00" stroke="#e5e7eb" stroke-width="1"/>
<text x="486.00" y="438.00" text-anchor="middle" font-size="12" fill="#374151">127.500</text>
<line x1="622.00" y1="56.00" x2="622.00" y2="418.00" stroke="#e5e7eb" stroke-width="1"/>
<text x="622.00" y="438.00" text-anchor="middle" font-size="12" fill="#374151">170.000</text>
<line x1="758.00" y1="56.00" x2="758.00" y2="418.00" stroke="#e5e7eb" stroke-width="1"/>
<text x="758.00" y="438.00" text-anchor="middle" font-size="12" fill="#374151">212.500</text>
<line x1="894.00" y1="56.00" x2="894.00" y2="418.00" stroke="#e5e7eb" stroke-width="1"/>
<text x="894.00" y="438.00" text-anchor="middle" font-size="12" fill="#374151">255.000</text>
<line x1="78.00" y1="418.00" x2="894.00" y2="418.00" stroke="#111827" stroke-width="1.5"/>
<line x1="78.00" y1="56.00" x2="78.00" y2="418.00" stroke="#111827" stroke-width="1.5"/>
<text x="460.00" y="24" text-anchor="middle" font-size="18" font-weight="700" fill="#111827">DNL (LSB) per code</text>
<text x="486.00" y="464.00" text-anchor="middle" font-size="13" fill="#111827">code</text>
<text x="22" y="237.00" transform="rotate(-90 22 237.00)" text-anchor="middle" font-size="13" fill="#111827">DNL [LSB]</text>
<polyline points="78.00,285.23 81.20,306.03 84.40,296.58 87.60,290.90 90.80,296.58 94.00,281.45 97.20,321.16 100.40,300.36 103.60,281.45 106.80,309.82 110.00,292.79 113.20,313.60 116.40,294.69 119.60,290.90 122.80,294.69 126.00,309.82 129.20,292.79 132.40,283.34 135.60,309.82 138.80,296.58 142.00,296.58 145.20,294.69 148.40,304.14 151.60,287.12 154.80,313.60 158.00,292.79 161.20,309.82 164.40,283.34 167.60,304.14 170.80,304.14 174.00,287.12 177.20,338.19 180.40,294.69 183.60,296.58 186.80,300.36 190.00,298.47 193.20,302.25 196.40,294.69 199.60,302.25 202.80,307.92 206.00,296.58 209.20,287.12 212.40,302.25 215.60,311.71 218.80,296.58 222.00,289.01 225.20,302.25 228.40,300.36 231.60,300.36 234.80,279.55 238.00,304.14 241.20,285.23 244.40,324.95 247.60,285.23 250.80,292.79 254.00,311.71 257.20,294.69 260.40,294.69 263.60,307.92 266.80,287.12 270.00,307.92 273.20,296.58 276.40,296.58 279.60,287.12 282.80,309.82 286.00,304.14 289.20,290.90 292.40,302.25 295.60,294.69 298.80,298.47 302.00,304.14 305.20,294.69 308.40,313.60 311.60,279.55 314.80,302.25 318.00,298.47 321.20,300.36 324.40,302.25 327.60,287.12 330.80,307.92 334.00,294.69 337.20,289.01 340.40,309.82 343.60,285.23 346.80,306.03 350.00,298.47 353.20,298.47 356.40,309.82 359.60,279.55 362.80,309.82 366.00,302.25 369.20,294.69 372.40,296.58 375.60,302.25 378.80,296.58 382.00,330.62 385.20,296.58 388.40,289.01 391.60,313.60 394.80,306.03 398.00,283.34 401.20,306.03 404.40,300.36 407.60,300.36 410.80,298.47 414.00,298.47 417.20,294.69 420.40,300.36 423.60,311.71 426.80,268.21 430.00,304.14 433.20,302.25 436.40,296.58 439.60,306.03 442.80,289.01 446.00,300.36 449.20,304.14 452.40,287.12 455.60,298.47 458.80,300.36 462.00,309.82 465.20,287.12 468.40,290.90 471.60,313.60 474.80,298.47 478.00,296.58 481.20,296.58 484.40,80.97 487.60,311.71 490.80,283.34 494.00,298.47 497.20,307.92 500.40,287.12 503.60,307.92 506.80,298.47 510.00,307.92 513.20,285.23 516.40,307.92 519.60,283.34 522.80,317.38 526.00,285.23 529.20,296.58 532.40,306.03 535.60,294.69 538.80,287.12 542.00,304.14 545.20,298.47 548.40,309.82 551.60,285.23 554.80,300.36 558.00,298.47 561.20,298.47 564.40,309.82 567.60,287.12 570.80,306.03 574.00,294.69 577.20,298.47 580.40,298.47 583.60,287.12 586.80,345.75 590.00,298.47 593.20,306.03 596.40,290.90 599.60,298.47 602.80,285.23 606.00,302.25 609.20,315.49 612.40,289.01 615.60,306.03 618.80,287.12 622.00,304.14 625.20,300.36 628.40,289.01 631.60,290.90 634.80,317.38 638.00,277.66 641.20,313.60 644.40,287.12 647.60,304.14 650.80,292.79 654.00,300.36 657.20,298.47 660.40,306.03 663.60,296.58 666.80,304.14 670.00,290.90 673.20,294.69 676.40,300.36 679.60,290.90 682.80,300.36 686.00,309.82 689.20,302.25 692.40,298.47 695.60,287.12 698.80,309.82 702.00,289.01 705.20,307.92 708.40,290.90 711.60,302.25 714.80,296.58 718.00,298.47 721.20,302.25 724.40,296.58 727.60,287.12 730.80,323.06 734.00,285.23 737.20,302.25 740.40,306.03 743.60,281.45 746.80,296.58 750.00,302.25 753.20,309.82 756.40,290.90 759.60,290.90 762.80,307.92 766.00,294.69 769.20,300.36 772.40,298.47 775.60,294.69 778.80,298.47 782.00,298.47 785.20,306.03 788.40,290.90 791.60,330.62 794.80,304.14 798.00,298.47 801.20,292.79 804.40,317.38 807.60,277.66 810.80,292.79 814.00,302.25 817.20,306.03 820.40,292.79 823.60,304.14 826.80,307.92 830.00,290.90 833.20,296.58 836.40,302.25 839.60,298.47 842.80,296.58 846.00,289.01 849.20,309.82 852.40,285.23 855.60,313.60 858.80,292.79 862.00,289.01 865.20,296.58 868.40,319.27 871.60,296.58 874.80,289.01 878.00,292.79 881.20,307.92 884.40,290.90 887.60,298.47 890.80,319.27 894.00,393.03" fill="none" stroke="#b45309" stroke-width="2.2"/>
<rect x="724.00" y="66.00" width="160" height="48.00" rx="8" fill="#f9fafb" stroke="#d1d5db"/>
<text x="734.00" y="82.00" font-size="12" font-weight="700" fill="#111827">Legend</text>
<line x1="734.00" y1="98.00" x2="760.00" y2="98.00" stroke="#b45309" stroke-width="3"/>
<text x="768.00" y="102.00" font-size="12" fill="#111827">DNL</text>
</svg>
