<svg xmlns="http://www.w3.org/2000/svg" width="920" height="480" viewBox="0 0 920 480">
<rect width="100%" height="100%" fill="#ffffff"/>
<line x1="78.00" y1="418.00" x2="894.00" y2="418.00" stroke="#e5e7eb" stroke-width="1"/>
<text x="70.00" y="422.00" text-anchor="end" font-size="12" fill="#374151">-259.200</text>
<line x1="78.00" y1="357.67" x2="894.00" y2="357.67" stroke="#e5e7eb" stroke-width="1"/>
<text x="70.00" y="361.67" text-anchor="end" font-size="12" fill="#374151">-212.800</text>
<line x1="78.00" y1="297.33" x2="894.00" y2="297.33" stroke="#e5e7eb" stroke-width="1"/>
<text x="70.00" y="301.33" text-anchor="end" font-size="12" fill="#374151">-166.400</text>
<line x1="78.00" y1="237.00" x2="894.00" y2="237.00" stroke="#e5e7eb" stroke-width="1"/>
<text x="70.00" y="241.00" text-anchor="end" font-size="12" fill="#374151">-120.000</text>
<line x1="78.00" y1="176.67" x2="894.00" y2="176.67" stroke="#e5e7eb" stroke-width="1"/>
<text x="70.00" y="180.67" text-anchor="end" font-size="12" fill="#374151">-73.600</text>
<line x1="78.00" y1="116.33" x2="894.00" y2="116.33" stroke="#e5e7eb" stroke-width="1"/>
<text x="70.00" y="120.33" text-anchor="end" font-size="12" fill="#374151">-27.200</text>
<line x1="78.00" y1="56.00" x2="894.00" y2="56.00" stroke="#e5e7eb" stroke-width="1"/>
<text x="70.00" y="60.00" text-anchor="end" font-size="12" fill="#374151">19.200</text>
<line x1="78.00" y1="56.00" x2="78.00" y2="418.00" stroke="#e5e7eb" stroke-width="1"/>
<text x="78.00" y="438.00" text-anchor="middle" font-size="12" fill="#374151">0.000</text>
<line x1="214.00" y1="56.00" x2="214.00" y2="418.00" stroke="#e5e7eb" stroke-width="1"/>
<text x="214.00" y="438.00" text-anchor="middle" font-size="12" fill="#374151">85.167</text>
<line x1="350.00" y1="56.00" x2="350.00" y2="418.00" stroke="#e5e7eb" stroke-width="1"/>
<text x="350.00" y="438.00" text-anchor="middle" font-size="12" fill="#374151">170.333</text>
<line x1="486.00" y1="56.00" x2="486.00" y2="418.00" stroke="#e5e7eb" stroke-width="1"/>
<text x="486.00" y="438.00" text-anchor="middle" font-size="12" fill="#374151">255.500</text>
<line x1="622.00" y1="56.00" x2="622.00" y2="418.00" stroke="#e5e7eb" stroke-width="1"/>
<text x="622.00" y="438.00" text-anchor="middle" font-size="12" fill="#374151">340.667</text>
<line x1="758.00" y1="56.00" x2="758.00" y2="418.00" stroke="#e5e7eb" stroke-width="1"/>
<text x="758.00" y="438.00" text-anchor="middle" font-size="12" fill="#374151">425.833</text>
<line x1="894.00" y1="56.00" x2="894.00" y2="418.00" stroke="#e5e7eb" stroke-width="1"/>
<text x="894.00" y="438.00" text-anchor="middle" font-size="12" fill="#374151">511.000</text>
<line x1="78.00" y1="418.00" x2="894.00" y2="418.00" stroke="#111827" stroke-width="1.5"/>
<line x1="78.00" y1="56.00" x2="78.00" y2="418.00" stroke="#111827" stroke-width="1.5"/>
<text x="460.00" y="24" text-anchor="middle" font-size="18" font-weight="700" fill="#111827">FFT spectrum (dBFS, coherent sample)</text>
<text x="486.00" y="464.00" text-anchor="middle" font-size="13" fill="#111827">bin</text>
<text x="22" y="237.00" transform="rotate(-90 22 237.00)" text-anchor="middle" font-size="13" fill="#111827">amplitude [dBFS]</text>
<polyline points="78.00,393.03 79.60,180.26 81.19,170.40 82.79,183.75 84.39,174.91 85.98,192.33 87.58,176.38 89.18,80.97 90.77,182.49 92.37,172.47 93.97,178.04 95.57,185.26 97.16,178.64 98.76,175.59 100.36,193.83 101.95,192.95 103.55,169.71 105.15,178.25 106.74,178.26 108.34,183.39 109.94,184.64 111.53,144.39 113.13,171.46 114.73,184.12 116.32,172.11 117.92,177.30 119.52,182.27 121.12,173.80 122.71,174.61 124.31,171.91 125.91,186.64 127.50,175.99 129.10,184.93 130.70,189.37 132.29,180.11 133.89,151.30 135.49,193.34 137.08,174.08 138.68,186.56 140.28,179.78 141.87,172.00 143.47,167.74 145.07,172.51 146.67,183.38 148.26,181.16 149.86,182.00 151.46,183.17 153.05,173.92 154.65,178.68 156.25,157.81 157.84,176.67 159.44,170.42 161.04,175.87 162.63,179.25 164.23,171.43 165.83,178.16 167.42,186.57 169.02,174.00 170.62,172.28 172.22,174.91 173.81,179.61 175.41,178.81 177.01,170.73 178.60,153.56 180.20,177.38 181.80,175.41 183.39,200.30 184.99,184.51 186.59,167.51 188.18,171.24 189.78,184.14 191.38,183.15 192.97,178.55 194.57,174.78 196.17,184.30 197.77,170.56 199.36,180.99 200.96,159.26 202.56,177.14 204.15,176.01 205.75,177.34 207.35,193.42 208.94,179.48 210.54,184.04 212.14,173.81 213.73,167.56 215.33,181.23 216.93,175.41 218.52,181.25 220.12,189.20 221.72,171.45 223.32,164.98 224.91,176.89 226.51,177.26 228.11,181.14 229.70,173.28 231.30,179.23 232.90,175.47 234.49,182.97 236.09,175.72 237.69,178.44 239.28,166.87 240.88,184.39 242.48,174.95 244.07,185.80 245.67,160.62 247.27,181.59 248.86,180.46 250.46,172.54 252.06,187.28 253.66,172.31 255.25,184.15 256.85,187.06 258.45,184.23 260.04,179.28 261.64,205.03 263.24,174.11 264.83,171.50 266.43,175.30 268.03,162.66 269.62,184.59 271.22,170.40 272.82,177.50 274.41,182.61 276.01,178.80 277.61,193.78 279.21,188.28 280.80,179.32 282.40,174.57 284.00,183.62 285.59,175.85 287.19,188.00 288.79,179.51 290.38,177.44 291.98,175.82 293.58,176.42 295.17,178.59 296.77,176.26 298.37,185.92 299.96,176.73 301.56,169.56 303.16,176.21 304.76,171.85 306.35,169.06 307.95,177.69 309.55,174.69 311.14,167.61 312.74,181.91 314.34,186.92 315.93,168.18 317.53,175.40 319.13,173.11 320.72,174.61 322.32,174.70 323.92,174.96 325.51,185.44 327.11,193.00 328.71,171.32 330.31,173.94 331.90,176.37 333.50,173.84 335.10,170.76 336.69,186.92 338.29,175.57 339.89,174.74 341.48,171.02 343.08,183.68 344.68,181.67 346.27,172.39 347.87,180.59 349.47,182.40 351.06,190.58 352.66,179.43 354.26,170.92 355.86,177.86 357.45,169.96 359.05,183.05 360.65,177.73 362.24,175.80 363.84,181.97 365.44,179.19 367.03,172.56 368.63,179.31 370.23,181.60 371.82,179.42 373.42,171.56 375.02,169.86 376.61,182.47 378.21,179.11 379.81,167.24 381.41,179.33 383.00,168.00 384.60,172.43 386.20,177.57 387.79,180.63 389.39,180.06 390.99,193.67 392.58,188.94 394.18,176.99 395.78,175.71 397.37,174.31 398.97,184.73 400.57,181.65 402.16,167.09 403.76,180.97 405.36,176.15 406.95,178.08 408.55,181.24 410.15,184.23 411.75,168.44 413.34,174.72 414.94,178.75 416.54,174.88 418.13,178.15 419.73,189.63 421.33,177.88 422.92,176.34 424.52,169.35 426.12,172.32 427.71,175.58 429.31,180.62 430.91,189.55 432.50,171.41 434.10,176.99 435.70,185.30 437.30,174.56 438.89,171.59 440.49,176.74 442.09,173.92 443.68,171.60 445.28,190.29 446.88,170.24 448.47,179.53 450.07,170.67 451.67,170.21 453.26,182.72 454.86,179.51 456.46,184.47 458.05,176.44 459.65,173.77 461.25,197.98 462.85,173.59 464.44,174.24 466.04,177.33 467.64,181.28 469.23,169.56 470.83,176.47 472.43,182.04 474.02,186.54 475.62,181.78 477.22,172.46 478.81,169.27 480.41,178.11 482.01,179.71 483.60,173.18 485.20,172.63 486.80,171.47 488.40,174.18 489.99,170.66 491.59,173.69 493.19,179.10 494.78,173.20 496.38,173.71 497.98,186.15 499.57,172.49 501.17,168.50 502.77,177.86 504.36,188.92 505.96,181.54 507.56,178.25 509.15,192.32 510.75,177.29 512.35,184.94 513.95,183.08 515.54,187.23 517.14,174.08 518.74,179.75 520.33,177.16 521.93,192.14 523.53,196.71 525.12,168.71 526.72,170.59 528.32,187.73 529.91,179.63 531.51,187.64 533.11,176.45 534.70,174.72 536.30,169.02 537.90,170.85 539.50,174.21 541.09,178.43 542.69,168.03 544.29,189.30 545.88,175.80 547.48,179.04 549.08,174.95 550.67,184.36 552.27,173.91 553.87,184.94 555.46,171.12 557.06,170.68 558.66,175.81 560.25,185.86 561.85,173.61 563.45,172.65 565.05,173.40 566.64,181.13 568.24,172.55 569.84,171.73 571.43,171.58 573.03,203.57 574.63,182.40 576.22,175.30 577.82,197.33 579.42,180.83 581.01,176.81 582.61,176.50 584.21,186.36 585.80,183.90 587.40,177.09 589.00,171.06 590.59,173.55 592.19,174.66 593.79,173.38 595.39,191.50 596.98,171.66 598.58,177.19 600.18,178.87 601.77,172.86 603.37,174.06 604.97,171.24 606.56,171.60 608.16,171.20 609.76,185.77 611.35,186.80 612.95,177.06 614.55,195.08 616.14,186.97 617.74,175.06 619.34,177.12 620.94,179.16 622.53,187.43 624.13,197.20 625.73,173.10 627.32,182.78 628.92,174.01 630.52,171.96 632.11,179.89 633.71,171.25 635.31,173.37 636.90,186.02 638.50,171.34 640.10,180.05 641.69,169.80 643.29,174.83 644.89,191.91 646.49,184.47 648.08,174.46 649.68,179.59 651.28,181.31 652.87,177.59 654.47,179.49 656.07,173.72 657.66,175.67 659.26,182.60 660.86,180.50 662.45,171.46 664.05,172.95 665.65,177.23 667.24,183.05 668.84,185.54 670.44,173.78 672.04,179.17 673.63,184.59 675.23,186.44 676.83,179.50 678.42,174.77 680.02,173.19 681.62,187.23 683.21,190.47 684.81,197.27 686.41,191.90 688.00,180.76 689.60,168.94 691.20,183.09 692.79,174.10 694.39,178.78 695.99,179.40 697.59,175.92 699.18,175.42 700.78,177.34 702.38,182.52 703.97,193.75 705.57,176.41 707.17,177.94 708.76,170.13 710.36,180.97 711.96,184.70 713.55,181.98 715.15,169.18 716.75,199.80 718.34,182.46 719.94,168.87 721.54,177.56 723.14,168.27 724.73,179.22 726.33,184.22 727.93,178.45 729.52,188.07 731.12,173.17 732.72,174.52 734.31,184.05 735.91,181.52 737.51,168.90 739.10,174.59 740.70,176.01 742.30,200.19 743.89,182.61 745.49,172.78 747.09,170.64 748.68,178.71 750.28,183.86 751.88,171.04 753.48,179.81 755.07,174.07 756.67,176.59 758.27,186.22 759.86,169.38 761.46,169.95 763.06,188.85 764.65,177.11 766.25,172.96 767.85,188.11 769.44,177.82 771.04,182.56 772.64,195.21 774.23,176.65 775.83,187.63 777.43,176.36 779.03,175.08 780.62,173.88 782.22,172.33 783.82,180.99 785.41,174.84 787.01,173.40 788.61,173.77 790.20,174.71 791.80,183.50 793.40,171.66 794.99,176.48 796.59,174.33 798.19,184.10 799.78,174.89 801.38,178.71 802.98,177.97 804.58,180.29 806.17,181.54 807.77,198.47 809.37,180.73 810.96,166.35 812.56,181.60 814.16,183.06 815.75,177.32 817.35,175.00 818.95,171.95 820.54,176.31 822.14,186.93 823.74,174.75 825.33,194.12 826.93,180.31 828.53,175.43 830.13,185.67 831.72,205.10 833.32,176.80 834.92,181.51 836.51,193.74 838.11,176.56 839.71,169.04 841.30,189.41 842.90,181.83 844.50,174.73 846.09,171.08 847.69,176.56 849.29,176.07 850.88,178.64 852.48,169.13 854.08,180.38 855.68,186.27 857.27,173.89 858.87,175.78 860.47,181.82 862.06,176.51 863.66,187.02 865.26,172.53 866.85,193.08 868.45,174.83 870.05,186.21 871.64,184.44 873.24,180.35 874.84,168.60 876.43,181.37 878.03,184.23 879.63,182.54 881.23,181.78 882.82,170.59 884.42,177.08 886.02,181.45 887.61,177.72 889.21,180.27 890.81,178.86 892.40,180.26 894.00,180.31" fill="none" stroke="#0f766e" stroke-width="2.2"/>
<rect x="724.00" y="66.00" width="160" height="48.00" rx="8" fill="#f9fafb" stroke="#d1d5db"/>
<text x="734.00" y="82.00" font-size="12" font-weight="700" fill="#111827">Legend</text>
<line x1="734.00" y1="98.00" x2="760.00" y2="98.00" stroke="#0f766e" stroke-width="3"/>
<text x="768.00" y="102.00" font-size="12" fill="#111827">spectrum</text>
</svg>
