<svg xmlns="http://www.w3.org/2000/svg" width="920" height="480" viewBox="0 0 920 480">
<rect width="100%" height="100%" fill="#ffffff"/>
<line x1="78.00" y1="418.00" x2="894.00" y2="418.00" stroke="#e5e7eb" stroke-width="1"/>
<text x="70.00" y="422.00" text-anchor="end" font-size="12" fill="#374151">2.21e-9</text>
<line x1="78.00" y1="357.67" x2="894.00" y2="357.67" stroke="#e5e7eb" stroke-width="1"/>
<text x="70.00" y="361.67" text-anchor="end" font-size="12" fill="#374151">7.83e-8</text>
<line x1="78.00" y1="297.33" x2="894.00" y2="297.33" stroke="#e5e7eb" stroke-width="1"/>
<text x="70.00" y="301.33" text-anchor="end" font-size="12" fill="#374151">2.77e-6</text>
<line x1="78.00" y1="237.00" x2="894.00" y2="237.00" stroke="#e5e7eb" stroke-width="1"/>
<text x="70.00" y="241.00" text-anchor="end" font-size="12" fill="#374151">9.83e-5</text>
<line x1="78.00" y1="176.67" x2="894.00" y2="176.67" stroke="#e5e7eb" stroke-width="1"/>
<text x="70.00" y="180.67" text-anchor="end" font-size="12" fill="#374151">3.48e-3</text>
<line x1="78.00" y1="116.33" x2="894.00" y2="116.33" stroke="#e5e7eb" stroke-width="1"/>
<text x="70.00" y="120.33" text-anchor="end" font-size="12" fill="#374151">1.23e-1</text>
<line x1="78.00" y1="56.00" x2="894.00" y2="56.00" stroke="#e5e7eb" stroke-width="1"/>
<text x="70.00" y="60.00" text-anchor="end" font-size="12" fill="#374151">4.38e0</text>
<line x1="78.00" y1="56.00" x2="78.00" y2="418.00" stroke="#e5e7eb" stroke-width="1"/>
<text x="78.00" y="438.00" text-anchor="middle" font-size="12" fill="#374151">100.000</text>
<line x1="214.00" y1="56.00" x2="214.00" y2="418.00" stroke="#e5e7eb" stroke-width="1"/>
<text x="214.00" y="438.00" text-anchor="middle" font-size="12" fill="#374151">283.333</text>
<line x1="350.00" y1="56.00" x2="350.00" y2="418.00" stroke="#e5e7eb" stroke-width="1"/>
<text x="350.00" y="438.00" text-anchor="middle" font-size="12" fill="#374151">466.667</text>
<line x1="486.00" y1="56.00" x2="486.00" y2="418.00" stroke="#e5e7eb" stroke-width="1"/>
<text x="486.00" y="438.00" text-anchor="middle" font-size="12" fill="#374151">650.000</text>
<line x1="622.00" y1="56.00" x2="622.00" y2="418.00" stroke="#e5e7eb" stroke-width="1"/>
<text x="622.00" y="438.00" text-anchor="middle" font-size="12" fill="#374151">833.333</text>
<line x1="758.00" y1="56.00" x2="758.00" y2="418.00" stroke="#e5e7eb" stroke-width="1"/>
<text x="758.00" y="438.00" text-anchor="middle" font-size="12" fill="#374151">1016.667</text>
<line x1="894.00" y1="56.00" x2="894.00" y2="418.00" stroke="#e5e7eb" stroke-width="1"/>
<text x="894.00" y="438.00" text-anchor="middle" font-size="12" fill="#374151">1200.000</text>
<line x1="78.00" y1="418.00" x2="894.00" y2="418.00" stroke="#111827" stroke-width="1.5"/>
<line x1="78.00" y1="56.00" x2="78.00" y2="418.00" stroke="#111827" stroke-width="1.5"/>
<text x="460.00" y="24" text-anchor="middle" font-size="18" font-weight="700" fill="#111827">Comparator metastability vs decision time</text>
<text x="486.00" y="464.00" text-anchor="middle" font-size="13" fill="#111827">decision time [ps]</text>
<text x="22" y="237.00" transform="rotate(-90 22 237.00)" text-anchor="middle" font-size="13" fill="#111827">P(undecided)</text>
<polyline points="78.00,80.97 152.18,80.97 226.36,88.66 300.55,122.48 374.73,156.30 448.91,190.12 523.09,223.94 597.27,257.76 671.45,291.58 745.64,325.39 819.82,359.21 894.00,393.03" fill="none" stroke="#1d4ed8" stroke-width="2.2"/>
<polyline points="78.00,80.97 152.18,80.97 226.36,80.97 300.55,99.03 374.73,132.85 448.91,166.67 523.09,200.49 597.27,234.31 671.45,268.13 745.64,301.95 819.82,335.77 894.00,369.59" fill="none" stroke="#dc2626" stroke-width="2.2"/>
<rect x="724.00" y="66.00" width="160" height="70.00" rx="8" fill="#f9fafb" stroke="#d1d5db"/>
<text x="734.00" y="82.00" font-size="12" font-weight="700" fill="#111827">Legend</text>
<line x1="734.00" y1="98.00" x2="760.00" y2="98.00" stroke="#1d4ed8" stroke-width="3"/>
<text x="768.00" y="102.00" font-size="12" fill="#111827">v_diff = LSB/2</text>
<line x1="734.00" y1="120.00" x2="760.00" y2="120.00" stroke="#dc2626" stroke-width="3"/>
<text x="768.00" y="124.00" font-size="12" fill="#111827">v_diff = LSB/8</text>
</svg>
