<svg xmlns="http://www.w3.org/2000/svg" width="920" height="480" viewBox="0 0 920 480">
<rect width="100%" height="100%" fill="#ffffff"/>
<line x1="78.00" y1="418.00" x2="894.00" y2="418.00" stroke="#e5e7eb" stroke-width="1"/>
<text x="70.00" y="422.00" text-anchor="end" font-size="12" fill="#374151">-6.086e1</text>
<line x1="78.00" y1="357.67" x2="894.00" y2="357.67" stroke="#e5e7eb" stroke-width="1"/>
<text x="70.00" y="361.67" text-anchor="end" font-size="12" fill="#374151">-3.534e1</text>
<line x1="78.00" y1="297.33" x2="894.00" y2="297.33" stroke="#e5e7eb" stroke-width="1"/>
<text x="70.00" y="301.33" text-anchor="end" font-size="12" fill="#374151">-9.822e0</text>
<line x1="78.00" y1="237.00" x2="894.00" y2="237.00" stroke="#e5e7eb" stroke-width="1"/>
<text x="70.00" y="241.00" text-anchor="end" font-size="12" fill="#374151">1.570e1</text>
<line x1="78.00" y1="176.67" x2="894.00" y2="176.67" stroke="#e5e7eb" stroke-width="1"/>
<text x="70.00" y="180.67" text-anchor="end" font-size="12" fill="#374151">4.122e1</text>
<line x1="78.00" y1="116.33" x2="894.00" y2="116.33" stroke="#e5e7eb" stroke-width="1"/>
<text x="70.00" y="120.33" text-anchor="end" font-size="12" fill="#374151">6.673e1</text>
<line x1="78.00" y1="56.00" x2="894.00" y2="56.00" stroke="#e5e7eb" stroke-width="1"/>
<text x="70.00" y="60.00" text-anchor="end" font-size="12" fill="#374151">9.225e1</text>
<line x1="78.00" y1="56.00" x2="78.00" y2="418.00" stroke="#e5e7eb" stroke-width="1"/>
<text x="78.00" y="438.00" text-anchor="middle" font-size="12" fill="#374151">0</text>
<line x1="214.00" y1="56.00" x2="214.00" y2="418.00" stroke="#e5e7eb" stroke-width="1"/>
<text x="214.00" y="438.00" text-anchor="middle" font-size="12" fill="#374151">6</text>
<line x1="350.00" y1="56.00" x2="350.00" y2="418.00" stroke="#e5e7eb" stroke-width="1"/>
<text x="350.00" y="438.00" text-anchor="middle" font-size="12" fill="#374151">13</text>
<line x1="486.00" y1="56.00" x2="486.00" y2="418.00" stroke="#e5e7eb" stroke-width="1"/>
<text x="486.00" y="438.00" text-anchor="middle" font-size="12" fill="#374151">20</text>
<line x1="622.00" y1="56.00" x2="622.00" y2="418.00" stroke="#e5e7eb" stroke-width="1"/>
<text x="622.00" y="438.00" text-anchor="middle" font-size="12" fill="#374151">26</text>
<line x1="758.00" y1="56.00" x2="758.00" y2="418.00" stroke="#e5e7eb" stroke-width="1"/>
<text x="758.00" y="438.00" text-anchor="middle" font-size="12" fill="#374151">32</text>
<line x1="894.00" y1="56.00" x2="894.00" y2="418.00" stroke="#e5e7eb" stroke-width="1"/>
<text x="894.00" y="438.00" text-anchor="middle" font-size="12" fill="#374151">39</text>
<line x1="78.00" y1="418.00" x2="894.00" y2="418.00" stroke="#111827" stroke-width="1.5"/>
<line x1="78.00" y1="56.00" x2="78.00" y2="418.00" stroke="#111827" stroke-width="1.5"/>
<text x="460.00" y="24" text-anchor="middle" font-size="18" font-weight="700" fill="#111827">AD gradient ∂loss/∂Vth</text>
<text x="486.00" y="464.00" text-anchor="middle" font-size="13" fill="#111827">iter</text>
<text x="22" y="237.00" transform="rotate(-90 22 237.00)" text-anchor="middle" font-size="13" fill="#111827">gradient</text>
<polyline points="78.00,270.20 98.92,270.17 119.85,270.14 140.77,270.11 161.69,270.06 182.62,270.01 203.54,269.96 224.46,269.90 245.38,269.83 266.31,269.75 287.23,269.67 308.15,269.57 329.08,269.45 350.00,269.30 370.92,269.12 391.85,268.91 412.77,268.62 433.69,268.28 454.62,267.76 475.54,266.96 496.46,265.89 517.38,80.97 538.31,138.17 559.23,207.95 580.15,281.94 601.08,387.04 622.00,391.76 642.92,393.03 663.85,391.38 684.77,387.60 705.69,382.39 726.62,262.41 747.54,218.71 768.46,187.13 789.38,171.19 810.31,171.16 831.23,184.86 852.15,208.80 873.08,238.94 894.00,270.93" fill="none" stroke="#7c3aed" stroke-width="2.2"/>
</svg>
