<svg xmlns="http://www.w3.org/2000/svg" width="920" height="480" viewBox="0 0 920 480">
<rect width="100%" height="100%" fill="#ffffff"/>
<line x1="78.00" y1="418.00" x2="894.00" y2="418.00" stroke="#e5e7eb" stroke-width="1"/>
<text x="70.00" y="422.00" text-anchor="end" font-size="12" fill="#374151">-1.506e-1</text>
<line x1="78.00" y1="357.67" x2="894.00" y2="357.67" stroke="#e5e7eb" stroke-width="1"/>
<text x="70.00" y="361.67" text-anchor="end" font-size="12" fill="#374151">-1.623e-2</text>
<line x1="78.00" y1="297.33" x2="894.00" y2="297.33" stroke="#e5e7eb" stroke-width="1"/>
<text x="70.00" y="301.33" text-anchor="end" font-size="12" fill="#374151">1.181e-1</text>
<line x1="78.00" y1="237.00" x2="894.00" y2="237.00" stroke="#e5e7eb" stroke-width="1"/>
<text x="70.00" y="241.00" text-anchor="end" font-size="12" fill="#374151">2.525e-1</text>
<line x1="78.00" y1="176.67" x2="894.00" y2="176.67" stroke="#e5e7eb" stroke-width="1"/>
<text x="70.00" y="180.67" text-anchor="end" font-size="12" fill="#374151">3.869e-1</text>
<line x1="78.00" y1="116.33" x2="894.00" y2="116.33" stroke="#e5e7eb" stroke-width="1"/>
<text x="70.00" y="120.33" text-anchor="end" font-size="12" fill="#374151">5.212e-1</text>
<line x1="78.00" y1="56.00" x2="894.00" y2="56.00" stroke="#e5e7eb" stroke-width="1"/>
<text x="70.00" y="60.00" text-anchor="end" font-size="12" fill="#374151">6.556e-1</text>
<line x1="78.00" y1="56.00" x2="78.00" y2="418.00" stroke="#e5e7eb" stroke-width="1"/>
<text x="78.00" y="438.00" text-anchor="middle" font-size="12" fill="#374151">0</text>
<line x1="214.00" y1="56.00" x2="214.00" y2="418.00" stroke="#e5e7eb" stroke-width="1"/>
<text x="214.00" y="438.00" text-anchor="middle" font-size="12" fill="#374151">33</text>
<line x1="350.00" y1="56.00" x2="350.00" y2="418.00" stroke="#e5e7eb" stroke-width="1"/>
<text x="350.00" y="438.00" text-anchor="middle" font-size="12" fill="#374151">67</text>
<line x1="486.00" y1="56.00" x2="486.00" y2="418.00" stroke="#e5e7eb" stroke-width="1"/>
<text x="486.00" y="438.00" text-anchor="middle" font-size="12" fill="#374151">100</text>
<line x1="622.00" y1="56.00" x2="622.00" y2="418.00" stroke="#e5e7eb" stroke-width="1"/>
<text x="622.00" y="438.00" text-anchor="middle" font-size="12" fill="#374151">133</text>
<line x1="758.00" y1="56.00" x2="758.00" y2="418.00" stroke="#e5e7eb" stroke-width="1"/>
<text x="758.00" y="438.00" text-anchor="middle" font-size="12" fill="#374151">167</text>
<line x1="894.00" y1="56.00" x2="894.00" y2="418.00" stroke="#e5e7eb" stroke-width="1"/>
<text x="894.00" y="438.00" text-anchor="middle" font-size="12" fill="#374151">200</text>
<line x1="78.00" y1="418.00" x2="894.00" y2="418.00" stroke="#111827" stroke-width="1.5"/>
<line x1="78.00" y1="56.00" x2="78.00" y2="418.00" stroke="#111827" stroke-width="1.5"/>
<text x="460.00" y="24" text-anchor="middle" font-size="18" font-weight="700" fill="#111827">V_m and signed error</text>
<text x="486.00" y="464.00" text-anchor="middle" font-size="13" fill="#111827">step</text>
<text x="22" y="237.00" transform="rotate(-90 22 237.00)" text-anchor="middle" font-size="13" fill="#111827">voltage (V)</text>
<polyline points="78.00,114.64 82.08,94.44 86.16,80.97 90.24,80.97 94.32,80.97 98.40,80.97 102.48,80.97 106.56,80.97 110.64,80.97 114.72,80.97 118.80,80.97 122.88,80.97 126.96,80.97 131.04,80.97 135.12,80.97 139.20,80.97 143.28,80.97 147.36,80.97 151.44,80.97 155.52,80.97 159.60,80.97 163.68,80.97 167.76,80.97 171.84,80.97 175.92,80.97 180.00,80.97 184.08,80.97 188.16,80.97 192.24,80.97 196.32,80.97 200.40,80.97 204.48,80.97 208.56,80.97 212.64,80.97 216.72,80.97 220.80,80.97 224.88,80.97 228.96,80.97 233.04,80.97 237.12,80.97 241.20,80.97 245.28,80.97 249.36,80.97 253.44,80.97 257.52,80.97 261.60,80.97 265.68,80.97 269.76,80.97 273.84,80.97 277.92,80.97 282.00,80.97 286.08,80.97 290.16,80.97 294.24,80.97 298.32,80.97 302.40,80.97 306.48,80.97 310.56,80.97 314.64,80.97 318.72,80.97 322.80,80.97 326.88,80.97 330.96,80.97 335.04,80.97 339.12,80.97 343.20,80.97 347.28,80.97 351.36,80.97 355.44,80.97 359.52,80.97 363.60,80.97 367.68,80.97 371.76,80.97 375.84,80.97 379.92,80.97 384.00,80.97 388.08,80.97 392.16,80.97 396.24,80.97 400.32,80.97 404.40,80.97 408.48,80.97 412.56,80.97 416.64,80.97 420.72,80.97 424.80,80.97 428.88,80.97 432.96,80.97 437.04,80.97 441.12,80.97 445.20,80.97 449.28,80.97 453.36,80.97 457.44,80.97 461.52,80.97 465.60,80.97 469.68,80.97 473.76,80.97 477.84,80.97 481.92,80.97 486.00,80.97 490.08,80.97 494.16,80.97 498.24,80.97 502.32,80.97 506.40,80.97 510.48,80.97 514.56,80.97 518.64,80.97 522.72,80.97 526.80,80.97 530.88,80.97 534.96,80.97 539.04,80.97 543.12,80.97 547.20,80.97 551.28,80.97 555.36,80.97 559.44,80.97 563.52,80.97 567.60,80.97 571.68,80.97 575.76,80.97 579.84,80.97 583.92,80.97 588.00,80.97 592.08,80.97 596.16,80.97 600.24,80.97 604.32,80.97 608.40,80.97 612.48,80.97 616.56,80.97 620.64,80.97 624.72,80.97 628.80,80.97 632.88,80.97 636.96,80.97 641.04,80.97 645.12,80.97 649.20,80.97 653.28,80.97 657.36,80.97 661.44,80.97 665.52,80.97 669.60,80.97 673.68,80.97 677.76,80.97 681.84,80.97 685.92,80.97 690.00,80.97 694.08,80.97 698.16,80.97 702.24,80.97 706.32,80.97 710.40,80.97 714.48,80.97 718.56,80.97 722.64,80.97 726.72,80.97 730.80,80.97 734.88,80.97 738.96,80.97 743.04,80.97 747.12,80.97 751.20,80.97 755.28,80.97 759.36,80.97 763.44,80.97 767.52,80.97 771.60,80.97 775.68,80.97 779.76,80.97 783.84,80.97 787.92,80.97 792.00,80.97 796.08,80.97 800.16,80.97 804.24,80.97 808.32,80.97 812.40,80.97 816.48,80.97 820.56,80.97 824.64,80.97 828.72,80.97 832.80,80.97 836.88,80.97 840.96,80.97 845.04,80.97 849.12,80.97 853.20,80.97 857.28,80.97 861.36,80.97 865.44,80.97 869.52,80.97 873.60,80.97 877.68,80.97 881.76,80.97 885.84,80.97 889.92,80.97 894.00,80.97" fill="none" stroke="#1d4ed8" stroke-width="2.2"/>
<polyline points="78.00,393.03 82.08,372.83 86.16,359.36 90.24,359.36 94.32,359.36 98.40,359.36 102.48,359.36 106.56,359.36 110.64,359.36 114.72,359.36 118.80,359.36 122.88,359.36 126.96,359.36 131.04,359.36 135.12,359.36 139.20,359.36 143.28,359.36 147.36,359.36 151.44,359.36 155.52,359.36 159.60,359.36 163.68,359.36 167.76,359.36 171.84,359.36 175.92,359.36 180.00,359.36 184.08,359.36 188.16,359.36 192.24,359.36 196.32,359.36 200.40,359.36 204.48,359.36 208.56,359.36 212.64,359.36 216.72,359.36 220.80,359.36 224.88,359.36 228.96,359.36 233.04,359.36 237.12,359.36 241.20,359.36 245.28,359.36 249.36,359.36 253.44,359.36 257.52,359.36 261.60,359.36 265.68,359.36 269.76,359.36 273.84,359.36 277.92,359.36 282.00,359.36 286.08,359.36 290.16,359.36 294.24,359.36 298.32,359.36 302.40,359.36 306.48,359.36 310.56,359.36 314.64,359.36 318.72,359.36 322.80,359.36 326.88,359.36 330.96,359.36 335.04,359.36 339.12,359.36 343.20,359.36 347.28,359.36 351.36,359.36 355.44,359.36 359.52,359.36 363.60,359.36 367.68,359.36 371.76,359.36 375.84,359.36 379.92,359.36 384.00,359.36 388.08,359.36 392.16,359.36 396.24,359.36 400.32,359.36 404.40,359.36 408.48,359.36 412.56,359.36 416.64,359.36 420.72,359.36 424.80,359.36 428.88,359.36 432.96,359.36 437.04,359.36 441.12,359.36 445.20,359.36 449.28,359.36 453.36,359.36 457.44,359.36 461.52,359.36 465.60,359.36 469.68,359.36 473.76,359.36 477.84,359.36 481.92,359.36 486.00,359.36 490.08,359.36 494.16,359.36 498.24,359.36 502.32,359.36 506.40,359.36 510.48,359.36 514.56,359.36 518.64,359.36 522.72,359.36 526.80,359.36 530.88,359.36 534.96,359.36 539.04,359.36 543.12,359.36 547.20,359.36 551.28,359.36 555.36,359.36 559.44,359.36 563.52,359.36 567.60,359.36 571.68,359.36 575.76,359.36 579.84,359.36 583.92,359.36 588.00,359.36 592.08,359.36 596.16,359.36 600.24,359.36 604.32,359.36 608.40,359.36 612.48,359.36 616.56,359.36 620.64,359.36 624.72,359.36 628.80,359.36 632.88,359.36 636.96,359.36 641.04,359.36 645.12,359.36 649.20,359.36 653.28,359.36 657.36,359.36 661.44,359.36 665.52,359.36 669.60,359.36 673.68,359.36 677.76,359.36 681.84,359.36 685.92,359.36 690.00,359.36 694.08,359.36 698.16,359.36 702.24,359.36 706.32,359.36 710.40,359.36 714.48,359.36 718.56,359.36 722.64,359.36 726.72,359.36 730.80,359.36 734.88,359.36 738.96,359.36 743.04,359.36 747.12,359.36 751.20,359.36 755.28,359.36 759.36,359.36 763.44,359.36 767.52,359.36 771.60,359.36 775.68,359.36 779.76,359.36 783.84,359.36 787.92,359.36 792.00,359.36 796.08,359.36 800.16,359.36 804.24,359.36 808.32,359.36 812.40,359.36 816.48,359.36 820.56,359.36 824.64,359.36 828.72,359.36 832.80,359.36 836.88,359.36 840.96,359.36 845.04,359.36 849.12,359.36 853.20,359.36 857.28,359.36 861.36,359.36 865.44,359.36 869.52,359.36 873.60,359.36 877.68,359.36 881.76,359.36 885.84,359.36 889.92,359.36 894.00,359.36" fill="none" stroke="#dc2626" stroke-width="2.2"/>
<rect x="724.00" y="66.00" width="160" height="70.00" rx="8" fill="#f9fafb" stroke="#d1d5db"/>
<text x="734.00" y="82.00" font-size="12" font-weight="700" fill="#111827">Legend</text>
<line x1="734.00" y1="98.00" x2="760.00" y2="98.00" stroke="#1d4ed8" stroke-width="3"/>
<text x="768.00" y="102.00" font-size="12" fill="#111827">V_m</text>
<line x1="734.00" y1="120.00" x2="760.00" y2="120.00" stroke="#dc2626" stroke-width="3"/>
<text x="768.00" y="124.00" font-size="12" fill="#111827">V_m - V_m*</text>
</svg>
