<?xml version="1.0" encoding="UTF-8"?><svg xmlns="http://www.w3.org/2000/svg" viewBox="-70.000 -210.000 770.000 420.000" width="770" height="420"><rect x="-70.000" y="-210.000" width="770.000" height="420.000" fill="white" stroke="none"/><g fill="none" stroke="#222" stroke-width="1.680" stroke-linecap="round" stroke-linejoin="round"><polyline points="0.000,-0.000 14.000,-0.000" /><polyline points="70.000,-0.000 84.000,-0.000" /><polyline points="84.000,-0.000 98.000,-0.000" /><polyline points="154.000,-0.000 168.000,-0.000" /><polyline points="168.000,-0.000 182.000,-0.000" /><polyline points="238.000,-0.000 252.000,-0.000" /><polyline points="252.000,-0.000 266.000,-0.000" /><polyline points="322.000,-0.000 336.000,-0.000" /><polyline points="336.000,-0.000 350.000,-0.000" /><polyline points="406.000,-0.000 420.000,-0.000" /><polyline points="420.000,-0.000 434.000,-0.000" /><polyline points="490.000,-0.000 504.000,-0.000" /><polyline points="504.000,-0.000 518.000,-0.000" /><polyline points="574.000,-0.000 588.000,-0.000" /><polyline points="0.000,-56.000 0.000,-0.000" /><polyline points="0.000,-112.000 0.000,-133.000" /><polyline points="84.000,-56.000 84.000,-0.000" /><polyline points="84.000,-112.000 84.000,-133.000" /><polyline points="168.000,-56.000 168.000,-0.000" /><polyline points="168.000,-112.000 168.000,-133.000" /><polyline points="252.000,-56.000 252.000,-0.000" /><polyline points="252.000,-112.000 252.000,-133.000" /><polyline points="336.000,-56.000 336.000,-0.000" /><polyline points="336.000,-112.000 336.000,-133.000" /><polyline points="420.000,-56.000 420.000,-0.000" /><polyline points="420.000,-112.000 420.000,-133.000" /><polyline points="504.000,-56.000 504.000,-0.000" /><polyline points="504.000,-112.000 504.000,-133.000" /><polyline points="588.000,-56.000 588.000,-0.000" /><polyline points="588.000,-112.000 588.000,-133.000" /><polyline points="0.000,-0.000 0.000,56.000" /><polyline points="0.000,112.000 0.000,133.000" /><polyline points="588.000,-0.000 623.000,-0.000" /><line x1="14.000" y1="-0.000" x2="28.000" y2="-0.000" /><line x1="70.000" y1="-0.000" x2="56.000" y2="-0.000" /><polyline points="28.000,-0.000 30.800,-5.600 36.400,5.600 42.000,-5.600 47.600,5.600 53.200,-5.600 56.000,-0.000" /><line x1="98.000" y1="-0.000" x2="112.000" y2="-0.000" /><line x1="154.000" y1="-0.000" x2="140.000" y2="-0.000" /><polyline points="112.000,-0.000 114.800,-5.600 120.400,5.600 126.000,-5.600 131.600,5.600 137.200,-5.600 140.000,-0.000" /><line x1="182.000" y1="-0.000" x2="196.000" y2="-0.000" /><line x1="238.000" y1="-0.000" x2="224.000" y2="-0.000" /><polyline points="196.000,-0.000 198.800,-5.600 204.400,5.600 210.000,-5.600 215.600,5.600 221.200,-5.600 224.000,-0.000" /><line x1="266.000" y1="-0.000" x2="280.000" y2="-0.000" /><line x1="322.000" y1="-0.000" x2="308.000" y2="-0.000" /><polyline points="280.000,-0.000 282.800,-5.600 288.400,5.600 294.000,-5.600 299.600,5.600 305.200,-5.600 308.000,-0.000" /><line x1="350.000" y1="-0.000" x2="364.000" y2="-0.000" /><line x1="406.000" y1="-0.000" x2="392.000" y2="-0.000" /><polyline points="364.000,-0.000 366.800,-5.600 372.400,5.600 378.000,-5.600 383.600,5.600 389.200,-5.600 392.000,-0.000" /><line x1="434.000" y1="-0.000" x2="448.000" y2="-0.000" /><line x1="490.000" y1="-0.000" x2="476.000" y2="-0.000" /><polyline points="448.000,-0.000 450.800,-5.600 456.400,5.600 462.000,-5.600 467.600,5.600 473.200,-5.600 476.000,-0.000" /><line x1="518.000" y1="-0.000" x2="532.000" y2="-0.000" /><line x1="574.000" y1="-0.000" x2="560.000" y2="-0.000" /><polyline points="532.000,-0.000 534.800,-5.600 540.400,5.600 546.000,-5.600 551.600,5.600 557.200,-5.600 560.000,-0.000" /><line x1="0.000" y1="-112.000" x2="0.000" y2="-98.000" /><line x1="0.000" y1="-56.000" x2="0.000" y2="-70.000" /><polyline points="0.000,-98.000 5.600,-95.200 -5.600,-89.600 5.600,-84.000 -5.600,-78.400 5.600,-72.800 0.000,-70.000" /><line x1="84.000" y1="-112.000" x2="84.000" y2="-98.000" /><line x1="84.000" y1="-56.000" x2="84.000" y2="-70.000" /><polyline points="84.000,-98.000 89.600,-95.200 78.400,-89.600 89.600,-84.000 78.400,-78.400 89.600,-72.800 84.000,-70.000" /><line x1="168.000" y1="-112.000" x2="168.000" y2="-98.000" /><line x1="168.000" y1="-56.000" x2="168.000" y2="-70.000" /><polyline points="168.000,-98.000 173.600,-95.200 162.400,-89.600 173.600,-84.000 162.400,-78.400 173.600,-72.800 168.000,-70.000" /><line x1="252.000" y1="-112.000" x2="252.000" y2="-98.000" /><line x1="252.000" y1="-56.000" x2="252.000" y2="-70.000" /><polyline points="252.000,-98.000 257.600,-95.200 246.400,-89.600 257.600,-84.000 246.400,-78.400 257.600,-72.800 252.000,-70.000" /><line x1="336.000" y1="-112.000" x2="336.000" y2="-98.000" /><line x1="336.000" y1="-56.000" x2="336.000" y2="-70.000" /><polyline points="336.000,-98.000 341.600,-95.200 330.400,-89.600 341.600,-84.000 330.400,-78.400 341.600,-72.800 336.000,-70.000" /><line x1="420.000" y1="-112.000" x2="420.000" y2="-98.000" /><line x1="420.000" y1="-56.000" x2="420.000" y2="-70.000" /><polyline points="420.000,-98.000 425.600,-95.200 414.400,-89.600 425.600,-84.000 414.400,-78.400 425.600,-72.800 420.000,-70.000" /><line x1="504.000" y1="-112.000" x2="504.000" y2="-98.000" /><line x1="504.000" y1="-56.000" x2="504.000" y2="-70.000" /><polyline points="504.000,-98.000 509.600,-95.200 498.400,-89.600 509.600,-84.000 498.400,-78.400 509.600,-72.800 504.000,-70.000" /><line x1="588.000" y1="-112.000" x2="588.000" y2="-98.000" /><line x1="588.000" y1="-56.000" x2="588.000" y2="-70.000" /><polyline points="588.000,-98.000 593.600,-95.200 582.400,-89.600 593.600,-84.000 582.400,-78.400 593.600,-72.800 588.000,-70.000" /><line x1="0.000" y1="56.000" x2="0.000" y2="70.000" /><line x1="0.000" y1="112.000" x2="0.000" y2="98.000" /><polyline points="0.000,70.000 5.600,72.800 -5.600,78.400 5.600,84.000 -5.600,89.600 5.600,95.200 0.000,98.000" /></g><g fill="#222" stroke="none"><circle cx="0.000" cy="-0.000" r="3.360" /><circle cx="84.000" cy="-0.000" r="3.360" /><circle cx="168.000" cy="-0.000" r="3.360" /><circle cx="252.000" cy="-0.000" r="3.360" /><circle cx="336.000" cy="-0.000" r="3.360" /><circle cx="420.000" cy="-0.000" r="3.360" /><circle cx="504.000" cy="-0.000" r="3.360" /><circle cx="588.000" cy="-0.000" r="3.360" /></g><g font-family="sans-serif" font-size="11.90" fill="#000"><text x="42.000" y="-19.600" font-family="sans-serif" font-size="11.90" fill="#000" text-anchor="middle">R_sp0</text><text x="42.000" y="22.400" font-family="sans-serif" font-size="11.90" fill="#000" text-anchor="middle">10.25 kΩ</text><text x="126.000" y="-19.600" font-family="sans-serif" font-size="11.90" fill="#000" text-anchor="middle">R_sp1</text><text x="126.000" y="22.400" font-family="sans-serif" font-size="11.90" fill="#000" text-anchor="middle">9.75 kΩ</text><text x="210.000" y="-19.600" font-family="sans-serif" font-size="11.90" fill="#000" text-anchor="middle">R_sp2</text><text x="210.000" y="22.400" font-family="sans-serif" font-size="11.90" fill="#000" text-anchor="middle">9.50 kΩ</text><text x="294.000" y="-19.600" font-family="sans-serif" font-size="11.90" fill="#000" text-anchor="middle">R_sp3</text><text x="294.000" y="22.400" font-family="sans-serif" font-size="11.90" fill="#000" text-anchor="middle">10.00 kΩ</text><text x="378.000" y="-19.600" font-family="sans-serif" font-size="11.90" fill="#000" text-anchor="middle">R_sp4</text><text x="378.000" y="22.400" font-family="sans-serif" font-size="11.90" fill="#000" text-anchor="middle">10.50 kΩ</text><text x="462.000" y="-19.600" font-family="sans-serif" font-size="11.90" fill="#000" text-anchor="middle">R_sp5</text><text x="462.000" y="22.400" font-family="sans-serif" font-size="11.90" fill="#000" text-anchor="middle">10.00 kΩ</text><text x="546.000" y="-19.600" font-family="sans-serif" font-size="11.90" fill="#000" text-anchor="middle">R_sp6</text><text x="546.000" y="22.400" font-family="sans-serif" font-size="11.90" fill="#000" text-anchor="middle">10.50 kΩ</text><text x="21.000" y="-93.800" font-family="sans-serif" font-size="11.90" fill="#000" text-anchor="start">R_in0</text><text x="21.000" y="-74.200" font-family="sans-serif" font-size="11.90" fill="#000" text-anchor="start">20.50 kΩ</text><text x="105.000" y="-93.800" font-family="sans-serif" font-size="11.90" fill="#000" text-anchor="start">R_in1</text><text x="105.000" y="-74.200" font-family="sans-serif" font-size="11.90" fill="#000" text-anchor="start">21.00 kΩ</text><text x="189.000" y="-93.800" font-family="sans-serif" font-size="11.90" fill="#000" text-anchor="start">R_in2</text><text x="189.000" y="-74.200" font-family="sans-serif" font-size="11.90" fill="#000" text-anchor="start">20.50 kΩ</text><text x="273.000" y="-93.800" font-family="sans-serif" font-size="11.90" fill="#000" text-anchor="start">R_in3</text><text x="273.000" y="-74.200" font-family="sans-serif" font-size="11.90" fill="#000" text-anchor="start">19.00 kΩ</text><text x="357.000" y="-93.800" font-family="sans-serif" font-size="11.90" fill="#000" text-anchor="start">R_in4</text><text x="357.000" y="-74.200" font-family="sans-serif" font-size="11.90" fill="#000" text-anchor="start">20.50 kΩ</text><text x="441.000" y="-93.800" font-family="sans-serif" font-size="11.90" fill="#000" text-anchor="start">R_in5</text><text x="441.000" y="-74.200" font-family="sans-serif" font-size="11.90" fill="#000" text-anchor="start">19.50 kΩ</text><text x="525.000" y="-93.800" font-family="sans-serif" font-size="11.90" fill="#000" text-anchor="start">R_in6</text><text x="525.000" y="-74.200" font-family="sans-serif" font-size="11.90" fill="#000" text-anchor="start">20.00 kΩ</text><text x="609.000" y="-93.800" font-family="sans-serif" font-size="11.90" fill="#000" text-anchor="start">R_in7</text><text x="609.000" y="-74.200" font-family="sans-serif" font-size="11.90" fill="#000" text-anchor="start">20.50 kΩ</text><text x="21.000" y="74.200" font-family="sans-serif" font-size="11.90" fill="#000" text-anchor="start">R_term</text><text x="21.000" y="93.800" font-family="sans-serif" font-size="11.90" fill="#000" text-anchor="start">20.50 kΩ</text><text x="4.200" y="-144.200" >in_0</text><text x="88.200" y="-144.200" >in_1</text><text x="172.200" y="-144.200" >in_2</text><text x="256.200" y="-144.200" >in_3</text><text x="340.200" y="-144.200" >in_4</text><text x="424.200" y="-144.200" >in_5</text><text x="508.200" y="-144.200" >in_6</text><text x="592.200" y="-144.200" >in_7</text><text x="4.200" y="135.800" >vlow</text><text x="634.200" y="-4.200" >vout</text></g><text x="315.000" y="-182.000" font-family="sans-serif" font-size="17.85" font-weight="bold" fill="#000" text-anchor="middle">eda R-2R best-so-far at iter 0 (score -0.00359)</text></svg>