<?xml version="1.0" encoding="UTF-8"?><svg xmlns="http://www.w3.org/2000/svg" viewBox="-66.000 -617.400 781.000 764.800" width="781" height="765"><rect x="-66.000" y="-617.400" width="781.000" height="764.800" fill="white" stroke="none"/><g fill="#e74c3c" fill-opacity="0.450" stroke="#e74c3c" stroke-width="0.500"><rect x="33.000" y="-231.000" width="22.000" height="154.000" /><rect x="33.000" y="-242.000" width="44.000" height="11.000" /><rect x="66.000" y="-275.000" width="11.000" height="33.000" /><rect x="33.000" y="-275.000" width="44.000" height="11.000" /><rect x="253.000" y="-231.000" width="22.000" height="154.000" /><rect x="253.000" y="-242.000" width="44.000" height="11.000" /><rect x="286.000" y="-275.000" width="11.000" height="33.000" /><rect x="253.000" y="-275.000" width="44.000" height="11.000" /><rect x="473.000" y="-231.000" width="22.000" height="154.000" /><rect x="473.000" y="-242.000" width="44.000" height="11.000" /><rect x="506.000" y="-275.000" width="11.000" height="33.000" /><rect x="473.000" y="-275.000" width="44.000" height="11.000" /><rect x="33.000" y="-77.000" width="22.000" height="110.000" /><rect x="33.000" y="-429.000" width="22.000" height="154.000" /><rect x="253.000" y="-77.000" width="22.000" height="110.000" /><rect x="253.000" y="-429.000" width="22.000" height="154.000" /><rect x="473.000" y="-77.000" width="22.000" height="110.000" /><rect x="473.000" y="-429.000" width="22.000" height="154.000" /></g><g fill="#27ae60" fill-opacity="0.450" stroke="#27ae60" stroke-width="0.500"><rect x="-44.000" y="-499.400" width="737.000" height="30.800" /><rect x="-44.000" y="94.600" width="737.000" height="30.800" /><rect x="9.900" y="-484.000" width="13.200" height="132.000" /><rect x="9.900" y="-22.000" width="13.200" height="132.000" /><rect x="37.400" y="55.000" width="13.200" height="55.000" /><rect x="37.400" y="-378.400" width="13.200" height="108.900" /><rect x="44.000" y="-385.000" width="55.000" height="13.200" /><rect x="92.400" y="-484.000" width="13.200" height="105.600" /><rect x="36.300" y="-161.700" width="15.400" height="15.400" /><rect x="64.900" y="-352.000" width="13.200" height="330.000" /><rect x="229.900" y="-484.000" width="13.200" height="132.000" /><rect x="229.900" y="-22.000" width="13.200" height="132.000" /><rect x="257.400" y="55.000" width="13.200" height="55.000" /><rect x="257.400" y="-378.400" width="13.200" height="108.900" /><rect x="264.000" y="-385.000" width="55.000" height="13.200" /><rect x="312.400" y="-484.000" width="13.200" height="105.600" /><rect x="256.300" y="-161.700" width="15.400" height="15.400" /><rect x="284.900" y="-352.000" width="13.200" height="330.000" /><rect x="449.900" y="-484.000" width="13.200" height="132.000" /><rect x="449.900" y="-22.000" width="13.200" height="132.000" /><rect x="477.400" y="55.000" width="13.200" height="55.000" /><rect x="477.400" y="-378.400" width="13.200" height="108.900" /><rect x="484.000" y="-385.000" width="55.000" height="13.200" /><rect x="532.400" y="-484.000" width="13.200" height="105.600" /><rect x="476.300" y="-161.700" width="15.400" height="15.400" /><rect x="504.900" y="-352.000" width="13.200" height="330.000" /><rect x="71.500" y="-160.600" width="192.500" height="13.200" /><rect x="291.500" y="-160.600" width="192.500" height="13.200" /><rect x="-44.000" y="-160.600" width="88.000" height="13.200" /><rect x="511.500" y="-160.600" width="181.500" height="13.200" /><rect x="0.000" y="-38.500" width="33.000" height="33.000" /><rect x="55.000" y="-38.500" width="33.000" height="33.000" /><rect x="27.500" y="-77.000" width="33.000" height="33.000" /><rect x="27.500" y="38.500" width="33.000" height="33.000" /><rect x="0.000" y="-368.500" width="33.000" height="33.000" /><rect x="55.000" y="-368.500" width="33.000" height="33.000" /><rect x="27.500" y="-429.000" width="33.000" height="33.000" /><rect x="27.500" y="-269.500" width="33.000" height="33.000" /><rect x="220.000" y="-38.500" width="33.000" height="33.000" /><rect x="275.000" y="-38.500" width="33.000" height="33.000" /><rect x="247.500" y="-77.000" width="33.000" height="33.000" /><rect x="247.500" y="38.500" width="33.000" height="33.000" /><rect x="220.000" y="-368.500" width="33.000" height="33.000" /><rect x="275.000" y="-368.500" width="33.000" height="33.000" /><rect x="247.500" y="-429.000" width="33.000" height="33.000" /><rect x="247.500" y="-269.500" width="33.000" height="33.000" /><rect x="440.000" y="-38.500" width="33.000" height="33.000" /><rect x="495.000" y="-38.500" width="33.000" height="33.000" /><rect x="467.500" y="-77.000" width="33.000" height="33.000" /><rect x="467.500" y="38.500" width="33.000" height="33.000" /><rect x="440.000" y="-368.500" width="33.000" height="33.000" /><rect x="495.000" y="-368.500" width="33.000" height="33.000" /><rect x="467.500" y="-429.000" width="33.000" height="33.000" /><rect x="467.500" y="-269.500" width="33.000" height="33.000" /></g><g fill="#f39c12" fill-opacity="0.450" stroke="#f39c12" stroke-width="0.500"><rect x="38.500" y="-159.500" width="11.000" height="11.000" /><rect x="258.500" y="-159.500" width="11.000" height="11.000" /><rect x="478.500" y="-159.500" width="11.000" height="11.000" /><rect x="11.000" y="-27.500" width="11.000" height="11.000" /><rect x="66.000" y="-27.500" width="11.000" height="11.000" /><rect x="38.500" y="-66.000" width="11.000" height="11.000" /><rect x="38.500" y="49.500" width="11.000" height="11.000" /><rect x="11.000" y="-357.500" width="11.000" height="11.000" /><rect x="66.000" y="-357.500" width="11.000" height="11.000" /><rect x="38.500" y="-418.000" width="11.000" height="11.000" /><rect x="38.500" y="-258.500" width="11.000" height="11.000" /><rect x="231.000" y="-27.500" width="11.000" height="11.000" /><rect x="286.000" y="-27.500" width="11.000" height="11.000" /><rect x="258.500" y="-66.000" width="11.000" height="11.000" /><rect x="258.500" y="49.500" width="11.000" height="11.000" /><rect x="231.000" y="-357.500" width="11.000" height="11.000" /><rect x="286.000" y="-357.500" width="11.000" height="11.000" /><rect x="258.500" y="-418.000" width="11.000" height="11.000" /><rect x="258.500" y="-258.500" width="11.000" height="11.000" /><rect x="451.000" y="-27.500" width="11.000" height="11.000" /><rect x="506.000" y="-27.500" width="11.000" height="11.000" /><rect x="478.500" y="-66.000" width="11.000" height="11.000" /><rect x="478.500" y="49.500" width="11.000" height="11.000" /><rect x="451.000" y="-357.500" width="11.000" height="11.000" /><rect x="506.000" y="-357.500" width="11.000" height="11.000" /><rect x="478.500" y="-418.000" width="11.000" height="11.000" /><rect x="478.500" y="-258.500" width="11.000" height="11.000" /></g><g fill="#c0392b" fill-opacity="0.450" stroke="#c0392b" stroke-width="0.500"><rect x="0.000" y="-44.000" width="88.000" height="44.000" /><rect x="0.000" y="-396.000" width="88.000" height="88.000" /><rect x="220.000" y="-44.000" width="88.000" height="44.000" /><rect x="220.000" y="-396.000" width="88.000" height="88.000" /><rect x="440.000" y="-44.000" width="88.000" height="44.000" /><rect x="440.000" y="-396.000" width="88.000" height="88.000" /></g><g fill="#9b59b6" fill-opacity="0.450" stroke="#9b59b6" stroke-width="0.500"><rect x="-44.000" y="-440.000" width="176.000" height="176.000" /><rect x="176.000" y="-440.000" width="176.000" height="176.000" /><rect x="396.000" y="-440.000" width="176.000" height="176.000" /></g><g fill="#27ae60" fill-opacity="0.450" stroke="#27ae60" stroke-width="0.500"><rect x="-11.000" y="-55.000" width="110.000" height="66.000" /><rect x="209.000" y="-55.000" width="110.000" height="66.000" /><rect x="429.000" y="-55.000" width="110.000" height="66.000" /></g><g fill="#e67e22" fill-opacity="0.450" stroke="#e67e22" stroke-width="0.500"><rect x="-11.000" y="-407.000" width="110.000" height="110.000" /><rect x="209.000" y="-407.000" width="110.000" height="110.000" /><rect x="429.000" y="-407.000" width="110.000" height="110.000" /></g><g fill="black" stroke="none"><circle cx="71.500" cy="-22.000" r="1.000" /><circle cx="44.000" cy="-60.500" r="1.000" /><circle cx="16.500" cy="-22.000" r="1.000" /><circle cx="44.000" cy="55.000" r="1.000" /><circle cx="71.500" cy="-352.000" r="1.000" /><circle cx="44.000" cy="-412.500" r="1.000" /><circle cx="16.500" cy="-352.000" r="1.000" /><circle cx="44.000" cy="-253.000" r="1.000" /><circle cx="291.500" cy="-22.000" r="1.000" /><circle cx="264.000" cy="-60.500" r="1.000" /><circle cx="236.500" cy="-22.000" r="1.000" /><circle cx="264.000" cy="55.000" r="1.000" /><circle cx="291.500" cy="-352.000" r="1.000" /><circle cx="264.000" cy="-412.500" r="1.000" /><circle cx="236.500" cy="-352.000" r="1.000" /><circle cx="264.000" cy="-253.000" r="1.000" /><circle cx="511.500" cy="-22.000" r="1.000" /><circle cx="484.000" cy="-60.500" r="1.000" /><circle cx="456.500" cy="-22.000" r="1.000" /><circle cx="484.000" cy="55.000" r="1.000" /><circle cx="511.500" cy="-352.000" r="1.000" /><circle cx="484.000" cy="-412.500" r="1.000" /><circle cx="456.500" cy="-352.000" r="1.000" /><circle cx="484.000" cy="-253.000" r="1.000" /></g><rect x="-62.000" y="-613.400" width="130.000" height="92.000" fill="white" stroke="#333" stroke-width="0.5"/><rect x="-58.000" y="-609.400" width="14.000" height="10.000" fill="#e74c3c" stroke="#e74c3c" stroke-width="0.5"/><text x="-40.000" y="-601.400" font-size="9" font-family="sans-serif" fill="#222">RES (66/20)</text><rect x="-58.000" y="-597.400" width="14.000" height="10.000" fill="#27ae60" stroke="#27ae60" stroke-width="0.5"/><text x="-40.000" y="-589.400" font-size="9" font-family="sans-serif" fill="#222">METAL1 (68/20)</text><rect x="-58.000" y="-585.400" width="14.000" height="10.000" fill="#f39c12" stroke="#f39c12" stroke-width="0.5"/><text x="-40.000" y="-577.400" font-size="9" font-family="sans-serif" fill="#222">VIA1 (66/44)</text><rect x="-58.000" y="-573.400" width="14.000" height="10.000" fill="#c0392b" stroke="#c0392b" stroke-width="0.5"/><text x="-40.000" y="-565.400" font-size="9" font-family="sans-serif" fill="#222">DIFF (65/20)</text><rect x="-58.000" y="-561.400" width="14.000" height="10.000" fill="#9b59b6" stroke="#9b59b6" stroke-width="0.5"/><text x="-40.000" y="-553.400" font-size="9" font-family="sans-serif" fill="#222">NWELL (64/20)</text><rect x="-58.000" y="-549.400" width="14.000" height="10.000" fill="#27ae60" stroke="#27ae60" stroke-width="0.5"/><text x="-40.000" y="-541.400" font-size="9" font-family="sans-serif" fill="#222">NPLUS (93/44)</text><rect x="-58.000" y="-537.400" width="14.000" height="10.000" fill="#e67e22" stroke="#e67e22" stroke-width="0.5"/><text x="-40.000" y="-529.400" font-size="9" font-family="sans-serif" fill="#222">PPLUS (94/20)</text></svg>