<svg xmlns="http://www.w3.org/2000/svg" width="920" height="480" viewBox="0 0 920 480">
<rect width="100%" height="100%" fill="#ffffff"/>
<line x1="78.00" y1="418.00" x2="894.00" y2="418.00" stroke="#e5e7eb" stroke-width="1"/>
<text x="70.00" y="422.00" text-anchor="end" font-size="12" fill="#374151">-6.359e-2</text>
<line x1="78.00" y1="357.67" x2="894.00" y2="357.67" stroke="#e5e7eb" stroke-width="1"/>
<text x="70.00" y="361.67" text-anchor="end" font-size="12" fill="#374151">9.395e-2</text>
<line x1="78.00" y1="297.33" x2="894.00" y2="297.33" stroke="#e5e7eb" stroke-width="1"/>
<text x="70.00" y="301.33" text-anchor="end" font-size="12" fill="#374151">2.515e-1</text>
<line x1="78.00" y1="237.00" x2="894.00" y2="237.00" stroke="#e5e7eb" stroke-width="1"/>
<text x="70.00" y="241.00" text-anchor="end" font-size="12" fill="#374151">4.090e-1</text>
<line x1="78.00" y1="176.67" x2="894.00" y2="176.67" stroke="#e5e7eb" stroke-width="1"/>
<text x="70.00" y="180.67" text-anchor="end" font-size="12" fill="#374151">5.666e-1</text>
<line x1="78.00" y1="116.33" x2="894.00" y2="116.33" stroke="#e5e7eb" stroke-width="1"/>
<text x="70.00" y="120.33" text-anchor="end" font-size="12" fill="#374151">7.241e-1</text>
<line x1="78.00" y1="56.00" x2="894.00" y2="56.00" stroke="#e5e7eb" stroke-width="1"/>
<text x="70.00" y="60.00" text-anchor="end" font-size="12" fill="#374151">8.816e-1</text>
<line x1="78.00" y1="56.00" x2="78.00" y2="418.00" stroke="#e5e7eb" stroke-width="1"/>
<text x="78.00" y="438.00" text-anchor="middle" font-size="12" fill="#374151">0</text>
<line x1="214.00" y1="56.00" x2="214.00" y2="418.00" stroke="#e5e7eb" stroke-width="1"/>
<text x="214.00" y="438.00" text-anchor="middle" font-size="12" fill="#374151">10</text>
<line x1="350.00" y1="56.00" x2="350.00" y2="418.00" stroke="#e5e7eb" stroke-width="1"/>
<text x="350.00" y="438.00" text-anchor="middle" font-size="12" fill="#374151">20</text>
<line x1="486.00" y1="56.00" x2="486.00" y2="418.00" stroke="#e5e7eb" stroke-width="1"/>
<text x="486.00" y="438.00" text-anchor="middle" font-size="12" fill="#374151">30</text>
<line x1="622.00" y1="56.00" x2="622.00" y2="418.00" stroke="#e5e7eb" stroke-width="1"/>
<text x="622.00" y="438.00" text-anchor="middle" font-size="12" fill="#374151">40</text>
<line x1="758.00" y1="56.00" x2="758.00" y2="418.00" stroke="#e5e7eb" stroke-width="1"/>
<text x="758.00" y="438.00" text-anchor="middle" font-size="12" fill="#374151">50</text>
<line x1="894.00" y1="56.00" x2="894.00" y2="418.00" stroke="#e5e7eb" stroke-width="1"/>
<text x="894.00" y="438.00" text-anchor="middle" font-size="12" fill="#374151">60</text>
<line x1="78.00" y1="418.00" x2="894.00" y2="418.00" stroke="#111827" stroke-width="1.5"/>
<line x1="78.00" y1="56.00" x2="78.00" y2="418.00" stroke="#111827" stroke-width="1.5"/>
<text x="460.00" y="24" text-anchor="middle" font-size="18" font-weight="700" fill="#111827">Inverter-chain delay loss</text>
<text x="486.00" y="464.00" text-anchor="middle" font-size="13" fill="#111827">step</text>
<text x="22" y="237.00" transform="rotate(-90 22 237.00)" text-anchor="middle" font-size="13" fill="#111827">loss</text>
<polyline points="78.00,80.97 91.60,115.26 105.20,152.28 118.80,189.96 132.40,227.84 146.00,263.60 159.60,295.57 173.20,321.69 186.80,341.66 200.40,356.40 214.00,366.89 227.60,374.24 241.20,379.38 254.80,383.00 268.40,385.55 282.00,387.39 295.60,388.72 309.20,389.69 322.80,390.42 336.40,390.97 350.00,391.40 363.60,391.73 377.20,391.99 390.80,392.20 404.40,392.38 418.00,392.52 431.60,392.63 445.20,392.73 458.80,392.81 472.40,392.87 486.00,392.91 499.60,392.92 513.20,392.93 526.80,392.95 540.40,392.96 554.00,392.97 567.60,392.97 581.20,392.98 594.80,392.99 608.40,392.99 622.00,393.00 635.60,393.01 649.20,393.01 662.80,393.02 676.40,393.02 690.00,393.02 703.60,393.03 717.20,393.03 730.80,393.03 744.40,393.03 758.00,393.03 771.60,393.03 785.20,393.03 798.80,393.03 812.40,393.03 826.00,393.03 839.60,393.03 853.20,393.03 866.80,393.03 880.40,393.03 894.00,393.03" fill="none" stroke="#2563eb" stroke-width="2.2"/>
<rect x="724.00" y="66.00" width="160" height="48.00" rx="8" fill="#f9fafb" stroke="#d1d5db"/>
<text x="734.00" y="82.00" font-size="12" font-weight="700" fill="#111827">Legend</text>
<line x1="734.00" y1="98.00" x2="760.00" y2="98.00" stroke="#2563eb" stroke-width="3"/>
<text x="768.00" y="102.00" font-size="12" fill="#111827">loss</text>
</svg>
