<svg xmlns="http://www.w3.org/2000/svg" width="920" height="480" viewBox="0 0 920 480">
<rect width="100%" height="100%" fill="#ffffff"/>
<line x1="78.00" y1="418.00" x2="894.00" y2="418.00" stroke="#e5e7eb" stroke-width="1"/>
<text x="70.00" y="422.00" text-anchor="end" font-size="12" fill="#374151">8.417e-3</text>
<line x1="78.00" y1="357.67" x2="894.00" y2="357.67" stroke="#e5e7eb" stroke-width="1"/>
<text x="70.00" y="361.67" text-anchor="end" font-size="12" fill="#374151">1.089e-1</text>
<line x1="78.00" y1="297.33" x2="894.00" y2="297.33" stroke="#e5e7eb" stroke-width="1"/>
<text x="70.00" y="301.33" text-anchor="end" font-size="12" fill="#374151">2.094e-1</text>
<line x1="78.00" y1="237.00" x2="894.00" y2="237.00" stroke="#e5e7eb" stroke-width="1"/>
<text x="70.00" y="241.00" text-anchor="end" font-size="12" fill="#374151">3.099e-1</text>
<line x1="78.00" y1="176.67" x2="894.00" y2="176.67" stroke="#e5e7eb" stroke-width="1"/>
<text x="70.00" y="180.67" text-anchor="end" font-size="12" fill="#374151">4.104e-1</text>
<line x1="78.00" y1="116.33" x2="894.00" y2="116.33" stroke="#e5e7eb" stroke-width="1"/>
<text x="70.00" y="120.33" text-anchor="end" font-size="12" fill="#374151">5.109e-1</text>
<line x1="78.00" y1="56.00" x2="894.00" y2="56.00" stroke="#e5e7eb" stroke-width="1"/>
<text x="70.00" y="60.00" text-anchor="end" font-size="12" fill="#374151">6.114e-1</text>
<line x1="78.00" y1="56.00" x2="78.00" y2="418.00" stroke="#e5e7eb" stroke-width="1"/>
<text x="78.00" y="438.00" text-anchor="middle" font-size="12" fill="#374151">0</text>
<line x1="214.00" y1="56.00" x2="214.00" y2="418.00" stroke="#e5e7eb" stroke-width="1"/>
<text x="214.00" y="438.00" text-anchor="middle" font-size="12" fill="#374151">10</text>
<line x1="350.00" y1="56.00" x2="350.00" y2="418.00" stroke="#e5e7eb" stroke-width="1"/>
<text x="350.00" y="438.00" text-anchor="middle" font-size="12" fill="#374151">20</text>
<line x1="486.00" y1="56.00" x2="486.00" y2="418.00" stroke="#e5e7eb" stroke-width="1"/>
<text x="486.00" y="438.00" text-anchor="middle" font-size="12" fill="#374151">30</text>
<line x1="622.00" y1="56.00" x2="622.00" y2="418.00" stroke="#e5e7eb" stroke-width="1"/>
<text x="622.00" y="438.00" text-anchor="middle" font-size="12" fill="#374151">40</text>
<line x1="758.00" y1="56.00" x2="758.00" y2="418.00" stroke="#e5e7eb" stroke-width="1"/>
<text x="758.00" y="438.00" text-anchor="middle" font-size="12" fill="#374151">50</text>
<line x1="894.00" y1="56.00" x2="894.00" y2="418.00" stroke="#e5e7eb" stroke-width="1"/>
<text x="894.00" y="438.00" text-anchor="middle" font-size="12" fill="#374151">60</text>
<line x1="78.00" y1="418.00" x2="894.00" y2="418.00" stroke="#111827" stroke-width="1.5"/>
<line x1="78.00" y1="56.00" x2="78.00" y2="418.00" stroke="#111827" stroke-width="1.5"/>
<text x="460.00" y="24" text-anchor="middle" font-size="18" font-weight="700" fill="#111827">Per-stage NMOS Vth_n</text>
<text x="486.00" y="464.00" text-anchor="middle" font-size="13" fill="#111827">step</text>
<text x="22" y="237.00" transform="rotate(-90 22 237.00)" text-anchor="middle" font-size="13" fill="#111827">Vth (V)</text>
<polyline points="78.00,152.88 91.60,164.89 105.20,176.91 118.80,188.95 132.40,200.99 146.00,213.00 159.60,224.93 173.20,236.68 186.80,248.12 200.40,259.11 214.00,269.57 227.60,279.44 241.20,288.68 254.80,297.28 268.40,305.26 282.00,312.65 295.60,319.48 309.20,325.77 322.80,331.56 336.40,336.89 350.00,341.80 363.60,346.31 377.20,350.46 390.80,354.27 404.40,357.77 418.00,360.99 431.60,363.95 445.20,366.67 458.80,369.17 472.40,371.46 486.00,373.57 499.60,375.51 513.20,377.30 526.80,378.94 540.40,380.45 554.00,381.84 567.60,383.13 581.20,384.32 594.80,385.41 608.40,386.43 622.00,387.37 635.60,388.24 649.20,389.05 662.80,389.81 676.40,390.51 690.00,391.16 703.60,391.77 717.20,392.35 730.80,392.88 744.40,393.03 758.00,393.03 771.60,393.03 785.20,393.03 798.80,393.03 812.40,393.03 826.00,393.03 839.60,393.03 853.20,393.03 866.80,393.03 880.40,393.03 894.00,393.03" fill="none" stroke="#0f766e" stroke-width="2.2"/>
<polyline points="78.00,152.88 91.60,140.87 105.20,132.83 118.80,126.61 132.40,121.52 146.00,117.21 159.60,113.50 173.20,110.26 186.80,107.40 200.40,104.87 214.00,102.60 227.60,100.58 241.20,98.75 254.80,97.11 268.40,95.62 282.00,94.28 295.60,93.06 309.20,91.96 322.80,90.95 336.40,90.04 350.00,89.21 363.60,88.46 377.20,87.77 390.80,87.14 404.40,86.57 418.00,86.05 431.60,85.58 445.20,85.15 458.80,84.76 472.40,84.40 486.00,84.08 499.60,83.78 513.20,83.51 526.80,83.26 540.40,83.04 554.00,82.83 567.60,82.65 581.20,82.48 594.80,82.32 608.40,82.18 622.00,82.06 635.60,81.94 649.20,81.83 662.80,81.74 676.40,81.65 690.00,81.57 703.60,81.50 717.20,81.43 730.80,81.37 744.40,81.32 758.00,81.27 771.60,81.22 785.20,81.18 798.80,81.15 812.40,81.11 826.00,81.08 839.60,81.05 853.20,81.03 866.80,81.01 880.40,80.98 894.00,80.97" fill="none" stroke="#b45309" stroke-width="2.2"/>
<polyline points="78.00,152.88 91.60,164.89 105.20,176.89 118.80,188.90 132.40,200.96 146.00,213.08 159.60,225.25 173.20,237.41 186.80,249.46 200.40,261.26 214.00,272.67 227.60,283.60 241.20,293.97 254.80,303.74 268.40,312.89 282.00,321.44 295.60,329.40 309.20,336.78 322.80,343.62 336.40,349.96 350.00,355.82 363.60,361.23 377.20,366.23 390.80,370.85 404.40,375.11 418.00,379.04 431.60,382.66 445.20,386.01 458.80,389.10 472.40,391.95 486.00,393.03 499.60,393.03 513.20,393.03 526.80,393.03 540.40,393.03 554.00,393.03 567.60,393.03 581.20,393.03 594.80,393.03 608.40,393.03 622.00,393.03 635.60,393.03 649.20,393.03 662.80,393.03 676.40,393.03 690.00,393.03 703.60,393.03 717.20,393.03 730.80,393.03 744.40,393.03 758.00,393.03 771.60,393.03 785.20,393.03 798.80,393.03 812.40,393.03 826.00,393.03 839.60,393.03 853.20,393.03 866.80,393.03 880.40,393.03 894.00,393.03" fill="none" stroke="#7c3aed" stroke-width="2.2"/>
<rect x="724.00" y="66.00" width="160" height="92.00" rx="8" fill="#f9fafb" stroke="#d1d5db"/>
<text x="734.00" y="82.00" font-size="12" font-weight="700" fill="#111827">Legend</text>
<line x1="734.00" y1="98.00" x2="760.00" y2="98.00" stroke="#0f766e" stroke-width="3"/>
<text x="768.00" y="102.00" font-size="12" fill="#111827">Vth_n1</text>
<line x1="734.00" y1="120.00" x2="760.00" y2="120.00" stroke="#b45309" stroke-width="3"/>
<text x="768.00" y="124.00" font-size="12" fill="#111827">Vth_n2</text>
<line x1="734.00" y1="142.00" x2="760.00" y2="142.00" stroke="#7c3aed" stroke-width="3"/>
<text x="768.00" y="146.00" font-size="12" fill="#111827">Vth_n3</text>
</svg>
