<svg xmlns="http://www.w3.org/2000/svg" width="1180" height="420" viewBox="0 0 1180 420">
<rect width="100%" height="100%" fill="#ffffff"/>
<text x="590" y="24" text-anchor="middle" font-size="18" font-weight="700" fill="#111827">3-stage CMOS inverter chain — schematic</text>
<line x1="40" y1="60" x2="1140.0" y2="60" stroke="#dc2626" stroke-width="2.2"/>
<text x="50" y="52" font-size="13" fill="#dc2626" font-weight="700">Vdd = 1 V</text>
<line x1="40" y1="360" x2="1140.0" y2="360" stroke="#1f2937" stroke-width="2.2"/>
<text x="50" y="378" font-size="13" fill="#1f2937" font-weight="700">GND</text>
<line x1="100.0" y1="140.0" x2="232.0" y2="140.0" stroke="#374151" stroke-width="1.6"/>
<text x="166.0" y="132.0" text-anchor="middle" font-size="13" fill="#1f2937" font-weight="700">vin</text>
<line x1="232.0" y1="140.0" x2="232.0" y2="280.0" stroke="#374151" stroke-width="1.6"/>
<line x1="260.0" y1="120.0" x2="260.0" y2="60.0" stroke="#374151" stroke-width="1.6"/>
<line x1="260.0" y1="160.0" x2="260.0" y2="174.0" stroke="#374151" stroke-width="1.6"/>
<line x1="260.0" y1="120.0" x2="260.0" y2="160.0" stroke="#374151" stroke-width="3" stroke-dasharray="4,3"/>
<line x1="252.0" y1="120.0" x2="268.0" y2="120.0" stroke="#374151" stroke-width="2"/>
<line x1="252.0" y1="160.0" x2="268.0" y2="160.0" stroke="#374151" stroke-width="2"/>
<line x1="248.0" y1="120.0" x2="248.0" y2="160.0" stroke="#374151" stroke-width="2"/>
<line x1="232.0" y1="140.0" x2="244.0" y2="140.0" stroke="#374151" stroke-width="1.6"/>
<circle cx="244.0" cy="140.0" r="3" fill="#ffffff" stroke="#374151" stroke-width="1.6"/>
<text x="274.0" y="144.0" text-anchor="start" font-size="12" font-weight="700" fill="#7f1d1d">Mp1</text>
<text x="274.0" y="160.0" text-anchor="start" font-size="10" fill="#7f1d1d">PMOS · 4µ/1µ</text>
<line x1="260.0" y1="300.0" x2="260.0" y2="360.0" stroke="#374151" stroke-width="1.6"/>
<line x1="260.0" y1="246.0" x2="260.0" y2="260.0" stroke="#374151" stroke-width="1.6"/>
<line x1="260.0" y1="260.0" x2="260.0" y2="300.0" stroke="#374151" stroke-width="3" stroke-dasharray="4,3"/>
<line x1="252.0" y1="260.0" x2="268.0" y2="260.0" stroke="#374151" stroke-width="2"/>
<line x1="252.0" y1="300.0" x2="268.0" y2="300.0" stroke="#374151" stroke-width="2"/>
<line x1="248.0" y1="260.0" x2="248.0" y2="300.0" stroke="#374151" stroke-width="2"/>
<line x1="232.0" y1="280.0" x2="248.0" y2="280.0" stroke="#374151" stroke-width="1.6"/>
<text x="274.0" y="284.0" text-anchor="start" font-size="12" font-weight="700" fill="#1e3a8a">Mn1</text>
<text x="274.0" y="300.0" text-anchor="start" font-size="10" fill="#1e3a8a">NMOS · 2µ/1µ</text>
<line x1="260.0" y1="174.0" x2="288.0" y2="174.0" stroke="#374151" stroke-width="1.6"/>
<line x1="260.0" y1="246.0" x2="288.0" y2="246.0" stroke="#374151" stroke-width="1.6"/>
<line x1="288.0" y1="174.0" x2="288.0" y2="246.0" stroke="#374151" stroke-width="1.6"/>
<line x1="288.0" y1="210.0" x2="420.0" y2="210.0" stroke="#374151" stroke-width="1.6"/>
<line x1="420.0" y1="210.0" x2="420.0" y2="140.0" stroke="#374151" stroke-width="1.6"/>
<circle cx="288.0" cy="210.0" r="3" fill="#374151"/>
<line x1="288.0" y1="210.0" x2="348.0" y2="210.0" stroke="#374151" stroke-width="1.6"/>
<line x1="348.0" y1="210.0" x2="348.0" y2="232.0" stroke="#374151" stroke-width="1.6"/>
<line x1="334.0" y1="232.0" x2="362.0" y2="232.0" stroke="#374151" stroke-width="2.4"/>
<line x1="334.0" y1="240.0" x2="362.0" y2="240.0" stroke="#374151" stroke-width="2.4"/>
<line x1="348.0" y1="240.0" x2="348.0" y2="360.0" stroke="#374151" stroke-width="1.6"/>
<text x="370.0" y="238.0" text-anchor="start" font-size="11" fill="#1f2937">200 fF</text>
<text x="260.0" y="396.0" text-anchor="middle" font-size="12" font-weight="700" fill="#1e3a8a">Vth_n1: 0.450 V → 0.050 V</text>
<line x1="420.0" y1="140.0" x2="552.0" y2="140.0" stroke="#374151" stroke-width="1.6"/>
<text x="486.0" y="132.0" text-anchor="middle" font-size="13" fill="#1f2937" font-weight="700">n1</text>
<line x1="552.0" y1="140.0" x2="552.0" y2="280.0" stroke="#374151" stroke-width="1.6"/>
<line x1="580.0" y1="120.0" x2="580.0" y2="60.0" stroke="#374151" stroke-width="1.6"/>
<line x1="580.0" y1="160.0" x2="580.0" y2="174.0" stroke="#374151" stroke-width="1.6"/>
<line x1="580.0" y1="120.0" x2="580.0" y2="160.0" stroke="#374151" stroke-width="3" stroke-dasharray="4,3"/>
<line x1="572.0" y1="120.0" x2="588.0" y2="120.0" stroke="#374151" stroke-width="2"/>
<line x1="572.0" y1="160.0" x2="588.0" y2="160.0" stroke="#374151" stroke-width="2"/>
<line x1="568.0" y1="120.0" x2="568.0" y2="160.0" stroke="#374151" stroke-width="2"/>
<line x1="552.0" y1="140.0" x2="564.0" y2="140.0" stroke="#374151" stroke-width="1.6"/>
<circle cx="564.0" cy="140.0" r="3" fill="#ffffff" stroke="#374151" stroke-width="1.6"/>
<text x="594.0" y="144.0" text-anchor="start" font-size="12" font-weight="700" fill="#7f1d1d">Mp2</text>
<text x="594.0" y="160.0" text-anchor="start" font-size="10" fill="#7f1d1d">PMOS · 4µ/1µ</text>
<line x1="580.0" y1="300.0" x2="580.0" y2="360.0" stroke="#374151" stroke-width="1.6"/>
<line x1="580.0" y1="246.0" x2="580.0" y2="260.0" stroke="#374151" stroke-width="1.6"/>
<line x1="580.0" y1="260.0" x2="580.0" y2="300.0" stroke="#374151" stroke-width="3" stroke-dasharray="4,3"/>
<line x1="572.0" y1="260.0" x2="588.0" y2="260.0" stroke="#374151" stroke-width="2"/>
<line x1="572.0" y1="300.0" x2="588.0" y2="300.0" stroke="#374151" stroke-width="2"/>
<line x1="568.0" y1="260.0" x2="568.0" y2="300.0" stroke="#374151" stroke-width="2"/>
<line x1="552.0" y1="280.0" x2="568.0" y2="280.0" stroke="#374151" stroke-width="1.6"/>
<text x="594.0" y="284.0" text-anchor="start" font-size="12" font-weight="700" fill="#1e3a8a">Mn2</text>
<text x="594.0" y="300.0" text-anchor="start" font-size="10" fill="#1e3a8a">NMOS · 2µ/1µ</text>
<line x1="580.0" y1="174.0" x2="608.0" y2="174.0" stroke="#374151" stroke-width="1.6"/>
<line x1="580.0" y1="246.0" x2="608.0" y2="246.0" stroke="#374151" stroke-width="1.6"/>
<line x1="608.0" y1="174.0" x2="608.0" y2="246.0" stroke="#374151" stroke-width="1.6"/>
<line x1="608.0" y1="210.0" x2="740.0" y2="210.0" stroke="#374151" stroke-width="1.6"/>
<line x1="740.0" y1="210.0" x2="740.0" y2="140.0" stroke="#374151" stroke-width="1.6"/>
<circle cx="608.0" cy="210.0" r="3" fill="#374151"/>
<line x1="608.0" y1="210.0" x2="668.0" y2="210.0" stroke="#374151" stroke-width="1.6"/>
<line x1="668.0" y1="210.0" x2="668.0" y2="232.0" stroke="#374151" stroke-width="1.6"/>
<line x1="654.0" y1="232.0" x2="682.0" y2="232.0" stroke="#374151" stroke-width="2.4"/>
<line x1="654.0" y1="240.0" x2="682.0" y2="240.0" stroke="#374151" stroke-width="2.4"/>
<line x1="668.0" y1="240.0" x2="668.0" y2="360.0" stroke="#374151" stroke-width="1.6"/>
<text x="690.0" y="238.0" text-anchor="start" font-size="11" fill="#1f2937">200 fF</text>
<text x="580.0" y="396.0" text-anchor="middle" font-size="12" font-weight="700" fill="#1e3a8a">Vth_n2: 0.450 V → 0.570 V</text>
<line x1="740.0" y1="140.0" x2="872.0" y2="140.0" stroke="#374151" stroke-width="1.6"/>
<text x="806.0" y="132.0" text-anchor="middle" font-size="13" fill="#1f2937" font-weight="700">n2</text>
<line x1="872.0" y1="140.0" x2="872.0" y2="280.0" stroke="#374151" stroke-width="1.6"/>
<line x1="900.0" y1="120.0" x2="900.0" y2="60.0" stroke="#374151" stroke-width="1.6"/>
<line x1="900.0" y1="160.0" x2="900.0" y2="174.0" stroke="#374151" stroke-width="1.6"/>
<line x1="900.0" y1="120.0" x2="900.0" y2="160.0" stroke="#374151" stroke-width="3" stroke-dasharray="4,3"/>
<line x1="892.0" y1="120.0" x2="908.0" y2="120.0" stroke="#374151" stroke-width="2"/>
<line x1="892.0" y1="160.0" x2="908.0" y2="160.0" stroke="#374151" stroke-width="2"/>
<line x1="888.0" y1="120.0" x2="888.0" y2="160.0" stroke="#374151" stroke-width="2"/>
<line x1="872.0" y1="140.0" x2="884.0" y2="140.0" stroke="#374151" stroke-width="1.6"/>
<circle cx="884.0" cy="140.0" r="3" fill="#ffffff" stroke="#374151" stroke-width="1.6"/>
<text x="914.0" y="144.0" text-anchor="start" font-size="12" font-weight="700" fill="#7f1d1d">Mp3</text>
<text x="914.0" y="160.0" text-anchor="start" font-size="10" fill="#7f1d1d">PMOS · 4µ/1µ</text>
<line x1="900.0" y1="300.0" x2="900.0" y2="360.0" stroke="#374151" stroke-width="1.6"/>
<line x1="900.0" y1="246.0" x2="900.0" y2="260.0" stroke="#374151" stroke-width="1.6"/>
<line x1="900.0" y1="260.0" x2="900.0" y2="300.0" stroke="#374151" stroke-width="3" stroke-dasharray="4,3"/>
<line x1="892.0" y1="260.0" x2="908.0" y2="260.0" stroke="#374151" stroke-width="2"/>
<line x1="892.0" y1="300.0" x2="908.0" y2="300.0" stroke="#374151" stroke-width="2"/>
<line x1="888.0" y1="260.0" x2="888.0" y2="300.0" stroke="#374151" stroke-width="2"/>
<line x1="872.0" y1="280.0" x2="888.0" y2="280.0" stroke="#374151" stroke-width="1.6"/>
<text x="914.0" y="284.0" text-anchor="start" font-size="12" font-weight="700" fill="#1e3a8a">Mn3</text>
<text x="914.0" y="300.0" text-anchor="start" font-size="10" fill="#1e3a8a">NMOS · 2µ/1µ</text>
<line x1="900.0" y1="174.0" x2="928.0" y2="174.0" stroke="#374151" stroke-width="1.6"/>
<line x1="900.0" y1="246.0" x2="928.0" y2="246.0" stroke="#374151" stroke-width="1.6"/>
<line x1="928.0" y1="174.0" x2="928.0" y2="246.0" stroke="#374151" stroke-width="1.6"/>
<line x1="928.0" y1="210.0" x2="1060.0" y2="210.0" stroke="#374151" stroke-width="1.6"/>
<line x1="1060.0" y1="210.0" x2="1060.0" y2="140.0" stroke="#374151" stroke-width="1.6"/>
<circle cx="928.0" cy="210.0" r="3" fill="#374151"/>
<line x1="928.0" y1="210.0" x2="988.0" y2="210.0" stroke="#374151" stroke-width="1.6"/>
<line x1="988.0" y1="210.0" x2="988.0" y2="232.0" stroke="#374151" stroke-width="1.6"/>
<line x1="974.0" y1="232.0" x2="1002.0" y2="232.0" stroke="#374151" stroke-width="2.4"/>
<line x1="974.0" y1="240.0" x2="1002.0" y2="240.0" stroke="#374151" stroke-width="2.4"/>
<line x1="988.0" y1="240.0" x2="988.0" y2="360.0" stroke="#374151" stroke-width="1.6"/>
<text x="1010.0" y="238.0" text-anchor="start" font-size="11" fill="#1f2937">200 fF</text>
<text x="900.0" y="396.0" text-anchor="middle" font-size="12" font-weight="700" fill="#1e3a8a">Vth_n3: 0.450 V → 0.050 V</text>
<text x="1100.0" y="214.0" text-anchor="start" font-size="13" fill="#1f2937" font-weight="700">vout</text>
</svg>
