<svg xmlns="http://www.w3.org/2000/svg" width="920" height="480" viewBox="0 0 920 480">
<rect width="100%" height="100%" fill="#ffffff"/>
<line x1="78.00" y1="418.00" x2="894.00" y2="418.00" stroke="#e5e7eb" stroke-width="1"/>
<text x="70.00" y="422.00" text-anchor="end" font-size="12" fill="#374151">-5.187e-1</text>
<line x1="78.00" y1="357.67" x2="894.00" y2="357.67" stroke="#e5e7eb" stroke-width="1"/>
<text x="70.00" y="361.67" text-anchor="end" font-size="12" fill="#374151">7.344e-1</text>
<line x1="78.00" y1="297.33" x2="894.00" y2="297.33" stroke="#e5e7eb" stroke-width="1"/>
<text x="70.00" y="301.33" text-anchor="end" font-size="12" fill="#374151">1.988e0</text>
<line x1="78.00" y1="237.00" x2="894.00" y2="237.00" stroke="#e5e7eb" stroke-width="1"/>
<text x="70.00" y="241.00" text-anchor="end" font-size="12" fill="#374151">3.241e0</text>
<line x1="78.00" y1="176.67" x2="894.00" y2="176.67" stroke="#e5e7eb" stroke-width="1"/>
<text x="70.00" y="180.67" text-anchor="end" font-size="12" fill="#374151">4.494e0</text>
<line x1="78.00" y1="116.33" x2="894.00" y2="116.33" stroke="#e5e7eb" stroke-width="1"/>
<text x="70.00" y="120.33" text-anchor="end" font-size="12" fill="#374151">5.747e0</text>
<line x1="78.00" y1="56.00" x2="894.00" y2="56.00" stroke="#e5e7eb" stroke-width="1"/>
<text x="70.00" y="60.00" text-anchor="end" font-size="12" fill="#374151">7.000e0</text>
<line x1="78.00" y1="56.00" x2="78.00" y2="418.00" stroke="#e5e7eb" stroke-width="1"/>
<text x="78.00" y="438.00" text-anchor="middle" font-size="12" fill="#374151">0</text>
<line x1="214.00" y1="56.00" x2="214.00" y2="418.00" stroke="#e5e7eb" stroke-width="1"/>
<text x="214.00" y="438.00" text-anchor="middle" font-size="12" fill="#374151">10</text>
<line x1="350.00" y1="56.00" x2="350.00" y2="418.00" stroke="#e5e7eb" stroke-width="1"/>
<text x="350.00" y="438.00" text-anchor="middle" font-size="12" fill="#374151">20</text>
<line x1="486.00" y1="56.00" x2="486.00" y2="418.00" stroke="#e5e7eb" stroke-width="1"/>
<text x="486.00" y="438.00" text-anchor="middle" font-size="12" fill="#374151">30</text>
<line x1="622.00" y1="56.00" x2="622.00" y2="418.00" stroke="#e5e7eb" stroke-width="1"/>
<text x="622.00" y="438.00" text-anchor="middle" font-size="12" fill="#374151">40</text>
<line x1="758.00" y1="56.00" x2="758.00" y2="418.00" stroke="#e5e7eb" stroke-width="1"/>
<text x="758.00" y="438.00" text-anchor="middle" font-size="12" fill="#374151">50</text>
<line x1="894.00" y1="56.00" x2="894.00" y2="418.00" stroke="#e5e7eb" stroke-width="1"/>
<text x="894.00" y="438.00" text-anchor="middle" font-size="12" fill="#374151">60</text>
<line x1="78.00" y1="418.00" x2="894.00" y2="418.00" stroke="#111827" stroke-width="1.5"/>
<line x1="78.00" y1="56.00" x2="78.00" y2="418.00" stroke="#111827" stroke-width="1.5"/>
<text x="460.00" y="24" text-anchor="middle" font-size="18" font-weight="700" fill="#111827">Per-parameter gradients</text>
<text x="486.00" y="464.00" text-anchor="middle" font-size="13" fill="#111827">step</text>
<text x="22" y="237.00" transform="rotate(-90 22 237.00)" text-anchor="middle" font-size="13" fill="#111827">gradient</text>
<polyline points="78.00,115.61 91.60,91.67 105.20,80.97 118.80,89.68 132.40,107.18 146.00,132.87 159.60,171.60 173.20,220.55 186.80,262.86 200.40,296.22 214.00,321.01 227.60,341.07 241.20,353.75 254.80,363.84 268.40,370.72 282.00,375.74 295.60,379.64 309.20,382.38 322.80,384.31 336.40,385.78 350.00,386.93 363.60,387.85 377.20,388.55 390.80,389.10 404.40,389.56 418.00,389.95 431.60,390.29 445.20,390.57 458.80,390.79 472.40,390.97 486.00,391.07 499.60,391.12 513.20,391.17 526.80,391.20 540.40,391.24 554.00,391.27 567.60,391.30 581.20,391.32 594.80,391.34 608.40,391.37 622.00,391.38 635.60,391.40 649.20,391.42 662.80,391.43 676.40,391.44 690.00,391.45 703.60,391.46 717.20,391.47 730.80,391.48 744.40,391.49 758.00,391.49 771.60,391.49 785.20,391.49 798.80,391.49 812.40,391.49 826.00,391.49 839.60,391.49 853.20,391.49 866.80,391.49 880.40,391.49 894.00,391.49" fill="none" stroke="#0f766e" stroke-width="2.2"/>
<polyline points="78.00,393.03 91.60,393.03 105.20,393.03 118.80,393.03 132.40,393.03 146.00,393.03 159.60,393.03 173.20,393.03 186.80,393.03 200.40,393.03 214.00,393.03 227.60,393.03 241.20,393.03 254.80,393.03 268.40,393.03 282.00,393.03 295.60,393.03 309.20,393.03 322.80,393.03 336.40,393.03 350.00,393.03 363.60,393.03 377.20,393.03 390.80,393.03 404.40,393.03 418.00,393.03 431.60,393.03 445.20,393.03 458.80,393.03 472.40,393.03 486.00,393.03 499.60,393.03 513.20,393.03 526.80,393.03 540.40,393.03 554.00,393.03 567.60,393.03 581.20,393.03 594.80,393.03 608.40,393.03 622.00,393.03 635.60,393.03 649.20,393.03 662.80,393.03 676.40,393.03 690.00,393.03 703.60,393.03 717.20,393.03 730.80,393.03 744.40,393.03 758.00,393.03 771.60,393.03 785.20,393.03 798.80,393.03 812.40,393.03 826.00,393.03 839.60,393.03 853.20,393.03 866.80,393.03 880.40,393.03 894.00,393.03" fill="none" stroke="#b45309" stroke-width="2.2"/>
<polyline points="78.00,338.15 91.60,323.36 105.20,311.00 118.80,301.85 132.40,296.42 146.00,295.83 159.60,305.23 173.20,319.75 186.80,335.06 200.40,348.45 214.00,358.99 227.60,367.53 241.20,373.55 254.80,378.24 268.40,381.54 282.00,383.97 295.60,385.85 309.20,387.20 322.80,388.21 336.40,389.01 350.00,389.64 363.60,390.13 377.20,390.51 390.80,390.82 404.40,391.07 418.00,391.28 431.60,391.46 445.20,391.60 458.80,391.72 472.40,391.83 486.00,391.88 499.60,391.90 513.20,391.92 526.80,391.93 540.40,391.95 554.00,391.96 567.60,391.97 581.20,391.99 594.80,392.00 608.40,392.01 622.00,392.01 635.60,392.02 649.20,392.03 662.80,392.03 676.40,392.04 690.00,392.05 703.60,392.05 717.20,392.06 730.80,392.06 744.40,392.06 758.00,392.06 771.60,392.06 785.20,392.06 798.80,392.06 812.40,392.06 826.00,392.06 839.60,392.06 853.20,392.06 866.80,392.06 880.40,392.06 894.00,392.06" fill="none" stroke="#7c3aed" stroke-width="2.2"/>
<rect x="724.00" y="66.00" width="160" height="92.00" rx="8" fill="#f9fafb" stroke="#d1d5db"/>
<text x="734.00" y="82.00" font-size="12" font-weight="700" fill="#111827">Legend</text>
<line x1="734.00" y1="98.00" x2="760.00" y2="98.00" stroke="#0f766e" stroke-width="3"/>
<text x="768.00" y="102.00" font-size="12" fill="#111827">g1</text>
<line x1="734.00" y1="120.00" x2="760.00" y2="120.00" stroke="#b45309" stroke-width="3"/>
<text x="768.00" y="124.00" font-size="12" fill="#111827">g2</text>
<line x1="734.00" y1="142.00" x2="760.00" y2="142.00" stroke="#7c3aed" stroke-width="3"/>
<text x="768.00" y="146.00" font-size="12" fill="#111827">g3</text>
</svg>
